G04*
G04 #@! TF.GenerationSoftware,Altium Limited,Altium Designer,18.1.9 (240)*
G04*
G04 Layer_Physical_Order=1*
G04 Layer_Color=255*
%FSLAX25Y25*%
%MOIN*%
G70*
G01*
G75*
%ADD18R,0.03937X0.05512*%
%ADD19R,0.04724X0.04331*%
%ADD20R,0.04331X0.04724*%
%ADD21C,0.01000*%
%ADD22C,0.05906*%
%ADD23R,0.05906X0.05906*%
%ADD24C,0.03500*%
D18*
X189500Y255331D02*
D03*
X193240Y246669D02*
D03*
X185760D02*
D03*
X226500Y262831D02*
D03*
X230240Y254169D02*
D03*
X222760D02*
D03*
X189500Y272831D02*
D03*
X193240Y264169D02*
D03*
X185760D02*
D03*
X226500Y274169D02*
D03*
X222760Y282831D02*
D03*
X230240D02*
D03*
X189500Y290331D02*
D03*
X193240Y281669D02*
D03*
X185760D02*
D03*
D19*
X230240Y290331D02*
D03*
X222760D02*
D03*
X244240Y268500D02*
D03*
X236760D02*
D03*
X222760Y246669D02*
D03*
X230240D02*
D03*
D20*
X238000Y283169D02*
D03*
Y275689D02*
D03*
Y291189D02*
D03*
Y298669D02*
D03*
Y253760D02*
D03*
Y261240D02*
D03*
Y245669D02*
D03*
Y238189D02*
D03*
X178000Y285409D02*
D03*
Y277929D02*
D03*
Y267910D02*
D03*
Y260429D02*
D03*
Y250410D02*
D03*
Y242929D02*
D03*
D21*
X213000Y246500D02*
Y248500D01*
Y246500D02*
X221311Y238189D01*
X238000D01*
X222760Y246669D02*
X222760Y246669D01*
Y241500D02*
Y246669D01*
X226500Y262831D02*
X236409D01*
X238000Y261240D01*
X226500Y274169D02*
X228020Y275689D01*
X238000D01*
X213000Y268500D02*
X236760D01*
X179000Y242500D02*
X189500D01*
X193240Y246240D01*
X178000Y242929D02*
X178929Y242000D01*
X193240Y246240D02*
Y246669D01*
X178000Y260429D02*
X178429Y260000D01*
X189500D01*
X193240Y263740D01*
Y264169D01*
X178000Y277929D02*
X178429Y277500D01*
X189571D01*
X193240Y281169D01*
Y281669D01*
X230240Y254169D02*
Y254760D01*
X226500Y258500D02*
X230240Y254760D01*
X219500Y258500D02*
X226500D01*
X214760Y253760D02*
X219500Y258500D01*
X209910Y253760D02*
X214760D01*
X205169Y258500D02*
X209910Y253760D01*
X203000Y258500D02*
X205169D01*
X210500Y248500D02*
X213000D01*
X205500Y253500D02*
X210500Y248500D01*
X190500Y253500D02*
X205500D01*
X201169Y246669D02*
X203000Y248500D01*
X193240Y246669D02*
X201169D01*
X230240Y254169D02*
X230240Y254169D01*
Y246669D02*
Y254169D01*
X217331Y274169D02*
X226500D01*
X213000Y278500D02*
X217331Y274169D01*
Y262831D02*
X224900D01*
X213000Y258500D02*
X217331Y262831D01*
X198669Y264169D02*
X203000Y268500D01*
X193240Y264169D02*
X198669D01*
X222760Y290331D02*
X222760Y290331D01*
Y282831D02*
Y290331D01*
X222091Y283500D02*
X222760Y282831D01*
X208000Y283500D02*
X222091D01*
X203000Y278500D02*
X208000Y283500D01*
X191263Y273500D02*
X208000D01*
X213000Y268500D01*
X194594Y283594D02*
X199500Y288500D01*
X203000D01*
X221000Y299000D02*
X237500D01*
X213000Y288500D02*
Y291000D01*
X221000Y299000D01*
X190353Y291853D02*
X192000Y293500D01*
X208000D01*
X213000Y288500D01*
X244240Y268500D02*
Y273500D01*
X222760Y295500D02*
X225071D01*
X230240Y290331D01*
X238000Y283169D02*
Y291189D01*
Y245669D02*
Y253760D01*
Y245669D02*
X243500D01*
X238000Y291189D02*
X243000D01*
X230240Y282831D02*
Y290331D01*
X222760Y246669D02*
Y254169D01*
X172500Y285409D02*
X178000D01*
X172500Y250410D02*
X178000D01*
X177909Y268000D02*
X178000Y267910D01*
X172500Y268000D02*
X177909D01*
X230240Y282260D02*
Y282831D01*
X185760Y246669D02*
Y247240D01*
X182591Y250410D02*
X185760Y247240D01*
X178000Y250410D02*
X182591D01*
Y267910D02*
X184500Y266000D01*
X185760Y264169D02*
Y265240D01*
X178000Y267910D02*
X182591D01*
X185760Y281669D02*
Y282240D01*
X182591Y285409D02*
X185760Y282240D01*
X178000Y285409D02*
X182591D01*
D22*
X213000Y238500D02*
D03*
X203000D02*
D03*
X213000Y248500D02*
D03*
X203000D02*
D03*
X213000Y258500D02*
D03*
X203000D02*
D03*
X213000Y268500D02*
D03*
X203000D02*
D03*
X213000Y278500D02*
D03*
X203000D02*
D03*
X213000Y288500D02*
D03*
X203000D02*
D03*
X213000Y298500D02*
D03*
D23*
X203000D02*
D03*
D24*
X222760Y241500D02*
D03*
X244240Y273500D02*
D03*
X222760Y295500D02*
D03*
X243000Y291189D02*
D03*
X243500Y245669D02*
D03*
X172500Y285409D02*
D03*
Y268000D02*
D03*
Y250410D02*
D03*
M02*
