M48
;Layer_Color=9474304
;FILE_FORMAT=2:5
INCH,TZ
;TYPE=PLATED
T1F00S00C0.01500
T2F00S00C0.03543
%
T01
X172500Y250410
X222760Y241500
X243500Y245669
X244240Y273500
X243000Y291189
X222760Y295500
X172500Y285409
Y268000
T02
X203000Y238500
X213000
Y248500
X203000
Y258500
X213000
Y268500
X203000
Y278500
X213000
Y288500
X203000
Y298500
X213000
M30
