G04*
G04 #@! TF.GenerationSoftware,Altium Limited,Altium Designer,18.1.9 (240)*
G04*
G04 Layer_Color=32896*
%FSLAX25Y25*%
%MOIN*%
G70*
G01*
G75*
%ADD12C,0.00800*%
D12*
X174099Y246000D02*
X170500D01*
Y247799D01*
X171100Y248399D01*
X171700D01*
X172299Y247799D01*
Y246000D01*
Y247799D01*
X172899Y248399D01*
X173499D01*
X174099Y247799D01*
Y246000D01*
X170500Y251398D02*
Y250199D01*
X171100Y249599D01*
X172299D01*
X172899Y250199D01*
Y251398D01*
X172299Y251998D01*
X171700D01*
Y249599D01*
X172899Y253198D02*
X170500D01*
X171700D01*
X172299Y253798D01*
X172899Y254397D01*
Y254997D01*
X170500Y256797D02*
X172899D01*
Y258596D01*
X172299Y259196D01*
X170500D01*
Y260395D02*
Y261595D01*
Y260995D01*
X172899D01*
Y260395D01*
X170500Y265194D02*
Y263994D01*
X171100Y263394D01*
X172299D01*
X172899Y263994D01*
Y265194D01*
X172299Y265794D01*
X171700D01*
Y263394D01*
X172899Y266993D02*
X170500D01*
X171700D01*
X172299Y267593D01*
X172899Y268193D01*
Y268793D01*
X174099Y276590D02*
Y274191D01*
X170500D01*
Y276590D01*
X172299Y274191D02*
Y275391D01*
X170500Y277790D02*
Y278989D01*
Y278390D01*
X174099D01*
Y277790D01*
X170500Y280789D02*
X174099D01*
X171700D02*
X172899Y282588D01*
X171700Y280789D02*
X170500Y282588D01*
Y284388D02*
Y285587D01*
Y284987D01*
X172899D01*
Y284388D01*
X170500Y287387D02*
X172899D01*
Y289186D01*
X172299Y289786D01*
X170500D01*
X245499Y253899D02*
X246099Y253299D01*
Y252100D01*
X245499Y251500D01*
X244899D01*
X244299Y252100D01*
Y253299D01*
X243700Y253899D01*
X243100D01*
X242500Y253299D01*
Y252100D01*
X243100Y251500D01*
X246099Y257498D02*
Y255099D01*
X244299D01*
Y256298D01*
Y255099D01*
X242500D01*
X246099Y258698D02*
Y261097D01*
Y259897D01*
X242500D01*
X241900Y262297D02*
Y264696D01*
X242500Y265895D02*
X246099D01*
Y267695D01*
X245499Y268295D01*
X244299D01*
X243700Y267695D01*
Y265895D01*
Y267095D02*
X242500Y268295D01*
X246099Y271893D02*
Y269494D01*
X242500D01*
Y271893D01*
X244299Y269494D02*
Y270694D01*
X246099Y273093D02*
X243700D01*
X242500Y274293D01*
X243700Y275492D01*
X246099D01*
X241900Y276692D02*
Y279091D01*
X242500Y280291D02*
X244899D01*
X246099Y281490D01*
X244899Y282690D01*
X242500D01*
X244299D01*
Y280291D01*
X196000Y290099D02*
Y286500D01*
X193601D01*
X192401Y290099D02*
Y287700D01*
X191201Y286500D01*
X190002Y287700D01*
Y290099D01*
X188802Y286500D02*
X187603D01*
X188203D01*
Y290099D01*
X188802Y289499D01*
X196000Y280099D02*
Y276500D01*
X193601D01*
X192401Y280099D02*
Y277700D01*
X191201Y276500D01*
X190002Y277700D01*
Y280099D01*
X186403Y276500D02*
X188802D01*
X186403Y278899D01*
Y279499D01*
X187003Y280099D01*
X188203D01*
X188802Y279499D01*
X196000Y270099D02*
Y266500D01*
X193601D01*
X192401Y270099D02*
Y267700D01*
X191201Y266500D01*
X190002Y267700D01*
Y270099D01*
X188802Y269499D02*
X188203Y270099D01*
X187003D01*
X186403Y269499D01*
Y268899D01*
X187003Y268299D01*
X187603D01*
X187003D01*
X186403Y267700D01*
Y267100D01*
X187003Y266500D01*
X188203D01*
X188802Y267100D01*
X196000Y261099D02*
Y257500D01*
X193601D01*
X192401Y261099D02*
Y258700D01*
X191201Y257500D01*
X190002Y258700D01*
Y261099D01*
X187003Y257500D02*
Y261099D01*
X188802Y259299D01*
X186403D01*
X196000Y250099D02*
Y246500D01*
X193601D01*
X192401Y250099D02*
Y247700D01*
X191201Y246500D01*
X190002Y247700D01*
Y250099D01*
X186403D02*
X188802D01*
Y248299D01*
X187603Y248899D01*
X187003D01*
X186403Y248299D01*
Y247100D01*
X187003Y246500D01*
X188203D01*
X188802Y247100D01*
X229000Y250099D02*
Y246500D01*
Y248299D01*
X226601D01*
Y250099D01*
Y246500D01*
X225401Y250099D02*
Y247700D01*
X224201Y246500D01*
X223002Y247700D01*
Y250099D01*
X219403D02*
X221802D01*
Y248299D01*
X220603Y248899D01*
X220003D01*
X219403Y248299D01*
Y247100D01*
X220003Y246500D01*
X221202D01*
X221802Y247100D01*
X229000Y260599D02*
Y257000D01*
Y258799D01*
X226601D01*
Y260599D01*
Y257000D01*
X225401Y260599D02*
Y258200D01*
X224201Y257000D01*
X223002Y258200D01*
Y260599D01*
X220003Y257000D02*
Y260599D01*
X221802Y258799D01*
X219403D01*
X229000Y270599D02*
Y267000D01*
Y268799D01*
X226601D01*
Y270599D01*
Y267000D01*
X225401Y270599D02*
Y268200D01*
X224201Y267000D01*
X223002Y268200D01*
Y270599D01*
X221802Y269999D02*
X221202Y270599D01*
X220003D01*
X219403Y269999D01*
Y269399D01*
X220003Y268799D01*
X220603D01*
X220003D01*
X219403Y268200D01*
Y267600D01*
X220003Y267000D01*
X221202D01*
X221802Y267600D01*
X229000Y280599D02*
Y277000D01*
Y278799D01*
X226601D01*
Y280599D01*
Y277000D01*
X225401Y280599D02*
Y278200D01*
X224201Y277000D01*
X223002Y278200D01*
Y280599D01*
X219403Y277000D02*
X221802D01*
X219403Y279399D01*
Y279999D01*
X220003Y280599D01*
X221202D01*
X221802Y279999D01*
X227500Y290099D02*
Y286500D01*
Y288299D01*
X225101D01*
Y290099D01*
Y286500D01*
X223901Y290099D02*
Y287700D01*
X222702Y286500D01*
X221502Y287700D01*
Y290099D01*
X220302Y286500D02*
X219103D01*
X219703D01*
Y290099D01*
X220302Y289499D01*
X196000Y240099D02*
Y236500D01*
X193601D01*
X192401Y240099D02*
Y237700D01*
X191201Y236500D01*
X190002Y237700D01*
Y240099D01*
X196000Y300099D02*
Y296500D01*
Y298299D01*
X193601D01*
Y300099D01*
Y296500D01*
X192401Y300099D02*
Y297700D01*
X191201Y296500D01*
X190002Y297700D01*
Y300099D01*
M02*
