G04*
G04 #@! TF.GenerationSoftware,Altium Limited,Altium Designer,18.1.9 (240)*
G04*
G04 Layer_Color=65535*
%FSLAX25Y25*%
%MOIN*%
G70*
G01*
G75*
%ADD10C,0.00984*%
%ADD11C,0.00787*%
%ADD12C,0.00800*%
D10*
X182492Y246500D02*
X181754Y246926D01*
Y246074D01*
X182492Y246500D01*
X219492Y254000D02*
X218754Y254426D01*
Y253574D01*
X219492Y254000D01*
X182492Y264000D02*
X181754Y264426D01*
Y263574D01*
X182492Y264000D01*
X234492Y283000D02*
X233754Y283426D01*
Y282574D01*
X234492Y283000D01*
X182492Y281500D02*
X181754Y281926D01*
Y281074D01*
X182492Y281500D01*
D11*
X193043Y253953D02*
X195602D01*
Y250949D02*
Y253953D01*
X183398D02*
X185957D01*
X183398Y250949D02*
Y253953D01*
X230043Y261453D02*
X232602D01*
Y258449D02*
Y261453D01*
X220398D02*
X222957D01*
X220398Y258449D02*
Y261453D01*
X193043Y271453D02*
X195602D01*
Y268449D02*
Y271453D01*
X183398D02*
X185957D01*
X183398Y268449D02*
Y271453D01*
X220398Y275547D02*
X222957D01*
X220398D02*
Y278551D01*
X230043Y275547D02*
X232602D01*
Y278551D01*
X193043Y288953D02*
X195602D01*
Y285949D02*
Y288953D01*
X183398D02*
X185957D01*
X183398Y285949D02*
Y288953D01*
X198000Y233500D02*
Y303500D01*
X218000Y233500D02*
Y303500D01*
X198000D02*
X218000D01*
X198000Y233500D02*
X218000D01*
D12*
X226500Y288331D02*
Y292331D01*
X240500Y266500D02*
Y270500D01*
X236000Y279429D02*
X240000D01*
X236000Y294929D02*
X240000D01*
X236000Y257500D02*
X240000D01*
X226500Y244669D02*
Y248669D01*
X236000Y241929D02*
X240000D01*
X176000Y281669D02*
X180000D01*
X176000Y264169D02*
X180000D01*
X176000Y246669D02*
X180000D01*
X191000Y296500D02*
Y300099D01*
X192799D01*
X193399Y299499D01*
Y298299D01*
X192799Y297700D01*
X191000D01*
X194599Y296500D02*
X195799D01*
X195199D01*
Y300099D01*
X194599Y299499D01*
X246000Y237500D02*
X242401D01*
Y239299D01*
X243001Y239899D01*
X244201D01*
X244800Y239299D01*
Y237500D01*
Y238700D02*
X246000Y239899D01*
Y241099D02*
Y242299D01*
Y241699D01*
X242401D01*
X243001Y241099D01*
Y244098D02*
X242401Y244698D01*
Y245897D01*
X243001Y246497D01*
X245400D01*
X246000Y245897D01*
Y244698D01*
X245400Y244098D01*
X243001D01*
X174000Y240000D02*
X170401D01*
Y241799D01*
X171001Y242399D01*
X172201D01*
X172800Y241799D01*
Y240000D01*
Y241200D02*
X174000Y242399D01*
X173400Y243599D02*
X174000Y244199D01*
Y245398D01*
X173400Y245998D01*
X171001D01*
X170401Y245398D01*
Y244199D01*
X171001Y243599D01*
X171601D01*
X172201Y244199D01*
Y245998D01*
X246000Y250000D02*
X242401D01*
Y251799D01*
X243001Y252399D01*
X244201D01*
X244800Y251799D01*
Y250000D01*
Y251200D02*
X246000Y252399D01*
X243001Y253599D02*
X242401Y254199D01*
Y255398D01*
X243001Y255998D01*
X243601D01*
X244201Y255398D01*
X244800Y255998D01*
X245400D01*
X246000Y255398D01*
Y254199D01*
X245400Y253599D01*
X244800D01*
X244201Y254199D01*
X243601Y253599D01*
X243001D01*
X244201Y254199D02*
Y255398D01*
X221000Y234000D02*
Y237599D01*
X222799D01*
X223399Y236999D01*
Y235799D01*
X222799Y235200D01*
X221000D01*
X222200D02*
X223399Y234000D01*
X224599Y237599D02*
X226998D01*
Y236999D01*
X224599Y234600D01*
Y234000D01*
X246000Y258500D02*
X242401D01*
Y260299D01*
X243001Y260899D01*
X244201D01*
X244800Y260299D01*
Y258500D01*
Y259700D02*
X246000Y260899D01*
X242401Y264498D02*
X243001Y263299D01*
X244201Y262099D01*
X245400D01*
X246000Y262699D01*
Y263898D01*
X245400Y264498D01*
X244800D01*
X244201Y263898D01*
Y262099D01*
X174000Y257000D02*
X170401D01*
Y258799D01*
X171001Y259399D01*
X172201D01*
X172800Y258799D01*
Y257000D01*
Y258200D02*
X174000Y259399D01*
X170401Y262998D02*
Y260599D01*
X172201D01*
X171601Y261799D01*
Y262398D01*
X172201Y262998D01*
X173400D01*
X174000Y262398D01*
Y261199D01*
X173400Y260599D01*
X246000Y277000D02*
X242401D01*
Y278799D01*
X243001Y279399D01*
X244201D01*
X244800Y278799D01*
Y277000D01*
Y278200D02*
X246000Y279399D01*
Y282398D02*
X242401D01*
X244201Y280599D01*
Y282998D01*
X228000Y299500D02*
Y303099D01*
X229799D01*
X230399Y302499D01*
Y301299D01*
X229799Y300700D01*
X228000D01*
X229200D02*
X230399Y299500D01*
X231599Y302499D02*
X232199Y303099D01*
X233398D01*
X233998Y302499D01*
Y301899D01*
X233398Y301299D01*
X232799D01*
X233398D01*
X233998Y300700D01*
Y300100D01*
X233398Y299500D01*
X232199D01*
X231599Y300100D01*
X246000Y295500D02*
X242401D01*
Y297299D01*
X243001Y297899D01*
X244201D01*
X244800Y297299D01*
Y295500D01*
Y296700D02*
X246000Y297899D01*
Y301498D02*
Y299099D01*
X243601Y301498D01*
X243001D01*
X242401Y300898D01*
Y299699D01*
X243001Y299099D01*
X174000Y277000D02*
X170401D01*
Y278799D01*
X171001Y279399D01*
X172201D01*
X172800Y278799D01*
Y277000D01*
Y278200D02*
X174000Y279399D01*
Y280599D02*
Y281799D01*
Y281199D01*
X170401D01*
X171001Y280599D01*
X188899Y239600D02*
Y241999D01*
X188299Y242599D01*
X187100D01*
X186500Y241999D01*
Y239600D01*
X187100Y239000D01*
X188299D01*
X187700Y240200D02*
X188899Y239000D01*
X188299D02*
X188899Y239600D01*
X192498Y242599D02*
X190099D01*
Y240799D01*
X191298Y241399D01*
X191898D01*
X192498Y240799D01*
Y239600D01*
X191898Y239000D01*
X190699D01*
X190099Y239600D01*
X229899Y240100D02*
Y242499D01*
X229299Y243099D01*
X228100D01*
X227500Y242499D01*
Y240100D01*
X228100Y239500D01*
X229299D01*
X228700Y240700D02*
X229899Y239500D01*
X229299D02*
X229899Y240100D01*
X232898Y239500D02*
Y243099D01*
X231099Y241299D01*
X233498D01*
X173400Y269899D02*
X171001D01*
X170401Y269299D01*
Y268100D01*
X171001Y267500D01*
X173400D01*
X174000Y268100D01*
Y269299D01*
X172800Y268700D02*
X174000Y269899D01*
Y269299D02*
X173400Y269899D01*
X171001Y271099D02*
X170401Y271699D01*
Y272898D01*
X171001Y273498D01*
X171601D01*
X172201Y272898D01*
Y272299D01*
Y272898D01*
X172800Y273498D01*
X173400D01*
X174000Y272898D01*
Y271699D01*
X173400Y271099D01*
X222899Y295100D02*
Y297499D01*
X222299Y298099D01*
X221100D01*
X220500Y297499D01*
Y295100D01*
X221100Y294500D01*
X222299D01*
X221700Y295700D02*
X222899Y294500D01*
X222299D02*
X222899Y295100D01*
X226498Y294500D02*
X224099D01*
X226498Y296899D01*
Y297499D01*
X225898Y298099D01*
X224699D01*
X224099Y297499D01*
X178899Y290100D02*
Y292499D01*
X178299Y293099D01*
X177100D01*
X176500Y292499D01*
Y290100D01*
X177100Y289500D01*
X178299D01*
X177700Y290700D02*
X178899Y289500D01*
X178299D02*
X178899Y290100D01*
X180099Y289500D02*
X181298D01*
X180699D01*
Y293099D01*
X180099Y292499D01*
M02*
