G04*
G04 #@! TF.GenerationSoftware,Altium Limited,Altium Designer,18.1.9 (240)*
G04*
G04 Layer_Color=8388736*
%FSLAX25Y25*%
%MOIN*%
G70*
G01*
G75*
%ADD13R,0.04537X0.06112*%
%ADD14R,0.05512X0.05118*%
%ADD15R,0.05118X0.05512*%
%ADD16C,0.06506*%
%ADD17R,0.06506X0.06506*%
D13*
X189500Y255331D02*
D03*
X193240Y246669D02*
D03*
X185760D02*
D03*
X226500Y262831D02*
D03*
X230240Y254169D02*
D03*
X222760D02*
D03*
X189500Y272831D02*
D03*
X193240Y264169D02*
D03*
X185760D02*
D03*
X226500Y274169D02*
D03*
X222760Y282831D02*
D03*
X230240D02*
D03*
X189500Y290331D02*
D03*
X193240Y281669D02*
D03*
X185760D02*
D03*
D14*
X230240Y290331D02*
D03*
X222760D02*
D03*
X244240Y268500D02*
D03*
X236760D02*
D03*
X222760Y246669D02*
D03*
X230240D02*
D03*
D15*
X238000Y283169D02*
D03*
Y275689D02*
D03*
Y291189D02*
D03*
Y298669D02*
D03*
Y253760D02*
D03*
Y261240D02*
D03*
Y245669D02*
D03*
Y238189D02*
D03*
X178000Y285409D02*
D03*
Y277929D02*
D03*
Y267910D02*
D03*
Y260429D02*
D03*
Y250410D02*
D03*
Y242929D02*
D03*
D16*
X213000Y238500D02*
D03*
X203000D02*
D03*
X213000Y248500D02*
D03*
X203000D02*
D03*
X213000Y258500D02*
D03*
X203000D02*
D03*
X213000Y268500D02*
D03*
X203000D02*
D03*
X213000Y278500D02*
D03*
X203000D02*
D03*
X213000Y288500D02*
D03*
X203000D02*
D03*
X213000Y298500D02*
D03*
D17*
X203000D02*
D03*
M02*
