G04*
G04 #@! TF.GenerationSoftware,Altium Limited,Altium Designer,18.1.9 (240)*
G04*
G04 Layer_Physical_Order=2*
G04 Layer_Color=16711680*
%FSLAX25Y25*%
%MOIN*%
G70*
G01*
G75*
%ADD22C,0.05906*%
%ADD23R,0.05906X0.05906*%
%ADD24C,0.03500*%
G36*
X219710Y296500D02*
X220052Y296000D01*
X225468D01*
X225810Y296500D01*
X227500D01*
X227500Y233029D01*
X168529D01*
Y294000D01*
X218000Y294000D01*
Y296500D01*
X219710D01*
D02*
G37*
G36*
X248000Y233000D02*
X229000D01*
Y298000D01*
X224840D01*
X224399Y298339D01*
X223608Y298666D01*
X222760Y298778D01*
X221911Y298666D01*
X221121Y298339D01*
X220679Y298000D01*
X217300D01*
D01*
X213000D01*
X208575D01*
D01*
X206953D01*
D01*
X203000D01*
X198547D01*
D01*
X198000D01*
Y304000D01*
X248000D01*
X248000Y233000D01*
D02*
G37*
%LPC*%
G36*
X225468Y295000D02*
X223260D01*
Y292792D01*
X223478Y292821D01*
X224147Y293098D01*
X224721Y293539D01*
X225162Y294113D01*
X225439Y294782D01*
X225468Y295000D01*
D02*
G37*
G36*
X222260D02*
X220052D01*
X220081Y294782D01*
X220358Y294113D01*
X220798Y293539D01*
X221373Y293098D01*
X222042Y292821D01*
X222260Y292792D01*
Y295000D01*
D02*
G37*
G36*
X173000Y288117D02*
Y285910D01*
X175208D01*
X175179Y286127D01*
X174902Y286796D01*
X174461Y287371D01*
X173887Y287812D01*
X173218Y288089D01*
X173000Y288117D01*
D02*
G37*
G36*
X172000D02*
X171782Y288089D01*
X171113Y287812D01*
X170539Y287371D01*
X170098Y286796D01*
X169821Y286127D01*
X169792Y285910D01*
X172000D01*
Y288117D01*
D02*
G37*
G36*
X213000Y292991D02*
X211838Y292838D01*
X210754Y292389D01*
X209824Y291676D01*
X209110Y290746D01*
X208662Y289662D01*
X208509Y288500D01*
X208662Y287338D01*
X209110Y286254D01*
X209824Y285324D01*
X210754Y284611D01*
X211838Y284162D01*
X213000Y284009D01*
X214162Y284162D01*
X215246Y284611D01*
X216176Y285324D01*
X216890Y286254D01*
X217338Y287338D01*
X217491Y288500D01*
X217338Y289662D01*
X216890Y290746D01*
X216176Y291676D01*
X215246Y292389D01*
X214162Y292838D01*
X213000Y292991D01*
D02*
G37*
G36*
X203000D02*
X201838Y292838D01*
X200754Y292389D01*
X199824Y291676D01*
X199110Y290746D01*
X198662Y289662D01*
X198509Y288500D01*
X198662Y287338D01*
X199110Y286254D01*
X199824Y285324D01*
X200754Y284611D01*
X201838Y284162D01*
X203000Y284009D01*
X204162Y284162D01*
X205246Y284611D01*
X206176Y285324D01*
X206890Y286254D01*
X207338Y287338D01*
X207491Y288500D01*
X207338Y289662D01*
X206890Y290746D01*
X206176Y291676D01*
X205246Y292389D01*
X204162Y292838D01*
X203000Y292991D01*
D02*
G37*
G36*
X175208Y284910D02*
X173000D01*
Y282701D01*
X173218Y282730D01*
X173887Y283007D01*
X174461Y283448D01*
X174902Y284023D01*
X175179Y284692D01*
X175208Y284910D01*
D02*
G37*
G36*
X172000D02*
X169792D01*
X169821Y284692D01*
X170098Y284023D01*
X170539Y283448D01*
X171113Y283007D01*
X171782Y282730D01*
X172000Y282701D01*
Y284910D01*
D02*
G37*
G36*
X213000Y282991D02*
X211838Y282838D01*
X210754Y282389D01*
X209824Y281676D01*
X209110Y280746D01*
X208662Y279662D01*
X208509Y278500D01*
X208662Y277338D01*
X209110Y276254D01*
X209824Y275324D01*
X210754Y274610D01*
X211838Y274162D01*
X213000Y274009D01*
X214162Y274162D01*
X215246Y274610D01*
X216176Y275324D01*
X216890Y276254D01*
X217338Y277338D01*
X217491Y278500D01*
X217338Y279662D01*
X216890Y280746D01*
X216176Y281676D01*
X215246Y282389D01*
X214162Y282838D01*
X213000Y282991D01*
D02*
G37*
G36*
X203000D02*
X201838Y282838D01*
X200754Y282389D01*
X199824Y281676D01*
X199110Y280746D01*
X198662Y279662D01*
X198509Y278500D01*
X198662Y277338D01*
X199110Y276254D01*
X199824Y275324D01*
X200754Y274610D01*
X201838Y274162D01*
X203000Y274009D01*
X204162Y274162D01*
X205246Y274610D01*
X206176Y275324D01*
X206890Y276254D01*
X207338Y277338D01*
X207491Y278500D01*
X207338Y279662D01*
X206890Y280746D01*
X206176Y281676D01*
X205246Y282389D01*
X204162Y282838D01*
X203000Y282991D01*
D02*
G37*
G36*
X173000Y270708D02*
Y268500D01*
X175208D01*
X175179Y268718D01*
X174902Y269387D01*
X174461Y269961D01*
X173887Y270402D01*
X173218Y270679D01*
X173000Y270708D01*
D02*
G37*
G36*
X172000D02*
X171782Y270679D01*
X171113Y270402D01*
X170539Y269961D01*
X170098Y269387D01*
X169821Y268718D01*
X169792Y268500D01*
X172000D01*
Y270708D01*
D02*
G37*
G36*
X175208Y267500D02*
X173000D01*
Y265292D01*
X173218Y265321D01*
X173887Y265598D01*
X174461Y266039D01*
X174902Y266613D01*
X175179Y267282D01*
X175208Y267500D01*
D02*
G37*
G36*
X172000D02*
X169792D01*
X169821Y267282D01*
X170098Y266613D01*
X170539Y266039D01*
X171113Y265598D01*
X171782Y265321D01*
X172000Y265292D01*
Y267500D01*
D02*
G37*
G36*
X213000Y272991D02*
X211838Y272838D01*
X210754Y272390D01*
X209824Y271676D01*
X209110Y270746D01*
X208662Y269662D01*
X208509Y268500D01*
X208662Y267338D01*
X209110Y266254D01*
X209824Y265324D01*
X210754Y264611D01*
X211838Y264162D01*
X213000Y264009D01*
X214162Y264162D01*
X215246Y264611D01*
X216176Y265324D01*
X216890Y266254D01*
X217338Y267338D01*
X217491Y268500D01*
X217338Y269662D01*
X216890Y270746D01*
X216176Y271676D01*
X215246Y272390D01*
X214162Y272838D01*
X213000Y272991D01*
D02*
G37*
G36*
X203000D02*
X201838Y272838D01*
X200754Y272390D01*
X199824Y271676D01*
X199110Y270746D01*
X198662Y269662D01*
X198509Y268500D01*
X198662Y267338D01*
X199110Y266254D01*
X199824Y265324D01*
X200754Y264611D01*
X201838Y264162D01*
X203000Y264009D01*
X204162Y264162D01*
X205246Y264611D01*
X206176Y265324D01*
X206890Y266254D01*
X207338Y267338D01*
X207491Y268500D01*
X207338Y269662D01*
X206890Y270746D01*
X206176Y271676D01*
X205246Y272390D01*
X204162Y272838D01*
X203000Y272991D01*
D02*
G37*
G36*
X213000Y262991D02*
X211838Y262838D01*
X210754Y262389D01*
X209824Y261676D01*
X209110Y260746D01*
X208662Y259662D01*
X208509Y258500D01*
X208662Y257338D01*
X209110Y256254D01*
X209824Y255324D01*
X210754Y254610D01*
X211838Y254162D01*
X213000Y254009D01*
X214162Y254162D01*
X215246Y254610D01*
X216176Y255324D01*
X216890Y256254D01*
X217338Y257338D01*
X217491Y258500D01*
X217338Y259662D01*
X216890Y260746D01*
X216176Y261676D01*
X215246Y262389D01*
X214162Y262838D01*
X213000Y262991D01*
D02*
G37*
G36*
X203000D02*
X201838Y262838D01*
X200754Y262389D01*
X199824Y261676D01*
X199110Y260746D01*
X198662Y259662D01*
X198509Y258500D01*
X198662Y257338D01*
X199110Y256254D01*
X199824Y255324D01*
X200754Y254610D01*
X201838Y254162D01*
X203000Y254009D01*
X204162Y254162D01*
X205246Y254610D01*
X206176Y255324D01*
X206890Y256254D01*
X207338Y257338D01*
X207491Y258500D01*
X207338Y259662D01*
X206890Y260746D01*
X206176Y261676D01*
X205246Y262389D01*
X204162Y262838D01*
X203000Y262991D01*
D02*
G37*
G36*
X173000Y253117D02*
Y250909D01*
X175208D01*
X175179Y251127D01*
X174902Y251796D01*
X174461Y252371D01*
X173887Y252812D01*
X173218Y253089D01*
X173000Y253117D01*
D02*
G37*
G36*
X172000D02*
X171782Y253089D01*
X171113Y252812D01*
X170539Y252371D01*
X170098Y251796D01*
X169821Y251127D01*
X169792Y250909D01*
X172000D01*
Y253117D01*
D02*
G37*
G36*
X175208Y249909D02*
X173000D01*
Y247702D01*
X173218Y247730D01*
X173887Y248007D01*
X174461Y248448D01*
X174902Y249023D01*
X175179Y249692D01*
X175208Y249909D01*
D02*
G37*
G36*
X172000D02*
X169792D01*
X169821Y249692D01*
X170098Y249023D01*
X170539Y248448D01*
X171113Y248007D01*
X171782Y247730D01*
X172000Y247702D01*
Y249909D01*
D02*
G37*
G36*
X213000Y252991D02*
X211838Y252838D01*
X210754Y252390D01*
X209824Y251676D01*
X209110Y250746D01*
X208662Y249662D01*
X208509Y248500D01*
X208662Y247338D01*
X209110Y246254D01*
X209824Y245324D01*
X210754Y244611D01*
X211838Y244162D01*
X213000Y244009D01*
X214162Y244162D01*
X215246Y244611D01*
X216176Y245324D01*
X216890Y246254D01*
X217338Y247338D01*
X217491Y248500D01*
X217338Y249662D01*
X216890Y250746D01*
X216176Y251676D01*
X215246Y252390D01*
X214162Y252838D01*
X213000Y252991D01*
D02*
G37*
G36*
X203000D02*
X201838Y252838D01*
X200754Y252390D01*
X199824Y251676D01*
X199110Y250746D01*
X198662Y249662D01*
X198509Y248500D01*
X198662Y247338D01*
X199110Y246254D01*
X199824Y245324D01*
X200754Y244611D01*
X201838Y244162D01*
X203000Y244009D01*
X204162Y244162D01*
X205246Y244611D01*
X206176Y245324D01*
X206890Y246254D01*
X207338Y247338D01*
X207491Y248500D01*
X207338Y249662D01*
X206890Y250746D01*
X206176Y251676D01*
X205246Y252390D01*
X204162Y252838D01*
X203000Y252991D01*
D02*
G37*
G36*
X223260Y244208D02*
Y242000D01*
X225468D01*
X225439Y242218D01*
X225162Y242887D01*
X224721Y243461D01*
X224147Y243902D01*
X223478Y244179D01*
X223260Y244208D01*
D02*
G37*
G36*
X222260D02*
X222042Y244179D01*
X221373Y243902D01*
X220798Y243461D01*
X220358Y242887D01*
X220081Y242218D01*
X220052Y242000D01*
X222260D01*
Y244208D01*
D02*
G37*
G36*
X213500Y242421D02*
Y239000D01*
X216921D01*
X216851Y239532D01*
X216453Y240493D01*
X215819Y241319D01*
X214993Y241953D01*
X214032Y242351D01*
X213500Y242421D01*
D02*
G37*
G36*
X203500D02*
Y239000D01*
X206921D01*
X206851Y239532D01*
X206453Y240493D01*
X205819Y241319D01*
X204993Y241953D01*
X204032Y242351D01*
X203500Y242421D01*
D02*
G37*
G36*
X212500D02*
X211968Y242351D01*
X211007Y241953D01*
X210181Y241319D01*
X209547Y240493D01*
X209149Y239532D01*
X209079Y239000D01*
X212500D01*
Y242421D01*
D02*
G37*
G36*
X202500D02*
X201968Y242351D01*
X201007Y241953D01*
X200181Y241319D01*
X199547Y240493D01*
X199149Y239532D01*
X199079Y239000D01*
X202500D01*
Y242421D01*
D02*
G37*
G36*
X225468Y241000D02*
X223260D01*
Y238792D01*
X223478Y238821D01*
X224147Y239098D01*
X224721Y239539D01*
X225162Y240113D01*
X225439Y240782D01*
X225468Y241000D01*
D02*
G37*
G36*
X222260D02*
X220052D01*
X220081Y240782D01*
X220358Y240113D01*
X220798Y239539D01*
X221373Y239098D01*
X222042Y238821D01*
X222260Y238792D01*
Y241000D01*
D02*
G37*
G36*
X216921Y238000D02*
X213500D01*
Y234579D01*
X214032Y234649D01*
X214993Y235047D01*
X215819Y235681D01*
X216453Y236507D01*
X216851Y237468D01*
X216921Y238000D01*
D02*
G37*
G36*
X206921D02*
X203500D01*
Y234579D01*
X204032Y234649D01*
X204993Y235047D01*
X205819Y235681D01*
X206453Y236507D01*
X206851Y237468D01*
X206921Y238000D01*
D02*
G37*
G36*
X212500D02*
X209079D01*
X209149Y237468D01*
X209547Y236507D01*
X210181Y235681D01*
X211007Y235047D01*
X211968Y234649D01*
X212500Y234579D01*
Y238000D01*
D02*
G37*
G36*
X202500D02*
X199079D01*
X199149Y237468D01*
X199547Y236507D01*
X200181Y235681D01*
X201007Y235047D01*
X201968Y234649D01*
X202500Y234579D01*
Y238000D01*
D02*
G37*
G36*
X213500Y302421D02*
Y299000D01*
X216921D01*
X216851Y299532D01*
X216453Y300493D01*
X215819Y301319D01*
X214993Y301953D01*
X214032Y302351D01*
X213500Y302421D01*
D02*
G37*
G36*
X206953Y302453D02*
X203500D01*
Y299000D01*
X206953D01*
Y302453D01*
D02*
G37*
G36*
X212500Y302421D02*
X211968Y302351D01*
X211007Y301953D01*
X210181Y301319D01*
X209547Y300493D01*
X209149Y299532D01*
X209079Y299000D01*
X212500D01*
Y302421D01*
D02*
G37*
G36*
X202500Y302453D02*
X199047D01*
Y299000D01*
X202500D01*
Y302453D01*
D02*
G37*
G36*
X243500Y293897D02*
Y291689D01*
X245708D01*
X245679Y291907D01*
X245402Y292576D01*
X244961Y293150D01*
X244387Y293591D01*
X243718Y293868D01*
X243500Y293897D01*
D02*
G37*
G36*
X242500D02*
X242282Y293868D01*
X241613Y293591D01*
X241039Y293150D01*
X240598Y292576D01*
X240321Y291907D01*
X240292Y291689D01*
X242500D01*
Y293897D01*
D02*
G37*
G36*
X245708Y290689D02*
X243500D01*
Y288481D01*
X243718Y288510D01*
X244387Y288787D01*
X244961Y289228D01*
X245402Y289802D01*
X245679Y290471D01*
X245708Y290689D01*
D02*
G37*
G36*
X242500D02*
X240292D01*
X240321Y290471D01*
X240598Y289802D01*
X241039Y289228D01*
X241613Y288787D01*
X242282Y288510D01*
X242500Y288481D01*
Y290689D01*
D02*
G37*
G36*
X244740Y276208D02*
Y274000D01*
X246948D01*
X246919Y274218D01*
X246642Y274887D01*
X246201Y275461D01*
X245627Y275902D01*
X244958Y276179D01*
X244740Y276208D01*
D02*
G37*
G36*
X243740D02*
X243522Y276179D01*
X242853Y275902D01*
X242279Y275461D01*
X241838Y274887D01*
X241561Y274218D01*
X241532Y274000D01*
X243740D01*
Y276208D01*
D02*
G37*
G36*
X246948Y273000D02*
X244740D01*
Y270792D01*
X244958Y270821D01*
X245627Y271098D01*
X246201Y271539D01*
X246642Y272113D01*
X246919Y272782D01*
X246948Y273000D01*
D02*
G37*
G36*
X243740D02*
X241532D01*
X241561Y272782D01*
X241838Y272113D01*
X242279Y271539D01*
X242853Y271098D01*
X243522Y270821D01*
X243740Y270792D01*
Y273000D01*
D02*
G37*
G36*
X244000Y248377D02*
Y246169D01*
X246208D01*
X246179Y246387D01*
X245902Y247056D01*
X245461Y247631D01*
X244887Y248071D01*
X244218Y248348D01*
X244000Y248377D01*
D02*
G37*
G36*
X243000D02*
X242782Y248348D01*
X242113Y248071D01*
X241539Y247631D01*
X241098Y247056D01*
X240821Y246387D01*
X240792Y246169D01*
X243000D01*
Y248377D01*
D02*
G37*
G36*
X246208Y245169D02*
X244000D01*
Y242961D01*
X244218Y242990D01*
X244887Y243267D01*
X245461Y243708D01*
X245902Y244282D01*
X246179Y244951D01*
X246208Y245169D01*
D02*
G37*
G36*
X243000D02*
X240792D01*
X240821Y244951D01*
X241098Y244282D01*
X241539Y243708D01*
X242113Y243267D01*
X242782Y242990D01*
X243000Y242961D01*
Y245169D01*
D02*
G37*
%LPD*%
D22*
X213000Y238500D02*
D03*
X203000D02*
D03*
X213000Y248500D02*
D03*
X203000D02*
D03*
X213000Y258500D02*
D03*
X203000D02*
D03*
X213000Y268500D02*
D03*
X203000D02*
D03*
X213000Y278500D02*
D03*
X203000D02*
D03*
X213000Y288500D02*
D03*
X203000D02*
D03*
X213000Y298500D02*
D03*
D23*
X203000D02*
D03*
D24*
X222760Y241500D02*
D03*
X244240Y273500D02*
D03*
X222760Y295500D02*
D03*
X243000Y291189D02*
D03*
X243500Y245669D02*
D03*
X172500Y285409D02*
D03*
Y268000D02*
D03*
Y250410D02*
D03*
M02*
