M48
;Layer_Color=9474304
;FILE_FORMAT=2:5
INCH,TZ
;TYPE=PLATED
T1F00S00C0.01500
T4F00S00C0.03543
T5F00S00C0.04000
T6F00S00C0.04094
T7F00S00C0.05512
T8F00S00C0.07000
;TYPE=NON_PLATED
T9F00S00C0.14016
%
T01
X326480Y170159
X335000Y169500
X341562
X347000Y165500
X353500
X364260Y174280
X379000Y155432
X352240Y210659
X342740Y211159
X335240Y218659
X330740Y203659
X337740Y197159
X333794Y250000
Y255650
X313794Y239779
X306000Y218965
X298000Y213000
X285294Y213150
X278794Y219150
X278794Y230150
Y249150
X238500
Y242000
X244000Y243500
X242500Y255000
X238500Y232000
X245000Y226000
X253794Y226150
X259794Y220150
X249000Y216500
X255035Y199740
X253500Y190500
X261000Y182500
X248000Y175465
Y163500
X256500Y163960
X269500
X274000Y192000
X289994
X298500Y177839
X298607Y143000
X235000Y157000
Y166387
Y175279
X234000Y182000
X220000
X213000Y180188
X202500Y181500
X206500Y185903
X201500Y199387
X207500Y213000
X213500Y218659
X227000Y210500
X225000Y166000
X218500Y159500
X227500Y153373
X228000Y135500
X221000Y129500
X204500
X211000Y136000
X181394Y133000
X175000Y138887
Y148387
X167000Y146500
X160535Y140000
X203000Y164667
X158000Y209627
X155500Y215500
X148500Y222000
X143392Y166612
X128000Y168780
X126500Y180000
X107500Y174509
X113465Y168500
X130736Y155123
X136965Y149500
X127000Y138000
X132965Y131000
X107500Y198500
X154500Y273874
X155000Y373685
X136634Y369102
X123500
X130000Y360500
X163500Y361500
X176000Y354760
X171500Y373685
X163500Y386000
X202535Y369102
X233500Y361000
X234000Y351500
X245319Y351819
X249500Y344000
X257500
X265000
Y336000
X257500
Y328000
X265000
X249500
Y336000
X279294Y340000
Y326000
X275000Y302150
X290794Y301000
X297173Y295925
X310000Y301500
Y321500
X300965Y358000
X295000Y364299
X283000Y359740
X268000Y361299
X261000Y359000
X255035Y365500
X259500Y373484
X276000
X268000Y385799
X241000Y368000
X240000Y293500
X237500Y287475
X245294Y290150
X222000Y287500
Y293500
X219000Y308000
X212500Y315000
X199000Y299366
X317294Y281150
Y274000
X328794Y281150
X335294Y287150
X333794Y266150
X332000Y314500
X328500Y335000
X322500Y329035
X347000Y368000
T04
X352500Y252500
X362500
X216500Y250500
X206500
Y240500
X216500
Y230500
X206500
X87500Y225500
Y215500
Y205500
Y195500
Y235500
Y245500
Y298314
X97500
X107500
Y322500
X97500
X87500
X206500Y270500
X216500
Y260500
X206500
X352500Y262500
X362500
Y272500
X352500
Y282500
X362500
T05
X397500Y167000
X382000Y191500
X363500Y226150
X289994Y204000
X274000
X241500Y194000
X249500Y154500
X235000Y143500
X133000Y233500
X134500Y280000
X206500Y322000
X198500Y334000
X211000Y362500
X229000Y405500
X278000Y351819
X231000Y302150
X375500Y340488
T06
X91000Y362815
Y370216
X101000
Y362815
X111000
Y370216
Y382500
Y389902
X101000
Y382500
X91000
Y389902
T07
X397000Y224250
Y243935
X113685Y143000
X94000
T08
X375800Y275500
Y292000
Y308500
X397500
Y292000
Y275500
T09
X397000Y143000
X103992Y344689
Y408405
X397000Y406000
M30
