G04*
G04 #@! TF.GenerationSoftware,Altium Limited,Altium Designer,18.1.9 (240)*
G04*
G04 Layer_Color=32768*
%FSLAX25Y25*%
%MOIN*%
G70*
G01*
G75*
%ADD95C,0.00394*%
%ADD96C,0.00197*%
%ADD97C,0.00400*%
D95*
X247532Y154500D02*
X251468D01*
X249500Y152532D02*
Y156468D01*
X247532Y154500D02*
X251468D01*
X249500Y152532D02*
Y156468D01*
X233032Y143500D02*
X236968D01*
X235000Y141532D02*
Y145468D01*
X233032Y143500D02*
X236968D01*
X235000Y141532D02*
Y145468D01*
X196531Y334000D02*
X200468D01*
X198500Y332031D02*
Y335968D01*
X196531Y334000D02*
X200468D01*
X198500Y332031D02*
Y335968D01*
X276031Y351819D02*
X279969D01*
X278000Y349850D02*
Y353787D01*
X276031Y351819D02*
X279969D01*
X278000Y349850D02*
Y353787D01*
X361531Y226150D02*
X365469D01*
X363500Y224181D02*
Y228118D01*
X361531Y226150D02*
X365469D01*
X363500Y224181D02*
Y228118D01*
X395532Y167000D02*
X399468D01*
X397500Y165032D02*
Y168968D01*
X395532Y167000D02*
X399468D01*
X397500Y165032D02*
Y168968D01*
X131032Y233500D02*
X134968D01*
X133000Y231532D02*
Y235469D01*
X131032Y233500D02*
X134968D01*
X133000Y231532D02*
Y235469D01*
X134500Y278031D02*
Y281968D01*
X132531Y280000D02*
X136469D01*
X134500Y278031D02*
Y281968D01*
X132531Y280000D02*
X136469D01*
X373532Y340488D02*
X377468D01*
X375500Y338520D02*
Y342457D01*
X373532Y340488D02*
X377468D01*
X375500Y338520D02*
Y342457D01*
X282000Y172031D02*
Y175969D01*
X280031Y174000D02*
X283968D01*
X380031Y191500D02*
X383968D01*
X382000Y189532D02*
Y193468D01*
X380031Y191500D02*
X383968D01*
X382000Y189532D02*
Y193468D01*
X302445Y348079D02*
X306382D01*
X304414Y346110D02*
Y350047D01*
X326480Y180190D02*
Y184127D01*
X324512Y182159D02*
X328449D01*
X364181Y155432D02*
X368119D01*
X366150Y153464D02*
Y157401D01*
X341100Y312831D02*
Y316769D01*
X339131Y314800D02*
X343069D01*
X227000Y208531D02*
Y212469D01*
X225031Y210500D02*
X228969D01*
X211000Y375031D02*
Y378969D01*
X209032Y377000D02*
X212968D01*
X248000Y334032D02*
Y337968D01*
X246031Y336000D02*
X249969D01*
X170567Y179430D02*
X174504D01*
X172536Y177462D02*
Y181399D01*
X280031Y257890D02*
X283968D01*
X282000Y255921D02*
Y259858D01*
X127000Y189032D02*
Y192968D01*
X125031Y191000D02*
X128969D01*
X204532Y322000D02*
X208469D01*
X206500Y320031D02*
Y323969D01*
X204532Y322000D02*
X208469D01*
X206500Y320031D02*
Y323969D01*
X209032Y362500D02*
X212968D01*
X211000Y360531D02*
Y364469D01*
X209032Y362500D02*
X212968D01*
X211000Y360531D02*
Y364469D01*
X227031Y405500D02*
X230968D01*
X229000Y403532D02*
Y407469D01*
X227031Y405500D02*
X230968D01*
X229000Y403532D02*
Y407469D01*
X241500Y192032D02*
Y195968D01*
X239531Y194000D02*
X243468D01*
X241500Y192032D02*
Y195968D01*
X239531Y194000D02*
X243468D01*
X231000Y300181D02*
Y304118D01*
X229031Y302150D02*
X232968D01*
X231000Y300181D02*
Y304118D01*
X229031Y302150D02*
X232968D01*
X289994Y202031D02*
Y205968D01*
X288025Y204000D02*
X291962D01*
X289994Y202031D02*
Y205968D01*
X288025Y204000D02*
X291962D01*
X274000Y202031D02*
Y205968D01*
X272031Y204000D02*
X275969D01*
X274000Y202031D02*
Y205968D01*
X272031Y204000D02*
X275969D01*
X350500Y349532D02*
Y353468D01*
X348532Y351500D02*
X352468D01*
X210500Y405845D02*
Y409782D01*
X208531Y407814D02*
X212469D01*
X288500Y141032D02*
Y144968D01*
X286531Y143000D02*
X290469D01*
X281709Y146346D02*
X295291D01*
X281709Y139654D02*
X295291D01*
X281709D02*
Y146346D01*
X295291Y139654D02*
Y146346D01*
X203031Y303500D02*
X206968D01*
X205000Y301532D02*
Y305469D01*
X208347Y296709D02*
Y310291D01*
X201654Y296709D02*
Y310291D01*
X208347D01*
X201654Y296709D02*
X208347D01*
X168032Y269740D02*
X171968D01*
X170000Y267772D02*
Y271709D01*
X166654Y262949D02*
Y276532D01*
X173346Y262949D02*
Y276532D01*
X166654Y262949D02*
X173346D01*
X166654Y276532D02*
X173346D01*
X159531Y269740D02*
X163469D01*
X161500Y267772D02*
Y271709D01*
X158153Y262949D02*
Y276532D01*
X164847Y262949D02*
Y276532D01*
X158153Y262949D02*
X164847D01*
X158153Y276532D02*
X164847D01*
X90531Y271814D02*
X94468D01*
X92500Y269845D02*
Y273782D01*
X191016Y393000D02*
X192984D01*
X192000Y392016D02*
Y393984D01*
X130000Y373532D02*
Y377468D01*
X128032Y375500D02*
X131968D01*
X266032Y391299D02*
X269969D01*
X268000Y389331D02*
Y393268D01*
X161531Y391500D02*
X165469D01*
X163500Y389531D02*
Y393468D01*
D96*
X254894Y154500D02*
X254802Y155491D01*
X254530Y156448D01*
X254086Y157339D01*
X253486Y158134D01*
X252750Y158804D01*
X251904Y159328D01*
X250976Y159688D01*
X249998Y159871D01*
X249002D01*
X248024Y159688D01*
X247096Y159328D01*
X246250Y158804D01*
X245514Y158134D01*
X244914Y157339D01*
X244471Y156448D01*
X244198Y155491D01*
X244106Y154500D01*
X244198Y153509D01*
X244471Y152552D01*
X244914Y151661D01*
X245514Y150866D01*
X246250Y150196D01*
X247096Y149672D01*
X248024Y149312D01*
X249002Y149129D01*
X249998D01*
X250976Y149312D01*
X251904Y149672D01*
X252750Y150196D01*
X253486Y150866D01*
X254086Y151661D01*
X254530Y152552D01*
X254802Y153509D01*
X254894Y154500D01*
X240394Y143500D02*
X240302Y144491D01*
X240030Y145448D01*
X239586Y146339D01*
X238986Y147134D01*
X238250Y147804D01*
X237404Y148328D01*
X236476Y148688D01*
X235498Y148871D01*
X234502D01*
X233524Y148688D01*
X232596Y148328D01*
X231750Y147804D01*
X231014Y147134D01*
X230414Y146339D01*
X229971Y145448D01*
X229698Y144491D01*
X229606Y143500D01*
X229698Y142509D01*
X229971Y141552D01*
X230414Y140661D01*
X231014Y139866D01*
X231750Y139196D01*
X232596Y138672D01*
X233524Y138312D01*
X234502Y138129D01*
X235498D01*
X236476Y138312D01*
X237404Y138672D01*
X238250Y139196D01*
X238986Y139866D01*
X239586Y140661D01*
X240030Y141552D01*
X240302Y142509D01*
X240394Y143500D01*
X203894Y334000D02*
X203802Y334991D01*
X203530Y335948D01*
X203086Y336839D01*
X202486Y337634D01*
X201750Y338304D01*
X200904Y338828D01*
X199976Y339188D01*
X198998Y339371D01*
X198002D01*
X197024Y339188D01*
X196096Y338828D01*
X195250Y338304D01*
X194514Y337634D01*
X193914Y336839D01*
X193471Y335948D01*
X193198Y334991D01*
X193106Y334000D01*
X193198Y333009D01*
X193471Y332052D01*
X193914Y331161D01*
X194514Y330366D01*
X195250Y329696D01*
X196096Y329172D01*
X197024Y328812D01*
X198002Y328629D01*
X198998D01*
X199976Y328812D01*
X200904Y329172D01*
X201750Y329696D01*
X202486Y330366D01*
X203086Y331161D01*
X203530Y332052D01*
X203802Y333009D01*
X203894Y334000D01*
X283394Y351819D02*
X283302Y352810D01*
X283030Y353767D01*
X282586Y354658D01*
X281986Y355453D01*
X281250Y356123D01*
X280404Y356647D01*
X279476Y357007D01*
X278498Y357190D01*
X277502D01*
X276524Y357007D01*
X275596Y356647D01*
X274750Y356123D01*
X274014Y355453D01*
X273414Y354658D01*
X272971Y353767D01*
X272698Y352810D01*
X272606Y351819D01*
X272698Y350828D01*
X272971Y349870D01*
X273414Y348979D01*
X274014Y348185D01*
X274750Y347515D01*
X275596Y346991D01*
X276524Y346631D01*
X277502Y346448D01*
X278498D01*
X279476Y346631D01*
X280404Y346991D01*
X281250Y347515D01*
X281986Y348185D01*
X282586Y348979D01*
X283030Y349870D01*
X283302Y350828D01*
X283394Y351819D01*
X368894Y226150D02*
X368802Y227141D01*
X368530Y228098D01*
X368086Y228989D01*
X367486Y229783D01*
X366750Y230454D01*
X365904Y230978D01*
X364976Y231337D01*
X363998Y231520D01*
X363002D01*
X362024Y231337D01*
X361096Y230978D01*
X360250Y230454D01*
X359514Y229783D01*
X358914Y228989D01*
X358471Y228098D01*
X358198Y227141D01*
X358106Y226150D01*
X358198Y225159D01*
X358471Y224201D01*
X358914Y223310D01*
X359514Y222516D01*
X360250Y221845D01*
X361096Y221321D01*
X362024Y220962D01*
X363002Y220779D01*
X363998D01*
X364976Y220962D01*
X365904Y221321D01*
X366750Y221845D01*
X367486Y222516D01*
X368086Y223310D01*
X368530Y224201D01*
X368802Y225159D01*
X368894Y226150D01*
X402894Y167000D02*
X402802Y167991D01*
X402529Y168948D01*
X402086Y169839D01*
X401486Y170634D01*
X400750Y171304D01*
X399904Y171828D01*
X398976Y172188D01*
X397998Y172371D01*
X397002D01*
X396024Y172188D01*
X395096Y171828D01*
X394250Y171304D01*
X393514Y170634D01*
X392914Y169839D01*
X392471Y168948D01*
X392198Y167991D01*
X392106Y167000D01*
X392198Y166009D01*
X392471Y165052D01*
X392914Y164161D01*
X393514Y163366D01*
X394250Y162696D01*
X395096Y162172D01*
X396024Y161812D01*
X397002Y161629D01*
X397998D01*
X398976Y161812D01*
X399904Y162172D01*
X400750Y162696D01*
X401486Y163366D01*
X402086Y164161D01*
X402529Y165052D01*
X402802Y166009D01*
X402894Y167000D01*
X138394Y233500D02*
X138302Y234491D01*
X138030Y235448D01*
X137586Y236339D01*
X136986Y237134D01*
X136250Y237804D01*
X135404Y238328D01*
X134476Y238688D01*
X133498Y238871D01*
X132502D01*
X131524Y238688D01*
X130596Y238328D01*
X129750Y237804D01*
X129014Y237134D01*
X128414Y236339D01*
X127971Y235448D01*
X127698Y234491D01*
X127606Y233500D01*
X127698Y232509D01*
X127971Y231552D01*
X128414Y230661D01*
X129014Y229866D01*
X129750Y229196D01*
X130596Y228672D01*
X131524Y228312D01*
X132502Y228129D01*
X133498D01*
X134476Y228312D01*
X135404Y228672D01*
X136250Y229196D01*
X136986Y229866D01*
X137586Y230661D01*
X138030Y231552D01*
X138302Y232509D01*
X138394Y233500D01*
X139894Y280000D02*
X139802Y280991D01*
X139530Y281948D01*
X139086Y282839D01*
X138486Y283634D01*
X137750Y284304D01*
X136904Y284828D01*
X135976Y285188D01*
X134998Y285371D01*
X134002D01*
X133024Y285188D01*
X132096Y284828D01*
X131250Y284304D01*
X130514Y283634D01*
X129914Y282839D01*
X129471Y281948D01*
X129198Y280991D01*
X129106Y280000D01*
X129198Y279009D01*
X129471Y278052D01*
X129914Y277161D01*
X130514Y276366D01*
X131250Y275696D01*
X132096Y275172D01*
X133024Y274812D01*
X134002Y274629D01*
X134998D01*
X135976Y274812D01*
X136904Y275172D01*
X137750Y275696D01*
X138486Y276366D01*
X139086Y277161D01*
X139530Y278052D01*
X139802Y279009D01*
X139894Y280000D01*
X380894Y340488D02*
X380802Y341479D01*
X380529Y342437D01*
X380086Y343328D01*
X379486Y344122D01*
X378750Y344793D01*
X377904Y345316D01*
X376976Y345676D01*
X375998Y345859D01*
X375002D01*
X374024Y345676D01*
X373096Y345316D01*
X372250Y344793D01*
X371514Y344122D01*
X370914Y343328D01*
X370470Y342437D01*
X370198Y341479D01*
X370106Y340488D01*
X370198Y339497D01*
X370470Y338540D01*
X370914Y337649D01*
X371514Y336855D01*
X372250Y336184D01*
X373096Y335660D01*
X374024Y335300D01*
X375002Y335118D01*
X375998D01*
X376976Y335300D01*
X377904Y335660D01*
X378750Y336184D01*
X379486Y336855D01*
X380086Y337649D01*
X380529Y338540D01*
X380802Y339497D01*
X380894Y340488D01*
X387394Y191500D02*
X387302Y192491D01*
X387030Y193448D01*
X386586Y194339D01*
X385986Y195134D01*
X385250Y195804D01*
X384404Y196328D01*
X383476Y196688D01*
X382498Y196871D01*
X381502D01*
X380524Y196688D01*
X379596Y196328D01*
X378750Y195804D01*
X378014Y195134D01*
X377414Y194339D01*
X376971Y193448D01*
X376698Y192491D01*
X376606Y191500D01*
X376698Y190509D01*
X376971Y189552D01*
X377414Y188661D01*
X378014Y187866D01*
X378750Y187196D01*
X379596Y186672D01*
X380524Y186312D01*
X381502Y186129D01*
X382498D01*
X383476Y186312D01*
X384404Y186672D01*
X385250Y187196D01*
X385986Y187866D01*
X386586Y188661D01*
X387030Y189552D01*
X387302Y190509D01*
X387394Y191500D01*
X211894Y322000D02*
X211802Y322991D01*
X211529Y323948D01*
X211086Y324839D01*
X210486Y325634D01*
X209750Y326304D01*
X208904Y326828D01*
X207976Y327188D01*
X206998Y327371D01*
X206002D01*
X205024Y327188D01*
X204096Y326828D01*
X203250Y326304D01*
X202514Y325634D01*
X201914Y324839D01*
X201470Y323948D01*
X201198Y322991D01*
X201106Y322000D01*
X201198Y321009D01*
X201470Y320052D01*
X201914Y319161D01*
X202514Y318366D01*
X203250Y317696D01*
X204096Y317172D01*
X205024Y316812D01*
X206002Y316629D01*
X206998D01*
X207976Y316812D01*
X208904Y317172D01*
X209750Y317696D01*
X210486Y318366D01*
X211086Y319161D01*
X211529Y320052D01*
X211802Y321009D01*
X211894Y322000D01*
X216394Y362500D02*
X216302Y363491D01*
X216030Y364448D01*
X215586Y365339D01*
X214986Y366134D01*
X214250Y366804D01*
X213404Y367328D01*
X212476Y367688D01*
X211498Y367871D01*
X210502D01*
X209524Y367688D01*
X208596Y367328D01*
X207750Y366804D01*
X207014Y366134D01*
X206414Y365339D01*
X205971Y364448D01*
X205698Y363491D01*
X205606Y362500D01*
X205698Y361509D01*
X205971Y360552D01*
X206414Y359661D01*
X207014Y358866D01*
X207750Y358196D01*
X208596Y357672D01*
X209524Y357312D01*
X210502Y357129D01*
X211498D01*
X212476Y357312D01*
X213404Y357672D01*
X214250Y358196D01*
X214986Y358866D01*
X215586Y359661D01*
X216030Y360552D01*
X216302Y361509D01*
X216394Y362500D01*
X234394Y405500D02*
X234302Y406491D01*
X234030Y407448D01*
X233586Y408339D01*
X232986Y409134D01*
X232250Y409804D01*
X231404Y410328D01*
X230476Y410688D01*
X229498Y410871D01*
X228502D01*
X227524Y410688D01*
X226596Y410328D01*
X225750Y409804D01*
X225014Y409134D01*
X224414Y408339D01*
X223971Y407448D01*
X223698Y406491D01*
X223606Y405500D01*
X223698Y404509D01*
X223971Y403552D01*
X224414Y402661D01*
X225014Y401866D01*
X225750Y401196D01*
X226596Y400672D01*
X227524Y400312D01*
X228502Y400129D01*
X229498D01*
X230476Y400312D01*
X231404Y400672D01*
X232250Y401196D01*
X232986Y401866D01*
X233586Y402661D01*
X234030Y403552D01*
X234302Y404509D01*
X234394Y405500D01*
X246894Y194000D02*
X246802Y194991D01*
X246530Y195948D01*
X246086Y196839D01*
X245486Y197634D01*
X244750Y198304D01*
X243904Y198828D01*
X242976Y199188D01*
X241998Y199371D01*
X241002D01*
X240024Y199188D01*
X239096Y198828D01*
X238250Y198304D01*
X237514Y197634D01*
X236914Y196839D01*
X236471Y195948D01*
X236198Y194991D01*
X236106Y194000D01*
X236198Y193009D01*
X236471Y192052D01*
X236914Y191161D01*
X237514Y190366D01*
X238250Y189696D01*
X239096Y189172D01*
X240024Y188812D01*
X241002Y188629D01*
X241998D01*
X242976Y188812D01*
X243904Y189172D01*
X244750Y189696D01*
X245486Y190366D01*
X246086Y191161D01*
X246530Y192052D01*
X246802Y193009D01*
X246894Y194000D01*
X236394Y302150D02*
X236302Y303141D01*
X236030Y304098D01*
X235586Y304989D01*
X234986Y305783D01*
X234250Y306454D01*
X233404Y306978D01*
X232476Y307337D01*
X231498Y307520D01*
X230502D01*
X229524Y307337D01*
X228596Y306978D01*
X227750Y306454D01*
X227014Y305783D01*
X226414Y304989D01*
X225971Y304098D01*
X225698Y303141D01*
X225606Y302150D01*
X225698Y301158D01*
X225971Y300201D01*
X226414Y299310D01*
X227014Y298516D01*
X227750Y297845D01*
X228596Y297321D01*
X229524Y296962D01*
X230502Y296779D01*
X231498D01*
X232476Y296962D01*
X233404Y297321D01*
X234250Y297845D01*
X234986Y298516D01*
X235586Y299310D01*
X236030Y300201D01*
X236302Y301158D01*
X236394Y302150D01*
X295387Y204000D02*
X295296Y204991D01*
X295023Y205948D01*
X294580Y206839D01*
X293980Y207634D01*
X293244Y208304D01*
X292398Y208828D01*
X291470Y209188D01*
X290491Y209371D01*
X289496D01*
X288518Y209188D01*
X287590Y208828D01*
X286743Y208304D01*
X286008Y207634D01*
X285408Y206839D01*
X284964Y205948D01*
X284692Y204991D01*
X284600Y204000D01*
X284692Y203009D01*
X284964Y202052D01*
X285408Y201161D01*
X286008Y200366D01*
X286743Y199696D01*
X287590Y199172D01*
X288518Y198812D01*
X289496Y198629D01*
X290491D01*
X291470Y198812D01*
X292398Y199172D01*
X293244Y199696D01*
X293980Y200366D01*
X294580Y201161D01*
X295023Y202052D01*
X295296Y203009D01*
X295387Y204000D01*
X279394D02*
X279302Y204991D01*
X279029Y205948D01*
X278586Y206839D01*
X277986Y207634D01*
X277250Y208304D01*
X276404Y208828D01*
X275476Y209188D01*
X274498Y209371D01*
X273502D01*
X272524Y209188D01*
X271596Y208828D01*
X270750Y208304D01*
X270014Y207634D01*
X269414Y206839D01*
X268970Y205948D01*
X268698Y204991D01*
X268606Y204000D01*
X268698Y203009D01*
X268970Y202052D01*
X269414Y201161D01*
X270014Y200366D01*
X270750Y199696D01*
X271596Y199172D01*
X272524Y198812D01*
X273502Y198629D01*
X274498D01*
X275476Y198812D01*
X276404Y199172D01*
X277250Y199696D01*
X277986Y200366D01*
X278586Y201161D01*
X279029Y202052D01*
X279302Y203009D01*
X279394Y204000D01*
X267630Y182071D02*
X296370D01*
X267630Y165929D02*
X296370D01*
X267630D02*
Y182071D01*
X296370Y165929D02*
Y182071D01*
X294276Y340008D02*
Y356150D01*
X314414Y340008D02*
Y356150D01*
X294276D02*
X314414D01*
X294276Y340008D02*
X314414D01*
X318409Y172021D02*
X334551D01*
X318409Y192159D02*
X334551D01*
X318409Y172021D02*
Y192159D01*
X334551Y172021D02*
Y192159D01*
X376288Y147361D02*
Y163503D01*
X356150Y147361D02*
Y163503D01*
Y147361D02*
X376288D01*
X356150Y163503D02*
X376288D01*
X333029Y304662D02*
X349171D01*
X333029Y324800D02*
X349171D01*
X333029Y304662D02*
Y324800D01*
X349171Y304662D02*
Y324800D01*
X218929Y220638D02*
X235071D01*
X218929Y200500D02*
X235071D01*
Y220638D01*
X218929Y200500D02*
Y220638D01*
X196630Y368929D02*
X225370D01*
X196630Y385071D02*
X225370D01*
Y368929D02*
Y385071D01*
X196630Y368929D02*
Y385071D01*
X223295Y320843D02*
X272705D01*
X223295Y351157D02*
X272705D01*
Y320843D02*
Y351157D01*
X223295Y320843D02*
Y351157D01*
X200036Y151930D02*
Y206930D01*
X145036Y151930D02*
Y206930D01*
X200036D01*
X145036Y151930D02*
X200036D01*
X249323Y232693D02*
Y283087D01*
X314677Y232693D02*
Y283087D01*
X249323Y232693D02*
X314677D01*
X249323Y283087D02*
X314677D01*
X111000Y180700D02*
X143100D01*
X111000Y201300D02*
X143100D01*
Y180700D02*
Y201300D01*
X111000Y180700D02*
Y201300D01*
X335343Y376205D02*
X365657D01*
X335343Y326795D02*
X365657D01*
Y376205D01*
X335343Y326795D02*
Y376205D01*
X198000Y387814D02*
Y423314D01*
Y387814D02*
X223000D01*
Y423314D01*
X198000D02*
X223000D01*
X80900Y252916D02*
Y290712D01*
Y252916D02*
X101260D01*
X80900Y290712D02*
X101260D01*
Y252916D02*
Y290712D01*
X190032Y388669D02*
Y397331D01*
X193968Y388669D02*
Y397331D01*
X190032Y388669D02*
X193968D01*
X190032Y397331D02*
X193968D01*
X122520Y361524D02*
X137480D01*
X122520Y389476D02*
X137480D01*
X122520Y361524D02*
Y389476D01*
X137480Y361524D02*
Y389476D01*
X243394Y360787D02*
Y421811D01*
X292606Y360787D02*
Y421811D01*
X243394Y360787D02*
X292606D01*
X243394Y421811D02*
X292606D01*
X138894Y360988D02*
Y422012D01*
X188106Y360988D02*
Y422012D01*
X138894Y360988D02*
X188106D01*
X138894Y422012D02*
X188106D01*
D97*
X354800Y324600D02*
X364200D01*
X354800Y304400D02*
Y324600D01*
Y304400D02*
X364200D01*
Y324600D01*
X359500Y314500D02*
Y315287D01*
X358713Y314500D02*
X359500D01*
Y313713D02*
Y314500D01*
X360287D01*
X284850Y363087D02*
X291150D01*
X284850Y348913D02*
Y363087D01*
Y348913D02*
X291150D01*
Y363087D01*
X287213Y356000D02*
X288787D01*
X288000Y355213D02*
Y356787D01*
X315913Y341189D02*
Y347488D01*
Y341189D02*
X330087D01*
Y347488D01*
X315913D02*
X330087D01*
X323000Y343551D02*
Y345126D01*
X322213Y344339D02*
X323787D01*
X298413Y156850D02*
Y163150D01*
Y156850D02*
X312587D01*
Y163150D01*
X298413D02*
X312587D01*
X305500Y159213D02*
Y160787D01*
X304713Y160000D02*
X306287D01*
X349091Y207745D02*
X355390D01*
X349091Y193572D02*
Y207745D01*
Y193572D02*
X355390D01*
Y207745D01*
X351453Y200659D02*
X353028D01*
X352240Y199871D02*
Y201446D01*
X349091Y190799D02*
X355390D01*
X349091Y176626D02*
Y190799D01*
Y176626D02*
X355390D01*
Y190799D01*
X351453Y183713D02*
X353028D01*
X352240Y182925D02*
Y184500D01*
X360913Y165630D02*
Y171929D01*
Y165630D02*
X375087D01*
Y171929D01*
X360913D02*
X375087D01*
X368000Y167992D02*
Y169567D01*
X367213Y168780D02*
X368787D01*
X368808Y188516D02*
X375107D01*
X368808Y174343D02*
Y188516D01*
Y174343D02*
X375107D01*
Y188516D01*
X371170Y181429D02*
X372744D01*
X371957Y180642D02*
Y182217D01*
X277087Y139850D02*
Y146150D01*
X262913D02*
X277087D01*
X262913Y139850D02*
Y146150D01*
Y139850D02*
X277087D01*
X270000Y142213D02*
Y143787D01*
X269213Y143000D02*
X270787D01*
X178350Y365587D02*
X184650D01*
X178350Y351413D02*
Y365587D01*
Y351413D02*
X184650D01*
Y365587D01*
X180713Y358500D02*
X182287D01*
X181500Y357713D02*
Y359287D01*
X187413Y359350D02*
Y365650D01*
Y359350D02*
X201587D01*
Y365650D01*
X187413D02*
X201587D01*
X194500Y361713D02*
Y363287D01*
X193713Y362500D02*
X195287D01*
X187850Y383087D02*
X194150D01*
X187850Y368913D02*
Y383087D01*
Y368913D02*
X194150D01*
Y383087D01*
X190213Y376000D02*
X191787D01*
X191000Y375213D02*
Y376787D01*
X128913Y345850D02*
Y352150D01*
Y345850D02*
X143087D01*
Y352150D01*
X128913D02*
X143087D01*
X136000Y348213D02*
Y349787D01*
X135213Y349000D02*
X136787D01*
X212850Y335087D02*
X219150D01*
X212850Y320913D02*
Y335087D01*
Y320913D02*
X219150D01*
Y335087D01*
X215213Y328000D02*
X216787D01*
X216000Y327213D02*
Y328787D01*
X166850Y257327D02*
X173150D01*
X166850Y243154D02*
Y257327D01*
Y243154D02*
X173150D01*
Y257327D01*
X169213Y250240D02*
X170787D01*
X170000Y249453D02*
Y251028D01*
X158350Y257327D02*
X164650D01*
X158350Y243154D02*
Y257327D01*
Y243154D02*
X164650D01*
Y257327D01*
X160713Y250240D02*
X162287D01*
X161500Y249453D02*
Y251028D01*
X302350Y175227D02*
X308650D01*
Y189401D01*
X302350D02*
X308650D01*
X302350Y175227D02*
Y189401D01*
X304713Y182314D02*
X306287D01*
X305500Y181527D02*
Y183101D01*
X283707Y182850D02*
Y189150D01*
Y182850D02*
X297880D01*
Y189150D01*
X283707D02*
X297880D01*
X290794Y185213D02*
Y186787D01*
X290006Y186000D02*
X291581D01*
X349587Y296850D02*
Y303150D01*
X335413D02*
X349587D01*
X335413Y296850D02*
Y303150D01*
Y296850D02*
X349587D01*
X342500Y299213D02*
Y300787D01*
X341713Y300000D02*
X343287D01*
X319587Y223000D02*
Y229299D01*
X305413D02*
X319587D01*
X305413Y223000D02*
Y229299D01*
Y223000D02*
X319587D01*
X312500Y225362D02*
Y226937D01*
X311713Y226150D02*
X313287D01*
X338413Y268736D02*
X344712D01*
X338413Y254563D02*
Y268736D01*
Y254563D02*
X344712D01*
Y268736D01*
X340775Y261650D02*
X342350D01*
X341562Y260862D02*
Y262437D01*
X257850Y203087D02*
X264150D01*
X257850Y188913D02*
Y203087D01*
Y188913D02*
X264150D01*
Y203087D01*
X260213Y196000D02*
X261787D01*
X261000Y195213D02*
Y196787D01*
X280087Y182850D02*
Y189150D01*
X265913D02*
X280087D01*
X265913Y182850D02*
Y189150D01*
Y182850D02*
X280087D01*
X273000Y185213D02*
Y186787D01*
X272213Y186000D02*
X273787D01*
X329187Y246097D02*
X335486D01*
X329187Y231924D02*
Y246097D01*
Y231924D02*
X335486D01*
Y246097D01*
X331549Y239010D02*
X333124D01*
X332336Y238223D02*
Y239798D01*
X287644Y284563D02*
X293943D01*
Y298736D01*
X287644D02*
X293943D01*
X287644Y284563D02*
Y298736D01*
X290006Y291650D02*
X291581D01*
X290794Y290862D02*
Y292437D01*
X319144Y231924D02*
X325443D01*
Y246097D01*
X319144D02*
X325443D01*
X319144Y231924D02*
Y246097D01*
X321506Y239010D02*
X323081D01*
X322294Y238223D02*
Y239798D01*
X338413Y246097D02*
X344712D01*
X338413Y231924D02*
Y246097D01*
Y231924D02*
X344712D01*
Y246097D01*
X340775Y239010D02*
X342350D01*
X341562Y238223D02*
Y239798D01*
X319144Y247924D02*
X325443D01*
Y262097D01*
X319144D02*
X325443D01*
X319144Y247924D02*
Y262097D01*
X321506Y255010D02*
X323081D01*
X322294Y254223D02*
Y255798D01*
X338413Y285736D02*
X344712D01*
X338413Y271563D02*
Y285736D01*
Y271563D02*
X344712D01*
Y285736D01*
X340775Y278650D02*
X342350D01*
X341562Y277862D02*
Y279437D01*
X260644Y299097D02*
X266943D01*
X260644Y284924D02*
Y299097D01*
Y284924D02*
X266943D01*
Y299097D01*
X263006Y292010D02*
X264581D01*
X263794Y291223D02*
Y292798D01*
X210913Y299000D02*
Y305299D01*
Y299000D02*
X225087D01*
Y305299D01*
X210913D02*
X225087D01*
X218000Y301362D02*
Y302937D01*
X217213Y302150D02*
X218787D01*
X87213Y168000D02*
X88000D01*
Y168787D01*
Y168000D02*
X88787D01*
X88000Y167213D02*
Y168000D01*
X84063Y160126D02*
Y175874D01*
X91937D01*
Y160126D02*
Y175874D01*
X84063Y160126D02*
X91937D01*
X102500Y163177D02*
Y163965D01*
X101713D02*
X102500D01*
Y164752D01*
Y163965D02*
X103287D01*
X94626Y160028D02*
X110374D01*
X94626D02*
Y167902D01*
X110374D01*
Y160028D02*
Y167902D01*
X196500Y146213D02*
Y147000D01*
X195713D02*
X196500D01*
Y147787D01*
Y147000D02*
X197287D01*
X188626Y143063D02*
X204374D01*
X188626D02*
Y150937D01*
X204374D01*
Y143063D02*
Y150937D01*
X305000Y364299D02*
Y365087D01*
Y364299D02*
X305787D01*
X305000Y363512D02*
Y364299D01*
X304213D02*
X305000D01*
X297126Y368236D02*
X312874D01*
Y360362D02*
Y368236D01*
X297126Y360362D02*
X312874D01*
X297126D02*
Y368236D01*
X275194Y328300D02*
Y337700D01*
Y328300D02*
X295394D01*
Y337700D01*
X275194D02*
X295394D01*
X284506Y333000D02*
X285294D01*
Y332213D02*
Y333000D01*
X286081D01*
X285294D02*
Y333787D01*
X341264Y183545D02*
X342051D01*
X341264Y182758D02*
Y183545D01*
X340476D02*
X341264D01*
Y184333D01*
X345201Y175672D02*
Y191419D01*
X337327Y175672D02*
X345201D01*
X337327D02*
Y191419D01*
X345201D01*
X326740Y196249D02*
Y197037D01*
X325953D02*
X326740D01*
Y197824D01*
Y197037D02*
X327528D01*
X318866Y193100D02*
X334614D01*
X318866D02*
Y200974D01*
X334614D01*
Y193100D02*
Y200974D01*
X339340Y206459D02*
Y215859D01*
X319140D02*
X339340D01*
X319140Y206459D02*
Y215859D01*
Y206459D02*
X339340D01*
X329240Y211159D02*
X330028D01*
X329240D02*
Y211946D01*
X328453Y211159D02*
X329240D01*
Y210371D02*
Y211159D01*
X156500Y145713D02*
Y146500D01*
X155713D02*
X156500D01*
Y147287D01*
Y146500D02*
X157287D01*
X148626Y142563D02*
X164374D01*
X148626D02*
Y150437D01*
X164374D01*
Y142563D02*
Y150437D01*
X349500Y155000D02*
X350287D01*
X349500Y154213D02*
Y155000D01*
X348713D02*
X349500D01*
Y155787D01*
X353437Y147126D02*
Y162874D01*
X345563Y147126D02*
X353437D01*
X345563D02*
Y162874D01*
X353437D01*
X332800Y167100D02*
X342200D01*
X332800Y146900D02*
Y167100D01*
Y146900D02*
X342200D01*
Y167100D01*
X337500Y157000D02*
Y157787D01*
X336713Y157000D02*
X337500D01*
Y156213D02*
Y157000D01*
X338287D01*
X100500Y178446D02*
X101287D01*
X100500Y177659D02*
Y178446D01*
X99713D02*
X100500D01*
Y179234D01*
X104437Y170572D02*
Y186320D01*
X96563Y170572D02*
X104437D01*
X96563D02*
Y186320D01*
X104437D01*
X213500Y209000D02*
X214287D01*
X213500Y208213D02*
Y209000D01*
X212713D02*
X213500D01*
Y209787D01*
X217437Y201126D02*
Y216874D01*
X209563Y201126D02*
X217437D01*
X209563D02*
Y216874D01*
X217437D01*
X236800Y220600D02*
X246200D01*
X236800Y200400D02*
Y220600D01*
Y200400D02*
X246200D01*
Y220600D01*
X241500Y210500D02*
Y211287D01*
X240713Y210500D02*
X241500D01*
Y209713D02*
Y210500D01*
X242287D01*
X234500Y225213D02*
Y226000D01*
X233713D02*
X234500D01*
Y226787D01*
Y226000D02*
X235287D01*
X226626Y222063D02*
X242374D01*
X226626D02*
Y229937D01*
X242374D01*
Y222063D02*
Y229937D01*
X251000Y358213D02*
Y359000D01*
X250213D02*
X251000D01*
Y359787D01*
Y359000D02*
X251787D01*
X243126Y355063D02*
X258874D01*
X243126D02*
Y362937D01*
X258874D01*
Y355063D02*
Y362937D01*
X228800Y363400D02*
X238200D01*
Y383600D01*
X228800D02*
X238200D01*
X228800Y363400D02*
Y383600D01*
X233500Y372713D02*
Y373500D01*
X234287D01*
X233500D02*
Y374287D01*
X232713Y373500D02*
X233500D01*
X227213Y392500D02*
X228000D01*
Y393287D01*
Y392500D02*
X228787D01*
X228000Y391713D02*
Y392500D01*
X224063Y384626D02*
Y400374D01*
X231937D01*
Y384626D02*
Y400374D01*
X224063Y384626D02*
X231937D01*
X235100Y310300D02*
Y319700D01*
X214900D02*
X235100D01*
X214900Y310300D02*
Y319700D01*
Y310300D02*
X235100D01*
X225000Y315000D02*
X225787D01*
X225000D02*
Y315787D01*
X224213Y315000D02*
X225000D01*
Y314213D02*
Y315000D01*
X180498Y142925D02*
X181285D01*
Y143712D01*
Y142925D02*
X182072D01*
X181285Y142138D02*
Y142925D01*
X177348Y135051D02*
Y150799D01*
X185222D01*
Y135051D02*
Y150799D01*
X177348Y135051D02*
X185222D01*
X208600Y131300D02*
Y140700D01*
X188400D02*
X208600D01*
X188400Y131300D02*
Y140700D01*
Y131300D02*
X208600D01*
X198500Y136000D02*
X199287D01*
X198500D02*
Y136787D01*
X197713Y136000D02*
X198500D01*
Y135213D02*
Y136000D01*
X216300Y131400D02*
X225700D01*
Y151600D01*
X216300D02*
X225700D01*
X216300Y131400D02*
Y151600D01*
X221000Y140713D02*
Y141500D01*
X221787D01*
X221000D02*
Y142287D01*
X220213Y141500D02*
X221000D01*
X148500Y211500D02*
X149287D01*
X148500Y210713D02*
Y211500D01*
X147713D02*
X148500D01*
Y212287D01*
X152437Y203626D02*
Y219374D01*
X144563Y203626D02*
X152437D01*
X144563D02*
Y219374D01*
X152437D01*
X141000Y155123D02*
Y155910D01*
Y155123D02*
X141787D01*
X141000Y154336D02*
Y155123D01*
X140213D02*
X141000D01*
X133126Y159060D02*
X148874D01*
Y151186D02*
Y159060D01*
X133126Y151186D02*
X148874D01*
X133126D02*
Y159060D01*
X214500Y165213D02*
Y166000D01*
X213713D02*
X214500D01*
Y166787D01*
Y166000D02*
X215287D01*
X206626Y162063D02*
X222374D01*
X206626D02*
Y169937D01*
X222374D01*
Y162063D02*
Y169937D01*
X212213Y189922D02*
X213000D01*
Y190710D01*
Y189922D02*
X213787D01*
X213000Y189135D02*
Y189922D01*
X209063Y182048D02*
Y197796D01*
X216937D01*
Y182048D02*
Y197796D01*
X209063Y182048D02*
X216937D01*
X222300Y177900D02*
X231700D01*
Y198100D01*
X222300D02*
X231700D01*
X222300Y177900D02*
Y198100D01*
X227000Y187213D02*
Y188000D01*
X227787D01*
X227000D02*
Y188787D01*
X226213Y188000D02*
X227000D01*
X137000Y138000D02*
Y138787D01*
Y138000D02*
X137787D01*
X137000Y137213D02*
Y138000D01*
X136213D02*
X137000D01*
X129126Y141937D02*
X144874D01*
Y134063D02*
Y141937D01*
X129126Y134063D02*
X144874D01*
X129126D02*
Y141937D01*
X284506Y223150D02*
X285294D01*
Y223937D01*
Y223150D02*
X286081D01*
X285294Y222362D02*
Y223150D01*
X281357Y215276D02*
Y231024D01*
X289231D01*
Y215276D02*
Y231024D01*
X281357Y215276D02*
X289231D01*
X261713Y168000D02*
X262500D01*
Y168787D01*
Y168000D02*
X263287D01*
X262500Y167213D02*
Y168000D01*
X258563Y160126D02*
Y175874D01*
X266437D01*
Y160126D02*
Y175874D01*
X258563Y160126D02*
X266437D01*
X257600Y179300D02*
Y188700D01*
X237400D02*
X257600D01*
X237400Y179300D02*
Y188700D01*
Y179300D02*
X257600D01*
X247500Y184000D02*
X248287D01*
X247500D02*
Y184787D01*
X246713Y184000D02*
X247500D01*
Y183213D02*
Y184000D01*
X298713Y223000D02*
X299500D01*
Y223787D01*
Y223000D02*
X300287D01*
X299500Y222213D02*
Y223000D01*
X295563Y215126D02*
Y230874D01*
X303437D01*
Y215126D02*
Y230874D01*
X295563Y215126D02*
X303437D01*
X245294Y279961D02*
X246081D01*
X245294Y279174D02*
Y279961D01*
X244506D02*
X245294D01*
Y280748D01*
X249231Y272087D02*
Y287835D01*
X241357Y272087D02*
X249231D01*
X241357D02*
Y287835D01*
X249231D01*
X274213Y291890D02*
X275000D01*
Y292677D01*
Y291890D02*
X275787D01*
X275000Y291102D02*
Y291890D01*
X271063Y284016D02*
Y299764D01*
X278937D01*
Y284016D02*
Y299764D01*
X271063Y284016D02*
X278937D01*
X253839Y292390D02*
X254627D01*
Y293177D01*
Y292390D02*
X255414D01*
X254627Y291602D02*
Y292390D01*
X250690Y284516D02*
Y300264D01*
X258564D01*
Y284516D02*
Y300264D01*
X250690Y284516D02*
X258564D01*
X302177Y291890D02*
X302965D01*
Y292677D01*
Y291890D02*
X303752D01*
X302965Y291102D02*
Y291890D01*
X299028Y284016D02*
Y299764D01*
X306902D01*
Y284016D02*
Y299764D01*
X299028Y284016D02*
X306902D01*
X327294Y273223D02*
Y274010D01*
X326506D02*
X327294D01*
Y274798D01*
Y274010D02*
X328081D01*
X319420Y270073D02*
X335168D01*
X319420D02*
Y277947D01*
X335168D01*
Y270073D02*
Y277947D01*
X328500Y325000D02*
X329287D01*
X328500Y324213D02*
Y325000D01*
X327713D02*
X328500D01*
Y325787D01*
X332437Y317126D02*
Y332874D01*
X324563Y317126D02*
X332437D01*
X324563D02*
Y332874D01*
X332437D01*
X263794Y225362D02*
Y226150D01*
X263006D02*
X263794D01*
Y226937D01*
Y226150D02*
X264581D01*
X255920Y222213D02*
X271668D01*
X255920D02*
Y230087D01*
X271668D01*
Y222213D02*
Y230087D01*
X316506Y291510D02*
X317294D01*
Y292298D01*
Y291510D02*
X318081D01*
X317294Y290723D02*
Y291510D01*
X313357Y283636D02*
Y299384D01*
X321231D01*
Y283636D02*
Y299384D01*
X313357Y283636D02*
X321231D01*
X117500Y174500D02*
Y175287D01*
Y174500D02*
X118287D01*
X117500Y173713D02*
Y174500D01*
X116713D02*
X117500D01*
X109626Y178437D02*
X125374D01*
Y170563D02*
Y178437D01*
X109626Y170563D02*
X125374D01*
X109626D02*
Y178437D01*
X328794Y291510D02*
X329581D01*
X328794Y290723D02*
Y291510D01*
X328006D02*
X328794D01*
Y292298D01*
X332731Y283636D02*
Y299384D01*
X324857Y283636D02*
X332731D01*
X324857D02*
Y299384D01*
X332731D01*
M02*
