G04*
G04 #@! TF.GenerationSoftware,Altium Limited,Altium Designer,18.1.9 (240)*
G04*
G04 Layer_Color=16711935*
%FSLAX25Y25*%
%MOIN*%
G70*
G01*
G75*
%ADD42C,0.11600*%
%ADD43C,0.00600*%
%ADD44C,0.06890*%
%ADD45C,0.06702*%
%ADD46C,0.08677*%
%ADD47R,0.08677X0.08677*%
%ADD48C,0.06506*%
%ADD49R,0.06506X0.06506*%
%ADD50R,0.08677X0.08677*%
%ADD51R,0.06506X0.06506*%
%ADD52O,0.05521X0.04734*%
%ADD53O,0.08600X0.05600*%
%ADD54C,0.04100*%
D42*
X375800Y275500D02*
D03*
Y292000D02*
D03*
Y308500D02*
D03*
X397500Y275500D02*
D03*
Y292000D02*
D03*
Y308500D02*
D03*
D43*
X103992Y344689D02*
D03*
Y408405D02*
D03*
X397000Y143000D02*
D03*
Y406000D02*
D03*
D44*
X91000Y362815D02*
D03*
X101000D02*
D03*
X111000D02*
D03*
X91000Y370216D02*
D03*
X101000D02*
D03*
X111000D02*
D03*
X91000Y382500D02*
D03*
X101000D02*
D03*
X111000D02*
D03*
X91000Y389902D02*
D03*
X101000D02*
D03*
X111000D02*
D03*
D45*
X249500Y154500D02*
D03*
X235000Y143500D02*
D03*
X198500Y334000D02*
D03*
X278000Y351819D02*
D03*
X363500Y226150D02*
D03*
X397500Y167000D02*
D03*
X133000Y233500D02*
D03*
X134500Y280000D02*
D03*
X375500Y340488D02*
D03*
X382000Y191500D02*
D03*
X206500Y322000D02*
D03*
X211000Y362500D02*
D03*
X229000Y405500D02*
D03*
X241500Y194000D02*
D03*
X231000Y302150D02*
D03*
X289994Y204000D02*
D03*
X274000D02*
D03*
D46*
X397000Y243935D02*
D03*
X113685Y143000D02*
D03*
D47*
X397000Y224250D02*
D03*
D48*
X206500Y270500D02*
D03*
X216500D02*
D03*
X206500Y260500D02*
D03*
X216500D02*
D03*
X206500Y250500D02*
D03*
X216500D02*
D03*
X206500Y240500D02*
D03*
X216500D02*
D03*
X206500Y230500D02*
D03*
X362500Y252500D02*
D03*
X352500D02*
D03*
X362500Y262500D02*
D03*
X352500D02*
D03*
X362500Y272500D02*
D03*
X352500D02*
D03*
X362500Y282500D02*
D03*
X97500Y298314D02*
D03*
X87500D02*
D03*
Y205500D02*
D03*
Y215500D02*
D03*
Y225500D02*
D03*
Y235500D02*
D03*
Y245500D02*
D03*
X97500Y322500D02*
D03*
X107500D02*
D03*
D49*
X216500Y230500D02*
D03*
X352500Y282500D02*
D03*
X87500Y195500D02*
D03*
D50*
X94000Y143000D02*
D03*
D51*
X107500Y298314D02*
D03*
X87500Y322500D02*
D03*
D52*
X98405Y281361D02*
D03*
Y262267D02*
D03*
D53*
X86594Y285643D02*
D03*
Y257985D02*
D03*
D54*
X235000Y166387D02*
D03*
X227500Y153373D02*
D03*
X107500Y174509D02*
D03*
X128000Y168780D02*
D03*
X222000Y293500D02*
D03*
X238500Y242000D02*
D03*
X242500Y255000D02*
D03*
X244000Y243500D02*
D03*
X240000Y293500D02*
D03*
X126500Y180000D02*
D03*
X222000Y287500D02*
D03*
X237500Y287475D02*
D03*
X333794Y250000D02*
D03*
X234000Y351500D02*
D03*
X310000Y321500D02*
D03*
Y301500D02*
D03*
X201500Y199387D02*
D03*
X289994Y192000D02*
D03*
X274000D02*
D03*
X238500Y249150D02*
D03*
X248000Y163500D02*
D03*
X235000Y157000D02*
D03*
X248000Y175465D02*
D03*
X235000Y175279D02*
D03*
X245319Y351819D02*
D03*
X278794Y230150D02*
D03*
Y249150D02*
D03*
X333794Y255650D02*
D03*
X333794Y266150D02*
D03*
M02*
