G04*
G04 #@! TF.GenerationSoftware,Altium Limited,Altium Designer,18.1.9 (240)*
G04*
G04 Layer_Color=32896*
%FSLAX25Y25*%
%MOIN*%
G70*
G01*
G75*
%ADD10C,0.01000*%
%ADD14C,0.00800*%
D10*
X123500Y313500D02*
X123517Y312499D01*
X123569Y311499D01*
X123655Y310502D01*
X123776Y309508D01*
X123931Y308519D01*
X124120Y307536D01*
X124343Y306560D01*
X124599Y305592D01*
X124889Y304634D01*
X125211Y303686D01*
X125566Y302750D01*
X125953Y301827D01*
X126372Y300917D01*
X126822Y300023D01*
X127302Y299145D01*
X127813Y298284D01*
X128353Y297441D01*
X128921Y296617D01*
X129518Y295813D01*
X130142Y295030D01*
X130793Y294269D01*
X131470Y293532D01*
X132172Y292818D01*
X132898Y292128D01*
X133647Y291464D01*
X134419Y290827D01*
X135212Y290216D01*
X136026Y289633D01*
X136860Y289079D01*
X137712Y288554D01*
X138582Y288058D01*
X139468Y287593D01*
X140370Y287159D01*
X141287Y286756D01*
X142217Y286385D01*
X143159Y286046D01*
X144112Y285740D01*
X145075Y285467D01*
X146047Y285227D01*
X147027Y285021D01*
X148013Y284849D01*
X149004Y284711D01*
X150000Y284608D01*
X150999Y284539D01*
X152000Y284504D01*
X153001D01*
X154001Y284539D01*
X155000Y284608D01*
X155996Y284712D01*
X156987Y284849D01*
X157974Y285021D01*
X158953Y285227D01*
X159925Y285467D01*
X160888Y285740D01*
X161842Y286046D01*
X162784Y286385D01*
X163714Y286756D01*
X164630Y287159D01*
X165532Y287593D01*
X166418Y288058D01*
X167288Y288554D01*
X168140Y289079D01*
X168974Y289634D01*
X169788Y290216D01*
X170581Y290827D01*
X171353Y291465D01*
X172102Y292128D01*
X172828Y292818D01*
X173530Y293532D01*
X174207Y294270D01*
X174858Y295030D01*
X175482Y295813D01*
X176079Y296617D01*
X176647Y297441D01*
X177187Y298284D01*
X177698Y299145D01*
X178178Y300023D01*
X178628Y300918D01*
X179047Y301827D01*
X179434Y302750D01*
X179789Y303686D01*
X180112Y304634D01*
X180401Y305592D01*
X180657Y306560D01*
X180880Y307536D01*
X181069Y308519D01*
X181224Y309508D01*
X181345Y310502D01*
X181431Y311500D01*
X181483Y312499D01*
X181500Y313500D01*
X125500D02*
X125518Y312502D01*
X125574Y311506D01*
X125666Y310512D01*
X125794Y309523D01*
X125960Y308539D01*
X126161Y307561D01*
X126399Y306592D01*
X126672Y305632D01*
X126980Y304683D01*
X127323Y303747D01*
X127701Y302823D01*
X128112Y301914D01*
X128557Y301021D01*
X129035Y300144D01*
X129544Y299286D01*
X130085Y298448D01*
X130657Y297630D01*
X131258Y296833D01*
X131888Y296060D01*
X132547Y295310D01*
X133232Y294585D01*
X133945Y293886D01*
X134682Y293214D01*
X135444Y292569D01*
X136229Y291953D01*
X137036Y291367D01*
X137864Y290811D01*
X138713Y290285D01*
X139580Y289792D01*
X140465Y289331D01*
X141366Y288902D01*
X142283Y288508D01*
X143213Y288147D01*
X144157Y287822D01*
X145111Y287531D01*
X146076Y287275D01*
X147049Y287056D01*
X148030Y286873D01*
X149017Y286726D01*
X150009Y286615D01*
X151004Y286542D01*
X152001Y286505D01*
X152999D01*
X153996Y286542D01*
X154991Y286615D01*
X155983Y286726D01*
X156970Y286873D01*
X157951Y287056D01*
X158924Y287275D01*
X159889Y287531D01*
X160843Y287822D01*
X161787Y288147D01*
X162717Y288508D01*
X163634Y288902D01*
X164535Y289331D01*
X165420Y289792D01*
X166287Y290285D01*
X167135Y290811D01*
X167964Y291367D01*
X168771Y291953D01*
X169556Y292569D01*
X170318Y293214D01*
X171055Y293886D01*
X171767Y294585D01*
X172453Y295310D01*
X173112Y296060D01*
X173742Y296833D01*
X174343Y297630D01*
X174915Y298448D01*
X175456Y299286D01*
X175965Y300144D01*
X176443Y301020D01*
X176888Y301914D01*
X177299Y302823D01*
X177677Y303746D01*
X178020Y304683D01*
X178328Y305632D01*
X178601Y306592D01*
X178839Y307561D01*
X179040Y308539D01*
X179206Y309523D01*
X179334Y310512D01*
X179426Y311506D01*
X179482Y312502D01*
X179500Y313500D01*
X127500Y313500D02*
X127520Y312506D01*
X127579Y311514D01*
X127678Y310525D01*
X127816Y309540D01*
X127993Y308562D01*
X128208Y307591D01*
X128462Y306630D01*
X128754Y305680D01*
X129084Y304742D01*
X129451Y303818D01*
X129854Y302909D01*
X130293Y302017D01*
X130767Y301144D01*
X131275Y300290D01*
X131817Y299456D01*
X132392Y298645D01*
X132999Y297857D01*
X133636Y297094D01*
X134303Y296357D01*
X134999Y295647D01*
X135723Y294966D01*
X136473Y294313D01*
X137248Y293691D01*
X138048Y293101D01*
X138870Y292542D01*
X139714Y292017D01*
X140578Y291526D01*
X141461Y291069D01*
X142362Y290648D01*
X143279Y290263D01*
X144210Y289915D01*
X145154Y289604D01*
X146110Y289331D01*
X147076Y289096D01*
X148050Y288899D01*
X149032Y288742D01*
X150019Y288623D01*
X151010Y288545D01*
X152003Y288505D01*
X152997D01*
X153990Y288545D01*
X154981Y288623D01*
X155968Y288742D01*
X156950Y288899D01*
X157924Y289096D01*
X158890Y289331D01*
X159846Y289604D01*
X160791Y289915D01*
X161722Y290263D01*
X162638Y290648D01*
X163539Y291069D01*
X164422Y291526D01*
X165286Y292017D01*
X166130Y292542D01*
X166952Y293101D01*
X167752Y293691D01*
X168527Y294314D01*
X169278Y294966D01*
X170001Y295648D01*
X170697Y296357D01*
X171364Y297094D01*
X172001Y297857D01*
X172608Y298645D01*
X173183Y299456D01*
X173725Y300290D01*
X174233Y301144D01*
X174707Y302018D01*
X175146Y302909D01*
X175549Y303818D01*
X175916Y304742D01*
X176245Y305680D01*
X176538Y306630D01*
X176792Y307591D01*
X177007Y308562D01*
X177184Y309540D01*
X177322Y310525D01*
X177421Y311514D01*
X177480Y312506D01*
X177500Y313500D01*
X129500Y313500D02*
X129522Y312497D01*
X129587Y311495D01*
X129697Y310498D01*
X129849Y309506D01*
X130045Y308522D01*
X130284Y307547D01*
X130564Y306584D01*
X130887Y305633D01*
X131251Y304698D01*
X131655Y303780D01*
X132099Y302880D01*
X132581Y302000D01*
X133102Y301142D01*
X133660Y300308D01*
X134253Y299499D01*
X134881Y298716D01*
X135543Y297961D01*
X136237Y297236D01*
X136961Y296543D01*
X137716Y295881D01*
X138498Y295253D01*
X139308Y294659D01*
X140142Y294102D01*
X141000Y293581D01*
X141880Y293099D01*
X142780Y292655D01*
X143698Y292251D01*
X144633Y291887D01*
X145584Y291564D01*
X146547Y291284D01*
X147522Y291045D01*
X148506Y290849D01*
X149498Y290697D01*
X150495Y290587D01*
X151497Y290522D01*
X152500Y290500D01*
X153503Y290522D01*
X154505Y290587D01*
X155502Y290697D01*
X156494Y290849D01*
X157478Y291045D01*
X158453Y291284D01*
X159416Y291564D01*
X160366Y291887D01*
X161302Y292251D01*
X162220Y292655D01*
X163120Y293099D01*
X164000Y293581D01*
X164858Y294102D01*
X165692Y294659D01*
X166501Y295253D01*
X167284Y295881D01*
X168039Y296543D01*
X168763Y297236D01*
X169457Y297961D01*
X170119Y298716D01*
X170747Y299499D01*
X171341Y300308D01*
X171898Y301142D01*
X172419Y302000D01*
X172901Y302880D01*
X173345Y303780D01*
X173749Y304698D01*
X174113Y305633D01*
X174435Y306584D01*
X174716Y307547D01*
X174955Y308522D01*
X175151Y309506D01*
X175303Y310498D01*
X175412Y311495D01*
X175478Y312497D01*
X175500Y313500D01*
X131500D02*
X131524Y312501D01*
X131595Y311504D01*
X131714Y310511D01*
X131879Y309526D01*
X132092Y308549D01*
X132351Y307584D01*
X132655Y306632D01*
X133004Y305695D01*
X133398Y304776D01*
X133835Y303877D01*
X134313Y303000D01*
X134834Y302147D01*
X135394Y301319D01*
X135993Y300519D01*
X136629Y299748D01*
X137302Y299008D01*
X138008Y298302D01*
X138748Y297629D01*
X139519Y296993D01*
X140319Y296394D01*
X141147Y295834D01*
X142000Y295313D01*
X142877Y294834D01*
X143776Y294398D01*
X144695Y294004D01*
X145632Y293655D01*
X146584Y293351D01*
X147549Y293092D01*
X148526Y292880D01*
X149511Y292714D01*
X150504Y292595D01*
X151501Y292524D01*
X152500Y292500D01*
X153499Y292524D01*
X154496Y292595D01*
X155489Y292714D01*
X156474Y292880D01*
X157451Y293092D01*
X158416Y293351D01*
X159369Y293655D01*
X160305Y294004D01*
X161224Y294398D01*
X162123Y294834D01*
X163000Y295314D01*
X163854Y295834D01*
X164681Y296394D01*
X165481Y296993D01*
X166252Y297629D01*
X166992Y298302D01*
X167698Y299008D01*
X168371Y299748D01*
X169007Y300519D01*
X169606Y301319D01*
X170166Y302147D01*
X170686Y303000D01*
X171166Y303877D01*
X171602Y304776D01*
X171996Y305695D01*
X172345Y306632D01*
X172649Y307584D01*
X172908Y308549D01*
X173120Y309526D01*
X173286Y310511D01*
X173405Y311504D01*
X173476Y312501D01*
X173500Y313500D01*
X183500Y313500D02*
X183483Y314502D01*
X183433Y315504D01*
X183349Y316503D01*
X183232Y317499D01*
X183082Y318490D01*
X182899Y319476D01*
X182683Y320455D01*
X182434Y321426D01*
X182153Y322388D01*
X181840Y323341D01*
X181495Y324282D01*
X181120Y325212D01*
X180713Y326128D01*
X180276Y327030D01*
X179808Y327918D01*
X179312Y328788D01*
X178787Y329643D01*
X178233Y330478D01*
X177652Y331295D01*
X177044Y332092D01*
X176410Y332869D01*
X175750Y333624D01*
X175065Y334356D01*
X174356Y335065D01*
X173624Y335750D01*
X172869Y336410D01*
X172092Y337044D01*
X171295Y337652D01*
X170478Y338233D01*
X169642Y338787D01*
X168789Y339312D01*
X167918Y339809D01*
X167030Y340276D01*
X166128Y340713D01*
X165212Y341120D01*
X164282Y341495D01*
X163341Y341840D01*
X162388Y342153D01*
X161426Y342434D01*
X160455Y342683D01*
X159476Y342899D01*
X158490Y343082D01*
X157499Y343232D01*
X156503Y343349D01*
X155504Y343433D01*
X154502Y343483D01*
X153500Y343500D01*
X152497Y343483D01*
X151496Y343433D01*
X150497Y343349D01*
X149501Y343232D01*
X148510Y343082D01*
X147524Y342899D01*
X146545Y342683D01*
X145574Y342434D01*
X144612Y342153D01*
X143659Y341840D01*
X142718Y341495D01*
X141788Y341120D01*
X140872Y340713D01*
X139970Y340276D01*
X139083Y339809D01*
X138212Y339312D01*
X137357Y338787D01*
X136522Y338233D01*
X135705Y337652D01*
X134907Y337044D01*
X134131Y336410D01*
X133376Y335750D01*
X132644Y335065D01*
X131935Y334356D01*
X131250Y333624D01*
X130590Y332869D01*
X129956Y332092D01*
X129348Y331295D01*
X128767Y330478D01*
X128213Y329643D01*
X127688Y328788D01*
X127191Y327918D01*
X126725Y327030D01*
X126287Y326128D01*
X125881Y325212D01*
X125505Y324282D01*
X125160Y323341D01*
X124847Y322388D01*
X124566Y321426D01*
X124317Y320455D01*
X124101Y319476D01*
X123918Y318490D01*
X123768Y317499D01*
X123651Y316503D01*
X123567Y315504D01*
X123517Y314503D01*
X123500Y313500D01*
X181500Y313500D02*
X181482Y314499D01*
X181429Y315497D01*
X181340Y316493D01*
X181215Y317485D01*
X181055Y318472D01*
X180860Y319452D01*
X180630Y320425D01*
X180366Y321389D01*
X180067Y322342D01*
X179735Y323285D01*
X179369Y324215D01*
X178970Y325132D01*
X178538Y326033D01*
X178075Y326919D01*
X177580Y327788D01*
X177055Y328638D01*
X176500Y329469D01*
X175915Y330280D01*
X175302Y331069D01*
X174661Y331836D01*
X173993Y332580D01*
X173299Y333299D01*
X172580Y333993D01*
X171836Y334661D01*
X171069Y335302D01*
X170280Y335915D01*
X169469Y336500D01*
X168638Y337055D01*
X167788Y337580D01*
X166919Y338075D01*
X166033Y338538D01*
X165132Y338970D01*
X164215Y339369D01*
X163285Y339735D01*
X162342Y340067D01*
X161389Y340366D01*
X160425Y340630D01*
X159452Y340860D01*
X158472Y341055D01*
X157485Y341215D01*
X156493Y341340D01*
X155498Y341429D01*
X154499Y341482D01*
X153500Y341500D01*
X152501Y341482D01*
X151503Y341429D01*
X150507Y341340D01*
X149515Y341215D01*
X148529Y341055D01*
X147548Y340860D01*
X146575Y340630D01*
X145612Y340366D01*
X144658Y340067D01*
X143715Y339735D01*
X142785Y339369D01*
X141868Y338970D01*
X140967Y338538D01*
X140081Y338075D01*
X139212Y337580D01*
X138362Y337055D01*
X137531Y336500D01*
X136720Y335915D01*
X135931Y335302D01*
X135164Y334661D01*
X134420Y333993D01*
X133701Y333299D01*
X133007Y332580D01*
X132339Y331836D01*
X131698Y331069D01*
X131085Y330280D01*
X130500Y329469D01*
X129945Y328638D01*
X129420Y327787D01*
X128925Y326919D01*
X128462Y326033D01*
X128030Y325132D01*
X127631Y324215D01*
X127265Y323285D01*
X126933Y322342D01*
X126634Y321389D01*
X126370Y320425D01*
X126140Y319452D01*
X125945Y318472D01*
X125785Y317485D01*
X125660Y316493D01*
X125571Y315497D01*
X125518Y314499D01*
X125500Y313500D01*
X133500D02*
X133526Y312506D01*
X133604Y311514D01*
X133734Y310528D01*
X133915Y309550D01*
X134147Y308582D01*
X134430Y307629D01*
X134762Y306691D01*
X135143Y305772D01*
X135571Y304874D01*
X136046Y304000D01*
X136565Y303152D01*
X137129Y302332D01*
X137734Y301543D01*
X138380Y300786D01*
X139065Y300065D01*
X139787Y299380D01*
X140543Y298734D01*
X141332Y298129D01*
X142152Y297565D01*
X143000Y297045D01*
X143874Y296571D01*
X144772Y296143D01*
X145691Y295762D01*
X146629Y295430D01*
X147582Y295147D01*
X148550Y294915D01*
X149528Y294734D01*
X150514Y294604D01*
X151506Y294526D01*
X152500Y294500D01*
X153494Y294526D01*
X154486Y294604D01*
X155472Y294734D01*
X156450Y294915D01*
X157418Y295147D01*
X158371Y295430D01*
X159309Y295762D01*
X160228Y296143D01*
X161126Y296571D01*
X162000Y297045D01*
X162848Y297565D01*
X163668Y298129D01*
X164457Y298734D01*
X165214Y299380D01*
X165935Y300065D01*
X166620Y300786D01*
X167266Y301543D01*
X167871Y302332D01*
X168435Y303152D01*
X168955Y304000D01*
X169429Y304874D01*
X169857Y305772D01*
X170238Y306691D01*
X170570Y307629D01*
X170853Y308582D01*
X171085Y309550D01*
X171266Y310528D01*
X171396Y311514D01*
X171474Y312506D01*
X171500Y313500D01*
X135500D02*
X135530Y312493D01*
X135619Y311489D01*
X135768Y310493D01*
X135976Y309507D01*
X136241Y308535D01*
X136564Y307581D01*
X136943Y306647D01*
X137376Y305737D01*
X137862Y304855D01*
X138400Y304003D01*
X138988Y303184D01*
X139622Y302402D01*
X140302Y301659D01*
X141025Y300957D01*
X141788Y300299D01*
X142589Y299688D01*
X143425Y299125D01*
X144292Y298612D01*
X145189Y298152D01*
X146111Y297746D01*
X147055Y297395D01*
X148019Y297101D01*
X148998Y296865D01*
X149990Y296686D01*
X150990Y296567D01*
X151996Y296508D01*
X153004D01*
X154009Y296567D01*
X155010Y296686D01*
X156002Y296865D01*
X156981Y297101D01*
X157945Y297395D01*
X158889Y297746D01*
X159811Y298152D01*
X160707Y298612D01*
X161575Y299125D01*
X162411Y299688D01*
X163212Y300299D01*
X163975Y300957D01*
X164698Y301659D01*
X165378Y302402D01*
X166013Y303185D01*
X166600Y304003D01*
X167138Y304855D01*
X167624Y305737D01*
X168058Y306647D01*
X168436Y307581D01*
X168759Y308535D01*
X169024Y309507D01*
X169232Y310493D01*
X169381Y311490D01*
X169470Y312493D01*
X169500Y313500D01*
X137500D02*
X137533Y312498D01*
X137634Y311501D01*
X137801Y310512D01*
X138033Y309537D01*
X138330Y308580D01*
X138690Y307644D01*
X139112Y306735D01*
X139594Y305856D01*
X140133Y305011D01*
X140728Y304204D01*
X141375Y303438D01*
X142072Y302718D01*
X142816Y302045D01*
X143602Y301424D01*
X144429Y300857D01*
X145291Y300346D01*
X146186Y299894D01*
X147109Y299502D01*
X148056Y299173D01*
X149023Y298909D01*
X150005Y298709D01*
X150999Y298575D01*
X151999Y298508D01*
X153001D01*
X154001Y298575D01*
X154995Y298709D01*
X155977Y298909D01*
X156944Y299173D01*
X157891Y299502D01*
X158814Y299894D01*
X159709Y300346D01*
X160571Y300857D01*
X161398Y301424D01*
X162184Y302045D01*
X162928Y302718D01*
X163625Y303438D01*
X164272Y304204D01*
X164867Y305011D01*
X165406Y305856D01*
X165888Y306735D01*
X166310Y307644D01*
X166670Y308580D01*
X166967Y309537D01*
X167199Y310512D01*
X167366Y311501D01*
X167466Y312498D01*
X167500Y313500D01*
X139500Y313500D02*
X139538Y312505D01*
X139652Y311516D01*
X139842Y310538D01*
X140106Y309578D01*
X140443Y308640D01*
X140850Y307732D01*
X141326Y306857D01*
X141867Y306021D01*
X142471Y305229D01*
X143133Y304485D01*
X143851Y303795D01*
X144619Y303161D01*
X145434Y302588D01*
X146290Y302079D01*
X147182Y301637D01*
X148106Y301265D01*
X149055Y300965D01*
X150025Y300738D01*
X151009Y300586D01*
X152002Y300510D01*
X152998D01*
X153991Y300586D01*
X154975Y300738D01*
X155945Y300965D01*
X156894Y301265D01*
X157818Y301638D01*
X158710Y302079D01*
X159566Y302588D01*
X160381Y303161D01*
X161149Y303795D01*
X161867Y304485D01*
X162529Y305229D01*
X163133Y306021D01*
X163674Y306857D01*
X164150Y307732D01*
X164558Y308640D01*
X164894Y309578D01*
X165158Y310538D01*
X165348Y311516D01*
X165462Y312505D01*
X165500Y313500D01*
X141500D02*
X141544Y312514D01*
X141677Y311536D01*
X141896Y310574D01*
X142201Y309635D01*
X142589Y308727D01*
X143057Y307858D01*
X143601Y307034D01*
X144216Y306263D01*
X144898Y305549D01*
X145642Y304900D01*
X146440Y304320D01*
X147287Y303814D01*
X148177Y303385D01*
X149101Y303038D01*
X150052Y302776D01*
X151023Y302600D01*
X152006Y302511D01*
X152994D01*
X153977Y302600D01*
X154948Y302776D01*
X155899Y303038D01*
X156823Y303385D01*
X157712Y303813D01*
X158560Y304320D01*
X159358Y304900D01*
X160102Y305549D01*
X160784Y306263D01*
X161399Y307034D01*
X161943Y307858D01*
X162411Y308727D01*
X162799Y309635D01*
X163104Y310574D01*
X163323Y311536D01*
X163456Y312514D01*
X163500Y313500D01*
X179500Y313500D02*
X179481Y314496D01*
X179424Y315490D01*
X179328Y316482D01*
X179195Y317469D01*
X179024Y318450D01*
X178816Y319424D01*
X178571Y320390D01*
X178288Y321345D01*
X177970Y322288D01*
X177615Y323219D01*
X177225Y324136D01*
X176800Y325037D01*
X176341Y325921D01*
X175849Y326786D01*
X175323Y327633D01*
X174766Y328458D01*
X174178Y329262D01*
X173559Y330042D01*
X172910Y330799D01*
X172234Y331529D01*
X171529Y332234D01*
X170799Y332910D01*
X170042Y333559D01*
X169262Y334178D01*
X168458Y334766D01*
X167633Y335324D01*
X166787Y335849D01*
X165921Y336341D01*
X165037Y336800D01*
X164136Y337225D01*
X163219Y337615D01*
X162288Y337970D01*
X161345Y338288D01*
X160389Y338571D01*
X159424Y338816D01*
X158450Y339024D01*
X157469Y339195D01*
X156482Y339329D01*
X155490Y339424D01*
X154496Y339481D01*
X153500Y339500D01*
X152504Y339481D01*
X151510Y339424D01*
X150518Y339329D01*
X149531Y339195D01*
X148550Y339024D01*
X147576Y338816D01*
X146610Y338571D01*
X145655Y338288D01*
X144712Y337970D01*
X143781Y337615D01*
X142864Y337225D01*
X141963Y336800D01*
X141079Y336341D01*
X140214Y335849D01*
X139367Y335324D01*
X138542Y334766D01*
X137738Y334178D01*
X136958Y333559D01*
X136202Y332910D01*
X135471Y332234D01*
X134766Y331529D01*
X134090Y330799D01*
X133441Y330042D01*
X132822Y329262D01*
X132234Y328458D01*
X131676Y327633D01*
X131151Y326786D01*
X130659Y325921D01*
X130200Y325037D01*
X129775Y324136D01*
X129385Y323219D01*
X129030Y322288D01*
X128712Y321345D01*
X128429Y320390D01*
X128184Y319424D01*
X127976Y318450D01*
X127805Y317469D01*
X127672Y316482D01*
X127576Y315490D01*
X127519Y314496D01*
X127500Y313500D01*
X177500D02*
X177479Y314505D01*
X177416Y315508D01*
X177311Y316508D01*
X177164Y317502D01*
X176976Y318490D01*
X176746Y319469D01*
X176476Y320437D01*
X176165Y321393D01*
X175815Y322335D01*
X175425Y323262D01*
X174997Y324171D01*
X174531Y325062D01*
X174029Y325933D01*
X173490Y326781D01*
X172916Y327607D01*
X172309Y328408D01*
X171668Y329182D01*
X170995Y329929D01*
X170292Y330647D01*
X169559Y331335D01*
X168798Y331992D01*
X168010Y332617D01*
X167197Y333208D01*
X166360Y333764D01*
X165500Y334285D01*
X164619Y334769D01*
X163719Y335216D01*
X162800Y335625D01*
X161866Y335995D01*
X160916Y336325D01*
X159954Y336616D01*
X158980Y336866D01*
X157997Y337075D01*
X157006Y337243D01*
X156009Y337368D01*
X155007Y337453D01*
X154003Y337495D01*
X152997D01*
X151993Y337453D01*
X150991Y337368D01*
X149994Y337243D01*
X149003Y337075D01*
X148020Y336866D01*
X147046Y336616D01*
X146084Y336325D01*
X145134Y335995D01*
X144200Y335625D01*
X143281Y335216D01*
X142381Y334769D01*
X141500Y334285D01*
X140640Y333764D01*
X139803Y333208D01*
X138990Y332617D01*
X138202Y331992D01*
X137441Y331335D01*
X136708Y330647D01*
X136005Y329929D01*
X135332Y329182D01*
X134691Y328408D01*
X134084Y327607D01*
X133510Y326781D01*
X132971Y325933D01*
X132469Y325062D01*
X132003Y324171D01*
X131575Y323262D01*
X131185Y322335D01*
X130835Y321393D01*
X130524Y320437D01*
X130254Y319469D01*
X130025Y318490D01*
X129836Y317502D01*
X129689Y316508D01*
X129584Y315508D01*
X129521Y314505D01*
X129500Y313500D01*
X175500Y313500D02*
X175477Y314501D01*
X175409Y315501D01*
X175295Y316496D01*
X175136Y317485D01*
X174932Y318465D01*
X174684Y319436D01*
X174392Y320394D01*
X174057Y321337D01*
X173679Y322265D01*
X173259Y323174D01*
X172798Y324063D01*
X172297Y324931D01*
X171757Y325775D01*
X171180Y326593D01*
X170566Y327384D01*
X169916Y328146D01*
X169232Y328878D01*
X168516Y329578D01*
X167769Y330245D01*
X166992Y330877D01*
X166187Y331473D01*
X165356Y332032D01*
X164500Y332553D01*
X163621Y333033D01*
X162722Y333474D01*
X161803Y333873D01*
X160867Y334230D01*
X159916Y334544D01*
X158952Y334814D01*
X157976Y335040D01*
X156991Y335221D01*
X155999Y335358D01*
X155001Y335449D01*
X154001Y335494D01*
X152999D01*
X151999Y335449D01*
X151001Y335358D01*
X150009Y335221D01*
X149024Y335040D01*
X148048Y334814D01*
X147084Y334544D01*
X146133Y334230D01*
X145197Y333873D01*
X144278Y333474D01*
X143379Y333033D01*
X142500Y332553D01*
X141644Y332032D01*
X140813Y331473D01*
X140008Y330877D01*
X139231Y330245D01*
X138484Y329578D01*
X137768Y328878D01*
X137084Y328146D01*
X136434Y327384D01*
X135820Y326593D01*
X135242Y325775D01*
X134703Y324931D01*
X134202Y324063D01*
X133741Y323174D01*
X133321Y322265D01*
X132943Y321337D01*
X132608Y320394D01*
X132316Y319436D01*
X132068Y318465D01*
X131864Y317485D01*
X131705Y316496D01*
X131591Y315501D01*
X131523Y314501D01*
X131500Y313500D01*
X173500Y313500D02*
X173475Y314497D01*
X173401Y315491D01*
X173277Y316481D01*
X173103Y317463D01*
X172881Y318435D01*
X172611Y319395D01*
X172294Y320340D01*
X171930Y321269D01*
X171519Y322178D01*
X171064Y323065D01*
X170566Y323929D01*
X170025Y324766D01*
X169443Y325576D01*
X168821Y326356D01*
X168161Y327103D01*
X167465Y327817D01*
X166734Y328496D01*
X165970Y329137D01*
X165175Y329739D01*
X164351Y330300D01*
X163500Y330820D01*
X162624Y331297D01*
X161726Y331730D01*
X160807Y332118D01*
X159870Y332459D01*
X158917Y332752D01*
X157950Y332999D01*
X156973Y333196D01*
X155987Y333345D01*
X154995Y333444D01*
X153999Y333494D01*
X153001D01*
X152005Y333444D01*
X151013Y333345D01*
X150027Y333196D01*
X149050Y332999D01*
X148083Y332752D01*
X147130Y332459D01*
X146193Y332118D01*
X145274Y331730D01*
X144376Y331297D01*
X143500Y330820D01*
X142649Y330300D01*
X141825Y329739D01*
X141030Y329137D01*
X140266Y328496D01*
X139535Y327817D01*
X138839Y327103D01*
X138179Y326356D01*
X137557Y325576D01*
X136975Y324766D01*
X136434Y323929D01*
X135936Y323065D01*
X135481Y322178D01*
X135071Y321269D01*
X134706Y320340D01*
X134389Y319395D01*
X134118Y318435D01*
X133897Y317463D01*
X133723Y316481D01*
X133599Y315491D01*
X133525Y314497D01*
X133500Y313500D01*
X171500D02*
X171473Y314492D01*
X171391Y315480D01*
X171255Y316463D01*
X171064Y317436D01*
X170821Y318398D01*
X170525Y319345D01*
X170177Y320274D01*
X169778Y321182D01*
X169331Y322067D01*
X168834Y322926D01*
X168292Y323757D01*
X167704Y324556D01*
X167074Y325322D01*
X166402Y326051D01*
X165691Y326743D01*
X164943Y327395D01*
X164160Y328004D01*
X163345Y328569D01*
X162500Y329088D01*
X161628Y329561D01*
X160731Y329984D01*
X159811Y330357D01*
X158873Y330679D01*
X157919Y330949D01*
X156951Y331166D01*
X155972Y331329D01*
X154986Y331438D01*
X153996Y331493D01*
X153004D01*
X152014Y331438D01*
X151028Y331329D01*
X150049Y331166D01*
X149081Y330949D01*
X148127Y330679D01*
X147188Y330357D01*
X146270Y329984D01*
X145372Y329561D01*
X144500Y329088D01*
X143655Y328569D01*
X142840Y328004D01*
X142057Y327395D01*
X141309Y326743D01*
X140598Y326051D01*
X139926Y325322D01*
X139295Y324556D01*
X138708Y323757D01*
X138165Y322926D01*
X137670Y322067D01*
X137222Y321182D01*
X136823Y320273D01*
X136475Y319345D01*
X136179Y318398D01*
X135936Y317436D01*
X135746Y316463D01*
X135609Y315480D01*
X135527Y314492D01*
X135500Y313500D01*
X169500D02*
X169468Y314505D01*
X169374Y315505D01*
X169217Y316498D01*
X168997Y317479D01*
X168717Y318444D01*
X168376Y319390D01*
X167977Y320312D01*
X167521Y321208D01*
X167009Y322073D01*
X166444Y322905D01*
X165828Y323699D01*
X165164Y324453D01*
X164453Y325164D01*
X163699Y325828D01*
X162905Y326444D01*
X162073Y327009D01*
X161208Y327521D01*
X160312Y327977D01*
X159390Y328376D01*
X158444Y328717D01*
X157479Y328997D01*
X156498Y329217D01*
X155505Y329374D01*
X154505Y329468D01*
X153500Y329500D01*
X152495Y329468D01*
X151495Y329374D01*
X150502Y329217D01*
X149521Y328997D01*
X148556Y328717D01*
X147610Y328376D01*
X146687Y327977D01*
X145792Y327521D01*
X144927Y327009D01*
X144095Y326444D01*
X143301Y325828D01*
X142547Y325164D01*
X141837Y324453D01*
X141172Y323699D01*
X140556Y322905D01*
X139991Y322073D01*
X139479Y321208D01*
X139023Y320312D01*
X138624Y319390D01*
X138283Y318444D01*
X138003Y317479D01*
X137783Y316498D01*
X137626Y315505D01*
X137532Y314505D01*
X137500Y313500D01*
X167500D02*
X167464Y314499D01*
X167358Y315492D01*
X167180Y316476D01*
X166933Y317444D01*
X166617Y318392D01*
X166235Y319316D01*
X165787Y320210D01*
X165278Y321069D01*
X164708Y321890D01*
X164081Y322668D01*
X163400Y323399D01*
X162668Y324080D01*
X161890Y324708D01*
X161069Y325278D01*
X160210Y325787D01*
X159316Y326235D01*
X158393Y326617D01*
X157444Y326933D01*
X156476Y327180D01*
X155492Y327358D01*
X154499Y327464D01*
X153500Y327500D01*
X152501Y327464D01*
X151508Y327358D01*
X150524Y327180D01*
X149556Y326933D01*
X148608Y326617D01*
X147684Y326235D01*
X146791Y325787D01*
X145931Y325278D01*
X145110Y324708D01*
X144332Y324080D01*
X143600Y323399D01*
X142920Y322668D01*
X142292Y321890D01*
X141723Y321069D01*
X141212Y320210D01*
X140765Y319316D01*
X140383Y318392D01*
X140067Y317444D01*
X139820Y316476D01*
X139643Y315492D01*
X139536Y314499D01*
X139500Y313500D01*
X165500D02*
X165459Y314491D01*
X165336Y315475D01*
X165133Y316446D01*
X164850Y317396D01*
X164489Y318320D01*
X164054Y319211D01*
X163546Y320063D01*
X162970Y320871D01*
X162329Y321627D01*
X161627Y322329D01*
X160871Y322970D01*
X160063Y323546D01*
X159211Y324054D01*
X158320Y324489D01*
X157396Y324850D01*
X156446Y325133D01*
X155475Y325336D01*
X154491Y325459D01*
X153500Y325500D01*
X152509Y325459D01*
X151525Y325336D01*
X150554Y325133D01*
X149604Y324850D01*
X148680Y324489D01*
X147789Y324054D01*
X146937Y323546D01*
X146129Y322970D01*
X145373Y322329D01*
X144671Y321627D01*
X144030Y320871D01*
X143454Y320063D01*
X142946Y319211D01*
X142511Y318320D01*
X142150Y317396D01*
X141867Y316446D01*
X141664Y315475D01*
X141541Y314491D01*
X141500Y313500D01*
X163500D02*
X163449Y314512D01*
X163295Y315513D01*
X163041Y316494D01*
X162690Y317444D01*
X162243Y318353D01*
X161708Y319213D01*
X161088Y320014D01*
X160390Y320748D01*
X159621Y321408D01*
X158790Y321986D01*
X157904Y322478D01*
X156973Y322878D01*
X156007Y323181D01*
X155014Y323385D01*
X154007Y323487D01*
X152994Y323487D01*
X151986Y323385D01*
X150994Y323181D01*
X150027Y322878D01*
X149096Y322478D01*
X148210Y321986D01*
X147379Y321408D01*
X146610Y320748D01*
X145912Y320014D01*
X145292Y319213D01*
X144756Y318353D01*
X144310Y317444D01*
X143959Y316494D01*
X143705Y315513D01*
X143551Y314512D01*
X143500Y313500D01*
X143557Y312492D01*
X143726Y311497D01*
X144005Y310527D01*
X144391Y309595D01*
X144879Y308712D01*
X145464Y307889D01*
X146136Y307136D01*
X146889Y306464D01*
X147712Y305879D01*
X148595Y305391D01*
X149528Y305005D01*
X150497Y304726D01*
X151492Y304557D01*
X152500Y304500D01*
X153508Y304557D01*
X154503Y304726D01*
X155473Y305005D01*
X156405Y305391D01*
X157288Y305879D01*
X158111Y306464D01*
X158864Y307136D01*
X159537Y307889D01*
X160120Y308712D01*
X160609Y309595D01*
X160995Y310527D01*
X161274Y311497D01*
X161443Y312492D01*
X161500Y313500D01*
X145500Y313500D02*
X145571Y312504D01*
X145783Y311528D01*
X146133Y310592D01*
X146611Y309716D01*
X147210Y308916D01*
X147916Y308210D01*
X148715Y307611D01*
X149592Y307133D01*
X150528Y306784D01*
X151504Y306571D01*
X152500Y306500D01*
X153496Y306571D01*
X154472Y306784D01*
X155408Y307133D01*
X156284Y307611D01*
X157084Y308210D01*
X157790Y308916D01*
X158389Y309716D01*
X158867Y310592D01*
X159216Y311528D01*
X159429Y312504D01*
X159500Y313500D01*
X147500D02*
X147596Y312525D01*
X147881Y311587D01*
X148343Y310722D01*
X148965Y309964D01*
X149722Y309343D01*
X150587Y308881D01*
X151524Y308596D01*
X152500Y308500D01*
X153475Y308596D01*
X154413Y308881D01*
X155278Y309343D01*
X156035Y309964D01*
X156657Y310722D01*
X157119Y311587D01*
X157404Y312525D01*
X157500Y313500D01*
X161500D02*
X161437Y314503D01*
X161249Y315490D01*
X160938Y316445D01*
X160510Y317354D01*
X159972Y318202D01*
X159332Y318976D01*
X158599Y319664D01*
X157787Y320255D01*
X156906Y320739D01*
X155972Y321108D01*
X154999Y321358D01*
X154002Y321484D01*
X152998D01*
X152001Y321358D01*
X151028Y321108D01*
X150094Y320739D01*
X149213Y320255D01*
X148401Y319664D01*
X147668Y318976D01*
X147028Y318202D01*
X146490Y317354D01*
X146062Y316445D01*
X145751Y315490D01*
X145563Y314503D01*
X145500Y313500D01*
X159500Y313500D02*
X159418Y314488D01*
X159175Y315448D01*
X158777Y316356D01*
X158235Y317185D01*
X157564Y317914D01*
X156782Y318523D01*
X155910Y318995D01*
X154973Y319316D01*
X153996Y319479D01*
X153005D01*
X152027Y319316D01*
X151090Y318995D01*
X150218Y318523D01*
X149436Y317914D01*
X148765Y317185D01*
X148223Y316356D01*
X147825Y315448D01*
X147582Y314488D01*
X147500Y313500D01*
X183500D02*
X183508Y312495D01*
X183534Y311491D01*
X183576Y310487D01*
X183634Y309484D01*
X183710Y308482D01*
X183803Y307482D01*
X183912Y306483D01*
X184038Y305486D01*
X184180Y304491D01*
X184339Y303500D01*
X184515Y302510D01*
X184707Y301524D01*
X184916Y300541D01*
X185141Y299562D01*
X185383Y298587D01*
X185641Y297616D01*
X185915Y296649D01*
X186205Y295687D01*
X186511Y294730D01*
X186834Y293779D01*
X187172Y292833D01*
X187526Y291892D01*
X187896Y290958D01*
X188281Y290030D01*
X188681Y289109D01*
X189098Y288194D01*
X189529Y287287D01*
X189976Y286387D01*
X190437Y285494D01*
X149500Y313500D02*
X149681Y312474D01*
X150202Y311572D01*
X151000Y310902D01*
X151979Y310546D01*
X153021D01*
X154000Y310902D01*
X154798Y311572D01*
X155319Y312474D01*
X155500Y313500D01*
X151500D02*
X152000Y312634D01*
X153000D01*
X153500Y313500D01*
X157500D02*
X157384Y314457D01*
X157042Y315359D01*
X156494Y316153D01*
X155772Y316792D01*
X154918Y317240D01*
X153982Y317471D01*
X153018D01*
X152082Y317240D01*
X151228Y316792D01*
X150506Y316153D01*
X149958Y315359D01*
X149616Y314457D01*
X149500Y313500D01*
X155500D02*
X155232Y314500D01*
X154500Y315232D01*
X153500Y315500D01*
X152500Y315232D01*
X151768Y314500D01*
X151500Y313500D01*
D14*
X304000Y349500D02*
Y353099D01*
X302201D01*
X301601Y352499D01*
Y351299D01*
X302201Y350700D01*
X304000D01*
X300401Y353099D02*
Y349500D01*
X299201Y350700D01*
X298002Y349500D01*
Y353099D01*
X296802Y349500D02*
Y353099D01*
X295603Y351899D01*
X294403Y353099D01*
Y349500D01*
X293203Y348900D02*
X290804D01*
X287205Y353099D02*
X289605D01*
Y349500D01*
X287205D01*
X289605Y351299D02*
X288405D01*
X286006Y349500D02*
Y353099D01*
X283607Y349500D01*
Y353099D01*
X235000Y336099D02*
Y332500D01*
X233201D01*
X232601Y333100D01*
Y333700D01*
X233201Y334299D01*
X235000D01*
X233201D01*
X232601Y334899D01*
Y335499D01*
X233201Y336099D01*
X235000D01*
X231401Y332500D02*
Y334899D01*
X230202Y336099D01*
X229002Y334899D01*
Y332500D01*
Y334299D01*
X231401D01*
X227802Y336099D02*
X225403D01*
X226603D01*
Y332500D01*
X224203Y331900D02*
X221804D01*
X218205Y336099D02*
X220605D01*
Y334299D01*
X219405D01*
X220605D01*
Y332500D01*
X217006D02*
Y334899D01*
X215806Y336099D01*
X214607Y334899D01*
Y332500D01*
Y334299D01*
X217006D01*
X213407Y336099D02*
Y333100D01*
X212807Y332500D01*
X211608D01*
X211008Y333100D01*
Y336099D01*
X209808D02*
Y332500D01*
X207409D01*
X206209Y336099D02*
X203810D01*
X205010D01*
Y332500D01*
X278794Y156599D02*
Y153000D01*
X276994D01*
X276395Y153600D01*
Y155999D01*
X276994Y156599D01*
X278794D01*
X275195Y153000D02*
Y155399D01*
X273995Y156599D01*
X272796Y155399D01*
Y153000D01*
Y154799D01*
X275195D01*
X269197Y155999D02*
X269797Y156599D01*
X270996D01*
X271596Y155999D01*
Y153600D01*
X270996Y153000D01*
X269797D01*
X269197Y153600D01*
X267997Y152400D02*
X265598D01*
X262599Y156599D02*
X263799D01*
X264398Y155999D01*
Y153600D01*
X263799Y153000D01*
X262599D01*
X261999Y153600D01*
Y155999D01*
X262599Y156599D01*
X260800D02*
Y153600D01*
X260200Y153000D01*
X259000D01*
X258400Y153600D01*
Y156599D01*
X257201D02*
X254802D01*
X256001D01*
Y153000D01*
X229500Y141500D02*
X228300D01*
X228900D01*
Y145099D01*
X229500Y144499D01*
X224102Y141500D02*
X226501D01*
X224102Y143899D01*
Y144499D01*
X224701Y145099D01*
X225901D01*
X226501Y144499D01*
X222902Y145099D02*
Y142700D01*
X221703Y141500D01*
X220503Y142700D01*
Y145099D01*
X219303Y140900D02*
X216904D01*
X215704Y145099D02*
Y141500D01*
X213905D01*
X213305Y142100D01*
Y142700D01*
X213905Y143299D01*
X215704D01*
X213905D01*
X213305Y143899D01*
Y144499D01*
X213905Y145099D01*
X215704D01*
X212106D02*
Y142100D01*
X211506Y141500D01*
X210306D01*
X209706Y142100D01*
Y145099D01*
X206107D02*
X208507D01*
Y143299D01*
X207307D01*
X208507D01*
Y141500D01*
X237101Y398999D02*
X237701Y399599D01*
X238900D01*
X239500Y398999D01*
Y398399D01*
X238900Y397799D01*
X237701D01*
X237101Y397200D01*
Y396600D01*
X237701Y396000D01*
X238900D01*
X239500Y396600D01*
X234102Y399599D02*
X235301D01*
X235901Y398999D01*
Y396600D01*
X235301Y396000D01*
X234102D01*
X233502Y396600D01*
Y398999D01*
X234102Y399599D01*
X232302D02*
Y396600D01*
X231702Y396000D01*
X230503D01*
X229903Y396600D01*
Y399599D01*
X228703Y396000D02*
Y399599D01*
X226904D01*
X226304Y398999D01*
Y397799D01*
X226904Y397200D01*
X228703D01*
X227504D02*
X226304Y396000D01*
X222705Y398999D02*
X223305Y399599D01*
X224505D01*
X225105Y398999D01*
Y396600D01*
X224505Y396000D01*
X223305D01*
X222705Y396600D01*
X219107Y399599D02*
X221506D01*
Y396000D01*
X219107D01*
X221506Y397799D02*
X220306D01*
X215101Y355999D02*
X215701Y356599D01*
X216900D01*
X217500Y355999D01*
Y353600D01*
X216900Y353000D01*
X215701D01*
X215101Y353600D01*
Y354799D01*
X216300D01*
X213901Y353000D02*
Y355399D01*
X212702Y356599D01*
X211502Y355399D01*
Y353000D01*
Y354799D01*
X213901D01*
X210302Y356599D02*
X207903D01*
X209103D01*
Y353000D01*
X204304Y356599D02*
X206703D01*
Y353000D01*
X204304D01*
X206703Y354799D02*
X205504D01*
X345500Y254099D02*
Y251700D01*
X344300Y250500D01*
X343101Y251700D01*
Y254099D01*
X341901Y250500D02*
Y254099D01*
X340702Y252899D01*
X339502Y254099D01*
Y250500D01*
X345500Y264099D02*
X344300D01*
X344900D01*
Y260500D01*
X345500D01*
X344300D01*
X342501D02*
Y262899D01*
X341301Y264099D01*
X340102Y262899D01*
Y260500D01*
Y262299D01*
X342501D01*
X345500Y274099D02*
X344300D01*
X344900D01*
Y270500D01*
X345500D01*
X344300D01*
X342501D02*
Y274099D01*
X340702D01*
X340102Y273499D01*
Y272299D01*
X340702Y271700D01*
X342501D01*
X345500Y284599D02*
Y281600D01*
X344900Y281000D01*
X343701D01*
X343101Y281600D01*
Y284599D01*
X341901Y281000D02*
Y284599D01*
X339502Y281000D01*
Y284599D01*
X197101Y231499D02*
X197701Y232099D01*
X198900D01*
X199500Y231499D01*
Y229100D01*
X198900Y228500D01*
X197701D01*
X197101Y229100D01*
X193502Y232099D02*
X194702D01*
X194102D01*
Y229100D01*
X194702Y228500D01*
X195301D01*
X195901Y229100D01*
X192302Y227900D02*
X189903D01*
X186304Y231499D02*
X186904Y232099D01*
X188104D01*
X188704Y231499D01*
Y230899D01*
X188104Y230299D01*
X186904D01*
X186304Y229700D01*
Y229100D01*
X186904Y228500D01*
X188104D01*
X188704Y229100D01*
X182705Y232099D02*
X185105D01*
Y228500D01*
X182705D01*
X185105Y230299D02*
X183905D01*
X181506Y232099D02*
Y228500D01*
X179107D01*
X197101Y241499D02*
X197701Y242099D01*
X198900D01*
X199500Y241499D01*
Y239100D01*
X198900Y238500D01*
X197701D01*
X197101Y239100D01*
X193502Y242099D02*
X194702D01*
X194102D01*
Y239100D01*
X194702Y238500D01*
X195301D01*
X195901Y239100D01*
X192302Y237900D02*
X189903D01*
X186304Y241499D02*
X186904Y242099D01*
X188104D01*
X188704Y241499D01*
Y240899D01*
X188104Y240299D01*
X186904D01*
X186304Y239700D01*
Y239100D01*
X186904Y238500D01*
X188104D01*
X188704Y239100D01*
X182705Y241499D02*
X183305Y242099D01*
X184505D01*
X185105Y241499D01*
Y239100D01*
X184505Y238500D01*
X183305D01*
X182705Y239100D01*
X181506Y242099D02*
Y238500D01*
Y239700D01*
X179107Y242099D01*
X180906Y240299D01*
X179107Y238500D01*
X197101Y251999D02*
X197701Y252599D01*
X198900D01*
X199500Y251999D01*
Y249600D01*
X198900Y249000D01*
X197701D01*
X197101Y249600D01*
X193502Y252599D02*
X194702D01*
X194102D01*
Y249600D01*
X194702Y249000D01*
X195301D01*
X195901Y249600D01*
X192302Y248400D02*
X189903D01*
X188704Y249000D02*
Y252599D01*
X187504Y251399D01*
X186304Y252599D01*
Y249000D01*
X185105Y252599D02*
X183905D01*
X184505D01*
Y249000D01*
X185105D01*
X183905D01*
X179706Y251999D02*
X180306Y252599D01*
X181506D01*
X182106Y251999D01*
Y251399D01*
X181506Y250799D01*
X180306D01*
X179706Y250200D01*
Y249600D01*
X180306Y249000D01*
X181506D01*
X182106Y249600D01*
X176707Y252599D02*
X177907D01*
X178507Y251999D01*
Y249600D01*
X177907Y249000D01*
X176707D01*
X176108Y249600D01*
Y251999D01*
X176707Y252599D01*
X197101Y261499D02*
X197701Y262099D01*
X198900D01*
X199500Y261499D01*
Y259100D01*
X198900Y258500D01*
X197701D01*
X197101Y259100D01*
X193502Y262099D02*
X194702D01*
X194102D01*
Y259100D01*
X194702Y258500D01*
X195301D01*
X195901Y259100D01*
X192302Y257900D02*
X189903D01*
X188704Y258500D02*
Y262099D01*
X187504Y260899D01*
X186304Y262099D01*
Y258500D01*
X183305Y262099D02*
X184505D01*
X185105Y261499D01*
Y259100D01*
X184505Y258500D01*
X183305D01*
X182705Y259100D01*
Y261499D01*
X183305Y262099D01*
X179107Y261499D02*
X179706Y262099D01*
X180906D01*
X181506Y261499D01*
Y260899D01*
X180906Y260299D01*
X179706D01*
X179107Y259700D01*
Y259100D01*
X179706Y258500D01*
X180906D01*
X181506Y259100D01*
X177907Y262099D02*
X176707D01*
X177307D01*
Y258500D01*
X177907D01*
X176707D01*
X197101Y271999D02*
X197701Y272599D01*
X198900D01*
X199500Y271999D01*
Y269600D01*
X198900Y269000D01*
X197701D01*
X197101Y269600D01*
X193502Y272599D02*
X194702D01*
X194102D01*
Y269600D01*
X194702Y269000D01*
X195301D01*
X195901Y269600D01*
X192302Y268400D02*
X189903D01*
X188704Y269000D02*
Y272599D01*
X186904D01*
X186304Y271999D01*
Y270799D01*
X186904Y270200D01*
X188704D01*
X187504D02*
X186304Y269000D01*
X182705Y272599D02*
X185105D01*
Y269000D01*
X182705D01*
X185105Y270799D02*
X183905D01*
X179107Y271999D02*
X179706Y272599D01*
X180906D01*
X181506Y271999D01*
Y271399D01*
X180906Y270799D01*
X179706D01*
X179107Y270200D01*
Y269600D01*
X179706Y269000D01*
X180906D01*
X181506Y269600D01*
X175508Y272599D02*
X177907D01*
Y269000D01*
X175508D01*
X177907Y270799D02*
X176707D01*
X174308Y272599D02*
X171909D01*
X173108D01*
Y269000D01*
X216601Y316599D02*
X219000D01*
Y314799D01*
X217800Y315399D01*
X217201D01*
X216601Y314799D01*
Y313600D01*
X217201Y313000D01*
X218400D01*
X219000Y313600D01*
X215401Y316599D02*
Y314200D01*
X214201Y313000D01*
X213002Y314200D01*
Y316599D01*
X211802Y312400D02*
X209403D01*
X208204Y313000D02*
Y316599D01*
X206404D01*
X205804Y315999D01*
Y314799D01*
X206404Y314200D01*
X208204D01*
X207004D02*
X205804Y313000D01*
X202205Y316599D02*
X204605D01*
Y313000D01*
X202205D01*
X204605Y314799D02*
X203405D01*
X198607Y315999D02*
X199206Y316599D01*
X200406D01*
X201006Y315999D01*
Y315399D01*
X200406Y314799D01*
X199206D01*
X198607Y314200D01*
Y313600D01*
X199206Y313000D01*
X200406D01*
X201006Y313600D01*
X195008Y316599D02*
X197407D01*
Y313000D01*
X195008D01*
X197407Y314799D02*
X196207D01*
X193808Y316599D02*
X191409D01*
X192608D01*
Y313000D01*
X388101Y341499D02*
X388701Y342099D01*
X389900D01*
X390500Y341499D01*
Y339100D01*
X389900Y338500D01*
X388701D01*
X388101Y339100D01*
Y340299D01*
X389300D01*
X386901Y338500D02*
Y342099D01*
X384502Y338500D01*
Y342099D01*
X383302D02*
Y338500D01*
X381503D01*
X380903Y339100D01*
Y341499D01*
X381503Y342099D01*
X383302D01*
X97500Y153099D02*
X95101D01*
X96300D01*
Y149500D01*
X91502Y152499D02*
X92102Y153099D01*
X93301D01*
X93901Y152499D01*
Y150100D01*
X93301Y149500D01*
X92102D01*
X91502Y150100D01*
X90302Y151299D02*
X87903D01*
X118000Y153099D02*
X115601D01*
X116800D01*
Y149500D01*
X112002Y152499D02*
X112602Y153099D01*
X113801D01*
X114401Y152499D01*
Y150100D01*
X113801Y149500D01*
X112602D01*
X112002Y150100D01*
X110802Y151299D02*
X108403D01*
X109603Y152499D02*
Y150100D01*
X390500Y226099D02*
Y222500D01*
X388701D01*
X388101Y223100D01*
Y225499D01*
X388701Y226099D01*
X390500D01*
X386901Y222500D02*
Y224899D01*
X385701Y226099D01*
X384502Y224899D01*
Y222500D01*
Y224299D01*
X386901D01*
X380903Y225499D02*
X381503Y226099D01*
X382702D01*
X383302Y225499D01*
Y223100D01*
X382702Y222500D01*
X381503D01*
X380903Y223100D01*
X388601Y244999D02*
X389201Y245599D01*
X390400D01*
X391000Y244999D01*
Y242600D01*
X390400Y242000D01*
X389201D01*
X388601Y242600D01*
Y243799D01*
X389800D01*
X387401Y242000D02*
Y245599D01*
X385002Y242000D01*
Y245599D01*
X383802D02*
Y242000D01*
X382003D01*
X381403Y242600D01*
Y244999D01*
X382003Y245599D01*
X383802D01*
X268500Y205599D02*
Y202600D01*
X267900Y202000D01*
X266701D01*
X266101Y202600D01*
Y205599D01*
X264901D02*
Y203200D01*
X263702Y202000D01*
X262502Y203200D01*
Y205599D01*
X301500Y206099D02*
Y203100D01*
X300900Y202500D01*
X299701D01*
X299101Y203100D01*
Y206099D01*
X297901Y202500D02*
Y204899D01*
X296702Y206099D01*
X295502Y204899D01*
Y202500D01*
Y204299D01*
X297901D01*
X240101Y303599D02*
X242500D01*
Y301799D01*
X241300Y302399D01*
X240701D01*
X240101Y301799D01*
Y300600D01*
X240701Y300000D01*
X241900D01*
X242500Y300600D01*
X238901Y303599D02*
Y301200D01*
X237702Y300000D01*
X236502Y301200D01*
Y303599D01*
X236000Y195225D02*
X235400Y195824D01*
X234201D01*
X233601Y195225D01*
Y194625D01*
X234201Y194025D01*
X234800D01*
X234201D01*
X233601Y193425D01*
Y192825D01*
X234201Y192226D01*
X235400D01*
X236000Y192825D01*
X232401Y195824D02*
Y193425D01*
X231202Y192226D01*
X230002Y193425D01*
Y195824D01*
X228802Y195225D02*
X228203Y195824D01*
X227003D01*
X226403Y195225D01*
Y194625D01*
X227003Y194025D01*
X227603D01*
X227003D01*
X226403Y193425D01*
Y192825D01*
X227003Y192226D01*
X228203D01*
X228802Y192825D01*
X397000Y189500D02*
X395800D01*
X396400D01*
Y193099D01*
X397000Y192499D01*
X391602Y189500D02*
X394001D01*
X391602Y191899D01*
Y192499D01*
X392201Y193099D01*
X393401D01*
X394001Y192499D01*
X390402Y193099D02*
Y190700D01*
X389202Y189500D01*
X388003Y190700D01*
Y193099D01*
X390101Y168499D02*
X390701Y169099D01*
X391900D01*
X392500Y168499D01*
Y166100D01*
X391900Y165500D01*
X390701D01*
X390101Y166100D01*
Y167299D01*
X391300D01*
X388901Y165500D02*
Y169099D01*
X386502Y165500D01*
Y169099D01*
X385302D02*
Y165500D01*
X383503D01*
X382903Y166100D01*
Y168499D01*
X383503Y169099D01*
X385302D01*
X365601Y220499D02*
X366201Y221099D01*
X367400D01*
X368000Y220499D01*
Y218100D01*
X367400Y217500D01*
X366201D01*
X365601Y218100D01*
Y219299D01*
X366800D01*
X364401Y217500D02*
Y221099D01*
X362002Y217500D01*
Y221099D01*
X360802D02*
Y217500D01*
X359003D01*
X358403Y218100D01*
Y220499D01*
X359003Y221099D01*
X360802D01*
X145101Y234499D02*
X145701Y235099D01*
X146900D01*
X147500Y234499D01*
Y232100D01*
X146900Y231500D01*
X145701D01*
X145101Y232100D01*
Y233299D01*
X146300D01*
X143901Y231500D02*
Y235099D01*
X141502Y231500D01*
Y235099D01*
X140302D02*
Y231500D01*
X138503D01*
X137903Y232100D01*
Y234499D01*
X138503Y235099D01*
X140302D01*
X126601Y281499D02*
X127201Y282099D01*
X128400D01*
X129000Y281499D01*
Y279100D01*
X128400Y278500D01*
X127201D01*
X126601Y279100D01*
Y280299D01*
X127800D01*
X125401Y278500D02*
Y282099D01*
X123002Y278500D01*
Y282099D01*
X121802D02*
Y278500D01*
X120003D01*
X119403Y279100D01*
Y281499D01*
X120003Y282099D01*
X121802D01*
M02*
