G04*
G04 #@! TF.GenerationSoftware,Altium Limited,Altium Designer,18.1.9 (240)*
G04*
G04 Layer_Color=65535*
%FSLAX25Y25*%
%MOIN*%
G70*
G01*
G75*
%ADD10C,0.01000*%
%ADD11C,0.00787*%
%ADD12C,0.00984*%
%ADD13C,0.02362*%
%ADD14C,0.00800*%
%ADD15C,0.01575*%
%ADD16R,0.88500X0.44500*%
D10*
X92304Y339706D02*
X92729Y338784D01*
X93227Y337899D01*
X93796Y337058D01*
X94431Y336266D01*
X95129Y335529D01*
X95884Y334851D01*
X96692Y334236D01*
X97548Y333689D01*
X98445Y333214D01*
X99378Y332813D01*
X100340Y332489D01*
X101325Y332245D01*
X102327Y332082D01*
X103339Y332000D01*
X104354Y332002D01*
X105366Y332086D01*
X106368Y332252D01*
X107352Y332499D01*
X108314Y332826D01*
X109245Y333229D01*
X110141Y333707D01*
X110995Y334257D01*
X111801Y334873D01*
X112554Y335554D01*
X113250Y336294D01*
X113883Y337087D01*
X114449Y337930D01*
X114945Y338816D01*
X115367Y339739D01*
X115713Y340694D01*
X115980Y341673D01*
X115973Y410903D02*
X115740Y411873D01*
X115429Y412821D01*
X115043Y413741D01*
X114584Y414627D01*
X114055Y415472D01*
X113459Y416273D01*
X112801Y417022D01*
X112085Y417716D01*
X111314Y418351D01*
X110495Y418920D01*
X109633Y419422D01*
X108733Y419853D01*
X107802Y420210D01*
X106844Y420490D01*
X105867Y420692D01*
X104877Y420815D01*
X103881Y420857D01*
X102884Y420819D01*
X101893Y420701D01*
X100915Y420503D01*
X99957Y420226D01*
X99023Y419874D01*
X98122Y419447D01*
X97257Y418949D01*
X96436Y418382D01*
X95663Y417751D01*
X94944Y417060D01*
X94282Y416313D01*
X93683Y415516D01*
X93151Y414672D01*
X92688Y413788D01*
X92298Y412870D01*
X401500Y321400D02*
X412050D01*
X401500Y315500D02*
Y321400D01*
X375800Y315500D02*
X401500D01*
X375800Y268500D02*
X401500D01*
Y262500D02*
Y268500D01*
Y262500D02*
X412050D01*
X82128Y339773D02*
X92128D01*
X115972Y341673D02*
Y410906D01*
X82248Y412874D02*
X92248D01*
X133222Y323785D02*
X132538Y324468D01*
X131172D01*
X130489Y323785D01*
Y321052D01*
X131172Y320369D01*
X132538D01*
X133222Y321052D01*
X137320Y324468D02*
X135954D01*
X136637D01*
Y321052D01*
X135954Y320369D01*
X135271D01*
X134588Y321052D01*
X138686Y324468D02*
Y320369D01*
X140736D01*
X141419Y321052D01*
Y321736D01*
X140736Y322419D01*
X138686D01*
X140736D01*
X141419Y323102D01*
Y323785D01*
X140736Y324468D01*
X138686D01*
X146884Y320369D02*
Y324468D01*
X148933D01*
X149616Y323785D01*
Y322419D01*
X148933Y321736D01*
X146884D01*
X148250D02*
X149616Y320369D01*
X153032D02*
X151666D01*
X150982Y321052D01*
Y322419D01*
X151666Y323102D01*
X153032D01*
X153715Y322419D01*
Y321736D01*
X150982D01*
X155081Y323102D02*
X156447Y320369D01*
X157814Y323102D01*
X163278Y324468D02*
Y320369D01*
X165328D01*
X166011Y321052D01*
Y321736D01*
X165328Y322419D01*
X163278D01*
X165328D01*
X166011Y323102D01*
Y323785D01*
X165328Y324468D01*
X163278D01*
X125366Y317149D02*
Y313051D01*
Y314417D01*
X128098Y317149D01*
X126049Y315100D01*
X128098Y313051D01*
X129464Y315783D02*
Y313734D01*
X130148Y313051D01*
X132197D01*
Y312368D01*
X131514Y311685D01*
X130831D01*
X132197Y313051D02*
Y315783D01*
X133563Y313051D02*
X134929D01*
X134246D01*
Y317149D01*
X133563D01*
X139028Y313051D02*
X137662D01*
X136979Y313734D01*
Y315100D01*
X137662Y315783D01*
X139028D01*
X139711Y315100D01*
Y314417D01*
X136979D01*
X145176Y317149D02*
Y313051D01*
X147225D01*
X147908Y313734D01*
Y314417D01*
X147225Y315100D01*
X145176D01*
X147225D01*
X147908Y315783D01*
Y316466D01*
X147225Y317149D01*
X145176D01*
X151324Y313051D02*
X149958D01*
X149275Y313734D01*
Y315100D01*
X149958Y315783D01*
X151324D01*
X152007Y315100D01*
Y314417D01*
X149275D01*
X153373Y315783D02*
Y313051D01*
Y314417D01*
X154056Y315100D01*
X154740Y315783D01*
X155423D01*
X157472Y313051D02*
Y315783D01*
X159521D01*
X160205Y315100D01*
Y313051D01*
X161571D02*
X162937D01*
X162254D01*
Y315783D01*
X161571D01*
X167036Y313051D02*
X165669D01*
X164986Y313734D01*
Y315100D01*
X165669Y315783D01*
X167036D01*
X167719Y315100D01*
Y314417D01*
X164986D01*
X169085Y315783D02*
Y313051D01*
Y314417D01*
X169768Y315100D01*
X170451Y315783D01*
X171134D01*
X122975Y308465D02*
Y304366D01*
X125024D01*
X125707Y305049D01*
Y307782D01*
X125024Y308465D01*
X122975D01*
X127757Y307099D02*
X129123D01*
X129806Y306416D01*
Y304366D01*
X127757D01*
X127074Y305049D01*
X127757Y305732D01*
X129806D01*
X133222Y304366D02*
X131855D01*
X131172Y305049D01*
Y306416D01*
X131855Y307099D01*
X133222D01*
X133905Y306416D01*
Y305732D01*
X131172D01*
X136637Y303000D02*
X137320D01*
X138003Y303683D01*
Y307099D01*
X135954D01*
X135271Y306416D01*
Y305049D01*
X135954Y304366D01*
X138003D01*
X139370Y308465D02*
Y304366D01*
Y306416D01*
X140053Y307099D01*
X141419D01*
X142102Y306416D01*
Y304366D01*
X144151Y307099D02*
X145518D01*
X146201Y306416D01*
Y304366D01*
X144151D01*
X143468Y305049D01*
X144151Y305732D01*
X146201D01*
X147567Y304366D02*
Y307099D01*
X149616D01*
X150299Y306416D01*
Y304366D01*
X158497Y308465D02*
X155764D01*
Y304366D01*
X158497D01*
X155764Y306416D02*
X157130D01*
X159863Y304366D02*
X161229D01*
X160546D01*
Y308465D01*
X159863D01*
X163278Y304366D02*
Y308465D01*
Y305732D02*
X165328Y307099D01*
X163278Y305732D02*
X165328Y304366D01*
X167377D02*
X168743D01*
X168060D01*
Y307099D01*
X167377D01*
X170793Y304366D02*
Y307099D01*
X172842D01*
X173525Y306416D01*
Y304366D01*
D11*
X254500Y154500D02*
X254398Y155507D01*
X254095Y156472D01*
X253604Y157356D01*
X252945Y158124D01*
X252145Y158743D01*
X251237Y159189D01*
X250257Y159442D01*
X249247Y159494D01*
X248247Y159340D01*
X247298Y158989D01*
X246440Y158454D01*
X245706Y157757D01*
X245128Y156927D01*
X244729Y155997D01*
X244526Y155006D01*
Y153994D01*
X244729Y153003D01*
X245128Y152074D01*
X245706Y151243D01*
X246440Y150546D01*
X247298Y150011D01*
X248247Y149660D01*
X249247Y149506D01*
X250257Y149558D01*
X251237Y149811D01*
X252145Y150257D01*
X252945Y150876D01*
X253604Y151644D01*
X254095Y152528D01*
X254398Y153493D01*
X254500Y154500D01*
X240000Y143500D02*
X239898Y144507D01*
X239595Y145472D01*
X239104Y146356D01*
X238445Y147124D01*
X237645Y147743D01*
X236736Y148189D01*
X235757Y148442D01*
X234747Y148494D01*
X233747Y148340D01*
X232798Y147989D01*
X231940Y147454D01*
X231206Y146757D01*
X230628Y145926D01*
X230229Y144997D01*
X230026Y144006D01*
Y142994D01*
X230229Y142003D01*
X230628Y141074D01*
X231206Y140243D01*
X231940Y139546D01*
X232798Y139011D01*
X233747Y138660D01*
X234747Y138506D01*
X235757Y138558D01*
X236736Y138811D01*
X237645Y139257D01*
X238445Y139876D01*
X239104Y140644D01*
X239595Y141528D01*
X239898Y142493D01*
X240000Y143500D01*
X203500Y334000D02*
X203398Y335006D01*
X203095Y335972D01*
X202604Y336856D01*
X201945Y337624D01*
X201145Y338243D01*
X200237Y338689D01*
X199257Y338942D01*
X198247Y338994D01*
X197247Y338840D01*
X196298Y338489D01*
X195440Y337954D01*
X194706Y337257D01*
X194128Y336426D01*
X193729Y335497D01*
X193526Y334506D01*
Y333494D01*
X193729Y332503D01*
X194128Y331574D01*
X194706Y330743D01*
X195440Y330046D01*
X196298Y329511D01*
X197247Y329160D01*
X198247Y329006D01*
X199257Y329058D01*
X200237Y329311D01*
X201145Y329757D01*
X201945Y330376D01*
X202604Y331144D01*
X203095Y332028D01*
X203398Y332994D01*
X203500Y334000D01*
X283000Y351819D02*
X282898Y352825D01*
X282595Y353791D01*
X282104Y354675D01*
X281445Y355443D01*
X280645Y356062D01*
X279736Y356508D01*
X278757Y356761D01*
X277747Y356813D01*
X276747Y356659D01*
X275798Y356308D01*
X274939Y355773D01*
X274206Y355076D01*
X273628Y354245D01*
X273229Y353316D01*
X273026Y352325D01*
Y351313D01*
X273229Y350322D01*
X273628Y349392D01*
X274206Y348562D01*
X274939Y347865D01*
X275798Y347330D01*
X276747Y346978D01*
X277747Y346825D01*
X278757Y346877D01*
X279736Y347130D01*
X280645Y347576D01*
X281445Y348195D01*
X282104Y348963D01*
X282595Y349847D01*
X282898Y350812D01*
X283000Y351819D01*
X368500Y226150D02*
X368398Y227156D01*
X368095Y228121D01*
X367604Y229006D01*
X366945Y229774D01*
X366145Y230393D01*
X365236Y230838D01*
X364257Y231092D01*
X363247Y231143D01*
X362247Y230990D01*
X361298Y230639D01*
X360439Y230103D01*
X359706Y229406D01*
X359128Y228576D01*
X358729Y227646D01*
X358526Y226656D01*
Y225644D01*
X358729Y224653D01*
X359128Y223723D01*
X359706Y222893D01*
X360439Y222196D01*
X361298Y221661D01*
X362247Y221309D01*
X363247Y221156D01*
X364257Y221207D01*
X365236Y221461D01*
X366145Y221906D01*
X366945Y222526D01*
X367604Y223293D01*
X368095Y224178D01*
X368398Y225143D01*
X368500Y226150D01*
X402500Y167000D02*
X402398Y168007D01*
X402095Y168972D01*
X401604Y169856D01*
X400945Y170624D01*
X400145Y171243D01*
X399236Y171689D01*
X398257Y171942D01*
X397247Y171994D01*
X396247Y171840D01*
X395298Y171489D01*
X394440Y170954D01*
X393706Y170257D01*
X393128Y169427D01*
X392729Y168497D01*
X392526Y167506D01*
Y166494D01*
X392729Y165503D01*
X393128Y164574D01*
X393706Y163743D01*
X394440Y163046D01*
X395298Y162511D01*
X396247Y162160D01*
X397247Y162006D01*
X398257Y162058D01*
X399236Y162311D01*
X400145Y162757D01*
X400945Y163376D01*
X401604Y164144D01*
X402095Y165028D01*
X402398Y165993D01*
X402500Y167000D01*
X138000Y233500D02*
X137898Y234507D01*
X137595Y235472D01*
X137104Y236356D01*
X136445Y237124D01*
X135645Y237743D01*
X134737Y238189D01*
X133757Y238442D01*
X132747Y238494D01*
X131747Y238340D01*
X130798Y237989D01*
X129939Y237454D01*
X129206Y236757D01*
X128628Y235927D01*
X128229Y234997D01*
X128026Y234006D01*
Y232994D01*
X128229Y232003D01*
X128628Y231073D01*
X129206Y230243D01*
X129939Y229546D01*
X130798Y229011D01*
X131747Y228660D01*
X132747Y228506D01*
X133757Y228558D01*
X134737Y228811D01*
X135645Y229257D01*
X136445Y229876D01*
X137104Y230644D01*
X137595Y231528D01*
X137898Y232493D01*
X138000Y233500D01*
X139500Y280000D02*
X139398Y281007D01*
X139095Y281972D01*
X138604Y282856D01*
X137945Y283624D01*
X137145Y284243D01*
X136237Y284689D01*
X135257Y284942D01*
X134247Y284994D01*
X133247Y284840D01*
X132298Y284489D01*
X131439Y283954D01*
X130706Y283257D01*
X130128Y282427D01*
X129729Y281497D01*
X129526Y280506D01*
Y279494D01*
X129729Y278503D01*
X130128Y277573D01*
X130706Y276743D01*
X131439Y276046D01*
X132298Y275511D01*
X133247Y275160D01*
X134247Y275006D01*
X135257Y275058D01*
X136237Y275311D01*
X137145Y275757D01*
X137945Y276376D01*
X138604Y277144D01*
X139095Y278028D01*
X139398Y278994D01*
X139500Y280000D01*
X380500Y340488D02*
X380398Y341495D01*
X380095Y342460D01*
X379604Y343344D01*
X378945Y344112D01*
X378145Y344731D01*
X377237Y345177D01*
X376257Y345430D01*
X375247Y345482D01*
X374247Y345329D01*
X373298Y344977D01*
X372440Y344442D01*
X371706Y343745D01*
X371128Y342915D01*
X370729Y341985D01*
X370526Y340994D01*
Y339982D01*
X370729Y338991D01*
X371128Y338062D01*
X371706Y337231D01*
X372440Y336534D01*
X373298Y335999D01*
X374247Y335648D01*
X375247Y335495D01*
X376257Y335546D01*
X377237Y335799D01*
X378145Y336245D01*
X378945Y336864D01*
X379604Y337632D01*
X380095Y338516D01*
X380398Y339482D01*
X380500Y340488D01*
X387000Y191500D02*
X386898Y192507D01*
X386595Y193472D01*
X386104Y194356D01*
X385445Y195124D01*
X384645Y195743D01*
X383736Y196189D01*
X382757Y196442D01*
X381747Y196494D01*
X380747Y196340D01*
X379798Y195989D01*
X378940Y195454D01*
X378206Y194757D01*
X377628Y193927D01*
X377229Y192997D01*
X377026Y192006D01*
Y190994D01*
X377229Y190003D01*
X377628Y189074D01*
X378206Y188243D01*
X378940Y187546D01*
X379798Y187011D01*
X380747Y186660D01*
X381747Y186506D01*
X382757Y186558D01*
X383736Y186811D01*
X384645Y187257D01*
X385445Y187876D01*
X386104Y188644D01*
X386595Y189528D01*
X386898Y190494D01*
X387000Y191500D01*
X211500Y322000D02*
X211398Y323007D01*
X211095Y323972D01*
X210604Y324856D01*
X209945Y325624D01*
X209145Y326243D01*
X208237Y326689D01*
X207257Y326942D01*
X206247Y326994D01*
X205247Y326840D01*
X204298Y326489D01*
X203439Y325954D01*
X202706Y325257D01*
X202128Y324427D01*
X201729Y323497D01*
X201526Y322506D01*
Y321494D01*
X201729Y320503D01*
X202128Y319573D01*
X202706Y318743D01*
X203439Y318046D01*
X204298Y317511D01*
X205247Y317160D01*
X206247Y317006D01*
X207257Y317058D01*
X208237Y317311D01*
X209145Y317757D01*
X209945Y318376D01*
X210604Y319144D01*
X211095Y320028D01*
X211398Y320993D01*
X211500Y322000D01*
X216000Y362500D02*
X215898Y363507D01*
X215595Y364472D01*
X215104Y365356D01*
X214445Y366124D01*
X213645Y366743D01*
X212737Y367189D01*
X211757Y367442D01*
X210747Y367494D01*
X209747Y367340D01*
X208798Y366989D01*
X207940Y366454D01*
X207206Y365757D01*
X206628Y364927D01*
X206229Y363997D01*
X206026Y363006D01*
Y361994D01*
X206229Y361003D01*
X206628Y360073D01*
X207206Y359243D01*
X207940Y358546D01*
X208798Y358011D01*
X209747Y357660D01*
X210747Y357506D01*
X211757Y357558D01*
X212737Y357811D01*
X213645Y358257D01*
X214445Y358876D01*
X215104Y359644D01*
X215595Y360528D01*
X215898Y361493D01*
X216000Y362500D01*
X234000Y405500D02*
X233898Y406506D01*
X233595Y407472D01*
X233104Y408356D01*
X232445Y409124D01*
X231645Y409743D01*
X230736Y410189D01*
X229757Y410442D01*
X228747Y410494D01*
X227747Y410340D01*
X226798Y409989D01*
X225939Y409454D01*
X225206Y408757D01*
X224628Y407927D01*
X224229Y406997D01*
X224026Y406006D01*
Y404994D01*
X224229Y404003D01*
X224628Y403074D01*
X225206Y402243D01*
X225939Y401546D01*
X226798Y401011D01*
X227747Y400660D01*
X228747Y400506D01*
X229757Y400558D01*
X230736Y400811D01*
X231645Y401257D01*
X232445Y401876D01*
X233104Y402644D01*
X233595Y403528D01*
X233898Y404494D01*
X234000Y405500D01*
X246500Y194000D02*
X246398Y195007D01*
X246095Y195972D01*
X245604Y196856D01*
X244945Y197624D01*
X244145Y198243D01*
X243236Y198689D01*
X242257Y198942D01*
X241247Y198994D01*
X240247Y198840D01*
X239298Y198489D01*
X238439Y197954D01*
X237706Y197257D01*
X237128Y196426D01*
X236729Y195497D01*
X236526Y194506D01*
Y193494D01*
X236729Y192503D01*
X237128Y191574D01*
X237706Y190743D01*
X238439Y190046D01*
X239298Y189511D01*
X240247Y189160D01*
X241247Y189006D01*
X242257Y189058D01*
X243236Y189311D01*
X244145Y189757D01*
X244945Y190376D01*
X245604Y191144D01*
X246095Y192028D01*
X246398Y192993D01*
X246500Y194000D01*
X236000Y302150D02*
X235898Y303156D01*
X235595Y304121D01*
X235104Y305006D01*
X234445Y305774D01*
X233645Y306393D01*
X232736Y306838D01*
X231757Y307092D01*
X230747Y307143D01*
X229747Y306990D01*
X228798Y306639D01*
X227940Y306103D01*
X227206Y305406D01*
X226628Y304576D01*
X226229Y303646D01*
X226026Y302656D01*
Y301644D01*
X226229Y300653D01*
X226628Y299723D01*
X227206Y298893D01*
X227940Y298196D01*
X228798Y297661D01*
X229747Y297309D01*
X230747Y297156D01*
X231757Y297207D01*
X232736Y297461D01*
X233645Y297906D01*
X234445Y298526D01*
X235104Y299293D01*
X235595Y300178D01*
X235898Y301143D01*
X236000Y302150D01*
X294994Y204000D02*
X294891Y205007D01*
X294588Y205972D01*
X294098Y206856D01*
X293439Y207624D01*
X292639Y208243D01*
X291730Y208689D01*
X290751Y208942D01*
X289740Y208994D01*
X288740Y208840D01*
X287792Y208489D01*
X286933Y207954D01*
X286200Y207257D01*
X285622Y206427D01*
X285223Y205497D01*
X285019Y204506D01*
Y203494D01*
X285223Y202503D01*
X285622Y201573D01*
X286200Y200743D01*
X286933Y200046D01*
X287792Y199511D01*
X288740Y199160D01*
X289740Y199006D01*
X290751Y199058D01*
X291730Y199311D01*
X292639Y199757D01*
X293439Y200376D01*
X294098Y201144D01*
X294588Y202028D01*
X294891Y202993D01*
X294994Y204000D01*
X279000D02*
X278898Y205007D01*
X278595Y205972D01*
X278104Y206856D01*
X277445Y207624D01*
X276645Y208243D01*
X275736Y208689D01*
X274757Y208942D01*
X273747Y208994D01*
X272747Y208840D01*
X271798Y208489D01*
X270939Y207954D01*
X270206Y207257D01*
X269628Y206427D01*
X269229Y205497D01*
X269026Y204506D01*
Y203494D01*
X269229Y202503D01*
X269628Y201573D01*
X270206Y200743D01*
X270939Y200046D01*
X271798Y199511D01*
X272747Y199160D01*
X273747Y199006D01*
X274757Y199058D01*
X275736Y199311D01*
X276645Y199757D01*
X277445Y200376D01*
X278104Y201144D01*
X278595Y202028D01*
X278898Y202993D01*
X279000Y204000D01*
X279047Y180102D02*
X284953D01*
X279047Y167898D02*
X284953D01*
X279047D02*
Y180102D01*
X284953Y167898D02*
Y180102D01*
X381252Y214407D02*
X386173D01*
X381252D02*
Y253778D01*
X411961D01*
Y214407D02*
Y253778D01*
X385189Y212439D02*
X389126D01*
X388142Y214407D02*
X389126Y212439D01*
X388142Y214407D02*
X411961D01*
X385189Y212439D02*
X386173Y214407D01*
X221500Y225500D02*
Y275500D01*
X201500Y225500D02*
Y275500D01*
Y225500D02*
X221500D01*
X201500Y275500D02*
X221500D01*
X302445Y354181D02*
X306382D01*
X302445Y341976D02*
X306382D01*
X302445D02*
Y354181D01*
X306382Y341976D02*
Y354181D01*
X320378Y180190D02*
Y184127D01*
X332583Y180190D02*
Y184127D01*
X320378Y180190D02*
X332583D01*
X320378Y184127D02*
X332583D01*
X364181Y149330D02*
X368119D01*
X364181Y161535D02*
X368119D01*
Y149330D02*
Y161535D01*
X364181Y149330D02*
Y161535D01*
X334998Y312831D02*
Y316769D01*
X347202Y312831D02*
Y316769D01*
X334998Y312831D02*
X347202D01*
X334998Y316769D02*
X347202D01*
X233102Y208531D02*
Y212469D01*
X220898Y208531D02*
Y212469D01*
X233102D01*
X220898Y208531D02*
X233102D01*
X208047Y370898D02*
X213953D01*
X208047Y383102D02*
X213953D01*
Y370898D02*
Y383102D01*
X208047Y370898D02*
Y383102D01*
X240126Y322811D02*
X244850D01*
X240126D02*
Y349189D01*
X244850D01*
X190646Y161320D02*
Y197541D01*
X154425Y161320D02*
Y197541D01*
X190646D01*
X154425Y161320D02*
X190646D01*
X251291Y246472D02*
Y269307D01*
X312709Y246472D02*
Y269307D01*
X251291Y246472D02*
X312709D01*
X251291Y269307D02*
X312709D01*
X123000Y183000D02*
X131000D01*
X123000Y199000D02*
X131000D01*
Y183000D02*
Y199000D01*
X123000Y183000D02*
Y199000D01*
X363689Y354650D02*
Y359374D01*
X337311D02*
X363689D01*
X337311Y354650D02*
Y359374D01*
X84158Y153827D02*
Y158748D01*
X123528D01*
Y128039D02*
Y158748D01*
X84158Y128039D02*
X123528D01*
X82189Y150874D02*
Y154811D01*
Y150874D02*
X84158Y151858D01*
Y128039D02*
Y151858D01*
X82189Y154811D02*
X84158Y153827D01*
X347500Y247500D02*
Y287500D01*
X367500Y247500D02*
Y287500D01*
X347500D02*
X367500D01*
X347500Y247500D02*
X367500D01*
X82500Y303314D02*
X112500D01*
X82500Y293314D02*
Y303314D01*
Y293314D02*
X112500D01*
Y303314D01*
X82500Y250500D02*
X92500D01*
X82500Y190500D02*
X92500D01*
X82500D02*
Y250500D01*
X92500Y190500D02*
Y250500D01*
X82500Y317500D02*
X112500D01*
Y327500D01*
X82500D02*
X112500D01*
X82500Y317500D02*
Y327500D01*
X289090Y141032D02*
Y144968D01*
X287910D02*
X289090D01*
X287910Y141032D02*
X289090D01*
X203031Y302909D02*
X206968D01*
Y304090D01*
X203031Y302909D02*
Y304090D01*
X168032Y270331D02*
X171968D01*
X168032Y269150D02*
Y270331D01*
X171968Y269150D02*
Y270331D01*
X159531D02*
X163469D01*
X159531Y269150D02*
Y270331D01*
X163469Y269150D02*
Y270331D01*
X91909Y255881D02*
X98602D01*
Y258625D01*
Y285003D02*
Y287747D01*
X91909D02*
X98602D01*
X124488Y366642D02*
Y384358D01*
X135512Y366642D02*
Y384358D01*
X124488Y366642D02*
X125079D01*
X124488Y384358D02*
X125079D01*
X134921Y366642D02*
X135512D01*
X134921Y384358D02*
X135512D01*
X247331Y370630D02*
Y403947D01*
Y370630D02*
X262193D01*
X273807D02*
X288669D01*
Y403947D01*
X255352Y411969D02*
X262193D01*
X247331Y403947D02*
X255352Y411969D01*
X280648D02*
X288669Y403947D01*
X273807Y411969D02*
X280648D01*
X142831Y370831D02*
Y404148D01*
Y370831D02*
X157693D01*
X169307D02*
X184169D01*
Y404148D01*
X150852Y412169D02*
X157693D01*
X142831Y404148D02*
X150852Y412169D01*
X176148D02*
X184169Y404148D01*
X169307Y412169D02*
X176148D01*
D12*
X290957Y167110D02*
X290218Y167536D01*
Y166684D01*
X290957Y167110D01*
X299099Y355264D02*
X298361Y355690D01*
Y354838D01*
X299099Y355264D01*
X319787Y176352D02*
X319049Y176778D01*
Y175925D01*
X319787Y176352D01*
X372449Y148247D02*
X371711Y148673D01*
Y147821D01*
X372449Y148247D01*
X334407Y308993D02*
X333669Y309419D01*
Y308567D01*
X334407Y308993D01*
X234677Y216307D02*
X233939Y216733D01*
Y215881D01*
X234677Y216307D01*
X203028Y383890D02*
X202289Y384316D01*
Y383464D01*
X203028Y383890D01*
X231760Y348815D02*
X231022Y349241D01*
Y348389D01*
X231760Y348815D01*
X155508Y156596D02*
X154770Y157022D01*
Y156169D01*
X155508Y156596D01*
X313535Y276000D02*
X312797Y276426D01*
Y275574D01*
X313535Y276000D01*
X115492Y203000D02*
X114754Y203426D01*
Y202574D01*
X115492Y203000D01*
X363807Y368232D02*
X363069Y368658D01*
Y367806D01*
X363807Y368232D01*
X199492Y393314D02*
X198754Y393740D01*
Y392888D01*
X199492Y393314D01*
X103092Y279114D02*
X102354Y279540D01*
Y278688D01*
X103092Y279114D01*
X130492Y361425D02*
X129754Y361851D01*
Y360999D01*
X130492Y361425D01*
D13*
X159543Y165257D02*
X159099Y166181D01*
X158099Y166409D01*
X157298Y165770D01*
Y164745D01*
X158099Y164106D01*
X159099Y164334D01*
X159543Y165257D01*
X309953Y265370D02*
X309508Y266294D01*
X308509Y266522D01*
X307708Y265882D01*
Y264858D01*
X308509Y264219D01*
X309508Y264447D01*
X309953Y265370D01*
D14*
X357000Y314500D02*
X362000D01*
X286000Y356000D02*
X290000D01*
X323000Y342339D02*
Y346339D01*
X305500Y158000D02*
Y162000D01*
X350240Y200659D02*
X354240D01*
X350240Y183713D02*
X354240D01*
X368000Y166780D02*
Y170780D01*
X369957Y181429D02*
X373957D01*
X270000Y141000D02*
Y145000D01*
X179500Y358500D02*
X183500D01*
X194500Y360500D02*
Y364500D01*
X189000Y376000D02*
X193000D01*
X136000Y347000D02*
Y351000D01*
X214000Y328000D02*
X218000D01*
X168000Y250240D02*
X172000D01*
X159500D02*
X163500D01*
X303500Y182314D02*
X307500D01*
X290794Y184000D02*
Y188000D01*
X342500Y298000D02*
Y302000D01*
X312500Y224150D02*
Y228150D01*
X339562Y261650D02*
X343562D01*
X259000Y196000D02*
X263000D01*
X273000Y184000D02*
Y188000D01*
X330336Y239010D02*
X334336D01*
X288794Y291650D02*
X292794D01*
X320294Y239010D02*
X324294D01*
X339562Y239010D02*
X343562D01*
X320294Y255010D02*
X324294D01*
X339562Y278650D02*
X343562D01*
X261794Y292010D02*
X265794D01*
X218000Y300150D02*
Y304150D01*
X85500Y168000D02*
X90500D01*
X102500Y161465D02*
Y166465D01*
X196500Y144500D02*
Y149500D01*
X305000Y361799D02*
Y366799D01*
X285294Y330500D02*
Y335500D01*
X338764Y183545D02*
X343764D01*
X326740Y194537D02*
Y199537D01*
X329240Y208659D02*
Y213659D01*
X156500Y144000D02*
Y149000D01*
X347000Y155000D02*
X352000D01*
X335000Y157000D02*
X340000D01*
X98000Y178446D02*
X103000D01*
X211000Y209000D02*
X216000D01*
X239000Y210500D02*
X244000D01*
X234500Y223500D02*
Y228500D01*
X251000Y356500D02*
Y361500D01*
X231000Y373500D02*
X236000D01*
X225500Y392500D02*
X230500D01*
X225000Y312500D02*
Y317500D01*
X178785Y142925D02*
X183785D01*
X198500Y133500D02*
Y138500D01*
X218500Y141500D02*
X223500D01*
X146000Y211500D02*
X151000D01*
X141000Y152623D02*
Y157623D01*
X214500Y163500D02*
Y168500D01*
X210500Y189922D02*
X215500D01*
X224500Y188000D02*
X229500D01*
X137000Y135500D02*
Y140500D01*
X282794Y223150D02*
X287794D01*
X260000Y168000D02*
X265000D01*
X247500Y181500D02*
Y186500D01*
X297000Y223000D02*
X302000D01*
X242794Y279961D02*
X247794D01*
X272500Y291890D02*
X277500D01*
X252127Y292390D02*
X257127D01*
X300465Y291890D02*
X305465D01*
X327294Y271510D02*
Y276510D01*
X326000Y325000D02*
X331000D01*
X263794Y223650D02*
Y228650D01*
X314794Y291510D02*
X319794D01*
X117500Y172000D02*
Y177000D01*
X326294Y291510D02*
X331294D01*
X86299Y315599D02*
X85100D01*
X84500Y314999D01*
Y312600D01*
X85100Y312000D01*
X86299D01*
X86899Y312600D01*
Y314999D01*
X86299Y315599D01*
X90498D02*
X88099D01*
Y313799D01*
X89298D01*
X88099D01*
Y312000D01*
X94097Y315599D02*
X91698D01*
Y313799D01*
X92897D01*
X91698D01*
Y312000D01*
X102799Y315599D02*
X101600D01*
X101000Y314999D01*
Y312600D01*
X101600Y312000D01*
X102799D01*
X103399Y312600D01*
Y314999D01*
X102799Y315599D01*
X104599Y312000D02*
Y315599D01*
X106998Y312000D01*
Y315599D01*
X106000Y309099D02*
X108399D01*
X107200D01*
Y305500D01*
X109599Y309099D02*
X111998Y305500D01*
Y309099D02*
X109599Y305500D01*
X95500D02*
Y309099D01*
X97299D01*
X97899Y308499D01*
Y307299D01*
X97299Y306700D01*
X95500D01*
X96700D02*
X97899Y305500D01*
X99099Y309099D02*
X101498Y305500D01*
Y309099D02*
X99099Y305500D01*
X84899Y308499D02*
X84299Y309099D01*
X83100D01*
X82500Y308499D01*
Y306100D01*
X83100Y305500D01*
X84299D01*
X84899Y306100D01*
Y307299D01*
X83700D01*
X86099Y305500D02*
Y309099D01*
X88498Y305500D01*
Y309099D01*
X89698D02*
Y305500D01*
X91497D01*
X92097Y306100D01*
Y308499D01*
X91497Y309099D01*
X89698D01*
X96899Y196372D02*
X96299Y196972D01*
X95100D01*
X94500Y196372D01*
Y193973D01*
X95100Y193373D01*
X96299D01*
X96899Y193973D01*
Y195173D01*
X95700D01*
X98099Y193373D02*
Y196972D01*
X100498Y193373D01*
Y196972D01*
X101698D02*
Y193373D01*
X103497D01*
X104097Y193973D01*
Y196372D01*
X103497Y196972D01*
X101698D01*
X94500Y203873D02*
Y207472D01*
X96899Y203873D01*
Y207472D01*
X98099Y203873D02*
Y207472D01*
X99898D01*
X100498Y206872D01*
Y205673D01*
X99898Y205073D01*
X98099D01*
X99299D02*
X100498Y203873D01*
X104097Y206872D02*
X103497Y207472D01*
X102297D01*
X101698Y206872D01*
Y206272D01*
X102297Y205673D01*
X103497D01*
X104097Y205073D01*
Y204473D01*
X103497Y203873D01*
X102297D01*
X101698Y204473D01*
X105297Y207472D02*
X107696D01*
X106496D01*
Y203873D01*
X96899Y216999D02*
X96299Y217599D01*
X95100D01*
X94500Y216999D01*
Y216399D01*
X95100Y215799D01*
X96299D01*
X96899Y215200D01*
Y214600D01*
X96299Y214000D01*
X95100D01*
X94500Y214600D01*
X98099Y217599D02*
Y214000D01*
X99299Y215200D01*
X100498Y214000D01*
Y217599D01*
X103497D02*
X102297D01*
X101698Y216999D01*
Y214600D01*
X102297Y214000D01*
X103497D01*
X104097Y214600D01*
Y216999D01*
X103497Y217599D01*
X96899Y226999D02*
X96299Y227599D01*
X95100D01*
X94500Y226999D01*
Y226399D01*
X95100Y225799D01*
X96299D01*
X96899Y225200D01*
Y224600D01*
X96299Y224000D01*
X95100D01*
X94500Y224600D01*
X98099Y227599D02*
Y224000D01*
X99299Y225200D01*
X100498Y224000D01*
Y227599D01*
X104097Y226999D02*
X103497Y227599D01*
X102297D01*
X101698Y226999D01*
Y224600D01*
X102297Y224000D01*
X103497D01*
X104097Y224600D01*
X105297Y227599D02*
Y224000D01*
X107696D01*
X108895Y227599D02*
Y224000D01*
Y225200D01*
X111295Y227599D01*
X109495Y225799D01*
X111295Y224000D01*
X95000Y236999D02*
X95600Y237599D01*
X96799D01*
X97399Y236999D01*
Y236399D01*
X96799Y235799D01*
X96200D01*
X96799D01*
X97399Y235200D01*
Y234600D01*
X96799Y234000D01*
X95600D01*
X95000Y234600D01*
X98599Y237599D02*
Y235200D01*
X99799Y234000D01*
X100998Y235200D01*
Y237599D01*
X102198Y236999D02*
X102797Y237599D01*
X103997D01*
X104597Y236999D01*
Y236399D01*
X103997Y235799D01*
X103397D01*
X103997D01*
X104597Y235200D01*
Y234600D01*
X103997Y234000D01*
X102797D01*
X102198Y234600D01*
X97399Y245499D02*
X96799Y246099D01*
X95600D01*
X95000Y245499D01*
Y244899D01*
X95600Y244299D01*
X96799D01*
X97399Y243700D01*
Y243100D01*
X96799Y242500D01*
X95600D01*
X95000Y243100D01*
X98599Y246099D02*
Y242500D01*
X99799Y243700D01*
X100998Y242500D01*
Y246099D01*
X102198D02*
Y242500D01*
X103997D01*
X104597Y243100D01*
Y245499D01*
X103997Y246099D01*
X102198D01*
X105797D02*
X106996D01*
X106396D01*
Y242500D01*
X105797D01*
X106996D01*
X110595Y246099D02*
X109395D01*
X108796Y245499D01*
Y243100D01*
X109395Y242500D01*
X110595D01*
X111195Y243100D01*
Y245499D01*
X110595Y246099D01*
X256000Y157099D02*
X258399D01*
X257200D01*
Y153500D01*
X259599D02*
Y157099D01*
X261398D01*
X261998Y156499D01*
Y155299D01*
X261398Y154700D01*
X259599D01*
X263198Y153500D02*
X264397D01*
X263797D01*
Y157099D01*
X263198Y156499D01*
X266197Y157099D02*
X268596D01*
Y156499D01*
X266197Y154100D01*
Y153500D01*
X242000Y145099D02*
X244399D01*
X243200D01*
Y141500D01*
X245599D02*
Y145099D01*
X247398D01*
X247998Y144499D01*
Y143299D01*
X247398Y142700D01*
X245599D01*
X249198Y141500D02*
X250397D01*
X249798D01*
Y145099D01*
X249198Y144499D01*
X254596Y145099D02*
X253396Y144499D01*
X252197Y143299D01*
Y142100D01*
X252797Y141500D01*
X253996D01*
X254596Y142100D01*
Y142700D01*
X253996Y143299D01*
X252197D01*
X274000Y344599D02*
X276399D01*
X275200D01*
Y341000D01*
X277599D02*
Y344599D01*
X279398D01*
X279998Y343999D01*
Y342799D01*
X279398Y342200D01*
X277599D01*
X281198Y341000D02*
X282397D01*
X281798D01*
Y344599D01*
X281198Y343999D01*
X286596Y344599D02*
X284197D01*
Y342799D01*
X285396Y343399D01*
X285996D01*
X286596Y342799D01*
Y341600D01*
X285996Y341000D01*
X284797D01*
X284197Y341600D01*
X179000Y336099D02*
X181399D01*
X180200D01*
Y332500D01*
X182599D02*
Y336099D01*
X184398D01*
X184998Y335499D01*
Y334299D01*
X184398Y333700D01*
X182599D01*
X186198Y332500D02*
X187397D01*
X186797D01*
Y336099D01*
X186198Y335499D01*
X190996Y332500D02*
Y336099D01*
X189197Y334299D01*
X191596D01*
X355000Y236599D02*
X357399D01*
X356200D01*
Y233000D01*
X358599D02*
Y236599D01*
X360398D01*
X360998Y235999D01*
Y234799D01*
X360398Y234200D01*
X358599D01*
X362198Y233000D02*
X363397D01*
X362797D01*
Y236599D01*
X362198Y235999D01*
X365197D02*
X365796Y236599D01*
X366996D01*
X367596Y235999D01*
Y235399D01*
X366996Y234799D01*
X366396D01*
X366996D01*
X367596Y234200D01*
Y233600D01*
X366996Y233000D01*
X365796D01*
X365197Y233600D01*
X127000Y244099D02*
X129399D01*
X128200D01*
Y240500D01*
X130599D02*
Y244099D01*
X132398D01*
X132998Y243499D01*
Y242299D01*
X132398Y241700D01*
X130599D01*
X134198Y240500D02*
X135397D01*
X134798D01*
Y244099D01*
X134198Y243499D01*
X139596Y240500D02*
X137197D01*
X139596Y242899D01*
Y243499D01*
X138996Y244099D01*
X137796D01*
X137197Y243499D01*
X392000Y160099D02*
X394399D01*
X393200D01*
Y156500D01*
X395599D02*
Y160099D01*
X397398D01*
X397998Y159499D01*
Y158299D01*
X397398Y157700D01*
X395599D01*
X399198Y156500D02*
X400397D01*
X399798D01*
Y160099D01*
X399198Y159499D01*
X402197Y156500D02*
X403396D01*
X402797D01*
Y160099D01*
X402197Y159499D01*
X370800Y352387D02*
X373199D01*
X372000D01*
Y348788D01*
X374399D02*
Y352387D01*
X376198D01*
X376798Y351787D01*
Y350588D01*
X376198Y349988D01*
X374399D01*
X377998Y348788D02*
X379197D01*
X378597D01*
Y352387D01*
X377998Y351787D01*
X380997D02*
X381596Y352387D01*
X382796D01*
X383396Y351787D01*
Y349388D01*
X382796Y348788D01*
X381596D01*
X380997Y349388D01*
Y351787D01*
X141000Y282099D02*
X143399D01*
X142200D01*
Y278500D01*
X144599D02*
Y282099D01*
X146398D01*
X146998Y281499D01*
Y280299D01*
X146398Y279700D01*
X144599D01*
X148198Y279100D02*
X148798Y278500D01*
X149997D01*
X150597Y279100D01*
Y281499D01*
X149997Y282099D01*
X148798D01*
X148198Y281499D01*
Y280899D01*
X148798Y280299D01*
X150597D01*
X279294Y165599D02*
Y162600D01*
X279894Y162000D01*
X281093D01*
X281693Y162600D01*
Y165599D01*
X285292Y162000D02*
X282893D01*
X285292Y164399D01*
Y164999D01*
X284692Y165599D01*
X283492D01*
X282893Y164999D01*
X203000Y277500D02*
Y281099D01*
X204799D01*
X205399Y280499D01*
Y279299D01*
X204799Y278700D01*
X203000D01*
X206599Y277500D02*
X207799D01*
X207199D01*
Y281099D01*
X206599Y280499D01*
X296500Y206099D02*
X298899D01*
X297700D01*
Y202500D01*
X300099D02*
Y206099D01*
X301898D01*
X302498Y205499D01*
Y204299D01*
X301898Y203700D01*
X300099D01*
X306097Y202500D02*
X303698D01*
X306097Y204899D01*
Y205499D01*
X305497Y206099D01*
X304297D01*
X303698Y205499D01*
X267000Y214599D02*
X269399D01*
X268200D01*
Y211000D01*
X270599D02*
Y214599D01*
X272398D01*
X272998Y213999D01*
Y212799D01*
X272398Y212200D01*
X270599D01*
X274198Y211000D02*
X275397D01*
X274798D01*
Y214599D01*
X274198Y213999D01*
X355000Y289500D02*
Y293099D01*
X356799D01*
X357399Y292499D01*
Y291299D01*
X356799Y290700D01*
X355000D01*
X360398Y289500D02*
Y293099D01*
X358599Y291299D01*
X360998D01*
X149899Y140999D02*
X149299Y141599D01*
X148100D01*
X147500Y140999D01*
Y138600D01*
X148100Y138000D01*
X149299D01*
X149899Y138600D01*
X151099Y138000D02*
X152298D01*
X151699D01*
Y141599D01*
X151099Y140999D01*
X154098Y138600D02*
X154698Y138000D01*
X155897D01*
X156497Y138600D01*
Y140999D01*
X155897Y141599D01*
X154698D01*
X154098Y140999D01*
Y140399D01*
X154698Y139799D01*
X156497D01*
X85000Y180599D02*
Y177000D01*
X87399D01*
X88599Y179999D02*
X89199Y180599D01*
X90398D01*
X90998Y179999D01*
Y179399D01*
X90398Y178799D01*
X89798D01*
X90398D01*
X90998Y178200D01*
Y177600D01*
X90398Y177000D01*
X89199D01*
X88599Y177600D01*
X112000Y165099D02*
Y161500D01*
X114399D01*
X117998D02*
X115599D01*
X117998Y163899D01*
Y164499D01*
X117398Y165099D01*
X116199D01*
X115599Y164499D01*
X99399Y189999D02*
X98799Y190599D01*
X97600D01*
X97000Y189999D01*
Y187600D01*
X97600Y187000D01*
X98799D01*
X99399Y187600D01*
X102398Y187000D02*
Y190599D01*
X100599Y188799D01*
X102998D01*
X104198Y187000D02*
X105397D01*
X104797D01*
Y190599D01*
X104198Y189999D01*
X209000Y294000D02*
Y297599D01*
X210799D01*
X211399Y296999D01*
Y295799D01*
X210799Y295200D01*
X209000D01*
X210200D02*
X211399Y294000D01*
X214998D02*
X212599D01*
X214998Y296399D01*
Y296999D01*
X214398Y297599D01*
X213199D01*
X212599Y296999D01*
X216198D02*
X216797Y297599D01*
X217997D01*
X218597Y296999D01*
Y296399D01*
X217997Y295799D01*
X217397D01*
X217997D01*
X218597Y295200D01*
Y294600D01*
X217997Y294000D01*
X216797D01*
X216198Y294600D01*
X187500Y309099D02*
Y305500D01*
X189899D01*
X193498Y309099D02*
X191099D01*
Y305500D01*
X193498D01*
X191099Y307299D02*
X192298D01*
X194698Y309099D02*
Y305500D01*
X196497D01*
X197097Y306100D01*
Y308499D01*
X196497Y309099D01*
X194698D01*
X200096Y305500D02*
Y309099D01*
X198296Y307299D01*
X200696D01*
X365500Y318500D02*
Y322099D01*
X367299D01*
X367899Y321499D01*
Y320299D01*
X367299Y319700D01*
X365500D01*
X366700D02*
X367899Y318500D01*
X371498D02*
X369099D01*
X371498Y320899D01*
Y321499D01*
X370898Y322099D01*
X369699D01*
X369099Y321499D01*
X372698Y319100D02*
X373298Y318500D01*
X374497D01*
X375097Y319100D01*
Y321499D01*
X374497Y322099D01*
X373298D01*
X372698Y321499D01*
Y320899D01*
X373298Y320299D01*
X375097D01*
X322000Y311099D02*
Y308100D01*
X322600Y307500D01*
X323799D01*
X324399Y308100D01*
Y311099D01*
X325599Y307500D02*
X326799D01*
X326199D01*
Y311099D01*
X325599Y310499D01*
X328598D02*
X329198Y311099D01*
X330397D01*
X330997Y310499D01*
Y308100D01*
X330397Y307500D01*
X329198D01*
X328598Y308100D01*
Y310499D01*
X316399Y321999D02*
X315799Y322599D01*
X314600D01*
X314000Y321999D01*
Y319600D01*
X314600Y319000D01*
X315799D01*
X316399Y319600D01*
X317599Y321999D02*
X318199Y322599D01*
X319398D01*
X319998Y321999D01*
Y321399D01*
X319398Y320799D01*
X318798D01*
X319398D01*
X319998Y320200D01*
Y319600D01*
X319398Y319000D01*
X318199D01*
X317599Y319600D01*
X321198D02*
X321797Y319000D01*
X322997D01*
X323597Y319600D01*
Y321999D01*
X322997Y322599D01*
X321797D01*
X321198Y321999D01*
Y321399D01*
X321797Y320799D01*
X323597D01*
X242500Y251099D02*
Y248100D01*
X243100Y247500D01*
X244299D01*
X244899Y248100D01*
Y251099D01*
X246099Y247500D02*
X247299D01*
X246699D01*
Y251099D01*
X246099Y250499D01*
X376212Y202099D02*
X378612D01*
X377412D01*
Y198500D01*
X379811D02*
Y202099D01*
X381611D01*
X382210Y201499D01*
Y200299D01*
X381611Y199700D01*
X379811D01*
X385209Y198500D02*
Y202099D01*
X383410Y200299D01*
X385809D01*
X214000Y221599D02*
Y218600D01*
X214600Y218000D01*
X215799D01*
X216399Y218600D01*
Y221599D01*
X219998D02*
X218798Y220999D01*
X217599Y219799D01*
Y218600D01*
X218199Y218000D01*
X219398D01*
X219998Y218600D01*
Y219200D01*
X219398Y219799D01*
X217599D01*
X124500Y205864D02*
Y202865D01*
X125100Y202265D01*
X126299D01*
X126899Y202865D01*
Y205864D01*
X128099Y202265D02*
X129298D01*
X128699D01*
Y205864D01*
X128099Y205264D01*
X131098Y202265D02*
X132298D01*
X131698D01*
Y205864D01*
X131098Y205264D01*
X128399Y175959D02*
X127799Y176559D01*
X126600D01*
X126000Y175959D01*
Y173559D01*
X126600Y172960D01*
X127799D01*
X128399Y173559D01*
X131398Y172960D02*
Y176559D01*
X129599Y174759D01*
X131998D01*
X133198Y175959D02*
X133798Y176559D01*
X134997D01*
X135597Y175959D01*
Y173559D01*
X134997Y172960D01*
X133798D01*
X133198Y173559D01*
Y175959D01*
X190000Y323599D02*
X192399D01*
X191200D01*
Y320000D01*
X193599D02*
Y323599D01*
X195398D01*
X195998Y322999D01*
Y321799D01*
X195398Y321200D01*
X193599D01*
X197198Y323599D02*
X199597D01*
Y322999D01*
X197198Y320600D01*
Y320000D01*
X205500Y355418D02*
X207899D01*
X206700D01*
Y351819D01*
X209099D02*
Y355418D01*
X210898D01*
X211498Y354818D01*
Y353618D01*
X210898Y353018D01*
X209099D01*
X215097Y355418D02*
X213897Y354818D01*
X212698Y353618D01*
Y352419D01*
X213298Y351819D01*
X214497D01*
X215097Y352419D01*
Y353018D01*
X214497Y353618D01*
X212698D01*
X226000Y416099D02*
X228399D01*
X227200D01*
Y412500D01*
X229599D02*
Y416099D01*
X231398D01*
X231998Y415499D01*
Y414299D01*
X231398Y413700D01*
X229599D01*
X233198Y415499D02*
X233798Y416099D01*
X234997D01*
X235597Y415499D01*
Y414899D01*
X234997Y414299D01*
X234397D01*
X234997D01*
X235597Y413700D01*
Y413100D01*
X234997Y412500D01*
X233798D01*
X233198Y413100D01*
X125500Y144000D02*
Y147599D01*
X127299D01*
X127899Y146999D01*
Y145799D01*
X127299Y145200D01*
X125500D01*
X131498Y147599D02*
X130298Y146999D01*
X129099Y145799D01*
Y144600D01*
X129699Y144000D01*
X130898D01*
X131498Y144600D01*
Y145200D01*
X130898Y145799D01*
X129099D01*
X313794Y171599D02*
Y168600D01*
X314394Y168000D01*
X315593D01*
X316193Y168600D01*
Y171599D01*
X317393Y170999D02*
X317992Y171599D01*
X319192D01*
X319792Y170999D01*
Y170399D01*
X319192Y169799D01*
X319792Y169200D01*
Y168600D01*
X319192Y168000D01*
X317992D01*
X317393Y168600D01*
Y169200D01*
X317992Y169799D01*
X317393Y170399D01*
Y170999D01*
X317992Y169799D02*
X319192D01*
X266000Y147500D02*
Y151099D01*
X267799D01*
X268399Y150499D01*
Y149299D01*
X267799Y148700D01*
X266000D01*
X267200D02*
X268399Y147500D01*
X271998D02*
X269599D01*
X271998Y149899D01*
Y150499D01*
X271398Y151099D01*
X270199D01*
X269599Y150499D01*
X275597Y147500D02*
X273198D01*
X275597Y149899D01*
Y150499D01*
X274997Y151099D01*
X273797D01*
X273198Y150499D01*
X174500Y248000D02*
Y251599D01*
X176299D01*
X176899Y250999D01*
Y249799D01*
X176299Y249200D01*
X174500D01*
X175700D02*
X176899Y248000D01*
X178099D02*
X179298D01*
X178699D01*
Y251599D01*
X178099Y250999D01*
X183497Y251599D02*
X182298Y250999D01*
X181098Y249799D01*
Y248600D01*
X181698Y248000D01*
X182897D01*
X183497Y248600D01*
Y249200D01*
X182897Y249799D01*
X181098D01*
X148500Y248500D02*
Y252099D01*
X150299D01*
X150899Y251499D01*
Y250299D01*
X150299Y249700D01*
X148500D01*
X149700D02*
X150899Y248500D01*
X152099D02*
X153298D01*
X152699D01*
Y252099D01*
X152099Y251499D01*
X157497Y252099D02*
X155098D01*
Y250299D01*
X156298Y250899D01*
X156897D01*
X157497Y250299D01*
Y249100D01*
X156897Y248500D01*
X155698D01*
X155098Y249100D01*
X282500Y151099D02*
Y147500D01*
X284899D01*
X288498Y151099D02*
X286099D01*
Y147500D01*
X288498D01*
X286099Y149299D02*
X287298D01*
X289698Y151099D02*
Y147500D01*
X291497D01*
X292097Y148100D01*
Y150499D01*
X291497Y151099D01*
X289698D01*
X293297Y150499D02*
X293896Y151099D01*
X295096D01*
X295696Y150499D01*
Y149899D01*
X295096Y149299D01*
X294496D01*
X295096D01*
X295696Y148700D01*
Y148100D01*
X295096Y147500D01*
X293896D01*
X293297Y148100D01*
X174500Y271599D02*
Y268000D01*
X176899D01*
X180498Y271599D02*
X178099D01*
Y268000D01*
X180498D01*
X178099Y269799D02*
X179298D01*
X181698Y271599D02*
Y268000D01*
X183497D01*
X184097Y268600D01*
Y270999D01*
X183497Y271599D01*
X181698D01*
X187696Y268000D02*
X185296D01*
X187696Y270399D01*
Y270999D01*
X187096Y271599D01*
X185896D01*
X185296Y270999D01*
X145035Y271099D02*
Y267500D01*
X147435D01*
X151033Y271099D02*
X148634D01*
Y267500D01*
X151033D01*
X148634Y269299D02*
X149834D01*
X152233Y271099D02*
Y267500D01*
X154033D01*
X154632Y268100D01*
Y270499D01*
X154033Y271099D01*
X152233D01*
X155832Y267500D02*
X157032D01*
X156432D01*
Y271099D01*
X155832Y270499D01*
X298899Y334499D02*
X298299Y335099D01*
X297100D01*
X296500Y334499D01*
Y332100D01*
X297100Y331500D01*
X298299D01*
X298899Y332100D01*
X300099Y334499D02*
X300699Y335099D01*
X301898D01*
X302498Y334499D01*
Y333899D01*
X301898Y333299D01*
X301298D01*
X301898D01*
X302498Y332700D01*
Y332100D01*
X301898Y331500D01*
X300699D01*
X300099Y332100D01*
X303698Y335099D02*
X306097D01*
Y334499D01*
X303698Y332100D01*
Y331500D01*
X325399Y163499D02*
X324799Y164099D01*
X323600D01*
X323000Y163499D01*
Y161100D01*
X323600Y160500D01*
X324799D01*
X325399Y161100D01*
X326599Y163499D02*
X327199Y164099D01*
X328398D01*
X328998Y163499D01*
Y162899D01*
X328398Y162299D01*
X327799D01*
X328398D01*
X328998Y161700D01*
Y161100D01*
X328398Y160500D01*
X327199D01*
X326599Y161100D01*
X332597Y160500D02*
X330198D01*
X332597Y162899D01*
Y163499D01*
X331997Y164099D01*
X330798D01*
X330198Y163499D01*
X201399Y205999D02*
X200799Y206599D01*
X199600D01*
X199000Y205999D01*
Y203600D01*
X199600Y203000D01*
X200799D01*
X201399Y203600D01*
X202599Y205999D02*
X203199Y206599D01*
X204398D01*
X204998Y205999D01*
Y205399D01*
X204398Y204799D01*
X203799D01*
X204398D01*
X204998Y204200D01*
Y203600D01*
X204398Y203000D01*
X203199D01*
X202599Y203600D01*
X206198Y203000D02*
X207397D01*
X206798D01*
Y206599D01*
X206198Y205999D01*
X347899Y171499D02*
X347299Y172099D01*
X346100D01*
X345500Y171499D01*
Y169100D01*
X346100Y168500D01*
X347299D01*
X347899Y169100D01*
X349099Y171499D02*
X349699Y172099D01*
X350898D01*
X351498Y171499D01*
Y170899D01*
X350898Y170299D01*
X350299D01*
X350898D01*
X351498Y169700D01*
Y169100D01*
X350898Y168500D01*
X349699D01*
X349099Y169100D01*
X352698Y171499D02*
X353297Y172099D01*
X354497D01*
X355097Y171499D01*
Y170899D01*
X354497Y170299D01*
X353897D01*
X354497D01*
X355097Y169700D01*
Y169100D01*
X354497Y168500D01*
X353297D01*
X352698Y169100D01*
X248901Y193000D02*
Y195399D01*
Y194200D01*
X252500D01*
Y196599D02*
X248901D01*
Y198398D01*
X249501Y198998D01*
X250701D01*
X251300Y198398D01*
Y196599D01*
X249501Y200198D02*
X248901Y200798D01*
Y201997D01*
X249501Y202597D01*
X250101D01*
X250701Y201997D01*
X251300Y202597D01*
X251900D01*
X252500Y201997D01*
Y200798D01*
X251900Y200198D01*
X251300D01*
X250701Y200798D01*
X250101Y200198D01*
X249501D01*
X250701Y200798D02*
Y201997D01*
X85399Y420099D02*
X84200D01*
X84799D01*
Y417100D01*
X84200Y416500D01*
X83600D01*
X83000Y417100D01*
X86599Y419499D02*
X87199Y420099D01*
X88398D01*
X88998Y419499D01*
Y418899D01*
X88398Y418299D01*
X87799D01*
X88398D01*
X88998Y417700D01*
Y417100D01*
X88398Y416500D01*
X87199D01*
X86599Y417100D01*
X250899Y417499D02*
X250299Y418099D01*
X249100D01*
X248500Y417499D01*
Y415100D01*
X249100Y414500D01*
X250299D01*
X250899Y415100D01*
X254498Y414500D02*
X252099D01*
X254498Y416899D01*
Y417499D01*
X253898Y418099D01*
X252699D01*
X252099Y417499D01*
X255698Y418099D02*
X258097D01*
Y417499D01*
X255698Y415100D01*
Y414500D01*
X395049Y321099D02*
X393850D01*
X394449D01*
Y318100D01*
X393850Y317500D01*
X393250D01*
X392650Y318100D01*
X396249Y317500D02*
X397448D01*
X396849D01*
Y321099D01*
X396249Y320499D01*
X328879Y303499D02*
X328280Y304099D01*
X327080D01*
X326480Y303499D01*
Y301100D01*
X327080Y300500D01*
X328280D01*
X328879Y301100D01*
X330079Y300500D02*
X331279D01*
X330679D01*
Y304099D01*
X330079Y303499D01*
X105399Y287599D02*
X104200D01*
X104799D01*
Y284600D01*
X104200Y284000D01*
X103600D01*
X103000Y284600D01*
X108998Y284000D02*
X106599D01*
X108998Y286399D01*
Y286999D01*
X108398Y287599D01*
X107199D01*
X106599Y286999D01*
X312500Y359099D02*
Y356100D01*
X313100Y355500D01*
X314299D01*
X314899Y356100D01*
Y359099D01*
X316099Y356100D02*
X316699Y355500D01*
X317898D01*
X318498Y356100D01*
Y358499D01*
X317898Y359099D01*
X316699D01*
X316099Y358499D01*
Y357899D01*
X316699Y357299D01*
X318498D01*
X226500Y295099D02*
X228899D01*
X227700D01*
Y291500D01*
X230099D02*
Y295099D01*
X231898D01*
X232498Y294499D01*
Y293299D01*
X231898Y292700D01*
X230099D01*
X236097Y295099D02*
X233698D01*
Y293299D01*
X234897Y293899D01*
X235497D01*
X236097Y293299D01*
Y292100D01*
X235497Y291500D01*
X234297D01*
X233698Y292100D01*
X283000Y364000D02*
Y367599D01*
X284799D01*
X285399Y366999D01*
Y365799D01*
X284799Y365200D01*
X283000D01*
X284200D02*
X285399Y364000D01*
X286599Y366999D02*
X287199Y367599D01*
X288398D01*
X288998Y366999D01*
Y366399D01*
X288398Y365799D01*
X287799D01*
X288398D01*
X288998Y365200D01*
Y364600D01*
X288398Y364000D01*
X287199D01*
X286599Y364600D01*
X290198Y364000D02*
X291397D01*
X290797D01*
Y367599D01*
X290198Y366999D01*
X302399Y371999D02*
X301799Y372599D01*
X300600D01*
X300000Y371999D01*
Y369600D01*
X300600Y369000D01*
X301799D01*
X302399Y369600D01*
X303599Y371999D02*
X304199Y372599D01*
X305398D01*
X305998Y371999D01*
Y371399D01*
X305398Y370799D01*
X304799D01*
X305398D01*
X305998Y370200D01*
Y369600D01*
X305398Y369000D01*
X304199D01*
X303599Y369600D01*
X307198Y371999D02*
X307798Y372599D01*
X308997D01*
X309597Y371999D01*
Y371399D01*
X308997Y370799D01*
X309597Y370200D01*
Y369600D01*
X308997Y369000D01*
X307798D01*
X307198Y369600D01*
Y370200D01*
X307798Y370799D01*
X307198Y371399D01*
Y371999D01*
X307798Y370799D02*
X308997D01*
X377000Y162599D02*
Y159600D01*
X377600Y159000D01*
X378799D01*
X379399Y159600D01*
Y162599D01*
X380599D02*
X382998D01*
Y161999D01*
X380599Y159600D01*
Y159000D01*
X206000Y153599D02*
Y150000D01*
X208399D01*
X209599D02*
X210799D01*
X210199D01*
Y153599D01*
X209599Y152999D01*
X178899Y133499D02*
X178299Y134099D01*
X177100D01*
X176500Y133499D01*
Y131100D01*
X177100Y130500D01*
X178299D01*
X178899Y131100D01*
X182498Y130500D02*
X180099D01*
X182498Y132899D01*
Y133499D01*
X181898Y134099D01*
X180699D01*
X180099Y133499D01*
X186097Y130500D02*
X183698D01*
X186097Y132899D01*
Y133499D01*
X185497Y134099D01*
X184298D01*
X183698Y133499D01*
X137899Y414499D02*
X137299Y415099D01*
X136100D01*
X135500Y414499D01*
Y412100D01*
X136100Y411500D01*
X137299D01*
X137899Y412100D01*
X141498Y411500D02*
X139099D01*
X141498Y413899D01*
Y414499D01*
X140898Y415099D01*
X139699D01*
X139099Y414499D01*
X144497Y411500D02*
Y415099D01*
X142698Y413299D01*
X145097D01*
X115000Y321000D02*
Y324599D01*
X116799D01*
X117399Y323999D01*
Y322799D01*
X116799Y322200D01*
X115000D01*
X120998Y321000D02*
X118599D01*
X120998Y323399D01*
Y323999D01*
X120398Y324599D01*
X119199D01*
X118599Y323999D01*
X250899Y169999D02*
X250299Y170599D01*
X249100D01*
X248500Y169999D01*
Y167600D01*
X249100Y167000D01*
X250299D01*
X250899Y167600D01*
X252099Y167000D02*
X253298D01*
X252699D01*
Y170599D01*
X252099Y169999D01*
X255098D02*
X255698Y170599D01*
X256897D01*
X257497Y169999D01*
Y167600D01*
X256897Y167000D01*
X255698D01*
X255098Y167600D01*
Y169999D01*
X240399Y177279D02*
X239799Y177879D01*
X238600D01*
X238000Y177279D01*
Y174880D01*
X238600Y174280D01*
X239799D01*
X240399Y174880D01*
X241599Y174280D02*
X242798D01*
X242199D01*
Y177879D01*
X241599Y177279D01*
X244598Y174280D02*
X245797D01*
X245198D01*
Y177879D01*
X244598Y177279D01*
X300500Y163960D02*
Y167559D01*
X302299D01*
X302899Y166959D01*
Y165759D01*
X302299Y165159D01*
X300500D01*
X301700D02*
X302899Y163960D01*
X306498D02*
X304099D01*
X306498Y166359D01*
Y166959D01*
X305898Y167559D01*
X304699D01*
X304099Y166959D01*
X307698D02*
X308297Y167559D01*
X309497D01*
X310097Y166959D01*
Y166359D01*
X309497Y165759D01*
X310097Y165159D01*
Y164559D01*
X309497Y163960D01*
X308297D01*
X307698Y164559D01*
Y165159D01*
X308297Y165759D01*
X307698Y166359D01*
Y166959D01*
X308297Y165759D02*
X309497D01*
X339000Y201000D02*
Y204599D01*
X340799D01*
X341399Y203999D01*
Y202799D01*
X340799Y202200D01*
X339000D01*
X340200D02*
X341399Y201000D01*
X344998D02*
X342599D01*
X344998Y203399D01*
Y203999D01*
X344398Y204599D01*
X343199D01*
X342599Y203999D01*
X346198Y204599D02*
X348597D01*
Y203999D01*
X346198Y201600D01*
Y201000D01*
X356500Y183000D02*
Y186599D01*
X358299D01*
X358899Y185999D01*
Y184799D01*
X358299Y184200D01*
X356500D01*
X357700D02*
X358899Y183000D01*
X362498D02*
X360099D01*
X362498Y185399D01*
Y185999D01*
X361898Y186599D01*
X360699D01*
X360099Y185999D01*
X366097Y186599D02*
X364897Y185999D01*
X363698Y184799D01*
Y183600D01*
X364298Y183000D01*
X365497D01*
X366097Y183600D01*
Y184200D01*
X365497Y184799D01*
X363698D01*
X341399Y194999D02*
X340799Y195599D01*
X339600D01*
X339000Y194999D01*
Y192600D01*
X339600Y192000D01*
X340799D01*
X341399Y192600D01*
X342599Y194999D02*
X343199Y195599D01*
X344398D01*
X344998Y194999D01*
Y194399D01*
X344398Y193799D01*
X343798D01*
X344398D01*
X344998Y193200D01*
Y192600D01*
X344398Y192000D01*
X343199D01*
X342599Y192600D01*
X348597Y195599D02*
X347397Y194999D01*
X346198Y193799D01*
Y192600D01*
X346797Y192000D01*
X347997D01*
X348597Y192600D01*
Y193200D01*
X347997Y193799D01*
X346198D01*
X310399Y197999D02*
X309799Y198599D01*
X308600D01*
X308000Y197999D01*
Y195600D01*
X308600Y195000D01*
X309799D01*
X310399Y195600D01*
X311599Y197999D02*
X312199Y198599D01*
X313398D01*
X313998Y197999D01*
Y197399D01*
X313398Y196799D01*
X312799D01*
X313398D01*
X313998Y196200D01*
Y195600D01*
X313398Y195000D01*
X312199D01*
X311599Y195600D01*
X317597Y198599D02*
X315198D01*
Y196799D01*
X316397Y197399D01*
X316997D01*
X317597Y196799D01*
Y195600D01*
X316997Y195000D01*
X315797D01*
X315198Y195600D01*
X311639Y205499D02*
X311040Y206099D01*
X309840D01*
X309240Y205499D01*
Y203100D01*
X309840Y202500D01*
X311040D01*
X311639Y203100D01*
X312839Y205499D02*
X313439Y206099D01*
X314638D01*
X315238Y205499D01*
Y204899D01*
X314638Y204299D01*
X314039D01*
X314638D01*
X315238Y203700D01*
Y203100D01*
X314638Y202500D01*
X313439D01*
X312839Y203100D01*
X318237Y202500D02*
Y206099D01*
X316438Y204299D01*
X318837D01*
X319000Y348500D02*
Y352099D01*
X320799D01*
X321399Y351499D01*
Y350299D01*
X320799Y349700D01*
X319000D01*
X320200D02*
X321399Y348500D01*
X322599Y351499D02*
X323199Y352099D01*
X324398D01*
X324998Y351499D01*
Y350899D01*
X324398Y350299D01*
X323798D01*
X324398D01*
X324998Y349700D01*
Y349100D01*
X324398Y348500D01*
X323199D01*
X322599Y349100D01*
X326198Y351499D02*
X326798Y352099D01*
X327997D01*
X328597Y351499D01*
Y349100D01*
X327997Y348500D01*
X326798D01*
X326198Y349100D01*
Y351499D01*
X310000Y185000D02*
Y188599D01*
X311799D01*
X312399Y187999D01*
Y186799D01*
X311799Y186200D01*
X310000D01*
X311200D02*
X312399Y185000D01*
X313599D02*
X314798D01*
X314199D01*
Y188599D01*
X313599Y187999D01*
X318397Y185000D02*
Y188599D01*
X316598Y186799D01*
X318997D01*
X294500Y190000D02*
Y193599D01*
X296299D01*
X296899Y192999D01*
Y191799D01*
X296299Y191200D01*
X294500D01*
X295700D02*
X296899Y190000D01*
X298099D02*
X299299D01*
X298699D01*
Y193599D01*
X298099Y192999D01*
X301098D02*
X301698Y193599D01*
X302897D01*
X303497Y192999D01*
Y192399D01*
X302897Y191799D01*
X302297D01*
X302897D01*
X303497Y191200D01*
Y190600D01*
X302897Y190000D01*
X301698D01*
X301098Y190600D01*
X257000Y204000D02*
Y207599D01*
X258799D01*
X259399Y206999D01*
Y205799D01*
X258799Y205200D01*
X257000D01*
X258200D02*
X259399Y204000D01*
X260599Y204600D02*
X261199Y204000D01*
X262398D01*
X262998Y204600D01*
Y206999D01*
X262398Y207599D01*
X261199D01*
X260599Y206999D01*
Y206399D01*
X261199Y205799D01*
X262998D01*
X277500Y190000D02*
Y193599D01*
X279299D01*
X279899Y192999D01*
Y191799D01*
X279299Y191200D01*
X277500D01*
X278700D02*
X279899Y190000D01*
X281099Y192999D02*
X281699Y193599D01*
X282898D01*
X283498Y192999D01*
Y192399D01*
X282898Y191799D01*
X283498Y191200D01*
Y190600D01*
X282898Y190000D01*
X281699D01*
X281099Y190600D01*
Y191200D01*
X281699Y191799D01*
X281099Y192399D01*
Y192999D01*
X281699Y191799D02*
X282898D01*
X377500Y166612D02*
Y170211D01*
X379299D01*
X379899Y169611D01*
Y168411D01*
X379299Y167811D01*
X377500D01*
X378700D02*
X379899Y166612D01*
X383498D02*
X381099D01*
X383498Y169011D01*
Y169611D01*
X382898Y170211D01*
X381699D01*
X381099Y169611D01*
X387097Y170211D02*
X384698D01*
Y168411D01*
X385897Y169011D01*
X386497D01*
X387097Y168411D01*
Y167212D01*
X386497Y166612D01*
X385297D01*
X384698Y167212D01*
X339000Y286500D02*
Y290099D01*
X340799D01*
X341399Y289499D01*
Y288299D01*
X340799Y287700D01*
X339000D01*
X340200D02*
X341399Y286500D01*
X344998D02*
X342599D01*
X344998Y288899D01*
Y289499D01*
X344398Y290099D01*
X343199D01*
X342599Y289499D01*
X333899Y366600D02*
Y368999D01*
X333299Y369599D01*
X332100D01*
X331500Y368999D01*
Y366600D01*
X332100Y366000D01*
X333299D01*
X332700Y367200D02*
X333899Y366000D01*
X333299D02*
X333899Y366600D01*
X337498Y366000D02*
X335099D01*
X337498Y368399D01*
Y368999D01*
X336898Y369599D01*
X335699D01*
X335099Y368999D01*
X322399Y268499D02*
X321799Y269099D01*
X320600D01*
X320000Y268499D01*
Y266100D01*
X320600Y265500D01*
X321799D01*
X322399Y266100D01*
X325398Y265500D02*
Y269099D01*
X323599Y267299D01*
X325998D01*
X404500Y208000D02*
Y211599D01*
X406299D01*
X406899Y210999D01*
Y209799D01*
X406299Y209200D01*
X404500D01*
X408099Y211599D02*
X410498D01*
Y210999D01*
X408099Y208600D01*
Y208000D01*
X115000Y296500D02*
Y300099D01*
X116799D01*
X117399Y299499D01*
Y298299D01*
X116799Y297700D01*
X115000D01*
X120998Y300099D02*
X118599D01*
Y298299D01*
X119799Y298899D01*
X120398D01*
X120998Y298299D01*
Y297100D01*
X120398Y296500D01*
X119199D01*
X118599Y297100D01*
X84500Y184500D02*
Y188099D01*
X86299D01*
X86899Y187499D01*
Y186299D01*
X86299Y185700D01*
X84500D01*
X88099Y187499D02*
X88699Y188099D01*
X89898D01*
X90498Y187499D01*
Y186899D01*
X89898Y186299D01*
X89298D01*
X89898D01*
X90498Y185700D01*
Y185100D01*
X89898Y184500D01*
X88699D01*
X88099Y185100D01*
X216500Y387099D02*
Y384100D01*
X217100Y383500D01*
X218299D01*
X218899Y384100D01*
Y387099D01*
X222498D02*
X220099D01*
Y385299D01*
X221299Y385899D01*
X221898D01*
X222498Y385299D01*
Y384100D01*
X221898Y383500D01*
X220699D01*
X220099Y384100D01*
X261500Y321599D02*
Y318600D01*
X262100Y318000D01*
X263299D01*
X263899Y318600D01*
Y321599D01*
X266898Y318000D02*
Y321599D01*
X265099Y319799D01*
X267498D01*
X192000Y157599D02*
Y154600D01*
X192600Y154000D01*
X193799D01*
X194399Y154600D01*
Y157599D01*
X195599Y156999D02*
X196199Y157599D01*
X197398D01*
X197998Y156999D01*
Y156399D01*
X197398Y155799D01*
X196799D01*
X197398D01*
X197998Y155200D01*
Y154600D01*
X197398Y154000D01*
X196199D01*
X195599Y154600D01*
X177000Y347000D02*
Y350599D01*
X178799D01*
X179399Y349999D01*
Y348799D01*
X178799Y348200D01*
X177000D01*
X178200D02*
X179399Y347000D01*
X182998D02*
X180599D01*
X182998Y349399D01*
Y349999D01*
X182398Y350599D01*
X181199D01*
X180599Y349999D01*
X184198Y347000D02*
X185397D01*
X184798D01*
Y350599D01*
X184198Y349999D01*
X191000Y349000D02*
Y352599D01*
X192799D01*
X193399Y351999D01*
Y350799D01*
X192799Y350200D01*
X191000D01*
X192200D02*
X193399Y349000D01*
X196998D02*
X194599D01*
X196998Y351399D01*
Y351999D01*
X196398Y352599D01*
X195199D01*
X194599Y351999D01*
X198198D02*
X198798Y352599D01*
X199997D01*
X200597Y351999D01*
Y349600D01*
X199997Y349000D01*
X198798D01*
X198198Y349600D01*
Y351999D01*
X191000Y354760D02*
Y358359D01*
X192799D01*
X193399Y357759D01*
Y356559D01*
X192799Y355960D01*
X191000D01*
X192200D02*
X193399Y354760D01*
X194599D02*
X195799D01*
X195199D01*
Y358359D01*
X194599Y357759D01*
X197598Y355360D02*
X198198Y354760D01*
X199397D01*
X199997Y355360D01*
Y357759D01*
X199397Y358359D01*
X198198D01*
X197598Y357759D01*
Y357159D01*
X198198Y356559D01*
X199997D01*
X131000Y341000D02*
Y344599D01*
X132799D01*
X133399Y343999D01*
Y342799D01*
X132799Y342200D01*
X131000D01*
X132200D02*
X133399Y341000D01*
X134599D02*
X135799D01*
X135199D01*
Y344599D01*
X134599Y343999D01*
X137598D02*
X138198Y344599D01*
X139397D01*
X139997Y343999D01*
Y343399D01*
X139397Y342799D01*
X139997Y342200D01*
Y341600D01*
X139397Y341000D01*
X138198D01*
X137598Y341600D01*
Y342200D01*
X138198Y342799D01*
X137598Y343399D01*
Y343999D01*
X138198Y342799D02*
X139397D01*
X209500Y336000D02*
Y339599D01*
X211299D01*
X211899Y338999D01*
Y337799D01*
X211299Y337200D01*
X209500D01*
X210700D02*
X211899Y336000D01*
X213099D02*
X214299D01*
X213699D01*
Y339599D01*
X213099Y338999D01*
X216098Y339599D02*
X218497D01*
Y338999D01*
X216098Y336600D01*
Y336000D01*
X193899Y417600D02*
Y419999D01*
X193299Y420599D01*
X192100D01*
X191500Y419999D01*
Y417600D01*
X192100Y417000D01*
X193299D01*
X192700Y418200D02*
X193899Y417000D01*
X193299D02*
X193899Y417600D01*
X195099Y417000D02*
X196299D01*
X195699D01*
Y420599D01*
X195099Y419999D01*
X188500Y403599D02*
Y400000D01*
X190299D01*
X190899Y400600D01*
Y402999D01*
X190299Y403599D01*
X188500D01*
X194498Y400000D02*
X192099D01*
X194498Y402399D01*
Y402999D01*
X193898Y403599D01*
X192699D01*
X192099Y402999D01*
X127500Y394599D02*
Y391000D01*
X129299D01*
X129899Y391600D01*
Y393999D01*
X129299Y394599D01*
X127500D01*
X131099Y391000D02*
X132299D01*
X131699D01*
Y394599D01*
X131099Y393999D01*
X249399Y212626D02*
X248799Y213226D01*
X247600D01*
X247000Y212626D01*
Y210227D01*
X247600Y209627D01*
X248799D01*
X249399Y210227D01*
X250599Y212626D02*
X251199Y213226D01*
X252398D01*
X252998Y212626D01*
Y212026D01*
X252398Y211426D01*
X251799D01*
X252398D01*
X252998Y210827D01*
Y210227D01*
X252398Y209627D01*
X251199D01*
X250599Y210227D01*
X254198Y212626D02*
X254798Y213226D01*
X255997D01*
X256597Y212626D01*
Y210227D01*
X255997Y209627D01*
X254798D01*
X254198Y210227D01*
Y212626D01*
X244399Y233149D02*
X243799Y233749D01*
X242600D01*
X242000Y233149D01*
Y230749D01*
X242600Y230150D01*
X243799D01*
X244399Y230749D01*
X247998Y230150D02*
X245599D01*
X247998Y232549D01*
Y233149D01*
X247398Y233749D01*
X246199D01*
X245599Y233149D01*
X249198Y230749D02*
X249798Y230150D01*
X250997D01*
X251597Y230749D01*
Y233149D01*
X250997Y233749D01*
X249798D01*
X249198Y233149D01*
Y232549D01*
X249798Y231949D01*
X251597D01*
X220899Y367999D02*
X220299Y368599D01*
X219100D01*
X218500Y367999D01*
Y365600D01*
X219100Y365000D01*
X220299D01*
X220899Y365600D01*
X224498Y365000D02*
X222099D01*
X224498Y367399D01*
Y367999D01*
X223898Y368599D01*
X222699D01*
X222099Y367999D01*
X228097Y368599D02*
X226897Y367999D01*
X225698Y366799D01*
Y365600D01*
X226297Y365000D01*
X227497D01*
X228097Y365600D01*
Y366200D01*
X227497Y366799D01*
X225698D01*
X234899Y397499D02*
X234299Y398099D01*
X233100D01*
X232500Y397499D01*
Y395100D01*
X233100Y394500D01*
X234299D01*
X234899Y395100D01*
X238498Y394500D02*
X236099D01*
X238498Y396899D01*
Y397499D01*
X237898Y398099D01*
X236699D01*
X236099Y397499D01*
X242097Y398099D02*
X239698D01*
Y396299D01*
X240897Y396899D01*
X241497D01*
X242097Y396299D01*
Y395100D01*
X241497Y394500D01*
X240298D01*
X239698Y395100D01*
X251399Y353499D02*
X250799Y354099D01*
X249600D01*
X249000Y353499D01*
Y351100D01*
X249600Y350500D01*
X250799D01*
X251399Y351100D01*
X254998Y350500D02*
X252599D01*
X254998Y352899D01*
Y353499D01*
X254398Y354099D01*
X253199D01*
X252599Y353499D01*
X256198D02*
X256798Y354099D01*
X257997D01*
X258597Y353499D01*
Y352899D01*
X257997Y352299D01*
X258597Y351700D01*
Y351100D01*
X257997Y350500D01*
X256798D01*
X256198Y351100D01*
Y351700D01*
X256798Y352299D01*
X256198Y352899D01*
Y353499D01*
X256798Y352299D02*
X257997D01*
X238899Y315999D02*
X238299Y316599D01*
X237100D01*
X236500Y315999D01*
Y313600D01*
X237100Y313000D01*
X238299D01*
X238899Y313600D01*
X242498Y313000D02*
X240099D01*
X242498Y315399D01*
Y315999D01*
X241898Y316599D01*
X240699D01*
X240099Y315999D01*
X243698D02*
X244298Y316599D01*
X245497D01*
X246097Y315999D01*
Y315399D01*
X245497Y314799D01*
X244897D01*
X245497D01*
X246097Y314200D01*
Y313600D01*
X245497Y313000D01*
X244298D01*
X243698Y313600D01*
X207899Y145499D02*
X207299Y146099D01*
X206100D01*
X205500Y145499D01*
Y143100D01*
X206100Y142500D01*
X207299D01*
X207899Y143100D01*
X211498Y142500D02*
X209099D01*
X211498Y144899D01*
Y145499D01*
X210898Y146099D01*
X209699D01*
X209099Y145499D01*
X212698Y142500D02*
X213897D01*
X213298D01*
Y146099D01*
X212698Y145499D01*
X205501Y192899D02*
X204901Y192299D01*
Y191100D01*
X205501Y190500D01*
X207900D01*
X208500Y191100D01*
Y192299D01*
X207900Y192899D01*
X208500Y194099D02*
Y195299D01*
Y194699D01*
X204901D01*
X205501Y194099D01*
X204901Y199497D02*
Y197098D01*
X206701D01*
X206101Y198298D01*
Y198897D01*
X206701Y199497D01*
X207900D01*
X208500Y198897D01*
Y197698D01*
X207900Y197098D01*
X136399Y208499D02*
X135799Y209099D01*
X134600D01*
X134000Y208499D01*
Y206100D01*
X134600Y205500D01*
X135799D01*
X136399Y206100D01*
X137599Y205500D02*
X138798D01*
X138199D01*
Y209099D01*
X137599Y208499D01*
X140598D02*
X141198Y209099D01*
X142397D01*
X142997Y208499D01*
Y207899D01*
X142397Y207299D01*
X142997Y206700D01*
Y206100D01*
X142397Y205500D01*
X141198D01*
X140598Y206100D01*
Y206700D01*
X141198Y207299D01*
X140598Y207899D01*
Y208499D01*
X141198Y207299D02*
X142397D01*
X134399Y162999D02*
X133799Y163599D01*
X132600D01*
X132000Y162999D01*
Y160600D01*
X132600Y160000D01*
X133799D01*
X134399Y160600D01*
X135599Y160000D02*
X136799D01*
X136199D01*
Y163599D01*
X135599Y162999D01*
X138598Y163599D02*
X140997D01*
Y162999D01*
X138598Y160600D01*
Y160000D01*
X211399Y173999D02*
X210799Y174599D01*
X209600D01*
X209000Y173999D01*
Y171600D01*
X209600Y171000D01*
X210799D01*
X211399Y171600D01*
X212599Y171000D02*
X213798D01*
X213199D01*
Y174599D01*
X212599Y173999D01*
X217997Y174599D02*
X216797Y173999D01*
X215598Y172799D01*
Y171600D01*
X216198Y171000D01*
X217397D01*
X217997Y171600D01*
Y172200D01*
X217397Y172799D01*
X215598D01*
X228899Y131999D02*
X228299Y132599D01*
X227100D01*
X226500Y131999D01*
Y129600D01*
X227100Y129000D01*
X228299D01*
X228899Y129600D01*
X232498Y129000D02*
X230099D01*
X232498Y131399D01*
Y131999D01*
X231898Y132599D01*
X230699D01*
X230099Y131999D01*
X233698D02*
X234297Y132599D01*
X235497D01*
X236097Y131999D01*
Y129600D01*
X235497Y129000D01*
X234297D01*
X233698Y129600D01*
Y131999D01*
X224899Y176499D02*
X224299Y177099D01*
X223100D01*
X222500Y176499D01*
Y174100D01*
X223100Y173500D01*
X224299D01*
X224899Y174100D01*
X226099Y173500D02*
X227298D01*
X226699D01*
Y177099D01*
X226099Y176499D01*
X230897Y173500D02*
Y177099D01*
X229098Y175299D01*
X231497D01*
X141399Y131999D02*
X140799Y132599D01*
X139600D01*
X139000Y131999D01*
Y129600D01*
X139600Y129000D01*
X140799D01*
X141399Y129600D01*
X142599Y129000D02*
X143798D01*
X143199D01*
Y132599D01*
X142599Y131999D01*
X145598D02*
X146198Y132599D01*
X147397D01*
X147997Y131999D01*
Y131399D01*
X147397Y130799D01*
X146798D01*
X147397D01*
X147997Y130200D01*
Y129600D01*
X147397Y129000D01*
X146198D01*
X145598Y129600D01*
X310000Y217500D02*
Y221099D01*
X311799D01*
X312399Y220499D01*
Y219299D01*
X311799Y218700D01*
X310000D01*
X311200D02*
X312399Y217500D01*
X313599D02*
X314798D01*
X314199D01*
Y221099D01*
X313599Y220499D01*
X316598Y217500D02*
X317797D01*
X317198D01*
Y221099D01*
X316598Y220499D01*
X338000Y292500D02*
Y296099D01*
X339799D01*
X340399Y295499D01*
Y294299D01*
X339799Y293700D01*
X338000D01*
X339200D02*
X340399Y292500D01*
X341599D02*
X342798D01*
X342199D01*
Y296099D01*
X341599Y295499D01*
X346997Y292500D02*
X344598D01*
X346997Y294899D01*
Y295499D01*
X346397Y296099D01*
X345198D01*
X344598Y295499D01*
X376500Y177000D02*
Y180599D01*
X378299D01*
X378899Y179999D01*
Y178799D01*
X378299Y178200D01*
X376500D01*
X377700D02*
X378899Y177000D01*
X382498D02*
X380099D01*
X382498Y179399D01*
Y179999D01*
X381898Y180599D01*
X380699D01*
X380099Y179999D01*
X385497Y177000D02*
Y180599D01*
X383698Y178799D01*
X386097D01*
X328500Y259000D02*
Y262599D01*
X330299D01*
X330899Y261999D01*
Y260799D01*
X330299Y260200D01*
X328500D01*
X329700D02*
X330899Y259000D01*
X332099D02*
X333298D01*
X332699D01*
Y262599D01*
X332099Y261999D01*
X335098D02*
X335698Y262599D01*
X336897D01*
X337497Y261999D01*
Y259600D01*
X336897Y259000D01*
X335698D01*
X335098Y259600D01*
Y261999D01*
X330500Y226500D02*
Y230099D01*
X332299D01*
X332899Y229499D01*
Y228299D01*
X332299Y227700D01*
X330500D01*
X331700D02*
X332899Y226500D01*
X334099Y230099D02*
X336498D01*
Y229499D01*
X334099Y227100D01*
Y226500D01*
X286000Y304000D02*
Y307599D01*
X287799D01*
X288399Y306999D01*
Y305799D01*
X287799Y305200D01*
X286000D01*
X287200D02*
X288399Y304000D01*
X291998Y307599D02*
X290798Y306999D01*
X289599Y305799D01*
Y304600D01*
X290199Y304000D01*
X291398D01*
X291998Y304600D01*
Y305200D01*
X291398Y305799D01*
X289599D01*
X321500Y226500D02*
Y230099D01*
X323299D01*
X323899Y229499D01*
Y228299D01*
X323299Y227700D01*
X321500D01*
X322700D02*
X323899Y226500D01*
X327498Y230099D02*
X325099D01*
Y228299D01*
X326298Y228899D01*
X326898D01*
X327498Y228299D01*
Y227100D01*
X326898Y226500D01*
X325699D01*
X325099Y227100D01*
X339500Y226500D02*
Y230099D01*
X341299D01*
X341899Y229499D01*
Y228299D01*
X341299Y227700D01*
X339500D01*
X340700D02*
X341899Y226500D01*
X344898D02*
Y230099D01*
X343099Y228299D01*
X345498D01*
X326000Y249500D02*
Y253099D01*
X327799D01*
X328399Y252499D01*
Y251299D01*
X327799Y250700D01*
X326000D01*
X327200D02*
X328399Y249500D01*
X329599Y252499D02*
X330199Y253099D01*
X331398D01*
X331998Y252499D01*
Y251899D01*
X331398Y251299D01*
X330799D01*
X331398D01*
X331998Y250700D01*
Y250100D01*
X331398Y249500D01*
X330199D01*
X329599Y250100D01*
X261500Y300000D02*
Y303599D01*
X263299D01*
X263899Y302999D01*
Y301799D01*
X263299Y301200D01*
X261500D01*
X262700D02*
X263899Y300000D01*
X265099D02*
X266299D01*
X265699D01*
Y303599D01*
X265099Y302999D01*
X303899Y213999D02*
X303299Y214599D01*
X302100D01*
X301500Y213999D01*
Y211600D01*
X302100Y211000D01*
X303299D01*
X303899Y211600D01*
X305099D02*
X305699Y211000D01*
X306898D01*
X307498Y211600D01*
Y213999D01*
X306898Y214599D01*
X305699D01*
X305099Y213999D01*
Y213399D01*
X305699Y212799D01*
X307498D01*
X243399Y269695D02*
X242799Y270295D01*
X241600D01*
X241000Y269695D01*
Y267296D01*
X241600Y266696D01*
X242799D01*
X243399Y267296D01*
X244599Y269695D02*
X245199Y270295D01*
X246398D01*
X246998Y269695D01*
Y269095D01*
X246398Y268495D01*
X246998Y267895D01*
Y267296D01*
X246398Y266696D01*
X245199D01*
X244599Y267296D01*
Y267895D01*
X245199Y268495D01*
X244599Y269095D01*
Y269695D01*
X245199Y268495D02*
X246398D01*
X290924Y221899D02*
X290324Y221299D01*
Y220100D01*
X290924Y219500D01*
X293323D01*
X293923Y220100D01*
Y221299D01*
X293323Y221899D01*
X293923Y223099D02*
Y224299D01*
Y223699D01*
X290324D01*
X290924Y223099D01*
X293923Y228497D02*
Y226098D01*
X291524Y228497D01*
X290924D01*
X290324Y227897D01*
Y226698D01*
X290924Y226098D01*
X274399Y307999D02*
X273799Y308599D01*
X272600D01*
X272000Y307999D01*
Y305600D01*
X272600Y305000D01*
X273799D01*
X274399Y305600D01*
X275599Y308599D02*
X277998D01*
Y307999D01*
X275599Y305600D01*
Y305000D01*
X253399Y303999D02*
X252799Y304599D01*
X251600D01*
X251000Y303999D01*
Y301600D01*
X251600Y301000D01*
X252799D01*
X253399Y301600D01*
X256998Y304599D02*
X255799Y303999D01*
X254599Y302799D01*
Y301600D01*
X255199Y301000D01*
X256398D01*
X256998Y301600D01*
Y302200D01*
X256398Y302799D01*
X254599D01*
X302899Y303499D02*
X302299Y304099D01*
X301100D01*
X300500Y303499D01*
Y301100D01*
X301100Y300500D01*
X302299D01*
X302899Y301100D01*
X306498Y304099D02*
X304099D01*
Y302299D01*
X305298Y302899D01*
X305898D01*
X306498Y302299D01*
Y301100D01*
X305898Y300500D01*
X304699D01*
X304099Y301100D01*
X265899Y220999D02*
X265299Y221599D01*
X264100D01*
X263500Y220999D01*
Y218600D01*
X264100Y218000D01*
X265299D01*
X265899Y218600D01*
X267099Y220999D02*
X267699Y221599D01*
X268898D01*
X269498Y220999D01*
Y220399D01*
X268898Y219799D01*
X268299D01*
X268898D01*
X269498Y219200D01*
Y218600D01*
X268898Y218000D01*
X267699D01*
X267099Y218600D01*
X316899Y303499D02*
X316299Y304099D01*
X315100D01*
X314500Y303499D01*
Y301100D01*
X315100Y300500D01*
X316299D01*
X316899Y301100D01*
X320498Y300500D02*
X318099D01*
X320498Y302899D01*
Y303499D01*
X319898Y304099D01*
X318699D01*
X318099Y303499D01*
D15*
X190425Y387094D02*
X193575D01*
D16*
X336250Y399750D02*
D03*
M02*
