G04*
G04 #@! TF.GenerationSoftware,Altium Limited,Altium Designer,18.1.9 (240)*
G04*
G04 Layer_Physical_Order=2*
G04 Layer_Color=16711680*
%FSLAX25Y25*%
%MOIN*%
G70*
G01*
G75*
%ADD10C,0.01000*%
%ADD79C,0.02000*%
%ADD81C,0.01800*%
%ADD83C,0.11000*%
%ADD84C,0.06299*%
%ADD85C,0.06102*%
%ADD86C,0.07874*%
%ADD87R,0.07874X0.07874*%
%ADD88C,0.05906*%
%ADD89R,0.05906X0.05906*%
%ADD90R,0.07874X0.07874*%
%ADD91R,0.05906X0.05906*%
%ADD92O,0.04921X0.04134*%
%ADD93O,0.08000X0.05000*%
%ADD94C,0.03500*%
G36*
X412971Y127029D02*
X223119D01*
X222949Y127529D01*
X222961Y127539D01*
X223402Y128113D01*
X223679Y128782D01*
X223708Y129000D01*
X218292D01*
X218321Y128782D01*
X218598Y128113D01*
X219039Y127539D01*
X219051Y127529D01*
X218881Y127029D01*
X206619D01*
X206449Y127529D01*
X206461Y127539D01*
X206902Y128113D01*
X207179Y128782D01*
X207208Y129000D01*
X201792D01*
X201821Y128782D01*
X202098Y128113D01*
X202539Y127539D01*
X202551Y127529D01*
X202381Y127029D01*
X81529D01*
X81529Y256140D01*
X82029Y256239D01*
X82037Y256220D01*
X82598Y255489D01*
X83329Y254928D01*
X84181Y254575D01*
X85094Y254455D01*
X86094D01*
Y257985D01*
Y261515D01*
X85094D01*
X84181Y261395D01*
X83329Y261042D01*
X82598Y260481D01*
X82037Y259750D01*
X82029Y259731D01*
X81529Y259831D01*
Y283797D01*
X82029Y283897D01*
X82037Y283878D01*
X82598Y283147D01*
X83329Y282585D01*
X84181Y282233D01*
X85094Y282113D01*
X86094D01*
Y285643D01*
Y289173D01*
X85094D01*
X84181Y289053D01*
X83329Y288700D01*
X82598Y288139D01*
X82037Y287408D01*
X82029Y287389D01*
X81529Y287488D01*
X81529Y421971D01*
X412971D01*
X412971Y127029D01*
D02*
G37*
%LPC*%
G36*
X229000Y410090D02*
X227812Y409934D01*
X226705Y409476D01*
X225754Y408746D01*
X225025Y407795D01*
X224566Y406688D01*
X224410Y405500D01*
X224566Y404312D01*
X225025Y403205D01*
X225754Y402254D01*
X226705Y401524D01*
X227812Y401066D01*
X229000Y400910D01*
X230188Y401066D01*
X231295Y401524D01*
X232246Y402254D01*
X232976Y403205D01*
X233434Y404312D01*
X233591Y405500D01*
X233434Y406688D01*
X232976Y407795D01*
X232246Y408746D01*
X231295Y409476D01*
X230188Y409934D01*
X229000Y410090D01*
D02*
G37*
G36*
X103992Y416955D02*
X102324Y416790D01*
X100721Y416304D01*
X99243Y415514D01*
X97947Y414451D01*
X96884Y413155D01*
X96094Y411677D01*
X95607Y410073D01*
X95443Y408405D01*
X95607Y406738D01*
X96094Y405134D01*
X96884Y403656D01*
X97947Y402360D01*
X99243Y401297D01*
X100721Y400507D01*
X102324Y400021D01*
X103992Y399856D01*
X105660Y400021D01*
X107264Y400507D01*
X108742Y401297D01*
X110037Y402360D01*
X111100Y403656D01*
X111890Y405134D01*
X112377Y406738D01*
X112541Y408405D01*
X112377Y410073D01*
X111890Y411677D01*
X111100Y413155D01*
X110037Y414451D01*
X108742Y415514D01*
X107264Y416304D01*
X105660Y416790D01*
X103992Y416955D01*
D02*
G37*
G36*
X397000Y414549D02*
X395332Y414385D01*
X393728Y413898D01*
X392250Y413108D01*
X390955Y412045D01*
X389892Y410750D01*
X389102Y409272D01*
X388615Y407668D01*
X388451Y406000D01*
X388615Y404332D01*
X389102Y402728D01*
X389892Y401250D01*
X390955Y399955D01*
X392250Y398892D01*
X393728Y398102D01*
X395332Y397615D01*
X397000Y397451D01*
X398668Y397615D01*
X400272Y398102D01*
X401750Y398892D01*
X403045Y399955D01*
X404108Y401250D01*
X404898Y402728D01*
X405385Y404332D01*
X405549Y406000D01*
X405385Y407668D01*
X404898Y409272D01*
X404108Y410750D01*
X403045Y412045D01*
X401750Y413108D01*
X400272Y413898D01*
X398668Y414385D01*
X397000Y414549D01*
D02*
G37*
G36*
X164000Y388708D02*
Y386500D01*
X166208D01*
X166179Y386718D01*
X165902Y387387D01*
X165461Y387961D01*
X164887Y388402D01*
X164218Y388679D01*
X164000Y388708D01*
D02*
G37*
G36*
X163000D02*
X162782Y388679D01*
X162113Y388402D01*
X161539Y387961D01*
X161098Y387387D01*
X160821Y386718D01*
X160792Y386500D01*
X163000D01*
Y388708D01*
D02*
G37*
G36*
X268500Y388507D02*
Y386299D01*
X270708D01*
X270679Y386517D01*
X270402Y387186D01*
X269961Y387760D01*
X269387Y388201D01*
X268718Y388478D01*
X268500Y388507D01*
D02*
G37*
G36*
X267500D02*
X267282Y388478D01*
X266613Y388201D01*
X266039Y387760D01*
X265598Y387186D01*
X265321Y386517D01*
X265292Y386299D01*
X267500D01*
Y388507D01*
D02*
G37*
G36*
X166208Y385500D02*
X164000D01*
Y383292D01*
X164218Y383321D01*
X164887Y383598D01*
X165461Y384039D01*
X165902Y384613D01*
X166179Y385282D01*
X166208Y385500D01*
D02*
G37*
G36*
X163000D02*
X160792D01*
X160821Y385282D01*
X161098Y384613D01*
X161539Y384039D01*
X162113Y383598D01*
X162782Y383321D01*
X163000Y383292D01*
Y385500D01*
D02*
G37*
G36*
X270708Y385299D02*
X268500D01*
Y383091D01*
X268718Y383120D01*
X269387Y383397D01*
X269961Y383838D01*
X270402Y384412D01*
X270679Y385081D01*
X270708Y385299D01*
D02*
G37*
G36*
X267500D02*
X265292D01*
X265321Y385081D01*
X265598Y384412D01*
X266039Y383838D01*
X266613Y383397D01*
X267282Y383120D01*
X267500Y383091D01*
Y385299D01*
D02*
G37*
G36*
X111000Y394591D02*
X109786Y394431D01*
X108655Y393963D01*
X107684Y393218D01*
X106939Y392246D01*
X106470Y391115D01*
X106310Y389902D01*
X106470Y388688D01*
X106939Y387557D01*
X107684Y386585D01*
X107859Y386451D01*
Y385951D01*
X107684Y385816D01*
X106939Y384845D01*
X106470Y383714D01*
X106310Y382500D01*
X106470Y381286D01*
X106939Y380155D01*
X107684Y379184D01*
X108655Y378439D01*
X109786Y377970D01*
X111000Y377810D01*
X112214Y377970D01*
X113345Y378439D01*
X114316Y379184D01*
X115061Y380155D01*
X115530Y381286D01*
X115690Y382500D01*
X115530Y383714D01*
X115061Y384845D01*
X114316Y385816D01*
X114141Y385951D01*
Y386451D01*
X114316Y386585D01*
X115061Y387557D01*
X115530Y388688D01*
X115690Y389902D01*
X115530Y391115D01*
X115061Y392246D01*
X114316Y393218D01*
X113345Y393963D01*
X112214Y394431D01*
X111000Y394591D01*
D02*
G37*
G36*
X101000D02*
X99786Y394431D01*
X98655Y393963D01*
X97684Y393218D01*
X96939Y392246D01*
X96470Y391115D01*
X96310Y389902D01*
X96470Y388688D01*
X96939Y387557D01*
X97684Y386585D01*
X97859Y386451D01*
Y385951D01*
X97684Y385816D01*
X96939Y384845D01*
X96470Y383714D01*
X96310Y382500D01*
X96470Y381286D01*
X96939Y380155D01*
X97684Y379184D01*
X98655Y378439D01*
X99786Y377970D01*
X101000Y377810D01*
X102214Y377970D01*
X103345Y378439D01*
X104316Y379184D01*
X105061Y380155D01*
X105530Y381286D01*
X105690Y382500D01*
X105530Y383714D01*
X105061Y384845D01*
X104316Y385816D01*
X104141Y385951D01*
Y386451D01*
X104316Y386585D01*
X105061Y387557D01*
X105530Y388688D01*
X105690Y389902D01*
X105530Y391115D01*
X105061Y392246D01*
X104316Y393218D01*
X103345Y393963D01*
X102214Y394431D01*
X101000Y394591D01*
D02*
G37*
G36*
X91000D02*
X89786Y394431D01*
X88655Y393963D01*
X87684Y393218D01*
X86939Y392246D01*
X86470Y391115D01*
X86310Y389902D01*
X86470Y388688D01*
X86939Y387557D01*
X87684Y386585D01*
X87859Y386451D01*
Y385951D01*
X87684Y385816D01*
X86939Y384845D01*
X86470Y383714D01*
X86310Y382500D01*
X86470Y381286D01*
X86939Y380155D01*
X87684Y379184D01*
X88655Y378439D01*
X89786Y377970D01*
X91000Y377810D01*
X92214Y377970D01*
X93345Y378439D01*
X94316Y379184D01*
X95061Y380155D01*
X95530Y381286D01*
X95690Y382500D01*
X95530Y383714D01*
X95061Y384845D01*
X94316Y385816D01*
X94141Y385951D01*
Y386451D01*
X94316Y386585D01*
X95061Y387557D01*
X95530Y388688D01*
X95690Y389902D01*
X95530Y391115D01*
X95061Y392246D01*
X94316Y393218D01*
X93345Y393963D01*
X92214Y394431D01*
X91000Y394591D01*
D02*
G37*
G36*
X172000Y376393D02*
Y374185D01*
X174208D01*
X174179Y374403D01*
X173902Y375072D01*
X173461Y375646D01*
X172887Y376087D01*
X172218Y376364D01*
X172000Y376393D01*
D02*
G37*
G36*
X171000D02*
X170782Y376364D01*
X170113Y376087D01*
X169539Y375646D01*
X169098Y375072D01*
X168821Y374403D01*
X168792Y374185D01*
X171000D01*
Y376393D01*
D02*
G37*
G36*
X155500D02*
Y374185D01*
X157708D01*
X157679Y374403D01*
X157402Y375072D01*
X156961Y375646D01*
X156387Y376087D01*
X155718Y376364D01*
X155500Y376393D01*
D02*
G37*
G36*
X154500D02*
X154282Y376364D01*
X153613Y376087D01*
X153039Y375646D01*
X152598Y375072D01*
X152321Y374403D01*
X152292Y374185D01*
X154500D01*
Y376393D01*
D02*
G37*
G36*
X276500Y376192D02*
Y373984D01*
X278708D01*
X278679Y374202D01*
X278402Y374871D01*
X277961Y375446D01*
X277387Y375886D01*
X276718Y376164D01*
X276500Y376192D01*
D02*
G37*
G36*
X275500D02*
X275282Y376164D01*
X274613Y375886D01*
X274039Y375446D01*
X273598Y374871D01*
X273321Y374202D01*
X273292Y373984D01*
X275500D01*
Y376192D01*
D02*
G37*
G36*
X260000D02*
Y373984D01*
X262208D01*
X262179Y374202D01*
X261902Y374871D01*
X261461Y375446D01*
X260887Y375886D01*
X260218Y376164D01*
X260000Y376192D01*
D02*
G37*
G36*
X259000D02*
X258782Y376164D01*
X258113Y375886D01*
X257539Y375446D01*
X257098Y374871D01*
X256821Y374202D01*
X256792Y373984D01*
X259000D01*
Y376192D01*
D02*
G37*
G36*
X174208Y373185D02*
X172000D01*
Y370977D01*
X172218Y371006D01*
X172887Y371283D01*
X173461Y371724D01*
X173902Y372298D01*
X174179Y372967D01*
X174208Y373185D01*
D02*
G37*
G36*
X171000D02*
X168792D01*
X168821Y372967D01*
X169098Y372298D01*
X169539Y371724D01*
X170113Y371283D01*
X170782Y371006D01*
X171000Y370977D01*
Y373185D01*
D02*
G37*
G36*
X157708D02*
X155500D01*
Y370977D01*
X155718Y371006D01*
X156387Y371283D01*
X156961Y371724D01*
X157402Y372298D01*
X157679Y372967D01*
X157708Y373185D01*
D02*
G37*
G36*
X154500D02*
X152292D01*
X152321Y372967D01*
X152598Y372298D01*
X153039Y371724D01*
X153613Y371283D01*
X154282Y371006D01*
X154500Y370977D01*
Y373185D01*
D02*
G37*
G36*
X278708Y372984D02*
X276500D01*
Y370776D01*
X276718Y370805D01*
X277387Y371082D01*
X277961Y371523D01*
X278402Y372097D01*
X278679Y372766D01*
X278708Y372984D01*
D02*
G37*
G36*
X275500D02*
X273292D01*
X273321Y372766D01*
X273598Y372097D01*
X274039Y371523D01*
X274613Y371082D01*
X275282Y370805D01*
X275500Y370776D01*
Y372984D01*
D02*
G37*
G36*
X262208D02*
X260000D01*
Y370776D01*
X260218Y370805D01*
X260887Y371082D01*
X261461Y371523D01*
X261902Y372097D01*
X262179Y372766D01*
X262208Y372984D01*
D02*
G37*
G36*
X259000D02*
X256792D01*
X256821Y372766D01*
X257098Y372097D01*
X257539Y371523D01*
X258113Y371082D01*
X258782Y370805D01*
X259000Y370776D01*
Y372984D01*
D02*
G37*
G36*
X111500Y374336D02*
Y370717D01*
X115120D01*
X115043Y371300D01*
X114625Y372309D01*
X113960Y373176D01*
X113093Y373841D01*
X112083Y374259D01*
X111500Y374336D01*
D02*
G37*
G36*
X101500D02*
Y370717D01*
X105120D01*
X105043Y371300D01*
X104625Y372309D01*
X103960Y373176D01*
X103093Y373841D01*
X102083Y374259D01*
X101500Y374336D01*
D02*
G37*
G36*
X91500D02*
Y370717D01*
X95120D01*
X95043Y371300D01*
X94625Y372309D01*
X93959Y373176D01*
X93093Y373841D01*
X92083Y374259D01*
X91500Y374336D01*
D02*
G37*
G36*
X100500Y374336D02*
X99917Y374259D01*
X98907Y373841D01*
X98040Y373176D01*
X97375Y372309D01*
X96957Y371300D01*
X96880Y370717D01*
X100500D01*
Y374336D01*
D02*
G37*
G36*
X90500D02*
X89917Y374259D01*
X88907Y373841D01*
X88041Y373176D01*
X87375Y372309D01*
X86957Y371300D01*
X86880Y370717D01*
X90500D01*
Y374336D01*
D02*
G37*
G36*
X110500D02*
X109917Y374259D01*
X108907Y373841D01*
X108040Y373176D01*
X107375Y372309D01*
X106957Y371300D01*
X106880Y370717D01*
X110500D01*
Y374336D01*
D02*
G37*
G36*
X203035Y371810D02*
Y369602D01*
X205243D01*
X205215Y369820D01*
X204938Y370489D01*
X204497Y371064D01*
X203922Y371504D01*
X203253Y371782D01*
X203035Y371810D01*
D02*
G37*
G36*
X202035D02*
X201818Y371782D01*
X201149Y371504D01*
X200574Y371064D01*
X200133Y370489D01*
X199856Y369820D01*
X199828Y369602D01*
X202035D01*
Y371810D01*
D02*
G37*
G36*
X137134D02*
Y369602D01*
X139342D01*
X139313Y369820D01*
X139036Y370489D01*
X138595Y371064D01*
X138021Y371504D01*
X137352Y371782D01*
X137134Y371810D01*
D02*
G37*
G36*
X136134D02*
X135916Y371782D01*
X135247Y371504D01*
X134672Y371064D01*
X134232Y370489D01*
X133955Y369820D01*
X133926Y369602D01*
X136134D01*
Y371810D01*
D02*
G37*
G36*
X124000D02*
Y369602D01*
X126208D01*
X126179Y369820D01*
X125902Y370489D01*
X125461Y371064D01*
X124887Y371504D01*
X124218Y371782D01*
X124000Y371810D01*
D02*
G37*
G36*
X123000D02*
X122782Y371782D01*
X122113Y371504D01*
X121539Y371064D01*
X121098Y370489D01*
X120821Y369820D01*
X120792Y369602D01*
X123000D01*
Y371810D01*
D02*
G37*
G36*
X347500Y370708D02*
Y368500D01*
X349708D01*
X349679Y368718D01*
X349402Y369387D01*
X348961Y369961D01*
X348387Y370402D01*
X347718Y370679D01*
X347500Y370708D01*
D02*
G37*
G36*
X346500D02*
X346282Y370679D01*
X345613Y370402D01*
X345039Y369961D01*
X344598Y369387D01*
X344321Y368718D01*
X344292Y368500D01*
X346500D01*
Y370708D01*
D02*
G37*
G36*
X241500D02*
Y368500D01*
X243708D01*
X243679Y368718D01*
X243402Y369387D01*
X242961Y369961D01*
X242387Y370402D01*
X241718Y370679D01*
X241500Y370708D01*
D02*
G37*
G36*
X240500D02*
X240282Y370679D01*
X239613Y370402D01*
X239039Y369961D01*
X238598Y369387D01*
X238321Y368718D01*
X238292Y368500D01*
X240500D01*
Y370708D01*
D02*
G37*
G36*
X205243Y368602D02*
X203035D01*
Y366394D01*
X203253Y366423D01*
X203922Y366700D01*
X204497Y367141D01*
X204938Y367716D01*
X205215Y368385D01*
X205243Y368602D01*
D02*
G37*
G36*
X202035D02*
X199828D01*
X199856Y368385D01*
X200133Y367716D01*
X200574Y367141D01*
X201149Y366700D01*
X201818Y366423D01*
X202035Y366394D01*
Y368602D01*
D02*
G37*
G36*
X139342D02*
X137134D01*
Y366394D01*
X137352Y366423D01*
X138021Y366700D01*
X138595Y367141D01*
X139036Y367716D01*
X139313Y368385D01*
X139342Y368602D01*
D02*
G37*
G36*
X136134D02*
X133926D01*
X133955Y368385D01*
X134232Y367716D01*
X134672Y367141D01*
X135247Y366700D01*
X135916Y366423D01*
X136134Y366394D01*
Y368602D01*
D02*
G37*
G36*
X126208D02*
X124000D01*
Y366394D01*
X124218Y366423D01*
X124887Y366700D01*
X125461Y367141D01*
X125902Y367716D01*
X126179Y368385D01*
X126208Y368602D01*
D02*
G37*
G36*
X123000D02*
X120792D01*
X120821Y368385D01*
X121098Y367716D01*
X121539Y367141D01*
X122113Y366700D01*
X122782Y366423D01*
X123000Y366394D01*
Y368602D01*
D02*
G37*
G36*
X255535Y368208D02*
Y366000D01*
X257743D01*
X257715Y366218D01*
X257438Y366887D01*
X256997Y367461D01*
X256422Y367902D01*
X255753Y368179D01*
X255535Y368208D01*
D02*
G37*
G36*
X254535D02*
X254317Y368179D01*
X253649Y367902D01*
X253074Y367461D01*
X252633Y366887D01*
X252356Y366218D01*
X252327Y366000D01*
X254535D01*
Y368208D01*
D02*
G37*
G36*
X349708Y367500D02*
X347500D01*
Y365292D01*
X347718Y365321D01*
X348387Y365598D01*
X348961Y366039D01*
X349402Y366613D01*
X349679Y367282D01*
X349708Y367500D01*
D02*
G37*
G36*
X346500D02*
X344292D01*
X344321Y367282D01*
X344598Y366613D01*
X345039Y366039D01*
X345613Y365598D01*
X346282Y365321D01*
X346500Y365292D01*
Y367500D01*
D02*
G37*
G36*
X243708D02*
X241500D01*
Y365292D01*
X241718Y365321D01*
X242387Y365598D01*
X242961Y366039D01*
X243402Y366613D01*
X243679Y367282D01*
X243708Y367500D01*
D02*
G37*
G36*
X240500D02*
X238292D01*
X238321Y367282D01*
X238598Y366613D01*
X239039Y366039D01*
X239613Y365598D01*
X240282Y365321D01*
X240500Y365292D01*
Y367500D01*
D02*
G37*
G36*
X295500Y367007D02*
Y364799D01*
X297708D01*
X297679Y365017D01*
X297402Y365686D01*
X296961Y366261D01*
X296387Y366701D01*
X295718Y366978D01*
X295500Y367007D01*
D02*
G37*
G36*
X294500D02*
X294282Y366978D01*
X293613Y366701D01*
X293039Y366261D01*
X292598Y365686D01*
X292321Y365017D01*
X292292Y364799D01*
X294500D01*
Y367007D01*
D02*
G37*
G36*
X105120Y369717D02*
X101000D01*
X96880D01*
X96957Y369133D01*
X97375Y368124D01*
X98040Y367257D01*
X98596Y366831D01*
Y366201D01*
X98040Y365774D01*
X97375Y364908D01*
X96957Y363898D01*
X96880Y363315D01*
X101000D01*
X105120D01*
X105043Y363898D01*
X104625Y364908D01*
X103960Y365774D01*
X103404Y366201D01*
Y366831D01*
X103960Y367257D01*
X104625Y368124D01*
X105043Y369133D01*
X105120Y369717D01*
D02*
G37*
G36*
X95120D02*
X91000D01*
X86880D01*
X86957Y369133D01*
X87375Y368124D01*
X88041Y367257D01*
X88596Y366831D01*
Y366201D01*
X88041Y365774D01*
X87375Y364908D01*
X86957Y363898D01*
X86880Y363315D01*
X91000D01*
X95120D01*
X95043Y363898D01*
X94625Y364908D01*
X93959Y365774D01*
X93404Y366201D01*
Y366831D01*
X93959Y367257D01*
X94625Y368124D01*
X95043Y369133D01*
X95120Y369717D01*
D02*
G37*
G36*
X115120D02*
X111000D01*
X106880D01*
X106957Y369133D01*
X107375Y368124D01*
X108040Y367257D01*
X108596Y366831D01*
Y366201D01*
X108040Y365774D01*
X107375Y364908D01*
X106957Y363898D01*
X106880Y363315D01*
X111000D01*
X115120D01*
X115043Y363898D01*
X114625Y364908D01*
X113960Y365774D01*
X113404Y366201D01*
Y366831D01*
X113960Y367257D01*
X114625Y368124D01*
X115043Y369133D01*
X115120Y369717D01*
D02*
G37*
G36*
X257743Y365000D02*
X255535D01*
Y362792D01*
X255753Y362821D01*
X256422Y363098D01*
X256997Y363539D01*
X257438Y364113D01*
X257715Y364782D01*
X257743Y365000D01*
D02*
G37*
G36*
X254535D02*
X252327D01*
X252356Y364782D01*
X252633Y364113D01*
X253074Y363539D01*
X253649Y363098D01*
X254317Y362821D01*
X254535Y362792D01*
Y365000D01*
D02*
G37*
G36*
X164000Y364208D02*
Y362000D01*
X166208D01*
X166179Y362218D01*
X165902Y362887D01*
X165461Y363461D01*
X164887Y363902D01*
X164218Y364179D01*
X164000Y364208D01*
D02*
G37*
G36*
X163000D02*
X162782Y364179D01*
X162113Y363902D01*
X161539Y363461D01*
X161098Y362887D01*
X160821Y362218D01*
X160792Y362000D01*
X163000D01*
Y364208D01*
D02*
G37*
G36*
X268500Y364007D02*
Y361799D01*
X270708D01*
X270679Y362017D01*
X270402Y362686D01*
X269961Y363261D01*
X269387Y363701D01*
X268718Y363978D01*
X268500Y364007D01*
D02*
G37*
G36*
X267500D02*
X267282Y363978D01*
X266613Y363701D01*
X266039Y363261D01*
X265598Y362686D01*
X265321Y362017D01*
X265292Y361799D01*
X267500D01*
Y364007D01*
D02*
G37*
G36*
X297708Y363799D02*
X295500D01*
Y361591D01*
X295718Y361620D01*
X296387Y361897D01*
X296961Y362338D01*
X297402Y362912D01*
X297679Y363581D01*
X297708Y363799D01*
D02*
G37*
G36*
X294500D02*
X292292D01*
X292321Y363581D01*
X292598Y362912D01*
X293039Y362338D01*
X293613Y361897D01*
X294282Y361620D01*
X294500Y361591D01*
Y363799D01*
D02*
G37*
G36*
X234000Y363708D02*
Y361500D01*
X236208D01*
X236179Y361718D01*
X235902Y362387D01*
X235461Y362961D01*
X234887Y363402D01*
X234218Y363679D01*
X234000Y363708D01*
D02*
G37*
G36*
X233000D02*
X232782Y363679D01*
X232113Y363402D01*
X231539Y362961D01*
X231098Y362387D01*
X230821Y361718D01*
X230792Y361500D01*
X233000D01*
Y363708D01*
D02*
G37*
G36*
X130500Y363208D02*
Y361000D01*
X132708D01*
X132679Y361218D01*
X132402Y361887D01*
X131961Y362461D01*
X131387Y362902D01*
X130718Y363179D01*
X130500Y363208D01*
D02*
G37*
G36*
X129500D02*
X129282Y363179D01*
X128613Y362902D01*
X128039Y362461D01*
X127598Y361887D01*
X127321Y361218D01*
X127292Y361000D01*
X129500D01*
Y363208D01*
D02*
G37*
G36*
X283500Y362448D02*
Y360240D01*
X285708D01*
X285679Y360458D01*
X285402Y361127D01*
X284961Y361701D01*
X284387Y362142D01*
X283718Y362419D01*
X283500Y362448D01*
D02*
G37*
G36*
X282500D02*
X282282Y362419D01*
X281613Y362142D01*
X281039Y361701D01*
X280598Y361127D01*
X280321Y360458D01*
X280292Y360240D01*
X282500D01*
Y362448D01*
D02*
G37*
G36*
X261500Y361708D02*
Y359500D01*
X263708D01*
X263679Y359718D01*
X263402Y360387D01*
X262961Y360961D01*
X262387Y361402D01*
X261718Y361679D01*
X261500Y361708D01*
D02*
G37*
G36*
X260500D02*
X260282Y361679D01*
X259613Y361402D01*
X259039Y360961D01*
X258598Y360387D01*
X258321Y359718D01*
X258292Y359500D01*
X260500D01*
Y361708D01*
D02*
G37*
G36*
X166208Y361000D02*
X164000D01*
Y358792D01*
X164218Y358821D01*
X164887Y359098D01*
X165461Y359539D01*
X165902Y360113D01*
X166179Y360782D01*
X166208Y361000D01*
D02*
G37*
G36*
X163000D02*
X160792D01*
X160821Y360782D01*
X161098Y360113D01*
X161539Y359539D01*
X162113Y359098D01*
X162782Y358821D01*
X163000Y358792D01*
Y361000D01*
D02*
G37*
G36*
X115120Y362315D02*
X111500D01*
Y358695D01*
X112083Y358772D01*
X113093Y359190D01*
X113960Y359855D01*
X114625Y360722D01*
X115043Y361732D01*
X115120Y362315D01*
D02*
G37*
G36*
X105120D02*
X101500D01*
Y358695D01*
X102083Y358772D01*
X103093Y359190D01*
X103960Y359855D01*
X104625Y360722D01*
X105043Y361732D01*
X105120Y362315D01*
D02*
G37*
G36*
X95120D02*
X91500D01*
Y358695D01*
X92083Y358772D01*
X93093Y359190D01*
X93959Y359855D01*
X94625Y360722D01*
X95043Y361732D01*
X95120Y362315D01*
D02*
G37*
G36*
X90500D02*
X86880D01*
X86957Y361732D01*
X87375Y360722D01*
X88041Y359855D01*
X88907Y359190D01*
X89917Y358772D01*
X90500Y358695D01*
Y362315D01*
D02*
G37*
G36*
X110500D02*
X106880D01*
X106957Y361732D01*
X107375Y360722D01*
X108040Y359855D01*
X108907Y359190D01*
X109917Y358772D01*
X110500Y358695D01*
Y362315D01*
D02*
G37*
G36*
X100500D02*
X96880D01*
X96957Y361732D01*
X97375Y360722D01*
X98040Y359855D01*
X98907Y359190D01*
X99917Y358772D01*
X100500Y358695D01*
Y362315D01*
D02*
G37*
G36*
X270708Y360799D02*
X268500D01*
Y358591D01*
X268718Y358620D01*
X269387Y358897D01*
X269961Y359338D01*
X270402Y359912D01*
X270679Y360581D01*
X270708Y360799D01*
D02*
G37*
G36*
X267500D02*
X265292D01*
X265321Y360581D01*
X265598Y359912D01*
X266039Y359338D01*
X266613Y358897D01*
X267282Y358620D01*
X267500Y358591D01*
Y360799D01*
D02*
G37*
G36*
X301465Y360708D02*
Y358500D01*
X303673D01*
X303644Y358718D01*
X303367Y359387D01*
X302926Y359961D01*
X302351Y360402D01*
X301682Y360679D01*
X301465Y360708D01*
D02*
G37*
G36*
X300465D02*
X300247Y360679D01*
X299578Y360402D01*
X299003Y359961D01*
X298562Y359387D01*
X298285Y358718D01*
X298257Y358500D01*
X300465D01*
Y360708D01*
D02*
G37*
G36*
X236208Y360500D02*
X234000D01*
Y358292D01*
X234218Y358321D01*
X234887Y358598D01*
X235461Y359039D01*
X235902Y359613D01*
X236179Y360282D01*
X236208Y360500D01*
D02*
G37*
G36*
X233000D02*
X230792D01*
X230821Y360282D01*
X231098Y359613D01*
X231539Y359039D01*
X232113Y358598D01*
X232782Y358321D01*
X233000Y358292D01*
Y360500D01*
D02*
G37*
G36*
X211000Y367091D02*
X209812Y366934D01*
X208705Y366476D01*
X207754Y365746D01*
X207025Y364795D01*
X206566Y363688D01*
X206410Y362500D01*
X206566Y361312D01*
X207025Y360205D01*
X207754Y359254D01*
X208705Y358524D01*
X209812Y358066D01*
X211000Y357909D01*
X212188Y358066D01*
X213295Y358524D01*
X214246Y359254D01*
X214976Y360205D01*
X215434Y361312D01*
X215591Y362500D01*
X215434Y363688D01*
X214976Y364795D01*
X214246Y365746D01*
X213295Y366476D01*
X212188Y366934D01*
X211000Y367091D01*
D02*
G37*
G36*
X132708Y360000D02*
X130500D01*
Y357792D01*
X130718Y357821D01*
X131387Y358098D01*
X131961Y358539D01*
X132402Y359113D01*
X132679Y359782D01*
X132708Y360000D01*
D02*
G37*
G36*
X129500D02*
X127292D01*
X127321Y359782D01*
X127598Y359113D01*
X128039Y358539D01*
X128613Y358098D01*
X129282Y357821D01*
X129500Y357792D01*
Y360000D01*
D02*
G37*
G36*
X285708Y359240D02*
X283500D01*
Y357032D01*
X283718Y357061D01*
X284387Y357338D01*
X284961Y357779D01*
X285402Y358353D01*
X285679Y359022D01*
X285708Y359240D01*
D02*
G37*
G36*
X282500D02*
X280292D01*
X280321Y359022D01*
X280598Y358353D01*
X281039Y357779D01*
X281613Y357338D01*
X282282Y357061D01*
X282500Y357032D01*
Y359240D01*
D02*
G37*
G36*
X263708Y358500D02*
X261500D01*
Y356292D01*
X261718Y356321D01*
X262387Y356598D01*
X262961Y357039D01*
X263402Y357613D01*
X263679Y358282D01*
X263708Y358500D01*
D02*
G37*
G36*
X260500D02*
X258292D01*
X258321Y358282D01*
X258598Y357613D01*
X259039Y357039D01*
X259613Y356598D01*
X260282Y356321D01*
X260500Y356292D01*
Y358500D01*
D02*
G37*
G36*
X303673Y357500D02*
X301465D01*
Y355292D01*
X301682Y355321D01*
X302351Y355598D01*
X302926Y356039D01*
X303367Y356613D01*
X303644Y357282D01*
X303673Y357500D01*
D02*
G37*
G36*
X300465D02*
X298257D01*
X298285Y357282D01*
X298562Y356613D01*
X299003Y356039D01*
X299578Y355598D01*
X300247Y355321D01*
X300465Y355292D01*
Y357500D01*
D02*
G37*
G36*
X176500Y357468D02*
Y355260D01*
X178708D01*
X178679Y355478D01*
X178402Y356147D01*
X177961Y356721D01*
X177387Y357162D01*
X176718Y357439D01*
X176500Y357468D01*
D02*
G37*
G36*
X175500D02*
X175282Y357439D01*
X174613Y357162D01*
X174039Y356721D01*
X173598Y356147D01*
X173321Y355478D01*
X173292Y355260D01*
X175500D01*
Y357468D01*
D02*
G37*
G36*
X245319Y355097D02*
X244471Y354985D01*
X243680Y354658D01*
X243001Y354137D01*
X242542Y353539D01*
X236532D01*
X236318Y353818D01*
X235639Y354339D01*
X234848Y354666D01*
X234000Y354778D01*
X233152Y354666D01*
X232361Y354339D01*
X231682Y353818D01*
X231161Y353139D01*
X230834Y352348D01*
X230722Y351500D01*
X230834Y350652D01*
X231161Y349861D01*
X231682Y349182D01*
X232361Y348661D01*
X233152Y348334D01*
X234000Y348222D01*
X234848Y348334D01*
X235639Y348661D01*
X236318Y349182D01*
X236532Y349461D01*
X243053D01*
X243680Y348980D01*
X244471Y348653D01*
X245319Y348541D01*
X246167Y348653D01*
X246958Y348980D01*
X247637Y349501D01*
X248158Y350180D01*
X248485Y350971D01*
X248597Y351819D01*
X248485Y352667D01*
X248158Y353458D01*
X247637Y354137D01*
X246958Y354658D01*
X246167Y354985D01*
X245319Y355097D01*
D02*
G37*
G36*
X178708Y354260D02*
X176500D01*
Y352052D01*
X176718Y352081D01*
X177387Y352358D01*
X177961Y352799D01*
X178402Y353373D01*
X178679Y354042D01*
X178708Y354260D01*
D02*
G37*
G36*
X175500D02*
X173292D01*
X173321Y354042D01*
X173598Y353373D01*
X174039Y352799D01*
X174613Y352358D01*
X175282Y352081D01*
X175500Y352052D01*
Y354260D01*
D02*
G37*
G36*
X278000Y356409D02*
X276812Y356253D01*
X275705Y355794D01*
X274754Y355065D01*
X274025Y354114D01*
X273566Y353007D01*
X273410Y351819D01*
X273566Y350631D01*
X274025Y349524D01*
X274754Y348573D01*
X275705Y347844D01*
X276812Y347385D01*
X278000Y347229D01*
X279188Y347385D01*
X280295Y347844D01*
X281246Y348573D01*
X281976Y349524D01*
X282434Y350631D01*
X282591Y351819D01*
X282434Y353007D01*
X281976Y354114D01*
X281246Y355065D01*
X280295Y355794D01*
X279188Y356253D01*
X278000Y356409D01*
D02*
G37*
G36*
X265500Y346708D02*
Y344500D01*
X267708D01*
X267679Y344718D01*
X267402Y345387D01*
X266961Y345961D01*
X266387Y346402D01*
X265718Y346679D01*
X265500Y346708D01*
D02*
G37*
G36*
X264500D02*
X264282Y346679D01*
X263613Y346402D01*
X263039Y345961D01*
X262598Y345387D01*
X262321Y344718D01*
X262292Y344500D01*
X264500D01*
Y346708D01*
D02*
G37*
G36*
X258000D02*
Y344500D01*
X260208D01*
X260179Y344718D01*
X259902Y345387D01*
X259461Y345961D01*
X258887Y346402D01*
X258218Y346679D01*
X258000Y346708D01*
D02*
G37*
G36*
X257000D02*
X256782Y346679D01*
X256113Y346402D01*
X255539Y345961D01*
X255098Y345387D01*
X254821Y344718D01*
X254792Y344500D01*
X257000D01*
Y346708D01*
D02*
G37*
G36*
X250000D02*
Y344500D01*
X252208D01*
X252179Y344718D01*
X251902Y345387D01*
X251461Y345961D01*
X250887Y346402D01*
X250218Y346679D01*
X250000Y346708D01*
D02*
G37*
G36*
X249000D02*
X248782Y346679D01*
X248113Y346402D01*
X247539Y345961D01*
X247098Y345387D01*
X246821Y344718D01*
X246792Y344500D01*
X249000D01*
Y346708D01*
D02*
G37*
G36*
X267708Y343500D02*
X265500D01*
Y341292D01*
X265718Y341321D01*
X266387Y341598D01*
X266961Y342039D01*
X267402Y342613D01*
X267679Y343282D01*
X267708Y343500D01*
D02*
G37*
G36*
X264500D02*
X262292D01*
X262321Y343282D01*
X262598Y342613D01*
X263039Y342039D01*
X263613Y341598D01*
X264282Y341321D01*
X264500Y341292D01*
Y343500D01*
D02*
G37*
G36*
X260208D02*
X258000D01*
Y341292D01*
X258218Y341321D01*
X258887Y341598D01*
X259461Y342039D01*
X259902Y342613D01*
X260179Y343282D01*
X260208Y343500D01*
D02*
G37*
G36*
X257000D02*
X254792D01*
X254821Y343282D01*
X255098Y342613D01*
X255539Y342039D01*
X256113Y341598D01*
X256782Y341321D01*
X257000Y341292D01*
Y343500D01*
D02*
G37*
G36*
X252208D02*
X250000D01*
Y341292D01*
X250218Y341321D01*
X250887Y341598D01*
X251461Y342039D01*
X251902Y342613D01*
X252179Y343282D01*
X252208Y343500D01*
D02*
G37*
G36*
X249000D02*
X246792D01*
X246821Y343282D01*
X247098Y342613D01*
X247539Y342039D01*
X248113Y341598D01*
X248782Y341321D01*
X249000Y341292D01*
Y343500D01*
D02*
G37*
G36*
X376000Y344509D02*
Y340988D01*
X379520D01*
X379447Y341546D01*
X379039Y342531D01*
X378389Y343377D01*
X377543Y344027D01*
X376558Y344435D01*
X376000Y344509D01*
D02*
G37*
G36*
X375000Y344509D02*
X374442Y344435D01*
X373457Y344027D01*
X372611Y343377D01*
X371961Y342531D01*
X371553Y341546D01*
X371480Y340988D01*
X375000D01*
Y344509D01*
D02*
G37*
G36*
X279794Y342708D02*
Y340500D01*
X282002D01*
X281973Y340718D01*
X281696Y341387D01*
X281255Y341961D01*
X280681Y342402D01*
X280012Y342679D01*
X279794Y342708D01*
D02*
G37*
G36*
X278794D02*
X278576Y342679D01*
X277907Y342402D01*
X277332Y341961D01*
X276892Y341387D01*
X276614Y340718D01*
X276586Y340500D01*
X278794D01*
Y342708D01*
D02*
G37*
G36*
X282002Y339500D02*
X279794D01*
Y337292D01*
X280012Y337321D01*
X280681Y337598D01*
X281255Y338039D01*
X281696Y338613D01*
X281973Y339282D01*
X282002Y339500D01*
D02*
G37*
G36*
X278794D02*
X276586D01*
X276614Y339282D01*
X276892Y338613D01*
X277332Y338039D01*
X277907Y337598D01*
X278576Y337321D01*
X278794Y337292D01*
Y339500D01*
D02*
G37*
G36*
X265500Y338708D02*
Y336500D01*
X267708D01*
X267679Y336718D01*
X267402Y337387D01*
X266961Y337961D01*
X266387Y338402D01*
X265718Y338679D01*
X265500Y338708D01*
D02*
G37*
G36*
X264500D02*
X264282Y338679D01*
X263613Y338402D01*
X263039Y337961D01*
X262598Y337387D01*
X262321Y336718D01*
X262292Y336500D01*
X264500D01*
Y338708D01*
D02*
G37*
G36*
X258000D02*
Y336500D01*
X260208D01*
X260179Y336718D01*
X259902Y337387D01*
X259461Y337961D01*
X258887Y338402D01*
X258218Y338679D01*
X258000Y338708D01*
D02*
G37*
G36*
X257000D02*
X256782Y338679D01*
X256113Y338402D01*
X255539Y337961D01*
X255098Y337387D01*
X254821Y336718D01*
X254792Y336500D01*
X257000D01*
Y338708D01*
D02*
G37*
G36*
X250000D02*
Y336500D01*
X252208D01*
X252179Y336718D01*
X251902Y337387D01*
X251461Y337961D01*
X250887Y338402D01*
X250218Y338679D01*
X250000Y338708D01*
D02*
G37*
G36*
X249000D02*
X248782Y338679D01*
X248113Y338402D01*
X247539Y337961D01*
X247098Y337387D01*
X246821Y336718D01*
X246792Y336500D01*
X249000D01*
Y338708D01*
D02*
G37*
G36*
X379520Y339988D02*
X376000D01*
Y336468D01*
X376558Y336541D01*
X377543Y336949D01*
X378389Y337599D01*
X379039Y338445D01*
X379447Y339431D01*
X379520Y339988D01*
D02*
G37*
G36*
X375000D02*
X371480D01*
X371553Y339431D01*
X371961Y338445D01*
X372611Y337599D01*
X373457Y336949D01*
X374442Y336541D01*
X375000Y336468D01*
Y339988D01*
D02*
G37*
G36*
X103992Y353238D02*
X102324Y353074D01*
X100721Y352588D01*
X99243Y351798D01*
X97947Y350734D01*
X96884Y349439D01*
X96094Y347961D01*
X95607Y346357D01*
X95443Y344689D01*
X95607Y343021D01*
X96094Y341418D01*
X96884Y339940D01*
X97947Y338644D01*
X99243Y337581D01*
X100721Y336791D01*
X102324Y336305D01*
X103992Y336140D01*
X105660Y336305D01*
X107264Y336791D01*
X108742Y337581D01*
X110037Y338644D01*
X111100Y339940D01*
X111890Y341418D01*
X112377Y343021D01*
X112541Y344689D01*
X112377Y346357D01*
X111890Y347961D01*
X111100Y349439D01*
X110037Y350734D01*
X108742Y351798D01*
X107264Y352588D01*
X105660Y353074D01*
X103992Y353238D01*
D02*
G37*
G36*
X329000Y337708D02*
Y335500D01*
X331208D01*
X331179Y335718D01*
X330902Y336387D01*
X330461Y336961D01*
X329887Y337402D01*
X329218Y337679D01*
X329000Y337708D01*
D02*
G37*
G36*
X328000D02*
X327782Y337679D01*
X327113Y337402D01*
X326539Y336961D01*
X326098Y336387D01*
X325821Y335718D01*
X325792Y335500D01*
X328000D01*
Y337708D01*
D02*
G37*
G36*
X267708Y335500D02*
X265500D01*
Y333292D01*
X265718Y333321D01*
X266387Y333598D01*
X266961Y334039D01*
X267402Y334613D01*
X267679Y335282D01*
X267708Y335500D01*
D02*
G37*
G36*
X264500D02*
X262292D01*
X262321Y335282D01*
X262598Y334613D01*
X263039Y334039D01*
X263613Y333598D01*
X264282Y333321D01*
X264500Y333292D01*
Y335500D01*
D02*
G37*
G36*
X260208D02*
X258000D01*
Y333292D01*
X258218Y333321D01*
X258887Y333598D01*
X259461Y334039D01*
X259902Y334613D01*
X260179Y335282D01*
X260208Y335500D01*
D02*
G37*
G36*
X257000D02*
X254792D01*
X254821Y335282D01*
X255098Y334613D01*
X255539Y334039D01*
X256113Y333598D01*
X256782Y333321D01*
X257000Y333292D01*
Y335500D01*
D02*
G37*
G36*
X252208D02*
X250000D01*
Y333292D01*
X250218Y333321D01*
X250887Y333598D01*
X251461Y334039D01*
X251902Y334613D01*
X252179Y335282D01*
X252208Y335500D01*
D02*
G37*
G36*
X249000D02*
X246792D01*
X246821Y335282D01*
X247098Y334613D01*
X247539Y334039D01*
X248113Y333598D01*
X248782Y333321D01*
X249000Y333292D01*
Y335500D01*
D02*
G37*
G36*
X331208Y334500D02*
X329000D01*
Y332292D01*
X329218Y332321D01*
X329887Y332598D01*
X330461Y333039D01*
X330902Y333613D01*
X331179Y334282D01*
X331208Y334500D01*
D02*
G37*
G36*
X328000D02*
X325792D01*
X325821Y334282D01*
X326098Y333613D01*
X326539Y333039D01*
X327113Y332598D01*
X327782Y332321D01*
X328000Y332292D01*
Y334500D01*
D02*
G37*
G36*
X323000Y331743D02*
Y329535D01*
X325208D01*
X325179Y329753D01*
X324902Y330422D01*
X324461Y330997D01*
X323887Y331438D01*
X323218Y331715D01*
X323000Y331743D01*
D02*
G37*
G36*
X322000D02*
X321782Y331715D01*
X321113Y331438D01*
X320539Y330997D01*
X320098Y330422D01*
X319821Y329753D01*
X319792Y329535D01*
X322000D01*
Y331743D01*
D02*
G37*
G36*
X198500Y338591D02*
X197312Y338434D01*
X196205Y337976D01*
X195254Y337246D01*
X194525Y336295D01*
X194066Y335188D01*
X193910Y334000D01*
X194066Y332812D01*
X194525Y331705D01*
X195254Y330754D01*
X196205Y330025D01*
X197312Y329566D01*
X198500Y329410D01*
X199688Y329566D01*
X200795Y330025D01*
X201746Y330754D01*
X202476Y331705D01*
X202934Y332812D01*
X203091Y334000D01*
X202934Y335188D01*
X202476Y336295D01*
X201746Y337246D01*
X200795Y337976D01*
X199688Y338434D01*
X198500Y338591D01*
D02*
G37*
G36*
X265500Y330708D02*
Y328500D01*
X267708D01*
X267679Y328718D01*
X267402Y329387D01*
X266961Y329961D01*
X266387Y330402D01*
X265718Y330679D01*
X265500Y330708D01*
D02*
G37*
G36*
X264500D02*
X264282Y330679D01*
X263613Y330402D01*
X263039Y329961D01*
X262598Y329387D01*
X262321Y328718D01*
X262292Y328500D01*
X264500D01*
Y330708D01*
D02*
G37*
G36*
X258000D02*
Y328500D01*
X260208D01*
X260179Y328718D01*
X259902Y329387D01*
X259461Y329961D01*
X258887Y330402D01*
X258218Y330679D01*
X258000Y330708D01*
D02*
G37*
G36*
X257000D02*
X256782Y330679D01*
X256113Y330402D01*
X255539Y329961D01*
X255098Y329387D01*
X254821Y328718D01*
X254792Y328500D01*
X257000D01*
Y330708D01*
D02*
G37*
G36*
X250000D02*
Y328500D01*
X252208D01*
X252179Y328718D01*
X251902Y329387D01*
X251461Y329961D01*
X250887Y330402D01*
X250218Y330679D01*
X250000Y330708D01*
D02*
G37*
G36*
X249000D02*
X248782Y330679D01*
X248113Y330402D01*
X247539Y329961D01*
X247098Y329387D01*
X246821Y328718D01*
X246792Y328500D01*
X249000D01*
Y330708D01*
D02*
G37*
G36*
X279794Y328708D02*
Y326500D01*
X282002D01*
X281973Y326718D01*
X281696Y327387D01*
X281255Y327961D01*
X280681Y328402D01*
X280012Y328679D01*
X279794Y328708D01*
D02*
G37*
G36*
X278794D02*
X278576Y328679D01*
X277907Y328402D01*
X277332Y327961D01*
X276892Y327387D01*
X276614Y326718D01*
X276586Y326500D01*
X278794D01*
Y328708D01*
D02*
G37*
G36*
X325208Y328535D02*
X323000D01*
Y326327D01*
X323218Y326356D01*
X323887Y326633D01*
X324461Y327074D01*
X324902Y327649D01*
X325179Y328317D01*
X325208Y328535D01*
D02*
G37*
G36*
X322000D02*
X319792D01*
X319821Y328317D01*
X320098Y327649D01*
X320539Y327074D01*
X321113Y326633D01*
X321782Y326356D01*
X322000Y326327D01*
Y328535D01*
D02*
G37*
G36*
X267708Y327500D02*
X265500D01*
Y325292D01*
X265718Y325321D01*
X266387Y325598D01*
X266961Y326039D01*
X267402Y326613D01*
X267679Y327282D01*
X267708Y327500D01*
D02*
G37*
G36*
X264500D02*
X262292D01*
X262321Y327282D01*
X262598Y326613D01*
X263039Y326039D01*
X263613Y325598D01*
X264282Y325321D01*
X264500Y325292D01*
Y327500D01*
D02*
G37*
G36*
X260208D02*
X258000D01*
Y325292D01*
X258218Y325321D01*
X258887Y325598D01*
X259461Y326039D01*
X259902Y326613D01*
X260179Y327282D01*
X260208Y327500D01*
D02*
G37*
G36*
X257000D02*
X254792D01*
X254821Y327282D01*
X255098Y326613D01*
X255539Y326039D01*
X256113Y325598D01*
X256782Y325321D01*
X257000Y325292D01*
Y327500D01*
D02*
G37*
G36*
X252208D02*
X250000D01*
Y325292D01*
X250218Y325321D01*
X250887Y325598D01*
X251461Y326039D01*
X251902Y326613D01*
X252179Y327282D01*
X252208Y327500D01*
D02*
G37*
G36*
X249000D02*
X246792D01*
X246821Y327282D01*
X247098Y326613D01*
X247539Y326039D01*
X248113Y325598D01*
X248782Y325321D01*
X249000Y325292D01*
Y327500D01*
D02*
G37*
G36*
X282002Y325500D02*
X279794D01*
Y323292D01*
X280012Y323321D01*
X280681Y323598D01*
X281255Y324039D01*
X281696Y324613D01*
X281973Y325282D01*
X282002Y325500D01*
D02*
G37*
G36*
X278794D02*
X276586D01*
X276614Y325282D01*
X276892Y324613D01*
X277332Y324039D01*
X277907Y323598D01*
X278576Y323321D01*
X278794Y323292D01*
Y325500D01*
D02*
G37*
G36*
X91453Y326453D02*
X88000D01*
Y323000D01*
X91453D01*
Y326453D01*
D02*
G37*
G36*
X87000D02*
X83547D01*
Y323000D01*
X87000D01*
Y326453D01*
D02*
G37*
G36*
X91453Y322000D02*
X88000D01*
Y318547D01*
X91453D01*
Y322000D01*
D02*
G37*
G36*
X87000D02*
X83547D01*
Y318547D01*
X87000D01*
Y322000D01*
D02*
G37*
G36*
X107500Y326991D02*
X106338Y326838D01*
X105254Y326390D01*
X104324Y325676D01*
X103611Y324746D01*
X103162Y323662D01*
X103009Y322500D01*
X103162Y321338D01*
X103611Y320254D01*
X104324Y319324D01*
X105254Y318611D01*
X106338Y318162D01*
X107500Y318009D01*
X108662Y318162D01*
X109746Y318611D01*
X110676Y319324D01*
X111390Y320254D01*
X111838Y321338D01*
X111991Y322500D01*
X111838Y323662D01*
X111390Y324746D01*
X110676Y325676D01*
X109746Y326390D01*
X108662Y326838D01*
X107500Y326991D01*
D02*
G37*
G36*
X97500D02*
X96338Y326838D01*
X95254Y326390D01*
X94324Y325676D01*
X93611Y324746D01*
X93162Y323662D01*
X93009Y322500D01*
X93162Y321338D01*
X93611Y320254D01*
X94324Y319324D01*
X95254Y318611D01*
X96338Y318162D01*
X97500Y318009D01*
X98662Y318162D01*
X99746Y318611D01*
X100676Y319324D01*
X101390Y320254D01*
X101838Y321338D01*
X101991Y322500D01*
X101838Y323662D01*
X101390Y324746D01*
X100676Y325676D01*
X99746Y326390D01*
X98662Y326838D01*
X97500Y326991D01*
D02*
G37*
G36*
X206500Y326590D02*
X205312Y326434D01*
X204205Y325975D01*
X203254Y325246D01*
X202524Y324295D01*
X202066Y323188D01*
X201909Y322000D01*
X202066Y320812D01*
X202524Y319705D01*
X203254Y318754D01*
X204205Y318024D01*
X205312Y317566D01*
X206500Y317409D01*
X207688Y317566D01*
X208795Y318024D01*
X209746Y318754D01*
X210475Y319705D01*
X210934Y320812D01*
X211090Y322000D01*
X210934Y323188D01*
X210475Y324295D01*
X209746Y325246D01*
X208795Y325975D01*
X207688Y326434D01*
X206500Y326590D01*
D02*
G37*
G36*
X213000Y317708D02*
Y315500D01*
X215208D01*
X215179Y315718D01*
X214902Y316387D01*
X214461Y316961D01*
X213887Y317402D01*
X213218Y317679D01*
X213000Y317708D01*
D02*
G37*
G36*
X212000D02*
X211782Y317679D01*
X211113Y317402D01*
X210539Y316961D01*
X210098Y316387D01*
X209821Y315718D01*
X209792Y315500D01*
X212000D01*
Y317708D01*
D02*
G37*
G36*
X332500Y317208D02*
Y315000D01*
X334708D01*
X334679Y315218D01*
X334402Y315887D01*
X333961Y316461D01*
X333387Y316902D01*
X332718Y317179D01*
X332500Y317208D01*
D02*
G37*
G36*
X331500D02*
X331282Y317179D01*
X330613Y316902D01*
X330039Y316461D01*
X329598Y315887D01*
X329321Y315218D01*
X329292Y315000D01*
X331500D01*
Y317208D01*
D02*
G37*
G36*
X215208Y314500D02*
X213000D01*
Y312292D01*
X213218Y312321D01*
X213887Y312598D01*
X214461Y313039D01*
X214902Y313613D01*
X215179Y314282D01*
X215208Y314500D01*
D02*
G37*
G36*
X212000D02*
X209792D01*
X209821Y314282D01*
X210098Y313613D01*
X210539Y313039D01*
X211113Y312598D01*
X211782Y312321D01*
X212000Y312292D01*
Y314500D01*
D02*
G37*
G36*
X334708Y314000D02*
X332500D01*
Y311792D01*
X332718Y311821D01*
X333387Y312098D01*
X333961Y312539D01*
X334402Y313113D01*
X334679Y313782D01*
X334708Y314000D01*
D02*
G37*
G36*
X331500D02*
X329292D01*
X329321Y313782D01*
X329598Y313113D01*
X330039Y312539D01*
X330613Y312098D01*
X331282Y311821D01*
X331500Y311792D01*
Y314000D01*
D02*
G37*
G36*
X219500Y310708D02*
Y308500D01*
X221708D01*
X221679Y308718D01*
X221402Y309387D01*
X220961Y309961D01*
X220387Y310402D01*
X219718Y310679D01*
X219500Y310708D01*
D02*
G37*
G36*
X218500D02*
X218282Y310679D01*
X217613Y310402D01*
X217039Y309961D01*
X216598Y309387D01*
X216321Y308718D01*
X216292Y308500D01*
X218500D01*
Y310708D01*
D02*
G37*
G36*
X221708Y307500D02*
X219500D01*
Y305292D01*
X219718Y305321D01*
X220387Y305598D01*
X220961Y306039D01*
X221402Y306613D01*
X221679Y307282D01*
X221708Y307500D01*
D02*
G37*
G36*
X218500D02*
X216292D01*
X216321Y307282D01*
X216598Y306613D01*
X217039Y306039D01*
X217613Y305598D01*
X218282Y305321D01*
X218500Y305292D01*
Y307500D01*
D02*
G37*
G36*
X275500Y304857D02*
Y302650D01*
X277708D01*
X277679Y302868D01*
X277402Y303537D01*
X276961Y304111D01*
X276387Y304552D01*
X275718Y304829D01*
X275500Y304857D01*
D02*
G37*
G36*
X274500D02*
X274282Y304829D01*
X273613Y304552D01*
X273039Y304111D01*
X272598Y303537D01*
X272321Y302868D01*
X272292Y302650D01*
X274500D01*
Y304857D01*
D02*
G37*
G36*
X291294Y303708D02*
Y301500D01*
X293502D01*
X293473Y301718D01*
X293196Y302387D01*
X292755Y302961D01*
X292181Y303402D01*
X291512Y303679D01*
X291294Y303708D01*
D02*
G37*
G36*
X290294D02*
X290076Y303679D01*
X289407Y303402D01*
X288832Y302961D01*
X288392Y302387D01*
X288115Y301718D01*
X288086Y301500D01*
X290294D01*
Y303708D01*
D02*
G37*
G36*
X397500Y315534D02*
X396128Y315399D01*
X394808Y314999D01*
X393592Y314349D01*
X392526Y313474D01*
X391652Y312408D01*
X391002Y311192D01*
X390601Y309872D01*
X390466Y308500D01*
X390601Y307128D01*
X391002Y305808D01*
X391652Y304592D01*
X392526Y303526D01*
X393592Y302652D01*
X394808Y302002D01*
X396128Y301601D01*
X397500Y301466D01*
X398872Y301601D01*
X400192Y302002D01*
X401408Y302652D01*
X402474Y303526D01*
X403348Y304592D01*
X403999Y305808D01*
X404399Y307128D01*
X404534Y308500D01*
X404399Y309872D01*
X403999Y311192D01*
X403348Y312408D01*
X402474Y313474D01*
X401408Y314349D01*
X400192Y314999D01*
X398872Y315399D01*
X397500Y315534D01*
D02*
G37*
G36*
X375800D02*
X374428Y315399D01*
X373108Y314999D01*
X371892Y314349D01*
X370826Y313474D01*
X369952Y312408D01*
X369302Y311192D01*
X368901Y309872D01*
X368766Y308500D01*
X368901Y307128D01*
X369302Y305808D01*
X369952Y304592D01*
X370826Y303526D01*
X371892Y302652D01*
X373108Y302002D01*
X374428Y301601D01*
X375800Y301466D01*
X377172Y301601D01*
X378492Y302002D01*
X379708Y302652D01*
X380774Y303526D01*
X381648Y304592D01*
X382298Y305808D01*
X382699Y307128D01*
X382834Y308500D01*
X382699Y309872D01*
X382298Y311192D01*
X381648Y312408D01*
X380774Y313474D01*
X379708Y314349D01*
X378492Y314999D01*
X377172Y315399D01*
X375800Y315534D01*
D02*
G37*
G36*
X199500Y302074D02*
Y299866D01*
X201708D01*
X201679Y300084D01*
X201402Y300753D01*
X200961Y301327D01*
X200387Y301768D01*
X199718Y302045D01*
X199500Y302074D01*
D02*
G37*
G36*
X198500D02*
X198282Y302045D01*
X197613Y301768D01*
X197039Y301327D01*
X196598Y300753D01*
X196321Y300084D01*
X196292Y299866D01*
X198500D01*
Y302074D01*
D02*
G37*
G36*
X277708Y301650D02*
X275500D01*
Y299442D01*
X275718Y299470D01*
X276387Y299747D01*
X276961Y300188D01*
X277402Y300763D01*
X277679Y301432D01*
X277708Y301650D01*
D02*
G37*
G36*
X274500D02*
X272292D01*
X272321Y301432D01*
X272598Y300763D01*
X273039Y300188D01*
X273613Y299747D01*
X274282Y299470D01*
X274500Y299442D01*
Y301650D01*
D02*
G37*
G36*
X88000Y302235D02*
Y298814D01*
X91421D01*
X91351Y299346D01*
X90953Y300307D01*
X90319Y301133D01*
X89493Y301767D01*
X88532Y302165D01*
X88000Y302235D01*
D02*
G37*
G36*
X87000D02*
X86468Y302165D01*
X85507Y301767D01*
X84681Y301133D01*
X84047Y300307D01*
X83649Y299346D01*
X83579Y298814D01*
X87000D01*
Y302235D01*
D02*
G37*
G36*
X293502Y300500D02*
X291294D01*
Y298292D01*
X291512Y298321D01*
X292181Y298598D01*
X292755Y299039D01*
X293196Y299613D01*
X293473Y300282D01*
X293502Y300500D01*
D02*
G37*
G36*
X290294D02*
X288086D01*
X288115Y300282D01*
X288392Y299613D01*
X288832Y299039D01*
X289407Y298598D01*
X290076Y298321D01*
X290294Y298292D01*
Y300500D01*
D02*
G37*
G36*
X310000Y324778D02*
X309152Y324666D01*
X308361Y324339D01*
X307682Y323818D01*
X307161Y323139D01*
X306834Y322348D01*
X306722Y321500D01*
X306834Y320652D01*
X307161Y319861D01*
X307682Y319182D01*
X307961Y318968D01*
Y304032D01*
X307682Y303818D01*
X307161Y303139D01*
X306834Y302348D01*
X306722Y301500D01*
X306834Y300652D01*
X307161Y299861D01*
X307682Y299182D01*
X308361Y298661D01*
X309152Y298334D01*
X310000Y298222D01*
X310848Y298334D01*
X311639Y298661D01*
X312318Y299182D01*
X312839Y299861D01*
X313166Y300652D01*
X313278Y301500D01*
X313166Y302348D01*
X312839Y303139D01*
X312318Y303818D01*
X312039Y304032D01*
Y318968D01*
X312318Y319182D01*
X312839Y319861D01*
X313166Y320652D01*
X313278Y321500D01*
X313166Y322348D01*
X312839Y323139D01*
X312318Y323818D01*
X311639Y324339D01*
X310848Y324666D01*
X310000Y324778D01*
D02*
G37*
G36*
X231000Y306740D02*
X229812Y306584D01*
X228705Y306125D01*
X227754Y305396D01*
X227025Y304445D01*
X226566Y303338D01*
X226410Y302150D01*
X226566Y300961D01*
X227025Y299854D01*
X227754Y298904D01*
X228705Y298174D01*
X229812Y297716D01*
X231000Y297559D01*
X232188Y297716D01*
X233295Y298174D01*
X234246Y298904D01*
X234976Y299854D01*
X235434Y300961D01*
X235591Y302150D01*
X235434Y303338D01*
X234976Y304445D01*
X234246Y305396D01*
X233295Y306125D01*
X232188Y306584D01*
X231000Y306740D01*
D02*
G37*
G36*
X201708Y298866D02*
X199500D01*
Y296658D01*
X199718Y296687D01*
X200387Y296964D01*
X200961Y297405D01*
X201402Y297979D01*
X201679Y298648D01*
X201708Y298866D01*
D02*
G37*
G36*
X198500D02*
X196292D01*
X196321Y298648D01*
X196598Y297979D01*
X197039Y297405D01*
X197613Y296964D01*
X198282Y296687D01*
X198500Y296658D01*
Y298866D01*
D02*
G37*
G36*
X297673Y298633D02*
Y296425D01*
X299881D01*
X299852Y296643D01*
X299575Y297312D01*
X299134Y297886D01*
X298560Y298327D01*
X297891Y298604D01*
X297673Y298633D01*
D02*
G37*
G36*
X296673D02*
X296455Y298604D01*
X295786Y298327D01*
X295212Y297886D01*
X294771Y297312D01*
X294494Y296643D01*
X294465Y296425D01*
X296673D01*
Y298633D01*
D02*
G37*
G36*
X240000Y296778D02*
X239152Y296666D01*
X238361Y296339D01*
X237682Y295818D01*
X237468Y295539D01*
X224532D01*
X224318Y295818D01*
X223639Y296339D01*
X222848Y296666D01*
X222000Y296778D01*
X221152Y296666D01*
X220361Y296339D01*
X219682Y295818D01*
X219161Y295139D01*
X218834Y294348D01*
X218722Y293500D01*
X218834Y292652D01*
X219161Y291861D01*
X219682Y291182D01*
X220176Y290803D01*
X220210Y290717D01*
Y290283D01*
X220176Y290197D01*
X219682Y289818D01*
X219161Y289139D01*
X218834Y288348D01*
X218722Y287500D01*
X218834Y286652D01*
X219161Y285861D01*
X219682Y285182D01*
X220361Y284661D01*
X221152Y284334D01*
X222000Y284222D01*
X222848Y284334D01*
X223639Y284661D01*
X224318Y285182D01*
X224513Y285436D01*
X234968D01*
X235182Y285157D01*
X235861Y284636D01*
X236652Y284309D01*
X237500Y284197D01*
X238348Y284309D01*
X239139Y284636D01*
X239818Y285157D01*
X240339Y285836D01*
X240666Y286627D01*
X240778Y287475D01*
X240666Y288323D01*
X240339Y289114D01*
X239862Y289736D01*
X239935Y289998D01*
X240068Y290231D01*
X240848Y290334D01*
X241639Y290661D01*
X242153Y291055D01*
X242383Y290961D01*
X242602Y290770D01*
X242586Y290650D01*
X244794D01*
Y292858D01*
X244576Y292829D01*
X243907Y292552D01*
X243554Y292281D01*
X243143Y292596D01*
X243166Y292652D01*
X243278Y293500D01*
X243166Y294348D01*
X242839Y295139D01*
X242318Y295818D01*
X241639Y296339D01*
X240848Y296666D01*
X240000Y296778D01*
D02*
G37*
G36*
X91421Y297814D02*
X88000D01*
Y294393D01*
X88532Y294463D01*
X89493Y294861D01*
X90319Y295495D01*
X90953Y296321D01*
X91351Y297282D01*
X91421Y297814D01*
D02*
G37*
G36*
X87000D02*
X83579D01*
X83649Y297282D01*
X84047Y296321D01*
X84681Y295495D01*
X85507Y294861D01*
X86468Y294463D01*
X87000Y294393D01*
Y297814D01*
D02*
G37*
G36*
X111953Y302767D02*
X103047D01*
Y293861D01*
X111953D01*
Y302767D01*
D02*
G37*
G36*
X97500Y302805D02*
X96338Y302652D01*
X95254Y302203D01*
X94324Y301490D01*
X93611Y300559D01*
X93162Y299476D01*
X93009Y298314D01*
X93162Y297151D01*
X93611Y296068D01*
X94324Y295138D01*
X95254Y294425D01*
X96338Y293976D01*
X97500Y293823D01*
X98662Y293976D01*
X99746Y294425D01*
X100676Y295138D01*
X101390Y296068D01*
X101838Y297151D01*
X101991Y298314D01*
X101838Y299476D01*
X101390Y300559D01*
X100676Y301490D01*
X99746Y302203D01*
X98662Y302652D01*
X97500Y302805D01*
D02*
G37*
G36*
X299881Y295425D02*
X297673D01*
Y293217D01*
X297891Y293246D01*
X298560Y293523D01*
X299134Y293964D01*
X299575Y294538D01*
X299852Y295207D01*
X299881Y295425D01*
D02*
G37*
G36*
X296673D02*
X294465D01*
X294494Y295207D01*
X294771Y294538D01*
X295212Y293964D01*
X295786Y293523D01*
X296455Y293246D01*
X296673Y293217D01*
Y295425D01*
D02*
G37*
G36*
X245794Y292858D02*
Y290650D01*
X248002D01*
X247973Y290867D01*
X247696Y291536D01*
X247255Y292111D01*
X246681Y292552D01*
X246012Y292829D01*
X245794Y292858D01*
D02*
G37*
G36*
X335794Y289858D02*
Y287650D01*
X338002D01*
X337973Y287867D01*
X337696Y288537D01*
X337255Y289111D01*
X336681Y289552D01*
X336012Y289829D01*
X335794Y289858D01*
D02*
G37*
G36*
X334794D02*
X334576Y289829D01*
X333907Y289552D01*
X333332Y289111D01*
X332892Y288537D01*
X332614Y287867D01*
X332586Y287650D01*
X334794D01*
Y289858D01*
D02*
G37*
G36*
X248002Y289650D02*
X245794D01*
Y287442D01*
X246012Y287470D01*
X246681Y287748D01*
X247255Y288188D01*
X247696Y288763D01*
X247973Y289432D01*
X248002Y289650D01*
D02*
G37*
G36*
X244794D02*
X242586D01*
X242615Y289432D01*
X242892Y288763D01*
X243332Y288188D01*
X243907Y287748D01*
X244576Y287470D01*
X244794Y287442D01*
Y289650D01*
D02*
G37*
G36*
X88095Y289173D02*
X87094D01*
Y286143D01*
X91559D01*
X91504Y286556D01*
X91152Y287408D01*
X90591Y288139D01*
X89860Y288700D01*
X89008Y289053D01*
X88095Y289173D01*
D02*
G37*
G36*
X397500Y299034D02*
X396128Y298899D01*
X394808Y298499D01*
X393592Y297849D01*
X392526Y296974D01*
X391652Y295908D01*
X391002Y294692D01*
X390601Y293372D01*
X390466Y292000D01*
X390601Y290628D01*
X391002Y289308D01*
X391652Y288092D01*
X392526Y287026D01*
X393592Y286152D01*
X394808Y285502D01*
X396128Y285101D01*
X397500Y284966D01*
X398872Y285101D01*
X400192Y285502D01*
X401408Y286152D01*
X402474Y287026D01*
X403348Y288092D01*
X403999Y289308D01*
X404399Y290628D01*
X404534Y292000D01*
X404399Y293372D01*
X403999Y294692D01*
X403348Y295908D01*
X402474Y296974D01*
X401408Y297849D01*
X400192Y298499D01*
X398872Y298899D01*
X397500Y299034D01*
D02*
G37*
G36*
X375800D02*
X374428Y298899D01*
X373108Y298499D01*
X371892Y297849D01*
X370826Y296974D01*
X369952Y295908D01*
X369302Y294692D01*
X368901Y293372D01*
X368766Y292000D01*
X368901Y290628D01*
X369302Y289308D01*
X369952Y288092D01*
X370826Y287026D01*
X371892Y286152D01*
X373108Y285502D01*
X374428Y285101D01*
X375800Y284966D01*
X377172Y285101D01*
X378492Y285502D01*
X379708Y286152D01*
X380774Y287026D01*
X381648Y288092D01*
X382298Y289308D01*
X382699Y290628D01*
X382834Y292000D01*
X382699Y293372D01*
X382298Y294692D01*
X381648Y295908D01*
X380774Y296974D01*
X379708Y297849D01*
X378492Y298499D01*
X377172Y298899D01*
X375800Y299034D01*
D02*
G37*
G36*
X334794Y286650D02*
X332586D01*
X332614Y286432D01*
X332892Y285763D01*
X333332Y285188D01*
X333907Y284748D01*
X334576Y284470D01*
X334794Y284442D01*
Y286650D01*
D02*
G37*
G36*
X338002D02*
X335794D01*
Y284442D01*
X336012Y284470D01*
X336681Y284748D01*
X337255Y285188D01*
X337696Y285763D01*
X337973Y286432D01*
X338002Y286650D01*
D02*
G37*
G36*
X91559Y285143D02*
X87094D01*
Y282113D01*
X88095D01*
X89008Y282233D01*
X89860Y282585D01*
X90591Y283147D01*
X91152Y283878D01*
X91504Y284729D01*
X91559Y285143D01*
D02*
G37*
G36*
X98905Y284441D02*
Y281861D01*
X101827D01*
X101787Y282162D01*
X101478Y282908D01*
X100987Y283548D01*
X100346Y284040D01*
X99600Y284349D01*
X98905Y284441D01*
D02*
G37*
G36*
X97905D02*
X97211Y284349D01*
X96465Y284040D01*
X95824Y283548D01*
X95333Y282908D01*
X95024Y282162D01*
X94984Y281861D01*
X97905D01*
Y284441D01*
D02*
G37*
G36*
X329294Y283857D02*
Y281650D01*
X331502D01*
X331473Y281868D01*
X331196Y282537D01*
X330755Y283111D01*
X330181Y283552D01*
X329512Y283829D01*
X329294Y283857D01*
D02*
G37*
G36*
X328294D02*
X328076Y283829D01*
X327407Y283552D01*
X326832Y283111D01*
X326392Y282537D01*
X326115Y281868D01*
X326086Y281650D01*
X328294D01*
Y283857D01*
D02*
G37*
G36*
X317794D02*
Y281650D01*
X320002D01*
X319973Y281868D01*
X319696Y282537D01*
X319255Y283111D01*
X318681Y283552D01*
X318012Y283829D01*
X317794Y283857D01*
D02*
G37*
G36*
X316794D02*
X316576Y283829D01*
X315907Y283552D01*
X315332Y283111D01*
X314892Y282537D01*
X314615Y281868D01*
X314586Y281650D01*
X316794D01*
Y283857D01*
D02*
G37*
G36*
X135000Y284020D02*
Y280500D01*
X138520D01*
X138447Y281058D01*
X138039Y282043D01*
X137389Y282889D01*
X136543Y283539D01*
X135558Y283947D01*
X135000Y284020D01*
D02*
G37*
G36*
X134000D02*
X133442Y283947D01*
X132457Y283539D01*
X131611Y282889D01*
X130961Y282043D01*
X130553Y281058D01*
X130480Y280500D01*
X134000D01*
Y284020D01*
D02*
G37*
G36*
X331502Y280650D02*
X329294D01*
Y278442D01*
X329512Y278470D01*
X330181Y278748D01*
X330755Y279188D01*
X331196Y279763D01*
X331473Y280432D01*
X331502Y280650D01*
D02*
G37*
G36*
X328294D02*
X326086D01*
X326115Y280432D01*
X326392Y279763D01*
X326832Y279188D01*
X327407Y278748D01*
X328076Y278470D01*
X328294Y278442D01*
Y280650D01*
D02*
G37*
G36*
X320002D02*
X317794D01*
Y278442D01*
X318012Y278470D01*
X318681Y278748D01*
X319255Y279188D01*
X319696Y279763D01*
X319973Y280432D01*
X320002Y280650D01*
D02*
G37*
G36*
X316794D02*
X314586D01*
X314615Y280432D01*
X314892Y279763D01*
X315332Y279188D01*
X315907Y278748D01*
X316576Y278470D01*
X316794Y278442D01*
Y280650D01*
D02*
G37*
G36*
X101827Y280861D02*
X98905D01*
Y278282D01*
X99600Y278373D01*
X100346Y278682D01*
X100987Y279174D01*
X101478Y279815D01*
X101787Y280561D01*
X101827Y280861D01*
D02*
G37*
G36*
X97905D02*
X94984D01*
X95024Y280561D01*
X95333Y279815D01*
X95824Y279174D01*
X96465Y278682D01*
X97211Y278373D01*
X97905Y278282D01*
Y280861D01*
D02*
G37*
G36*
X356953Y286953D02*
X348047D01*
Y278047D01*
X356953D01*
Y286953D01*
D02*
G37*
G36*
X362500Y286991D02*
X361338Y286838D01*
X360254Y286389D01*
X359324Y285676D01*
X358611Y284746D01*
X358162Y283662D01*
X358009Y282500D01*
X358162Y281338D01*
X358611Y280254D01*
X359324Y279324D01*
X360254Y278610D01*
X361338Y278162D01*
X362500Y278009D01*
X363662Y278162D01*
X364746Y278610D01*
X365676Y279324D01*
X366389Y280254D01*
X366838Y281338D01*
X366991Y282500D01*
X366838Y283662D01*
X366389Y284746D01*
X365676Y285676D01*
X364746Y286389D01*
X363662Y286838D01*
X362500Y286991D01*
D02*
G37*
G36*
X138520Y279500D02*
X135000D01*
Y275980D01*
X135558Y276053D01*
X136543Y276461D01*
X137389Y277111D01*
X138039Y277957D01*
X138447Y278942D01*
X138520Y279500D01*
D02*
G37*
G36*
X134000D02*
X130480D01*
X130553Y278942D01*
X130961Y277957D01*
X131611Y277111D01*
X132457Y276461D01*
X133442Y276053D01*
X134000Y275980D01*
Y279500D01*
D02*
G37*
G36*
X317794Y276708D02*
Y274500D01*
X320002D01*
X319973Y274718D01*
X319696Y275387D01*
X319255Y275961D01*
X318681Y276402D01*
X318012Y276679D01*
X317794Y276708D01*
D02*
G37*
G36*
X316794D02*
X316576Y276679D01*
X315907Y276402D01*
X315332Y275961D01*
X314892Y275387D01*
X314615Y274718D01*
X314586Y274500D01*
X316794D01*
Y276708D01*
D02*
G37*
G36*
X155000Y276582D02*
Y274374D01*
X157208D01*
X157179Y274592D01*
X156902Y275261D01*
X156461Y275835D01*
X155887Y276276D01*
X155218Y276553D01*
X155000Y276582D01*
D02*
G37*
G36*
X154000D02*
X153782Y276553D01*
X153113Y276276D01*
X152539Y275835D01*
X152098Y275261D01*
X151821Y274592D01*
X151792Y274374D01*
X154000D01*
Y276582D01*
D02*
G37*
G36*
X320002Y273500D02*
X317794D01*
Y271292D01*
X318012Y271321D01*
X318681Y271598D01*
X319255Y272039D01*
X319696Y272613D01*
X319973Y273282D01*
X320002Y273500D01*
D02*
G37*
G36*
X316794D02*
X314586D01*
X314615Y273282D01*
X314892Y272613D01*
X315332Y272039D01*
X315907Y271598D01*
X316576Y271321D01*
X316794Y271292D01*
Y273500D01*
D02*
G37*
G36*
X157208Y273374D02*
X155000D01*
Y271166D01*
X155218Y271195D01*
X155887Y271472D01*
X156461Y271913D01*
X156902Y272487D01*
X157179Y273156D01*
X157208Y273374D01*
D02*
G37*
G36*
X154000D02*
X151792D01*
X151821Y273156D01*
X152098Y272487D01*
X152539Y271913D01*
X153113Y271472D01*
X153782Y271195D01*
X154000Y271166D01*
Y273374D01*
D02*
G37*
G36*
X397500Y282534D02*
X396128Y282399D01*
X394808Y281998D01*
X393592Y281348D01*
X392526Y280474D01*
X391652Y279408D01*
X391002Y278192D01*
X390601Y276872D01*
X390466Y275500D01*
X390601Y274128D01*
X391002Y272808D01*
X391652Y271592D01*
X392526Y270526D01*
X393592Y269652D01*
X394808Y269002D01*
X396128Y268601D01*
X397500Y268466D01*
X398872Y268601D01*
X400192Y269002D01*
X401408Y269652D01*
X402474Y270526D01*
X403348Y271592D01*
X403999Y272808D01*
X404399Y274128D01*
X404534Y275500D01*
X404399Y276872D01*
X403999Y278192D01*
X403348Y279408D01*
X402474Y280474D01*
X401408Y281348D01*
X400192Y281998D01*
X398872Y282399D01*
X397500Y282534D01*
D02*
G37*
G36*
X375800D02*
X374428Y282399D01*
X373108Y281998D01*
X371892Y281348D01*
X370826Y280474D01*
X369952Y279408D01*
X369302Y278192D01*
X368901Y276872D01*
X368766Y275500D01*
X368901Y274128D01*
X369302Y272808D01*
X369952Y271592D01*
X370826Y270526D01*
X371892Y269652D01*
X373108Y269002D01*
X374428Y268601D01*
X375800Y268466D01*
X377172Y268601D01*
X378492Y269002D01*
X379708Y269652D01*
X380774Y270526D01*
X381648Y271592D01*
X382298Y272808D01*
X382699Y274128D01*
X382834Y275500D01*
X382699Y276872D01*
X382298Y278192D01*
X381648Y279408D01*
X380774Y280474D01*
X379708Y281348D01*
X378492Y281998D01*
X377172Y282399D01*
X375800Y282534D01*
D02*
G37*
G36*
X362500Y276991D02*
X361338Y276838D01*
X360254Y276390D01*
X359324Y275676D01*
X358611Y274746D01*
X358162Y273662D01*
X358009Y272500D01*
X358162Y271338D01*
X358611Y270254D01*
X359324Y269324D01*
X360254Y268611D01*
X361338Y268162D01*
X362500Y268009D01*
X363662Y268162D01*
X364746Y268611D01*
X365676Y269324D01*
X366389Y270254D01*
X366838Y271338D01*
X366991Y272500D01*
X366838Y273662D01*
X366389Y274746D01*
X365676Y275676D01*
X364746Y276390D01*
X363662Y276838D01*
X362500Y276991D01*
D02*
G37*
G36*
X352500D02*
X351338Y276838D01*
X350254Y276390D01*
X349324Y275676D01*
X348610Y274746D01*
X348162Y273662D01*
X348009Y272500D01*
X348162Y271338D01*
X348610Y270254D01*
X349324Y269324D01*
X350254Y268611D01*
X351338Y268162D01*
X352500Y268009D01*
X353662Y268162D01*
X354746Y268611D01*
X355676Y269324D01*
X356389Y270254D01*
X356838Y271338D01*
X356991Y272500D01*
X356838Y273662D01*
X356389Y274746D01*
X355676Y275676D01*
X354746Y276390D01*
X353662Y276838D01*
X352500Y276991D01*
D02*
G37*
G36*
X216500Y274991D02*
X215338Y274838D01*
X214254Y274390D01*
X213324Y273676D01*
X212611Y272746D01*
X212162Y271662D01*
X212009Y270500D01*
X212162Y269338D01*
X212611Y268254D01*
X213324Y267324D01*
X214254Y266611D01*
X215338Y266162D01*
X216500Y266009D01*
X217662Y266162D01*
X218746Y266611D01*
X219676Y267324D01*
X220390Y268254D01*
X220838Y269338D01*
X220991Y270500D01*
X220838Y271662D01*
X220390Y272746D01*
X219676Y273676D01*
X218746Y274390D01*
X217662Y274838D01*
X216500Y274991D01*
D02*
G37*
G36*
X206500D02*
X205338Y274838D01*
X204254Y274390D01*
X203324Y273676D01*
X202610Y272746D01*
X202162Y271662D01*
X202009Y270500D01*
X202162Y269338D01*
X202610Y268254D01*
X203324Y267324D01*
X204254Y266611D01*
X205338Y266162D01*
X206500Y266009D01*
X207662Y266162D01*
X208746Y266611D01*
X209676Y267324D01*
X210389Y268254D01*
X210838Y269338D01*
X210991Y270500D01*
X210838Y271662D01*
X210389Y272746D01*
X209676Y273676D01*
X208746Y274390D01*
X207662Y274838D01*
X206500Y274991D01*
D02*
G37*
G36*
X98905Y265346D02*
Y262767D01*
X101827D01*
X101787Y263067D01*
X101478Y263813D01*
X100987Y264454D01*
X100346Y264946D01*
X99600Y265255D01*
X98905Y265346D01*
D02*
G37*
G36*
X97905D02*
X97211Y265255D01*
X96465Y264946D01*
X95824Y264454D01*
X95333Y263813D01*
X95024Y263067D01*
X94984Y262767D01*
X97905D01*
Y265346D01*
D02*
G37*
G36*
X101827Y261767D02*
X98905D01*
Y259187D01*
X99600Y259279D01*
X100346Y259588D01*
X100987Y260079D01*
X101478Y260720D01*
X101787Y261466D01*
X101827Y261767D01*
D02*
G37*
G36*
X97905D02*
X94984D01*
X95024Y261466D01*
X95333Y260720D01*
X95824Y260079D01*
X96465Y259588D01*
X97211Y259279D01*
X97905Y259187D01*
Y261767D01*
D02*
G37*
G36*
X88095Y261515D02*
X87094D01*
Y258485D01*
X91559D01*
X91504Y258899D01*
X91152Y259750D01*
X90591Y260481D01*
X89860Y261042D01*
X89008Y261395D01*
X88095Y261515D01*
D02*
G37*
G36*
X362500Y266991D02*
X361338Y266838D01*
X360254Y266389D01*
X359324Y265676D01*
X358611Y264746D01*
X358162Y263662D01*
X358009Y262500D01*
X358162Y261338D01*
X358611Y260254D01*
X359324Y259324D01*
X360254Y258611D01*
X361338Y258162D01*
X362500Y258009D01*
X363662Y258162D01*
X364746Y258611D01*
X365676Y259324D01*
X366389Y260254D01*
X366838Y261338D01*
X366991Y262500D01*
X366838Y263662D01*
X366389Y264746D01*
X365676Y265676D01*
X364746Y266389D01*
X363662Y266838D01*
X362500Y266991D01*
D02*
G37*
G36*
X352500D02*
X351338Y266838D01*
X350254Y266389D01*
X349324Y265676D01*
X348610Y264746D01*
X348162Y263662D01*
X348009Y262500D01*
X348162Y261338D01*
X348610Y260254D01*
X349324Y259324D01*
X350254Y258611D01*
X351338Y258162D01*
X352500Y258009D01*
X353662Y258162D01*
X354746Y258611D01*
X355676Y259324D01*
X356389Y260254D01*
X356838Y261338D01*
X356991Y262500D01*
X356838Y263662D01*
X356389Y264746D01*
X355676Y265676D01*
X354746Y266389D01*
X353662Y266838D01*
X352500Y266991D01*
D02*
G37*
G36*
X206500Y264991D02*
X205338Y264838D01*
X204254Y264389D01*
X203324Y263676D01*
X202610Y262746D01*
X202162Y261662D01*
X202009Y260500D01*
X202162Y259338D01*
X202610Y258254D01*
X203324Y257324D01*
X204254Y256610D01*
X205338Y256162D01*
X206500Y256009D01*
X207662Y256162D01*
X208746Y256610D01*
X209676Y257324D01*
X210389Y258254D01*
X210838Y259338D01*
X210991Y260500D01*
X210838Y261662D01*
X210389Y262746D01*
X209676Y263676D01*
X208746Y264389D01*
X207662Y264838D01*
X206500Y264991D01*
D02*
G37*
G36*
X91559Y257485D02*
X87094D01*
Y254455D01*
X88095D01*
X89008Y254575D01*
X89860Y254928D01*
X90591Y255489D01*
X91152Y256220D01*
X91504Y257071D01*
X91559Y257485D01*
D02*
G37*
G36*
X362500Y256991D02*
X361338Y256838D01*
X360254Y256389D01*
X359324Y255676D01*
X358611Y254746D01*
X358162Y253662D01*
X358009Y252500D01*
X358162Y251338D01*
X358611Y250254D01*
X359324Y249324D01*
X360254Y248610D01*
X361338Y248162D01*
X362500Y248009D01*
X363662Y248162D01*
X364746Y248610D01*
X365676Y249324D01*
X366389Y250254D01*
X366838Y251338D01*
X366991Y252500D01*
X366838Y253662D01*
X366389Y254746D01*
X365676Y255676D01*
X364746Y256389D01*
X363662Y256838D01*
X362500Y256991D01*
D02*
G37*
G36*
X333794Y269428D02*
X332945Y269316D01*
X332155Y268988D01*
X331476Y268467D01*
X330955Y267789D01*
X330627Y266998D01*
X330516Y266150D01*
X330627Y265301D01*
X330955Y264511D01*
X331476Y263832D01*
X331755Y263618D01*
Y258181D01*
X331476Y257967D01*
X330955Y257289D01*
X330627Y256498D01*
X330516Y255650D01*
X330627Y254801D01*
X330955Y254011D01*
X331476Y253332D01*
X331811Y253075D01*
Y252575D01*
X331476Y252318D01*
X330955Y251639D01*
X330627Y250848D01*
X330516Y250000D01*
X330627Y249152D01*
X330955Y248361D01*
X331476Y247682D01*
X332155Y247161D01*
X332945Y246834D01*
X333794Y246722D01*
X334642Y246834D01*
X335433Y247161D01*
X336112Y247682D01*
X336326Y247961D01*
X350000D01*
X350780Y248116D01*
X351036Y248287D01*
X351338Y248162D01*
X352500Y248009D01*
X353662Y248162D01*
X354746Y248610D01*
X355676Y249324D01*
X356389Y250254D01*
X356838Y251338D01*
X356991Y252500D01*
X356838Y253662D01*
X356389Y254746D01*
X355676Y255676D01*
X354746Y256389D01*
X353662Y256838D01*
X352500Y256991D01*
X351338Y256838D01*
X350254Y256389D01*
X349324Y255676D01*
X348610Y254746D01*
X348162Y253662D01*
X348009Y252500D01*
X348020Y252415D01*
X347690Y252039D01*
X336326D01*
X336112Y252318D01*
X335777Y252575D01*
Y253075D01*
X336112Y253332D01*
X336633Y254011D01*
X336960Y254801D01*
X337072Y255650D01*
X336960Y256498D01*
X336633Y257289D01*
X336112Y257967D01*
X335833Y258181D01*
Y263618D01*
X336112Y263832D01*
X336633Y264511D01*
X336960Y265301D01*
X337072Y266150D01*
X336960Y266998D01*
X336633Y267789D01*
X336112Y268467D01*
X335433Y268988D01*
X334642Y269316D01*
X333794Y269428D01*
D02*
G37*
G36*
X216500Y264991D02*
X215338Y264838D01*
X214254Y264389D01*
X213324Y263676D01*
X212611Y262746D01*
X212162Y261662D01*
X212009Y260500D01*
X212162Y259338D01*
X212611Y258254D01*
X213324Y257324D01*
X214254Y256610D01*
X215338Y256162D01*
X216500Y256009D01*
X217662Y256162D01*
X218067Y256329D01*
X226357Y248039D01*
X226149Y247539D01*
X222624D01*
X220834Y249329D01*
X220838Y249338D01*
X220991Y250500D01*
X220838Y251662D01*
X220390Y252746D01*
X219676Y253676D01*
X218746Y254390D01*
X217662Y254838D01*
X216500Y254991D01*
X215338Y254838D01*
X214254Y254390D01*
X213324Y253676D01*
X212611Y252746D01*
X212162Y251662D01*
X212009Y250500D01*
X212162Y249338D01*
X212611Y248254D01*
X213324Y247324D01*
X214254Y246610D01*
X215338Y246162D01*
X216500Y246009D01*
X217662Y246162D01*
X218067Y246329D01*
X219829Y244566D01*
X219657Y244122D01*
X219187Y244050D01*
X218746Y244390D01*
X217662Y244838D01*
X216500Y244991D01*
X215338Y244838D01*
X214254Y244390D01*
X213324Y243676D01*
X212611Y242746D01*
X212162Y241662D01*
X212009Y240500D01*
X212162Y239338D01*
X212611Y238254D01*
X213324Y237324D01*
X214254Y236611D01*
X215338Y236162D01*
X216500Y236009D01*
X217662Y236162D01*
X218746Y236611D01*
X219676Y237324D01*
X220390Y238254D01*
X220838Y239338D01*
X220920Y239961D01*
X223057D01*
X223106Y239461D01*
X222720Y239384D01*
X222058Y238942D01*
X218069Y234953D01*
X212047D01*
Y226047D01*
X220953D01*
Y232069D01*
X224345Y235461D01*
X241278D01*
X242058Y235616D01*
X242720Y236058D01*
X245442Y238780D01*
X245884Y239442D01*
X246039Y240222D01*
Y240968D01*
X246318Y241182D01*
X246839Y241861D01*
X247166Y242652D01*
X247278Y243500D01*
X247166Y244348D01*
X246839Y245139D01*
X246318Y245818D01*
X245639Y246339D01*
X244848Y246666D01*
X244624Y246696D01*
X244374Y247136D01*
X244386Y247232D01*
X244539Y248000D01*
Y252468D01*
X244818Y252682D01*
X245339Y253361D01*
X245666Y254152D01*
X245778Y255000D01*
X245666Y255848D01*
X245339Y256639D01*
X244818Y257318D01*
X244139Y257839D01*
X243348Y258166D01*
X242500Y258278D01*
X241652Y258166D01*
X240861Y257839D01*
X240182Y257318D01*
X239661Y256639D01*
X239334Y255848D01*
X239222Y255000D01*
X239334Y254152D01*
X239661Y253361D01*
X240151Y252723D01*
X240175Y252641D01*
X240154Y252522D01*
X239593Y252215D01*
X239348Y252316D01*
X238500Y252428D01*
X237652Y252316D01*
X236861Y251989D01*
X236182Y251467D01*
X235968Y251189D01*
X228975D01*
X220834Y259329D01*
X220838Y259338D01*
X220991Y260500D01*
X220838Y261662D01*
X220390Y262746D01*
X219676Y263676D01*
X218746Y264389D01*
X217662Y264838D01*
X216500Y264991D01*
D02*
G37*
G36*
X206500Y254991D02*
X205338Y254838D01*
X204254Y254390D01*
X203324Y253676D01*
X202610Y252746D01*
X202162Y251662D01*
X202009Y250500D01*
X202162Y249338D01*
X202610Y248254D01*
X203324Y247324D01*
X204254Y246610D01*
X205338Y246162D01*
X206500Y246009D01*
X207662Y246162D01*
X208746Y246610D01*
X209676Y247324D01*
X210389Y248254D01*
X210838Y249338D01*
X210991Y250500D01*
X210838Y251662D01*
X210389Y252746D01*
X209676Y253676D01*
X208746Y254390D01*
X207662Y254838D01*
X206500Y254991D01*
D02*
G37*
G36*
X397500Y248849D02*
Y244435D01*
X401914D01*
X401810Y245224D01*
X401312Y246425D01*
X400521Y247456D01*
X399490Y248248D01*
X398289Y248745D01*
X397500Y248849D01*
D02*
G37*
G36*
X396500D02*
X395711Y248745D01*
X394510Y248248D01*
X393479Y247456D01*
X392688Y246425D01*
X392190Y245224D01*
X392086Y244435D01*
X396500D01*
Y248849D01*
D02*
G37*
G36*
X87500Y249991D02*
X86338Y249838D01*
X85254Y249390D01*
X84324Y248676D01*
X83610Y247746D01*
X83162Y246662D01*
X83009Y245500D01*
X83162Y244338D01*
X83610Y243254D01*
X84324Y242324D01*
X85254Y241611D01*
X86338Y241162D01*
X87500Y241009D01*
X88662Y241162D01*
X89746Y241611D01*
X90676Y242324D01*
X91390Y243254D01*
X91838Y244338D01*
X91991Y245500D01*
X91838Y246662D01*
X91390Y247746D01*
X90676Y248676D01*
X89746Y249390D01*
X88662Y249838D01*
X87500Y249991D01*
D02*
G37*
G36*
X314294Y242487D02*
Y240280D01*
X316502D01*
X316473Y240497D01*
X316196Y241166D01*
X315755Y241741D01*
X315181Y242182D01*
X314512Y242459D01*
X314294Y242487D01*
D02*
G37*
G36*
X313294D02*
X313076Y242459D01*
X312407Y242182D01*
X311832Y241741D01*
X311392Y241166D01*
X311115Y240497D01*
X311086Y240280D01*
X313294D01*
Y242487D01*
D02*
G37*
G36*
X401914Y243435D02*
X397500D01*
Y239021D01*
X398289Y239125D01*
X399490Y239623D01*
X400521Y240414D01*
X401312Y241445D01*
X401810Y242646D01*
X401914Y243435D01*
D02*
G37*
G36*
X396500D02*
X392086D01*
X392190Y242646D01*
X392688Y241445D01*
X393479Y240414D01*
X394510Y239623D01*
X395711Y239125D01*
X396500Y239021D01*
Y243435D01*
D02*
G37*
G36*
X316502Y239280D02*
X314294D01*
Y237072D01*
X314512Y237100D01*
X315181Y237377D01*
X315755Y237818D01*
X316196Y238393D01*
X316473Y239062D01*
X316502Y239280D01*
D02*
G37*
G36*
X313294D02*
X311086D01*
X311115Y239062D01*
X311392Y238393D01*
X311832Y237818D01*
X312407Y237377D01*
X313076Y237100D01*
X313294Y237072D01*
Y239280D01*
D02*
G37*
G36*
X206500Y244991D02*
X205338Y244838D01*
X204254Y244390D01*
X203324Y243676D01*
X202610Y242746D01*
X202162Y241662D01*
X202009Y240500D01*
X202162Y239338D01*
X202610Y238254D01*
X203324Y237324D01*
X204254Y236611D01*
X205338Y236162D01*
X206500Y236009D01*
X207662Y236162D01*
X208746Y236611D01*
X209676Y237324D01*
X210389Y238254D01*
X210838Y239338D01*
X210991Y240500D01*
X210838Y241662D01*
X210389Y242746D01*
X209676Y243676D01*
X208746Y244390D01*
X207662Y244838D01*
X206500Y244991D01*
D02*
G37*
G36*
X133500Y237520D02*
Y234000D01*
X137020D01*
X136947Y234558D01*
X136539Y235543D01*
X135889Y236389D01*
X135043Y237039D01*
X134058Y237447D01*
X133500Y237520D01*
D02*
G37*
G36*
X132500D02*
X131942Y237447D01*
X130957Y237039D01*
X130111Y236389D01*
X129461Y235543D01*
X129053Y234558D01*
X128980Y234000D01*
X132500D01*
Y237520D01*
D02*
G37*
G36*
X239000Y234708D02*
Y232500D01*
X241208D01*
X241179Y232718D01*
X240902Y233387D01*
X240461Y233961D01*
X239887Y234402D01*
X239218Y234679D01*
X239000Y234708D01*
D02*
G37*
G36*
X238000D02*
X237782Y234679D01*
X237113Y234402D01*
X236539Y233961D01*
X236098Y233387D01*
X235821Y232718D01*
X235792Y232500D01*
X238000D01*
Y234708D01*
D02*
G37*
G36*
X87500Y239991D02*
X86338Y239838D01*
X85254Y239389D01*
X84324Y238676D01*
X83610Y237746D01*
X83162Y236662D01*
X83009Y235500D01*
X83162Y234338D01*
X83610Y233254D01*
X84324Y232324D01*
X85254Y231610D01*
X86338Y231162D01*
X87500Y231009D01*
X88662Y231162D01*
X89746Y231610D01*
X90676Y232324D01*
X91390Y233254D01*
X91838Y234338D01*
X91991Y235500D01*
X91838Y236662D01*
X91390Y237746D01*
X90676Y238676D01*
X89746Y239389D01*
X88662Y239838D01*
X87500Y239991D01*
D02*
G37*
G36*
X137020Y233000D02*
X133500D01*
Y229480D01*
X134058Y229553D01*
X135043Y229961D01*
X135889Y230611D01*
X136539Y231457D01*
X136947Y232442D01*
X137020Y233000D01*
D02*
G37*
G36*
X132500D02*
X128980D01*
X129053Y232442D01*
X129461Y231457D01*
X130111Y230611D01*
X130957Y229961D01*
X131942Y229553D01*
X132500Y229480D01*
Y233000D01*
D02*
G37*
G36*
X241208Y231500D02*
X239000D01*
Y229292D01*
X239218Y229321D01*
X239887Y229598D01*
X240461Y230039D01*
X240902Y230613D01*
X241179Y231282D01*
X241208Y231500D01*
D02*
G37*
G36*
X238000D02*
X235792D01*
X235821Y231282D01*
X236098Y230613D01*
X236539Y230039D01*
X237113Y229598D01*
X237782Y229321D01*
X238000Y229292D01*
Y231500D01*
D02*
G37*
G36*
X278794Y252428D02*
X277945Y252316D01*
X277155Y251989D01*
X276476Y251467D01*
X275955Y250789D01*
X275627Y249998D01*
X275516Y249150D01*
X275627Y248301D01*
X275955Y247511D01*
X276245Y247133D01*
Y232166D01*
X275955Y231789D01*
X275627Y230998D01*
X275516Y230150D01*
X275627Y229301D01*
X275955Y228511D01*
X276476Y227832D01*
X277155Y227311D01*
X277945Y226983D01*
X278794Y226872D01*
X279642Y226983D01*
X280433Y227311D01*
X281112Y227832D01*
X281633Y228511D01*
X281960Y229301D01*
X282072Y230150D01*
X281960Y230998D01*
X281633Y231789D01*
X281343Y232166D01*
Y247133D01*
X281633Y247511D01*
X281960Y248301D01*
X282072Y249150D01*
X281960Y249998D01*
X281633Y250789D01*
X281112Y251467D01*
X280433Y251989D01*
X279642Y252316D01*
X278794Y252428D01*
D02*
G37*
G36*
X254294Y228857D02*
Y226650D01*
X256502D01*
X256473Y226868D01*
X256196Y227537D01*
X255755Y228111D01*
X255181Y228552D01*
X254512Y228829D01*
X254294Y228857D01*
D02*
G37*
G36*
X253294D02*
X253076Y228829D01*
X252407Y228552D01*
X251832Y228111D01*
X251392Y227537D01*
X251115Y226868D01*
X251086Y226650D01*
X253294D01*
Y228857D01*
D02*
G37*
G36*
X364000Y230170D02*
Y226650D01*
X367520D01*
X367447Y227207D01*
X367039Y228193D01*
X366389Y229039D01*
X365543Y229688D01*
X364558Y230097D01*
X364000Y230170D01*
D02*
G37*
G36*
X363000Y230170D02*
X362442Y230097D01*
X361457Y229688D01*
X360611Y229039D01*
X359961Y228193D01*
X359553Y227207D01*
X359480Y226650D01*
X363000D01*
Y230170D01*
D02*
G37*
G36*
X245500Y228708D02*
Y226500D01*
X247708D01*
X247679Y226718D01*
X247402Y227387D01*
X246961Y227961D01*
X246387Y228402D01*
X245718Y228679D01*
X245500Y228708D01*
D02*
G37*
G36*
X244500D02*
X244282Y228679D01*
X243613Y228402D01*
X243039Y227961D01*
X242598Y227387D01*
X242321Y226718D01*
X242292Y226500D01*
X244500D01*
Y228708D01*
D02*
G37*
G36*
X206500Y234991D02*
X205338Y234838D01*
X204254Y234389D01*
X203324Y233676D01*
X202610Y232746D01*
X202162Y231662D01*
X202009Y230500D01*
X202162Y229338D01*
X202610Y228254D01*
X203324Y227324D01*
X204254Y226610D01*
X205338Y226162D01*
X206500Y226009D01*
X207662Y226162D01*
X208746Y226610D01*
X209676Y227324D01*
X210389Y228254D01*
X210838Y229338D01*
X210991Y230500D01*
X210838Y231662D01*
X210389Y232746D01*
X209676Y233676D01*
X208746Y234389D01*
X207662Y234838D01*
X206500Y234991D01*
D02*
G37*
G36*
X256502Y225650D02*
X254294D01*
Y223442D01*
X254512Y223470D01*
X255181Y223747D01*
X255755Y224188D01*
X256196Y224763D01*
X256473Y225432D01*
X256502Y225650D01*
D02*
G37*
G36*
X253294D02*
X251086D01*
X251115Y225432D01*
X251392Y224763D01*
X251832Y224188D01*
X252407Y223747D01*
X253076Y223470D01*
X253294Y223442D01*
Y225650D01*
D02*
G37*
G36*
X247708Y225500D02*
X245500D01*
Y223292D01*
X245718Y223321D01*
X246387Y223598D01*
X246961Y224039D01*
X247402Y224613D01*
X247679Y225282D01*
X247708Y225500D01*
D02*
G37*
G36*
X244500D02*
X242292D01*
X242321Y225282D01*
X242598Y224613D01*
X243039Y224039D01*
X243613Y223598D01*
X244282Y223321D01*
X244500Y223292D01*
Y225500D01*
D02*
G37*
G36*
X149000Y224708D02*
Y222500D01*
X151208D01*
X151179Y222718D01*
X150902Y223387D01*
X150461Y223961D01*
X149887Y224402D01*
X149218Y224679D01*
X149000Y224708D01*
D02*
G37*
G36*
X148000D02*
X147782Y224679D01*
X147113Y224402D01*
X146539Y223961D01*
X146098Y223387D01*
X145821Y222718D01*
X145792Y222500D01*
X148000D01*
Y224708D01*
D02*
G37*
G36*
X363000Y225650D02*
X359480D01*
X359553Y225092D01*
X359961Y224107D01*
X360611Y223260D01*
X361457Y222611D01*
X362442Y222203D01*
X363000Y222129D01*
Y225650D01*
D02*
G37*
G36*
X367520D02*
X364000D01*
Y222129D01*
X364558Y222203D01*
X365543Y222611D01*
X366389Y223260D01*
X367039Y224107D01*
X367447Y225092D01*
X367520Y225650D01*
D02*
G37*
G36*
X87500Y229991D02*
X86338Y229838D01*
X85254Y229390D01*
X84324Y228676D01*
X83610Y227746D01*
X83162Y226662D01*
X83009Y225500D01*
X83162Y224338D01*
X83610Y223254D01*
X84324Y222324D01*
X85254Y221610D01*
X86338Y221162D01*
X87500Y221009D01*
X88662Y221162D01*
X89746Y221610D01*
X90676Y222324D01*
X91390Y223254D01*
X91838Y224338D01*
X91991Y225500D01*
X91838Y226662D01*
X91390Y227746D01*
X90676Y228676D01*
X89746Y229390D01*
X88662Y229838D01*
X87500Y229991D01*
D02*
G37*
G36*
X260294Y222857D02*
Y220650D01*
X262502D01*
X262473Y220867D01*
X262196Y221536D01*
X261755Y222111D01*
X261181Y222552D01*
X260512Y222829D01*
X260294Y222857D01*
D02*
G37*
G36*
X259294D02*
X259076Y222829D01*
X258407Y222552D01*
X257832Y222111D01*
X257392Y221536D01*
X257115Y220867D01*
X257086Y220650D01*
X259294D01*
Y222857D01*
D02*
G37*
G36*
X279294Y221858D02*
Y219650D01*
X281502D01*
X281473Y219867D01*
X281196Y220536D01*
X280755Y221111D01*
X280181Y221552D01*
X279512Y221829D01*
X279294Y221858D01*
D02*
G37*
G36*
X278294D02*
X278076Y221829D01*
X277407Y221552D01*
X276832Y221111D01*
X276392Y220536D01*
X276115Y219867D01*
X276086Y219650D01*
X278294D01*
Y221858D01*
D02*
G37*
G36*
X306500Y221673D02*
Y219465D01*
X308708D01*
X308679Y219683D01*
X308402Y220351D01*
X307961Y220926D01*
X307387Y221367D01*
X306718Y221644D01*
X306500Y221673D01*
D02*
G37*
G36*
X305500D02*
X305282Y221644D01*
X304613Y221367D01*
X304039Y220926D01*
X303598Y220351D01*
X303321Y219683D01*
X303292Y219465D01*
X305500D01*
Y221673D01*
D02*
G37*
G36*
X151208Y221500D02*
X149000D01*
Y219292D01*
X149218Y219321D01*
X149887Y219598D01*
X150461Y220039D01*
X150902Y220613D01*
X151179Y221282D01*
X151208Y221500D01*
D02*
G37*
G36*
X148000D02*
X145792D01*
X145821Y221282D01*
X146098Y220613D01*
X146539Y220039D01*
X147113Y219598D01*
X147782Y219321D01*
X148000Y219292D01*
Y221500D01*
D02*
G37*
G36*
X335740Y221367D02*
Y219159D01*
X337948D01*
X337919Y219377D01*
X337642Y220045D01*
X337201Y220620D01*
X336627Y221061D01*
X335958Y221338D01*
X335740Y221367D01*
D02*
G37*
G36*
X334740D02*
X334522Y221338D01*
X333853Y221061D01*
X333279Y220620D01*
X332838Y220045D01*
X332561Y219377D01*
X332532Y219159D01*
X334740D01*
Y221367D01*
D02*
G37*
G36*
X214000D02*
Y219159D01*
X216208D01*
X216179Y219377D01*
X215902Y220045D01*
X215461Y220620D01*
X214887Y221061D01*
X214218Y221338D01*
X214000Y221367D01*
D02*
G37*
G36*
X213000D02*
X212782Y221338D01*
X212113Y221061D01*
X211539Y220620D01*
X211098Y220045D01*
X210821Y219377D01*
X210792Y219159D01*
X213000D01*
Y221367D01*
D02*
G37*
G36*
X402437Y229687D02*
X391563D01*
Y218813D01*
X402437D01*
Y229687D01*
D02*
G37*
G36*
X262502Y219650D02*
X260294D01*
Y217442D01*
X260512Y217470D01*
X261181Y217747D01*
X261755Y218188D01*
X262196Y218763D01*
X262473Y219432D01*
X262502Y219650D01*
D02*
G37*
G36*
X259294D02*
X257086D01*
X257115Y219432D01*
X257392Y218763D01*
X257832Y218188D01*
X258407Y217747D01*
X259076Y217470D01*
X259294Y217442D01*
Y219650D01*
D02*
G37*
G36*
X249500Y219208D02*
Y217000D01*
X251708D01*
X251679Y217218D01*
X251402Y217887D01*
X250961Y218461D01*
X250387Y218902D01*
X249718Y219179D01*
X249500Y219208D01*
D02*
G37*
G36*
X248500D02*
X248282Y219179D01*
X247613Y218902D01*
X247039Y218461D01*
X246598Y217887D01*
X246321Y217218D01*
X246292Y217000D01*
X248500D01*
Y219208D01*
D02*
G37*
G36*
X281502Y218650D02*
X279294D01*
Y216442D01*
X279512Y216470D01*
X280181Y216747D01*
X280755Y217188D01*
X281196Y217763D01*
X281473Y218432D01*
X281502Y218650D01*
D02*
G37*
G36*
X278294D02*
X276086D01*
X276115Y218432D01*
X276392Y217763D01*
X276832Y217188D01*
X277407Y216747D01*
X278076Y216470D01*
X278294Y216442D01*
Y218650D01*
D02*
G37*
G36*
X308708Y218465D02*
X306500D01*
Y216257D01*
X306718Y216285D01*
X307387Y216562D01*
X307961Y217003D01*
X308402Y217578D01*
X308679Y218247D01*
X308708Y218465D01*
D02*
G37*
G36*
X305500D02*
X303292D01*
X303321Y218247D01*
X303598Y217578D01*
X304039Y217003D01*
X304613Y216562D01*
X305282Y216285D01*
X305500Y216257D01*
Y218465D01*
D02*
G37*
G36*
X156000Y218208D02*
Y216000D01*
X158208D01*
X158179Y216218D01*
X157902Y216887D01*
X157461Y217461D01*
X156887Y217902D01*
X156218Y218179D01*
X156000Y218208D01*
D02*
G37*
G36*
X155000D02*
X154782Y218179D01*
X154113Y217902D01*
X153539Y217461D01*
X153098Y216887D01*
X152821Y216218D01*
X152792Y216000D01*
X155000D01*
Y218208D01*
D02*
G37*
G36*
X337948Y218159D02*
X335740D01*
Y215951D01*
X335958Y215980D01*
X336627Y216257D01*
X337201Y216697D01*
X337642Y217272D01*
X337919Y217941D01*
X337948Y218159D01*
D02*
G37*
G36*
X334740D02*
X332532D01*
X332561Y217941D01*
X332838Y217272D01*
X333279Y216697D01*
X333853Y216257D01*
X334522Y215980D01*
X334740Y215951D01*
Y218159D01*
D02*
G37*
G36*
X216208D02*
X214000D01*
Y215951D01*
X214218Y215980D01*
X214887Y216257D01*
X215461Y216697D01*
X215902Y217272D01*
X216179Y217941D01*
X216208Y218159D01*
D02*
G37*
G36*
X213000D02*
X210792D01*
X210821Y217941D01*
X211098Y217272D01*
X211539Y216697D01*
X212113Y216257D01*
X212782Y215980D01*
X213000Y215951D01*
Y218159D01*
D02*
G37*
G36*
X251708Y216000D02*
X249500D01*
Y213792D01*
X249718Y213821D01*
X250387Y214098D01*
X250961Y214539D01*
X251402Y215113D01*
X251679Y215782D01*
X251708Y216000D01*
D02*
G37*
G36*
X248500D02*
X246292D01*
X246321Y215782D01*
X246598Y215113D01*
X247039Y214539D01*
X247613Y214098D01*
X248282Y213821D01*
X248500Y213792D01*
Y216000D01*
D02*
G37*
G36*
X285794Y215858D02*
Y213650D01*
X288002D01*
X287973Y213867D01*
X287696Y214536D01*
X287255Y215111D01*
X286681Y215552D01*
X286012Y215829D01*
X285794Y215858D01*
D02*
G37*
G36*
X284794D02*
X284576Y215829D01*
X283907Y215552D01*
X283332Y215111D01*
X282892Y214536D01*
X282614Y213867D01*
X282586Y213650D01*
X284794D01*
Y215858D01*
D02*
G37*
G36*
X298500Y215708D02*
Y213500D01*
X300708D01*
X300679Y213718D01*
X300402Y214387D01*
X299961Y214961D01*
X299387Y215402D01*
X298718Y215679D01*
X298500Y215708D01*
D02*
G37*
G36*
X297500D02*
X297282Y215679D01*
X296613Y215402D01*
X296039Y214961D01*
X295598Y214387D01*
X295321Y213718D01*
X295292Y213500D01*
X297500D01*
Y215708D01*
D02*
G37*
G36*
X208000D02*
Y213500D01*
X210208D01*
X210179Y213718D01*
X209902Y214387D01*
X209461Y214961D01*
X208887Y215402D01*
X208218Y215679D01*
X208000Y215708D01*
D02*
G37*
G36*
X207000D02*
X206782Y215679D01*
X206113Y215402D01*
X205539Y214961D01*
X205098Y214387D01*
X204821Y213718D01*
X204792Y213500D01*
X207000D01*
Y215708D01*
D02*
G37*
G36*
X158208Y215000D02*
X156000D01*
Y212792D01*
X156218Y212821D01*
X156887Y213098D01*
X157461Y213539D01*
X157902Y214113D01*
X158179Y214782D01*
X158208Y215000D01*
D02*
G37*
G36*
X155000D02*
X152792D01*
X152821Y214782D01*
X153098Y214113D01*
X153539Y213539D01*
X154113Y213098D01*
X154782Y212821D01*
X155000Y212792D01*
Y215000D01*
D02*
G37*
G36*
X343240Y213867D02*
Y211659D01*
X345448D01*
X345419Y211877D01*
X345142Y212545D01*
X344702Y213120D01*
X344127Y213561D01*
X343458Y213838D01*
X343240Y213867D01*
D02*
G37*
G36*
X342240D02*
X342022Y213838D01*
X341353Y213561D01*
X340779Y213120D01*
X340338Y212545D01*
X340061Y211877D01*
X340032Y211659D01*
X342240D01*
Y213867D01*
D02*
G37*
G36*
X352740Y213367D02*
Y211159D01*
X354948D01*
X354919Y211377D01*
X354642Y212046D01*
X354202Y212620D01*
X353627Y213061D01*
X352958Y213338D01*
X352740Y213367D01*
D02*
G37*
G36*
X351740D02*
X351522Y213338D01*
X350853Y213061D01*
X350279Y212620D01*
X349838Y212046D01*
X349561Y211377D01*
X349532Y211159D01*
X351740D01*
Y213367D01*
D02*
G37*
G36*
X87500Y219991D02*
X86338Y219838D01*
X85254Y219390D01*
X84324Y218676D01*
X83610Y217746D01*
X83162Y216662D01*
X83009Y215500D01*
X83162Y214338D01*
X83610Y213254D01*
X84324Y212324D01*
X85254Y211611D01*
X86338Y211162D01*
X87500Y211009D01*
X88662Y211162D01*
X89746Y211611D01*
X90676Y212324D01*
X91390Y213254D01*
X91838Y214338D01*
X91991Y215500D01*
X91838Y216662D01*
X91390Y217746D01*
X90676Y218676D01*
X89746Y219390D01*
X88662Y219838D01*
X87500Y219991D01*
D02*
G37*
G36*
X227500Y213208D02*
Y211000D01*
X229708D01*
X229679Y211218D01*
X229402Y211887D01*
X228961Y212461D01*
X228387Y212902D01*
X227718Y213179D01*
X227500Y213208D01*
D02*
G37*
G36*
X226500D02*
X226282Y213179D01*
X225613Y212902D01*
X225039Y212461D01*
X224598Y211887D01*
X224321Y211218D01*
X224292Y211000D01*
X226500D01*
Y213208D01*
D02*
G37*
G36*
X288002Y212650D02*
X285794D01*
Y210442D01*
X286012Y210470D01*
X286681Y210748D01*
X287255Y211188D01*
X287696Y211763D01*
X287973Y212432D01*
X288002Y212650D01*
D02*
G37*
G36*
X284794D02*
X282586D01*
X282614Y212432D01*
X282892Y211763D01*
X283332Y211188D01*
X283907Y210748D01*
X284576Y210470D01*
X284794Y210442D01*
Y212650D01*
D02*
G37*
G36*
X300708Y212500D02*
X298500D01*
Y210292D01*
X298718Y210321D01*
X299387Y210598D01*
X299961Y211039D01*
X300402Y211613D01*
X300679Y212282D01*
X300708Y212500D01*
D02*
G37*
G36*
X297500D02*
X295292D01*
X295321Y212282D01*
X295598Y211613D01*
X296039Y211039D01*
X296613Y210598D01*
X297282Y210321D01*
X297500Y210292D01*
Y212500D01*
D02*
G37*
G36*
X210208D02*
X208000D01*
Y210292D01*
X208218Y210321D01*
X208887Y210598D01*
X209461Y211039D01*
X209902Y211613D01*
X210179Y212282D01*
X210208Y212500D01*
D02*
G37*
G36*
X207000D02*
X204792D01*
X204821Y212282D01*
X205098Y211613D01*
X205539Y211039D01*
X206113Y210598D01*
X206782Y210321D01*
X207000Y210292D01*
Y212500D01*
D02*
G37*
G36*
X158500Y212335D02*
Y210127D01*
X160708D01*
X160679Y210345D01*
X160402Y211014D01*
X159961Y211588D01*
X159387Y212029D01*
X158718Y212306D01*
X158500Y212335D01*
D02*
G37*
G36*
X157500D02*
X157282Y212306D01*
X156613Y212029D01*
X156039Y211588D01*
X155598Y211014D01*
X155321Y210345D01*
X155292Y210127D01*
X157500D01*
Y212335D01*
D02*
G37*
G36*
X345448Y210659D02*
X343240D01*
Y208451D01*
X343458Y208479D01*
X344127Y208757D01*
X344702Y209197D01*
X345142Y209772D01*
X345419Y210441D01*
X345448Y210659D01*
D02*
G37*
G36*
X342240D02*
X340032D01*
X340061Y210441D01*
X340338Y209772D01*
X340779Y209197D01*
X341353Y208757D01*
X342022Y208479D01*
X342240Y208451D01*
Y210659D01*
D02*
G37*
G36*
X354948Y210159D02*
X352740D01*
Y207951D01*
X352958Y207979D01*
X353627Y208257D01*
X354202Y208697D01*
X354642Y209272D01*
X354919Y209941D01*
X354948Y210159D01*
D02*
G37*
G36*
X351740D02*
X349532D01*
X349561Y209941D01*
X349838Y209272D01*
X350279Y208697D01*
X350853Y208257D01*
X351522Y207979D01*
X351740Y207951D01*
Y210159D01*
D02*
G37*
G36*
X229708Y210000D02*
X227500D01*
Y207792D01*
X227718Y207821D01*
X228387Y208098D01*
X228961Y208539D01*
X229402Y209113D01*
X229679Y209782D01*
X229708Y210000D01*
D02*
G37*
G36*
X226500D02*
X224292D01*
X224321Y209782D01*
X224598Y209113D01*
X225039Y208539D01*
X225613Y208098D01*
X226282Y207821D01*
X226500Y207792D01*
Y210000D01*
D02*
G37*
G36*
X160708Y209127D02*
X158500D01*
Y206919D01*
X158718Y206948D01*
X159387Y207225D01*
X159961Y207666D01*
X160402Y208240D01*
X160679Y208909D01*
X160708Y209127D01*
D02*
G37*
G36*
X157500D02*
X155292D01*
X155321Y208909D01*
X155598Y208240D01*
X156039Y207666D01*
X156613Y207225D01*
X157282Y206948D01*
X157500Y206919D01*
Y209127D01*
D02*
G37*
G36*
X331240Y206367D02*
Y204159D01*
X333448D01*
X333419Y204377D01*
X333142Y205046D01*
X332701Y205620D01*
X332127Y206061D01*
X331458Y206338D01*
X331240Y206367D01*
D02*
G37*
G36*
X330240D02*
X330022Y206338D01*
X329353Y206061D01*
X328779Y205620D01*
X328338Y205046D01*
X328061Y204377D01*
X328032Y204159D01*
X330240D01*
Y206367D01*
D02*
G37*
G36*
X87500Y209991D02*
X86338Y209838D01*
X85254Y209389D01*
X84324Y208676D01*
X83610Y207746D01*
X83162Y206662D01*
X83009Y205500D01*
X83162Y204338D01*
X83610Y203254D01*
X84324Y202324D01*
X85254Y201610D01*
X86338Y201162D01*
X87500Y201009D01*
X88662Y201162D01*
X89746Y201610D01*
X90676Y202324D01*
X91390Y203254D01*
X91838Y204338D01*
X91991Y205500D01*
X91838Y206662D01*
X91390Y207746D01*
X90676Y208676D01*
X89746Y209389D01*
X88662Y209838D01*
X87500Y209991D01*
D02*
G37*
G36*
X333448Y203159D02*
X331240D01*
Y200951D01*
X331458Y200979D01*
X332127Y201257D01*
X332701Y201697D01*
X333142Y202272D01*
X333419Y202941D01*
X333448Y203159D01*
D02*
G37*
G36*
X330240D02*
X328032D01*
X328061Y202941D01*
X328338Y202272D01*
X328779Y201697D01*
X329353Y201257D01*
X330022Y200979D01*
X330240Y200951D01*
Y203159D01*
D02*
G37*
G36*
X255535Y202448D02*
Y200240D01*
X257743D01*
X257715Y200458D01*
X257438Y201127D01*
X256997Y201701D01*
X256422Y202142D01*
X255753Y202419D01*
X255535Y202448D01*
D02*
G37*
G36*
X254535D02*
X254317Y202419D01*
X253649Y202142D01*
X253074Y201701D01*
X252633Y201127D01*
X252356Y200458D01*
X252327Y200240D01*
X254535D01*
Y202448D01*
D02*
G37*
G36*
X108000Y201208D02*
Y199000D01*
X110208D01*
X110179Y199218D01*
X109902Y199887D01*
X109461Y200461D01*
X108887Y200902D01*
X108218Y201179D01*
X108000Y201208D01*
D02*
G37*
G36*
X107000D02*
X106782Y201179D01*
X106113Y200902D01*
X105539Y200461D01*
X105098Y199887D01*
X104821Y199218D01*
X104792Y199000D01*
X107000D01*
Y201208D01*
D02*
G37*
G36*
X338240Y199867D02*
Y197659D01*
X340448D01*
X340419Y197877D01*
X340142Y198546D01*
X339702Y199120D01*
X339127Y199561D01*
X338458Y199838D01*
X338240Y199867D01*
D02*
G37*
G36*
X337240D02*
X337022Y199838D01*
X336353Y199561D01*
X335779Y199120D01*
X335338Y198546D01*
X335061Y197877D01*
X335032Y197659D01*
X337240D01*
Y199867D01*
D02*
G37*
G36*
X257743Y199240D02*
X255535D01*
Y197032D01*
X255753Y197061D01*
X256422Y197338D01*
X256997Y197779D01*
X257438Y198353D01*
X257715Y199022D01*
X257743Y199240D01*
D02*
G37*
G36*
X254535D02*
X252327D01*
X252356Y199022D01*
X252633Y198353D01*
X253074Y197779D01*
X253649Y197338D01*
X254317Y197061D01*
X254535Y197032D01*
Y199240D01*
D02*
G37*
G36*
X91453Y199453D02*
X88000D01*
Y196000D01*
X91453D01*
Y199453D01*
D02*
G37*
G36*
X87000D02*
X83547D01*
Y196000D01*
X87000D01*
Y199453D01*
D02*
G37*
G36*
X110208Y198000D02*
X108000D01*
Y195792D01*
X108218Y195821D01*
X108887Y196098D01*
X109461Y196539D01*
X109902Y197113D01*
X110179Y197782D01*
X110208Y198000D01*
D02*
G37*
G36*
X107000D02*
X104792D01*
X104821Y197782D01*
X105098Y197113D01*
X105539Y196539D01*
X106113Y196098D01*
X106782Y195821D01*
X107000Y195792D01*
Y198000D01*
D02*
G37*
G36*
X340448Y196659D02*
X338240D01*
Y194451D01*
X338458Y194480D01*
X339127Y194757D01*
X339702Y195197D01*
X340142Y195772D01*
X340419Y196441D01*
X340448Y196659D01*
D02*
G37*
G36*
X337240D02*
X335032D01*
X335061Y196441D01*
X335338Y195772D01*
X335779Y195197D01*
X336353Y194757D01*
X337022Y194480D01*
X337240Y194451D01*
Y196659D01*
D02*
G37*
G36*
X91453Y195000D02*
X88000D01*
Y191547D01*
X91453D01*
Y195000D01*
D02*
G37*
G36*
X87000D02*
X83547D01*
Y191547D01*
X87000D01*
Y195000D01*
D02*
G37*
G36*
X254000Y193208D02*
Y191000D01*
X256208D01*
X256179Y191218D01*
X255902Y191887D01*
X255461Y192461D01*
X254887Y192902D01*
X254218Y193179D01*
X254000Y193208D01*
D02*
G37*
G36*
X253000D02*
X252782Y193179D01*
X252113Y192902D01*
X251539Y192461D01*
X251098Y191887D01*
X250821Y191218D01*
X250792Y191000D01*
X253000D01*
Y193208D01*
D02*
G37*
G36*
X241500Y198591D02*
X240312Y198434D01*
X239205Y197976D01*
X238254Y197246D01*
X237525Y196295D01*
X237066Y195188D01*
X236910Y194000D01*
X237066Y192812D01*
X237525Y191705D01*
X238254Y190754D01*
X239205Y190024D01*
X240312Y189566D01*
X241500Y189409D01*
X242688Y189566D01*
X243795Y190024D01*
X244746Y190754D01*
X245476Y191705D01*
X245934Y192812D01*
X246091Y194000D01*
X245934Y195188D01*
X245476Y196295D01*
X244746Y197246D01*
X243795Y197976D01*
X242688Y198434D01*
X241500Y198591D01*
D02*
G37*
G36*
X289994Y208591D02*
X288806Y208434D01*
X287699Y207976D01*
X286748Y207246D01*
X286018Y206295D01*
X285560Y205188D01*
X285403Y204000D01*
X285560Y202812D01*
X286018Y201705D01*
X286748Y200754D01*
X287445Y200219D01*
Y194017D01*
X287155Y193639D01*
X286827Y192848D01*
X286716Y192000D01*
X286827Y191152D01*
X287155Y190361D01*
X287676Y189682D01*
X288355Y189161D01*
X289145Y188834D01*
X289994Y188722D01*
X290842Y188834D01*
X291633Y189161D01*
X292312Y189682D01*
X292833Y190361D01*
X293160Y191152D01*
X293272Y192000D01*
X293160Y192848D01*
X292833Y193639D01*
X292543Y194017D01*
Y200219D01*
X293240Y200754D01*
X293969Y201705D01*
X294428Y202812D01*
X294584Y204000D01*
X294428Y205188D01*
X293969Y206295D01*
X293240Y207246D01*
X292289Y207976D01*
X291182Y208434D01*
X289994Y208591D01*
D02*
G37*
G36*
X274000D02*
X272812Y208434D01*
X271705Y207976D01*
X270754Y207246D01*
X270024Y206295D01*
X269566Y205188D01*
X269409Y204000D01*
X269566Y202812D01*
X270024Y201705D01*
X270754Y200754D01*
X271451Y200219D01*
Y194017D01*
X271161Y193639D01*
X270834Y192848D01*
X270722Y192000D01*
X270834Y191152D01*
X271161Y190361D01*
X271682Y189682D01*
X272361Y189161D01*
X273152Y188834D01*
X274000Y188722D01*
X274848Y188834D01*
X275639Y189161D01*
X276318Y189682D01*
X276839Y190361D01*
X277166Y191152D01*
X277278Y192000D01*
X277166Y192848D01*
X276839Y193639D01*
X276549Y194017D01*
Y200219D01*
X277246Y200754D01*
X277976Y201705D01*
X278434Y202812D01*
X278590Y204000D01*
X278434Y205188D01*
X277976Y206295D01*
X277246Y207246D01*
X276295Y207976D01*
X275188Y208434D01*
X274000Y208591D01*
D02*
G37*
G36*
X256208Y190000D02*
X254000D01*
Y187792D01*
X254218Y187821D01*
X254887Y188098D01*
X255461Y188539D01*
X255902Y189113D01*
X256179Y189782D01*
X256208Y190000D01*
D02*
G37*
G36*
X253000D02*
X250792D01*
X250821Y189782D01*
X251098Y189113D01*
X251539Y188539D01*
X252113Y188098D01*
X252782Y187821D01*
X253000Y187792D01*
Y190000D01*
D02*
G37*
G36*
X382000Y196090D02*
X380812Y195934D01*
X379705Y195475D01*
X378754Y194746D01*
X378025Y193795D01*
X377566Y192688D01*
X377410Y191500D01*
X377566Y190312D01*
X378025Y189205D01*
X378754Y188254D01*
X379705Y187524D01*
X380812Y187066D01*
X382000Y186909D01*
X383188Y187066D01*
X384295Y187524D01*
X385246Y188254D01*
X385976Y189205D01*
X386434Y190312D01*
X386591Y191500D01*
X386434Y192688D01*
X385976Y193795D01*
X385246Y194746D01*
X384295Y195475D01*
X383188Y195934D01*
X382000Y196090D01*
D02*
G37*
G36*
X207000Y188611D02*
Y186403D01*
X209208D01*
X209179Y186621D01*
X208902Y187290D01*
X208461Y187865D01*
X207887Y188305D01*
X207218Y188583D01*
X207000Y188611D01*
D02*
G37*
G36*
X201500Y202665D02*
X200652Y202553D01*
X199861Y202226D01*
X199182Y201705D01*
X198661Y201026D01*
X198334Y200235D01*
X198222Y199387D01*
X198334Y198538D01*
X198661Y197748D01*
X199182Y197069D01*
X199461Y196855D01*
Y182655D01*
X199334Y182348D01*
X199222Y181500D01*
X199334Y180652D01*
X199661Y179861D01*
X200182Y179182D01*
X200861Y178661D01*
X201652Y178334D01*
X202500Y178222D01*
X203348Y178334D01*
X204139Y178661D01*
X204818Y179182D01*
X205339Y179861D01*
X205666Y180652D01*
X205778Y181500D01*
X205666Y182348D01*
X205475Y182810D01*
X205665Y183066D01*
X205849Y183215D01*
X206000Y183195D01*
Y185903D01*
Y188611D01*
X205782Y188583D01*
X205113Y188305D01*
X204539Y187865D01*
X204098Y187290D01*
X204039Y187148D01*
X203539Y187248D01*
Y196855D01*
X203818Y197069D01*
X204339Y197748D01*
X204666Y198538D01*
X204778Y199387D01*
X204666Y200235D01*
X204339Y201026D01*
X203818Y201705D01*
X203139Y202226D01*
X202348Y202553D01*
X201500Y202665D01*
D02*
G37*
G36*
X209208Y185403D02*
X207000D01*
Y183195D01*
X207218Y183224D01*
X207887Y183501D01*
X208461Y183942D01*
X208902Y184516D01*
X209179Y185185D01*
X209208Y185403D01*
D02*
G37*
G36*
X261500Y185208D02*
Y183000D01*
X263708D01*
X263679Y183218D01*
X263402Y183887D01*
X262961Y184461D01*
X262387Y184902D01*
X261718Y185179D01*
X261500Y185208D01*
D02*
G37*
G36*
X260500D02*
X260282Y185179D01*
X259613Y184902D01*
X259039Y184461D01*
X258598Y183887D01*
X258321Y183218D01*
X258292Y183000D01*
X260500D01*
Y185208D01*
D02*
G37*
G36*
X234500Y184708D02*
Y182500D01*
X236708D01*
X236679Y182718D01*
X236402Y183387D01*
X235961Y183961D01*
X235387Y184402D01*
X234718Y184679D01*
X234500Y184708D01*
D02*
G37*
G36*
X233500D02*
X233282Y184679D01*
X232613Y184402D01*
X232039Y183961D01*
X231598Y183387D01*
X231321Y182718D01*
X231292Y182500D01*
X233500D01*
Y184708D01*
D02*
G37*
G36*
X220500D02*
Y182500D01*
X222708D01*
X222679Y182718D01*
X222402Y183387D01*
X221961Y183961D01*
X221387Y184402D01*
X220718Y184679D01*
X220500Y184708D01*
D02*
G37*
G36*
X219500D02*
X219282Y184679D01*
X218613Y184402D01*
X218039Y183961D01*
X217598Y183387D01*
X217321Y182718D01*
X217292Y182500D01*
X219500D01*
Y184708D01*
D02*
G37*
G36*
X213500Y182896D02*
Y180688D01*
X215708D01*
X215679Y180906D01*
X215402Y181575D01*
X214961Y182149D01*
X214387Y182590D01*
X213718Y182867D01*
X213500Y182896D01*
D02*
G37*
G36*
X212500D02*
X212282Y182867D01*
X211613Y182590D01*
X211039Y182149D01*
X210598Y181575D01*
X210321Y180906D01*
X210292Y180688D01*
X212500D01*
Y182896D01*
D02*
G37*
G36*
X263708Y182000D02*
X261500D01*
Y179792D01*
X261718Y179821D01*
X262387Y180098D01*
X262961Y180539D01*
X263402Y181113D01*
X263679Y181782D01*
X263708Y182000D01*
D02*
G37*
G36*
X260500D02*
X258292D01*
X258321Y181782D01*
X258598Y181113D01*
X259039Y180539D01*
X259613Y180098D01*
X260282Y179821D01*
X260500Y179792D01*
Y182000D01*
D02*
G37*
G36*
X236708Y181500D02*
X234500D01*
Y179292D01*
X234718Y179321D01*
X235387Y179598D01*
X235961Y180039D01*
X236402Y180613D01*
X236679Y181282D01*
X236708Y181500D01*
D02*
G37*
G36*
X233500D02*
X231292D01*
X231321Y181282D01*
X231598Y180613D01*
X232039Y180039D01*
X232613Y179598D01*
X233282Y179321D01*
X233500Y179292D01*
Y181500D01*
D02*
G37*
G36*
X222708D02*
X220500D01*
Y179292D01*
X220718Y179321D01*
X221387Y179598D01*
X221961Y180039D01*
X222402Y180613D01*
X222679Y181282D01*
X222708Y181500D01*
D02*
G37*
G36*
X219500D02*
X217292D01*
X217321Y181282D01*
X217598Y180613D01*
X218039Y180039D01*
X218613Y179598D01*
X219282Y179321D01*
X219500Y179292D01*
Y181500D01*
D02*
G37*
G36*
X299000Y180546D02*
Y178339D01*
X301208D01*
X301179Y178557D01*
X300902Y179225D01*
X300461Y179800D01*
X299887Y180241D01*
X299218Y180518D01*
X299000Y180546D01*
D02*
G37*
G36*
X298000D02*
X297782Y180518D01*
X297113Y180241D01*
X296539Y179800D01*
X296098Y179225D01*
X295821Y178557D01*
X295792Y178339D01*
X298000D01*
Y180546D01*
D02*
G37*
G36*
X215708Y179688D02*
X213500D01*
Y177480D01*
X213718Y177509D01*
X214387Y177786D01*
X214961Y178227D01*
X215402Y178801D01*
X215679Y179470D01*
X215708Y179688D01*
D02*
G37*
G36*
X212500D02*
X210292D01*
X210321Y179470D01*
X210598Y178801D01*
X211039Y178227D01*
X211613Y177786D01*
X212282Y177509D01*
X212500Y177480D01*
Y179688D01*
D02*
G37*
G36*
X248000Y178743D02*
X247152Y178631D01*
X246361Y178303D01*
X245682Y177782D01*
X245326Y177319D01*
X237532D01*
X237318Y177597D01*
X236639Y178118D01*
X235848Y178446D01*
X235000Y178558D01*
X234152Y178446D01*
X233361Y178118D01*
X232682Y177597D01*
X232161Y176918D01*
X231834Y176128D01*
X231722Y175279D01*
X231834Y174431D01*
X232161Y173641D01*
X232682Y172962D01*
X233361Y172441D01*
X234152Y172113D01*
X235000Y172002D01*
X235848Y172113D01*
X236639Y172441D01*
X237318Y172962D01*
X237532Y173240D01*
X245610D01*
X245682Y173147D01*
X246361Y172626D01*
X247152Y172298D01*
X248000Y172187D01*
X248848Y172298D01*
X249639Y172626D01*
X250318Y173147D01*
X250839Y173826D01*
X251166Y174616D01*
X251278Y175465D01*
X251166Y176313D01*
X250839Y177104D01*
X250318Y177782D01*
X249639Y178303D01*
X248848Y178631D01*
X248000Y178743D01*
D02*
G37*
G36*
X301208Y177339D02*
X299000D01*
Y175131D01*
X299218Y175159D01*
X299887Y175436D01*
X300461Y175877D01*
X300902Y176452D01*
X301179Y177121D01*
X301208Y177339D01*
D02*
G37*
G36*
X298000D02*
X295792D01*
X295821Y177121D01*
X296098Y176452D01*
X296539Y175877D01*
X297113Y175436D01*
X297782Y175159D01*
X298000Y175131D01*
Y177339D01*
D02*
G37*
G36*
X108000Y177217D02*
Y175009D01*
X110208D01*
X110179Y175227D01*
X109902Y175896D01*
X109461Y176470D01*
X108887Y176911D01*
X108218Y177188D01*
X108000Y177217D01*
D02*
G37*
G36*
X107000D02*
X106782Y177188D01*
X106113Y176911D01*
X105539Y176470D01*
X105098Y175896D01*
X104821Y175227D01*
X104792Y175009D01*
X107000D01*
Y177217D01*
D02*
G37*
G36*
X364760Y176988D02*
Y174780D01*
X366968D01*
X366939Y174998D01*
X366662Y175667D01*
X366221Y176241D01*
X365647Y176682D01*
X364978Y176959D01*
X364760Y176988D01*
D02*
G37*
G36*
X363760D02*
X363542Y176959D01*
X362873Y176682D01*
X362298Y176241D01*
X361858Y175667D01*
X361581Y174998D01*
X361552Y174780D01*
X363760D01*
Y176988D01*
D02*
G37*
G36*
X110208Y174009D02*
X108000D01*
Y171801D01*
X108218Y171830D01*
X108887Y172107D01*
X109461Y172548D01*
X109902Y173122D01*
X110179Y173791D01*
X110208Y174009D01*
D02*
G37*
G36*
X107000D02*
X104792D01*
X104821Y173791D01*
X105098Y173122D01*
X105539Y172548D01*
X106113Y172107D01*
X106782Y171830D01*
X107000Y171801D01*
Y174009D01*
D02*
G37*
G36*
X366968Y173780D02*
X364760D01*
Y171572D01*
X364978Y171600D01*
X365647Y171878D01*
X366221Y172318D01*
X366662Y172893D01*
X366939Y173562D01*
X366968Y173780D01*
D02*
G37*
G36*
X363760D02*
X361552D01*
X361581Y173562D01*
X361858Y172893D01*
X362298Y172318D01*
X362873Y171878D01*
X363542Y171600D01*
X363760Y171572D01*
Y173780D01*
D02*
G37*
G36*
X326980Y172867D02*
Y170659D01*
X329188D01*
X329159Y170877D01*
X328882Y171546D01*
X328442Y172120D01*
X327867Y172561D01*
X327198Y172838D01*
X326980Y172867D01*
D02*
G37*
G36*
X325980D02*
X325762Y172838D01*
X325094Y172561D01*
X324519Y172120D01*
X324078Y171546D01*
X323801Y170877D01*
X323772Y170659D01*
X325980D01*
Y172867D01*
D02*
G37*
G36*
X342062Y172208D02*
Y170000D01*
X344270D01*
X344241Y170218D01*
X343964Y170887D01*
X343524Y171461D01*
X342949Y171902D01*
X342280Y172179D01*
X342062Y172208D01*
D02*
G37*
G36*
X341062D02*
X340844Y172179D01*
X340175Y171902D01*
X339601Y171461D01*
X339160Y170887D01*
X338883Y170218D01*
X338854Y170000D01*
X341062D01*
Y172208D01*
D02*
G37*
G36*
X335500D02*
Y170000D01*
X337708D01*
X337679Y170218D01*
X337402Y170887D01*
X336961Y171461D01*
X336387Y171902D01*
X335718Y172179D01*
X335500Y172208D01*
D02*
G37*
G36*
X334500D02*
X334282Y172179D01*
X333613Y171902D01*
X333039Y171461D01*
X332598Y170887D01*
X332321Y170218D01*
X332292Y170000D01*
X334500D01*
Y172208D01*
D02*
G37*
G36*
X113965Y171208D02*
Y169000D01*
X116173D01*
X116144Y169218D01*
X115867Y169887D01*
X115426Y170461D01*
X114851Y170902D01*
X114182Y171179D01*
X113965Y171208D01*
D02*
G37*
G36*
X112965D02*
X112747Y171179D01*
X112078Y170902D01*
X111503Y170461D01*
X111062Y169887D01*
X110785Y169218D01*
X110757Y169000D01*
X112965D01*
Y171208D01*
D02*
G37*
G36*
X398000Y171020D02*
Y167500D01*
X401520D01*
X401447Y168058D01*
X401039Y169043D01*
X400389Y169889D01*
X399543Y170539D01*
X398558Y170947D01*
X398000Y171020D01*
D02*
G37*
G36*
X397000D02*
X396442Y170947D01*
X395457Y170539D01*
X394611Y169889D01*
X393961Y169043D01*
X393553Y168058D01*
X393480Y167500D01*
X397000D01*
Y171020D01*
D02*
G37*
G36*
X329188Y169659D02*
X326980D01*
Y167451D01*
X327198Y167480D01*
X327867Y167757D01*
X328442Y168197D01*
X328882Y168772D01*
X329159Y169441D01*
X329188Y169659D01*
D02*
G37*
G36*
X325980D02*
X323772D01*
X323801Y169441D01*
X324078Y168772D01*
X324519Y168197D01*
X325094Y167757D01*
X325762Y167480D01*
X325980Y167451D01*
Y169659D01*
D02*
G37*
G36*
X143892Y169320D02*
Y167112D01*
X146100D01*
X146071Y167330D01*
X145794Y167999D01*
X145353Y168573D01*
X144779Y169014D01*
X144110Y169291D01*
X143892Y169320D01*
D02*
G37*
G36*
X142892D02*
X142674Y169291D01*
X142005Y169014D01*
X141431Y168573D01*
X140990Y167999D01*
X140713Y167330D01*
X140684Y167112D01*
X142892D01*
Y169320D01*
D02*
G37*
G36*
X344270Y169000D02*
X342062D01*
Y166792D01*
X342280Y166821D01*
X342949Y167098D01*
X343524Y167539D01*
X343964Y168113D01*
X344241Y168782D01*
X344270Y169000D01*
D02*
G37*
G36*
X341062D02*
X338854D01*
X338883Y168782D01*
X339160Y168113D01*
X339601Y167539D01*
X340175Y167098D01*
X340844Y166821D01*
X341062Y166792D01*
Y169000D01*
D02*
G37*
G36*
X337708D02*
X335500D01*
Y166792D01*
X335718Y166821D01*
X336387Y167098D01*
X336961Y167539D01*
X337402Y168113D01*
X337679Y168782D01*
X337708Y169000D01*
D02*
G37*
G36*
X334500D02*
X332292D01*
X332321Y168782D01*
X332598Y168113D01*
X333039Y167539D01*
X333613Y167098D01*
X334282Y166821D01*
X334500Y166792D01*
Y169000D01*
D02*
G37*
G36*
X225500Y168708D02*
Y166500D01*
X227708D01*
X227679Y166718D01*
X227402Y167387D01*
X226961Y167961D01*
X226387Y168402D01*
X225718Y168679D01*
X225500Y168708D01*
D02*
G37*
G36*
X224500D02*
X224282Y168679D01*
X223613Y168402D01*
X223039Y167961D01*
X222598Y167387D01*
X222321Y166718D01*
X222292Y166500D01*
X224500D01*
Y168708D01*
D02*
G37*
G36*
X354000Y168208D02*
Y166000D01*
X356208D01*
X356179Y166218D01*
X355902Y166887D01*
X355461Y167461D01*
X354887Y167902D01*
X354218Y168179D01*
X354000Y168208D01*
D02*
G37*
G36*
X353000D02*
X352782Y168179D01*
X352113Y167902D01*
X351539Y167461D01*
X351098Y166887D01*
X350821Y166218D01*
X350792Y166000D01*
X353000D01*
Y168208D01*
D02*
G37*
G36*
X347500D02*
Y166000D01*
X349708D01*
X349679Y166218D01*
X349402Y166887D01*
X348961Y167461D01*
X348387Y167902D01*
X347718Y168179D01*
X347500Y168208D01*
D02*
G37*
G36*
X346500D02*
X346282Y168179D01*
X345613Y167902D01*
X345039Y167461D01*
X344598Y166887D01*
X344321Y166218D01*
X344292Y166000D01*
X346500D01*
Y168208D01*
D02*
G37*
G36*
X116173Y168000D02*
X113965D01*
Y165792D01*
X114182Y165821D01*
X114851Y166098D01*
X115426Y166539D01*
X115867Y167113D01*
X116144Y167782D01*
X116173Y168000D01*
D02*
G37*
G36*
X112965D02*
X110757D01*
X110785Y167782D01*
X111062Y167113D01*
X111503Y166539D01*
X112078Y166098D01*
X112747Y165821D01*
X112965Y165792D01*
Y168000D01*
D02*
G37*
G36*
X126500Y183278D02*
X125652Y183166D01*
X124861Y182839D01*
X124182Y182318D01*
X123661Y181639D01*
X123334Y180848D01*
X123222Y180000D01*
X123334Y179152D01*
X123661Y178361D01*
X124182Y177682D01*
X124861Y177161D01*
X125652Y176834D01*
X125961Y176793D01*
Y171312D01*
X125682Y171098D01*
X125161Y170419D01*
X124834Y169628D01*
X124722Y168780D01*
X124834Y167931D01*
X125161Y167141D01*
X125682Y166462D01*
X126361Y165941D01*
X127152Y165613D01*
X128000Y165502D01*
X128848Y165613D01*
X129639Y165941D01*
X130318Y166462D01*
X130839Y167141D01*
X131166Y167931D01*
X131278Y168780D01*
X131166Y169628D01*
X130839Y170419D01*
X130318Y171098D01*
X130039Y171312D01*
Y178500D01*
X129884Y179280D01*
X129716Y179531D01*
X129778Y180000D01*
X129666Y180848D01*
X129339Y181639D01*
X128818Y182318D01*
X128139Y182839D01*
X127348Y183166D01*
X126500Y183278D01*
D02*
G37*
G36*
X203500Y167375D02*
Y165167D01*
X205708D01*
X205679Y165384D01*
X205402Y166053D01*
X204961Y166628D01*
X204387Y167069D01*
X203718Y167346D01*
X203500Y167375D01*
D02*
G37*
G36*
X202500D02*
X202282Y167346D01*
X201613Y167069D01*
X201039Y166628D01*
X200598Y166053D01*
X200321Y165384D01*
X200292Y165167D01*
X202500D01*
Y167375D01*
D02*
G37*
G36*
X270000Y166668D02*
Y164460D01*
X272208D01*
X272179Y164678D01*
X271902Y165347D01*
X271461Y165921D01*
X270887Y166362D01*
X270218Y166639D01*
X270000Y166668D01*
D02*
G37*
G36*
X269000D02*
X268782Y166639D01*
X268113Y166362D01*
X267539Y165921D01*
X267098Y165347D01*
X266821Y164678D01*
X266792Y164460D01*
X269000D01*
Y166668D01*
D02*
G37*
G36*
X257000D02*
Y164460D01*
X259208D01*
X259179Y164678D01*
X258902Y165347D01*
X258461Y165921D01*
X257887Y166362D01*
X257218Y166639D01*
X257000Y166668D01*
D02*
G37*
G36*
X256000D02*
X255782Y166639D01*
X255113Y166362D01*
X254539Y165921D01*
X254098Y165347D01*
X253821Y164678D01*
X253792Y164460D01*
X256000D01*
Y166668D01*
D02*
G37*
G36*
X146100Y166112D02*
X143892D01*
Y163904D01*
X144110Y163933D01*
X144779Y164210D01*
X145353Y164650D01*
X145794Y165225D01*
X146071Y165894D01*
X146100Y166112D01*
D02*
G37*
G36*
X142892D02*
X140684D01*
X140713Y165894D01*
X140990Y165225D01*
X141431Y164650D01*
X142005Y164210D01*
X142674Y163933D01*
X142892Y163904D01*
Y166112D01*
D02*
G37*
G36*
X227708Y165500D02*
X225500D01*
Y163292D01*
X225718Y163321D01*
X226387Y163598D01*
X226961Y164039D01*
X227402Y164613D01*
X227679Y165282D01*
X227708Y165500D01*
D02*
G37*
G36*
X224500D02*
X222292D01*
X222321Y165282D01*
X222598Y164613D01*
X223039Y164039D01*
X223613Y163598D01*
X224282Y163321D01*
X224500Y163292D01*
Y165500D01*
D02*
G37*
G36*
X401520Y166500D02*
X398000D01*
Y162980D01*
X398558Y163053D01*
X399543Y163461D01*
X400389Y164111D01*
X401039Y164957D01*
X401447Y165942D01*
X401520Y166500D01*
D02*
G37*
G36*
X397000D02*
X393480D01*
X393553Y165942D01*
X393961Y164957D01*
X394611Y164111D01*
X395457Y163461D01*
X396442Y163053D01*
X397000Y162980D01*
Y166500D01*
D02*
G37*
G36*
X356208Y165000D02*
X354000D01*
Y162792D01*
X354218Y162821D01*
X354887Y163098D01*
X355461Y163539D01*
X355902Y164113D01*
X356179Y164782D01*
X356208Y165000D01*
D02*
G37*
G36*
X353000D02*
X350792D01*
X350821Y164782D01*
X351098Y164113D01*
X351539Y163539D01*
X352113Y163098D01*
X352782Y162821D01*
X353000Y162792D01*
Y165000D01*
D02*
G37*
G36*
X349708D02*
X347500D01*
Y162792D01*
X347718Y162821D01*
X348387Y163098D01*
X348961Y163539D01*
X349402Y164113D01*
X349679Y164782D01*
X349708Y165000D01*
D02*
G37*
G36*
X346500D02*
X344292D01*
X344321Y164782D01*
X344598Y164113D01*
X345039Y163539D01*
X345613Y163098D01*
X346282Y162821D01*
X346500Y162792D01*
Y165000D01*
D02*
G37*
G36*
X205708Y164167D02*
X203500D01*
Y161959D01*
X203718Y161987D01*
X204387Y162264D01*
X204961Y162705D01*
X205402Y163280D01*
X205679Y163949D01*
X205708Y164167D01*
D02*
G37*
G36*
X202500D02*
X200292D01*
X200321Y163949D01*
X200598Y163280D01*
X201039Y162705D01*
X201613Y162264D01*
X202282Y161987D01*
X202500Y161959D01*
Y164167D01*
D02*
G37*
G36*
X272208Y163460D02*
X270000D01*
Y161252D01*
X270218Y161281D01*
X270887Y161558D01*
X271461Y161998D01*
X271902Y162573D01*
X272179Y163242D01*
X272208Y163460D01*
D02*
G37*
G36*
X269000D02*
X266792D01*
X266821Y163242D01*
X267098Y162573D01*
X267539Y161998D01*
X268113Y161558D01*
X268782Y161281D01*
X269000Y161252D01*
Y163460D01*
D02*
G37*
G36*
X259208D02*
X257000D01*
Y161252D01*
X257218Y161281D01*
X257887Y161558D01*
X258461Y161998D01*
X258902Y162573D01*
X259179Y163242D01*
X259208Y163460D01*
D02*
G37*
G36*
X256000D02*
X253792D01*
X253821Y163242D01*
X254098Y162573D01*
X254539Y161998D01*
X255113Y161558D01*
X255782Y161281D01*
X256000Y161252D01*
Y163460D01*
D02*
G37*
G36*
X235000Y169665D02*
X234152Y169553D01*
X233361Y169226D01*
X232682Y168705D01*
X232161Y168026D01*
X231834Y167235D01*
X231722Y166387D01*
X231834Y165538D01*
X232161Y164748D01*
X232682Y164069D01*
X233361Y163548D01*
X234152Y163221D01*
X235000Y163109D01*
X235848Y163221D01*
X236639Y163548D01*
X237318Y164069D01*
X237532Y164348D01*
X244269D01*
X244768Y163848D01*
X244722Y163500D01*
X244834Y162652D01*
X245161Y161861D01*
X245682Y161182D01*
X246361Y160661D01*
X247152Y160334D01*
X248000Y160222D01*
X248848Y160334D01*
X249639Y160661D01*
X250318Y161182D01*
X250839Y161861D01*
X251166Y162652D01*
X251278Y163500D01*
X251166Y164348D01*
X250839Y165139D01*
X250318Y165818D01*
X249639Y166339D01*
X248848Y166666D01*
X248000Y166778D01*
X247652Y166732D01*
X246555Y167829D01*
X245894Y168271D01*
X245113Y168426D01*
X237532D01*
X237318Y168705D01*
X236639Y169226D01*
X235848Y169553D01*
X235000Y169665D01*
D02*
G37*
G36*
X219000Y162208D02*
Y160000D01*
X221208D01*
X221179Y160218D01*
X220902Y160887D01*
X220461Y161461D01*
X219887Y161902D01*
X219218Y162179D01*
X219000Y162208D01*
D02*
G37*
G36*
X218000D02*
X217782Y162179D01*
X217113Y161902D01*
X216539Y161461D01*
X216098Y160887D01*
X215821Y160218D01*
X215792Y160000D01*
X218000D01*
Y162208D01*
D02*
G37*
G36*
X221208Y159000D02*
X219000D01*
Y156792D01*
X219218Y156821D01*
X219887Y157098D01*
X220461Y157539D01*
X220902Y158113D01*
X221179Y158782D01*
X221208Y159000D01*
D02*
G37*
G36*
X218000D02*
X215792D01*
X215821Y158782D01*
X216098Y158113D01*
X216539Y157539D01*
X217113Y157098D01*
X217782Y156821D01*
X218000Y156792D01*
Y159000D01*
D02*
G37*
G36*
X379500Y158140D02*
Y155932D01*
X381708D01*
X381679Y156150D01*
X381402Y156819D01*
X380961Y157394D01*
X380387Y157834D01*
X379718Y158112D01*
X379500Y158140D01*
D02*
G37*
G36*
X378500D02*
X378282Y158112D01*
X377613Y157834D01*
X377039Y157394D01*
X376598Y156819D01*
X376321Y156150D01*
X376292Y155932D01*
X378500D01*
Y158140D01*
D02*
G37*
G36*
X131236Y157831D02*
Y155623D01*
X133444D01*
X133415Y155841D01*
X133138Y156510D01*
X132697Y157084D01*
X132123Y157525D01*
X131454Y157802D01*
X131236Y157831D01*
D02*
G37*
G36*
X130236D02*
X130018Y157802D01*
X129349Y157525D01*
X128775Y157084D01*
X128334Y156510D01*
X128057Y155841D01*
X128028Y155623D01*
X130236D01*
Y157831D01*
D02*
G37*
G36*
X381708Y154932D02*
X379500D01*
Y152724D01*
X379718Y152753D01*
X380387Y153030D01*
X380961Y153471D01*
X381402Y154045D01*
X381679Y154714D01*
X381708Y154932D01*
D02*
G37*
G36*
X378500D02*
X376292D01*
X376321Y154714D01*
X376598Y154045D01*
X377039Y153471D01*
X377613Y153030D01*
X378282Y152753D01*
X378500Y152724D01*
Y154932D01*
D02*
G37*
G36*
X133444Y154623D02*
X131236D01*
Y152415D01*
X131454Y152444D01*
X132123Y152721D01*
X132697Y153162D01*
X133138Y153736D01*
X133415Y154405D01*
X133444Y154623D01*
D02*
G37*
G36*
X130236D02*
X128028D01*
X128057Y154405D01*
X128334Y153736D01*
X128775Y153162D01*
X129349Y152721D01*
X130018Y152444D01*
X130236Y152415D01*
Y154623D01*
D02*
G37*
G36*
X137465Y152208D02*
Y150000D01*
X139673D01*
X139644Y150218D01*
X139367Y150887D01*
X138926Y151461D01*
X138351Y151902D01*
X137682Y152179D01*
X137465Y152208D01*
D02*
G37*
G36*
X136465D02*
X136247Y152179D01*
X135578Y151902D01*
X135003Y151461D01*
X134562Y150887D01*
X134285Y150218D01*
X134257Y150000D01*
X136465D01*
Y152208D01*
D02*
G37*
G36*
X235000Y160278D02*
X234152Y160166D01*
X233361Y159839D01*
X232682Y159318D01*
X232161Y158639D01*
X231834Y157848D01*
X231722Y157000D01*
X231834Y156152D01*
X232161Y155361D01*
X232682Y154682D01*
X233361Y154161D01*
X234152Y153834D01*
X235000Y153722D01*
X235348Y153768D01*
X236058Y153058D01*
X236720Y152616D01*
X237500Y152461D01*
X245419D01*
X245525Y152205D01*
X246254Y151254D01*
X247205Y150524D01*
X248312Y150066D01*
X249500Y149909D01*
X250688Y150066D01*
X251795Y150524D01*
X252746Y151254D01*
X253475Y152205D01*
X253934Y153312D01*
X254090Y154500D01*
X253934Y155688D01*
X253475Y156795D01*
X252746Y157746D01*
X251795Y158475D01*
X250688Y158934D01*
X249500Y159090D01*
X248312Y158934D01*
X247205Y158475D01*
X246254Y157746D01*
X245525Y156795D01*
X245419Y156539D01*
X238701D01*
X238278Y157000D01*
X238166Y157848D01*
X237839Y158639D01*
X237318Y159318D01*
X236639Y159839D01*
X235848Y160166D01*
X235000Y160278D01*
D02*
G37*
G36*
X175500Y151095D02*
Y148887D01*
X177708D01*
X177679Y149105D01*
X177402Y149774D01*
X176961Y150348D01*
X176387Y150789D01*
X175718Y151066D01*
X175500Y151095D01*
D02*
G37*
G36*
X174500D02*
X174282Y151066D01*
X173613Y150789D01*
X173039Y150348D01*
X172598Y149774D01*
X172321Y149105D01*
X172292Y148887D01*
X174500D01*
Y151095D01*
D02*
G37*
G36*
X167500Y149208D02*
Y147000D01*
X169708D01*
X169679Y147218D01*
X169402Y147887D01*
X168961Y148461D01*
X168387Y148902D01*
X167718Y149179D01*
X167500Y149208D01*
D02*
G37*
G36*
X166500D02*
X166282Y149179D01*
X165613Y148902D01*
X165039Y148461D01*
X164598Y147887D01*
X164321Y147218D01*
X164292Y147000D01*
X166500D01*
Y149208D01*
D02*
G37*
G36*
X139673Y149000D02*
X137465D01*
Y146792D01*
X137682Y146821D01*
X138351Y147098D01*
X138926Y147539D01*
X139367Y148113D01*
X139644Y148782D01*
X139673Y149000D01*
D02*
G37*
G36*
X136465D02*
X134257D01*
X134285Y148782D01*
X134562Y148113D01*
X135003Y147539D01*
X135578Y147098D01*
X136247Y146821D01*
X136465Y146792D01*
Y149000D01*
D02*
G37*
G36*
X177708Y147887D02*
X175500D01*
Y145679D01*
X175718Y145708D01*
X176387Y145985D01*
X176961Y146425D01*
X177402Y147000D01*
X177679Y147669D01*
X177708Y147887D01*
D02*
G37*
G36*
X174500D02*
X172292D01*
X172321Y147669D01*
X172598Y147000D01*
X173039Y146425D01*
X173613Y145985D01*
X174282Y145708D01*
X174500Y145679D01*
Y147887D01*
D02*
G37*
G36*
X169708Y146000D02*
X167500D01*
Y143792D01*
X167718Y143821D01*
X168387Y144098D01*
X168961Y144539D01*
X169402Y145113D01*
X169679Y145782D01*
X169708Y146000D01*
D02*
G37*
G36*
X166500D02*
X164292D01*
X164321Y145782D01*
X164598Y145113D01*
X165039Y144539D01*
X165613Y144098D01*
X166282Y143821D01*
X166500Y143792D01*
Y146000D01*
D02*
G37*
G36*
X299107Y145708D02*
Y143500D01*
X301315D01*
X301286Y143718D01*
X301009Y144387D01*
X300568Y144961D01*
X299994Y145402D01*
X299325Y145679D01*
X299107Y145708D01*
D02*
G37*
G36*
X298107D02*
X297889Y145679D01*
X297220Y145402D01*
X296645Y144961D01*
X296205Y144387D01*
X295928Y143718D01*
X295899Y143500D01*
X298107D01*
Y145708D01*
D02*
G37*
G36*
X161035Y142708D02*
Y140500D01*
X163243D01*
X163215Y140718D01*
X162938Y141387D01*
X162497Y141961D01*
X161922Y142402D01*
X161253Y142679D01*
X161035Y142708D01*
D02*
G37*
G36*
X160035D02*
X159818Y142679D01*
X159149Y142402D01*
X158574Y141961D01*
X158133Y141387D01*
X157856Y140718D01*
X157827Y140500D01*
X160035D01*
Y142708D01*
D02*
G37*
G36*
X301315Y142500D02*
X299107D01*
Y140292D01*
X299325Y140321D01*
X299994Y140598D01*
X300568Y141039D01*
X301009Y141613D01*
X301286Y142282D01*
X301315Y142500D01*
D02*
G37*
G36*
X298107D02*
X295899D01*
X295928Y142282D01*
X296205Y141613D01*
X296645Y141039D01*
X297220Y140598D01*
X297889Y140321D01*
X298107Y140292D01*
Y142500D01*
D02*
G37*
G36*
X175500Y141595D02*
Y139387D01*
X177708D01*
X177679Y139605D01*
X177402Y140274D01*
X176961Y140848D01*
X176387Y141289D01*
X175718Y141566D01*
X175500Y141595D01*
D02*
G37*
G36*
X174500D02*
X174282Y141566D01*
X173613Y141289D01*
X173039Y140848D01*
X172598Y140274D01*
X172321Y139605D01*
X172292Y139387D01*
X174500D01*
Y141595D01*
D02*
G37*
G36*
X227500Y156651D02*
X226652Y156539D01*
X225861Y156212D01*
X225182Y155691D01*
X224661Y155012D01*
X224334Y154221D01*
X224222Y153373D01*
X224334Y152524D01*
X224661Y151734D01*
X225053Y151223D01*
Y151000D01*
X225239Y150064D01*
X225770Y149270D01*
X230541Y144498D01*
X230410Y143500D01*
X230566Y142312D01*
X231025Y141205D01*
X231754Y140254D01*
X232705Y139524D01*
X233812Y139066D01*
X235000Y138909D01*
X236188Y139066D01*
X237295Y139524D01*
X238246Y140254D01*
X238976Y141205D01*
X239434Y142312D01*
X239591Y143500D01*
X239434Y144688D01*
X238976Y145795D01*
X238246Y146746D01*
X237295Y147476D01*
X236188Y147934D01*
X235000Y148091D01*
X234002Y147959D01*
X230290Y151671D01*
X230339Y151734D01*
X230666Y152524D01*
X230778Y153373D01*
X230666Y154221D01*
X230339Y155012D01*
X229818Y155691D01*
X229139Y156212D01*
X228348Y156539D01*
X227500Y156651D01*
D02*
G37*
G36*
X127500Y140708D02*
Y138500D01*
X129708D01*
X129679Y138718D01*
X129402Y139387D01*
X128961Y139961D01*
X128387Y140402D01*
X127718Y140679D01*
X127500Y140708D01*
D02*
G37*
G36*
X126500D02*
X126282Y140679D01*
X125613Y140402D01*
X125039Y139961D01*
X124598Y139387D01*
X124321Y138718D01*
X124292Y138500D01*
X126500D01*
Y140708D01*
D02*
G37*
G36*
X99437Y148437D02*
X88563D01*
Y137563D01*
X99437D01*
Y148437D01*
D02*
G37*
G36*
X113685Y148484D02*
X112266Y148297D01*
X110943Y147749D01*
X109807Y146878D01*
X108936Y145742D01*
X108388Y144419D01*
X108201Y143000D01*
X108388Y141581D01*
X108936Y140258D01*
X109807Y139122D01*
X110943Y138251D01*
X112266Y137703D01*
X113685Y137516D01*
X115104Y137703D01*
X116427Y138251D01*
X117563Y139122D01*
X118434Y140258D01*
X118982Y141581D01*
X119169Y143000D01*
X118982Y144419D01*
X118434Y145742D01*
X117563Y146878D01*
X116427Y147749D01*
X115104Y148297D01*
X113685Y148484D01*
D02*
G37*
G36*
X163243Y139500D02*
X161035D01*
Y137292D01*
X161253Y137321D01*
X161922Y137598D01*
X162497Y138039D01*
X162938Y138613D01*
X163215Y139282D01*
X163243Y139500D01*
D02*
G37*
G36*
X160035D02*
X157827D01*
X157856Y139282D01*
X158133Y138613D01*
X158574Y138039D01*
X159149Y137598D01*
X159818Y137321D01*
X160035Y137292D01*
Y139500D01*
D02*
G37*
G36*
X211500Y138708D02*
Y136500D01*
X213708D01*
X213679Y136718D01*
X213402Y137387D01*
X212961Y137961D01*
X212387Y138402D01*
X211718Y138679D01*
X211500Y138708D01*
D02*
G37*
G36*
X210500D02*
X210282Y138679D01*
X209613Y138402D01*
X209039Y137961D01*
X208598Y137387D01*
X208321Y136718D01*
X208292Y136500D01*
X210500D01*
Y138708D01*
D02*
G37*
G36*
X177708Y138387D02*
X175500D01*
Y136179D01*
X175718Y136208D01*
X176387Y136485D01*
X176961Y136925D01*
X177402Y137500D01*
X177679Y138169D01*
X177708Y138387D01*
D02*
G37*
G36*
X174500D02*
X172292D01*
X172321Y138169D01*
X172598Y137500D01*
X173039Y136925D01*
X173613Y136485D01*
X174282Y136208D01*
X174500Y136179D01*
Y138387D01*
D02*
G37*
G36*
X228500Y138208D02*
Y136000D01*
X230708D01*
X230679Y136218D01*
X230402Y136887D01*
X229961Y137461D01*
X229387Y137902D01*
X228718Y138179D01*
X228500Y138208D01*
D02*
G37*
G36*
X227500D02*
X227282Y138179D01*
X226613Y137902D01*
X226039Y137461D01*
X225598Y136887D01*
X225321Y136218D01*
X225292Y136000D01*
X227500D01*
Y138208D01*
D02*
G37*
G36*
X129708Y137500D02*
X127500D01*
Y135292D01*
X127718Y135321D01*
X128387Y135598D01*
X128961Y136039D01*
X129402Y136613D01*
X129679Y137282D01*
X129708Y137500D01*
D02*
G37*
G36*
X126500D02*
X124292D01*
X124321Y137282D01*
X124598Y136613D01*
X125039Y136039D01*
X125613Y135598D01*
X126282Y135321D01*
X126500Y135292D01*
Y137500D01*
D02*
G37*
G36*
X397000Y151549D02*
X395332Y151385D01*
X393728Y150898D01*
X392250Y150108D01*
X390955Y149045D01*
X389892Y147750D01*
X389102Y146272D01*
X388615Y144668D01*
X388451Y143000D01*
X388615Y141332D01*
X389102Y139728D01*
X389892Y138250D01*
X390955Y136955D01*
X392250Y135892D01*
X393728Y135102D01*
X395332Y134615D01*
X397000Y134451D01*
X398668Y134615D01*
X400272Y135102D01*
X401750Y135892D01*
X403045Y136955D01*
X404108Y138250D01*
X404898Y139728D01*
X405385Y141332D01*
X405549Y143000D01*
X405385Y144668D01*
X404898Y146272D01*
X404108Y147750D01*
X403045Y149045D01*
X401750Y150108D01*
X400272Y150898D01*
X398668Y151385D01*
X397000Y151549D01*
D02*
G37*
G36*
X181894Y135708D02*
Y133500D01*
X184102D01*
X184073Y133718D01*
X183796Y134387D01*
X183355Y134961D01*
X182781Y135402D01*
X182112Y135679D01*
X181894Y135708D01*
D02*
G37*
G36*
X180894D02*
X180676Y135679D01*
X180007Y135402D01*
X179432Y134961D01*
X178992Y134387D01*
X178715Y133718D01*
X178686Y133500D01*
X180894D01*
Y135708D01*
D02*
G37*
G36*
X213708Y135500D02*
X211500D01*
Y133292D01*
X211718Y133321D01*
X212387Y133598D01*
X212961Y134039D01*
X213402Y134613D01*
X213679Y135282D01*
X213708Y135500D01*
D02*
G37*
G36*
X210500D02*
X208292D01*
X208321Y135282D01*
X208598Y134613D01*
X209039Y134039D01*
X209613Y133598D01*
X210282Y133321D01*
X210500Y133292D01*
Y135500D01*
D02*
G37*
G36*
X230708Y135000D02*
X228500D01*
Y132792D01*
X228718Y132821D01*
X229387Y133098D01*
X229961Y133539D01*
X230402Y134113D01*
X230679Y134782D01*
X230708Y135000D01*
D02*
G37*
G36*
X227500D02*
X225292D01*
X225321Y134782D01*
X225598Y134113D01*
X226039Y133539D01*
X226613Y133098D01*
X227282Y132821D01*
X227500Y132792D01*
Y135000D01*
D02*
G37*
G36*
X133465Y133708D02*
Y131500D01*
X135672D01*
X135644Y131718D01*
X135367Y132387D01*
X134926Y132961D01*
X134351Y133402D01*
X133683Y133679D01*
X133465Y133708D01*
D02*
G37*
G36*
X132465D02*
X132247Y133679D01*
X131578Y133402D01*
X131003Y132961D01*
X130562Y132387D01*
X130285Y131718D01*
X130257Y131500D01*
X132465D01*
Y133708D01*
D02*
G37*
G36*
X184102Y132500D02*
X181894D01*
Y130292D01*
X182112Y130321D01*
X182781Y130598D01*
X183355Y131039D01*
X183796Y131613D01*
X184073Y132282D01*
X184102Y132500D01*
D02*
G37*
G36*
X180894D02*
X178686D01*
X178715Y132282D01*
X178992Y131613D01*
X179432Y131039D01*
X180007Y130598D01*
X180676Y130321D01*
X180894Y130292D01*
Y132500D01*
D02*
G37*
G36*
X221500Y132208D02*
Y130000D01*
X223708D01*
X223679Y130218D01*
X223402Y130887D01*
X222961Y131461D01*
X222387Y131902D01*
X221718Y132179D01*
X221500Y132208D01*
D02*
G37*
G36*
X220500D02*
X220282Y132179D01*
X219613Y131902D01*
X219039Y131461D01*
X218598Y130887D01*
X218321Y130218D01*
X218292Y130000D01*
X220500D01*
Y132208D01*
D02*
G37*
G36*
X205000D02*
Y130000D01*
X207208D01*
X207179Y130218D01*
X206902Y130887D01*
X206461Y131461D01*
X205887Y131902D01*
X205218Y132179D01*
X205000Y132208D01*
D02*
G37*
G36*
X204000D02*
X203782Y132179D01*
X203113Y131902D01*
X202539Y131461D01*
X202098Y130887D01*
X201821Y130218D01*
X201792Y130000D01*
X204000D01*
Y132208D01*
D02*
G37*
G36*
X135672Y130500D02*
X133465D01*
Y128292D01*
X133683Y128321D01*
X134351Y128598D01*
X134926Y129039D01*
X135367Y129613D01*
X135644Y130282D01*
X135672Y130500D01*
D02*
G37*
G36*
X132465D02*
X130257D01*
X130285Y130282D01*
X130562Y129613D01*
X131003Y129039D01*
X131578Y128598D01*
X132247Y128321D01*
X132465Y128292D01*
Y130500D01*
D02*
G37*
%LPD*%
D10*
X237500Y154500D02*
X249500D01*
X235000Y157000D02*
X237500Y154500D01*
X235000Y166387D02*
X245113D01*
X248000Y163500D01*
X243638Y351500D02*
X244638Y352500D01*
X128000Y168780D02*
Y178500D01*
X126500Y180000D02*
X128000Y178500D01*
X127470Y168780D02*
X128000D01*
X222000Y293500D02*
X240000D01*
X244000Y240222D02*
Y243500D01*
X241278Y237500D02*
X244000Y240222D01*
X223500Y237500D02*
X241278D01*
X217500Y231500D02*
X223500Y237500D01*
X217500Y229780D02*
Y231500D01*
Y242000D02*
X238500D01*
X221779Y245500D02*
X240000D01*
X217500Y249780D02*
X221779Y245500D01*
X228130Y249150D02*
X238500D01*
X217500Y259780D02*
X228130Y249150D01*
X217500Y239779D02*
Y242000D01*
X240000Y245500D02*
X242500Y248000D01*
Y255000D01*
X239500Y293000D02*
X240000Y293500D01*
X333794Y250000D02*
X350000D01*
X352500Y252500D01*
X222025Y287475D02*
X237500D01*
X222000Y287500D02*
X222025Y287475D01*
X234000Y351500D02*
X243638D01*
X244638Y352500D02*
X245319Y351819D01*
X310000Y301500D02*
Y321500D01*
X201500Y182500D02*
Y199387D01*
Y182500D02*
X202500Y181500D01*
Y180617D02*
Y181500D01*
X247815Y175279D02*
X248000Y175465D01*
X235000Y175279D02*
X247815D01*
X333794Y266150D02*
X333794Y266150D01*
Y255650D02*
Y266150D01*
D79*
X289994Y192000D02*
Y204000D01*
X274000Y192000D02*
Y204000D01*
X278794Y230150D02*
Y249150D01*
D81*
X234000Y144500D02*
X236500D01*
X227500Y151000D02*
X234000Y144500D01*
X227500Y151000D02*
Y153373D01*
D83*
X375800Y275500D02*
D03*
Y292000D02*
D03*
Y308500D02*
D03*
X397500Y275500D02*
D03*
Y292000D02*
D03*
Y308500D02*
D03*
D84*
X91000Y362815D02*
D03*
X101000D02*
D03*
X111000D02*
D03*
X91000Y370216D02*
D03*
X101000D02*
D03*
X111000D02*
D03*
X91000Y382500D02*
D03*
X101000D02*
D03*
X111000D02*
D03*
X91000Y389902D02*
D03*
X101000D02*
D03*
X111000D02*
D03*
D85*
X249500Y154500D02*
D03*
X235000Y143500D02*
D03*
X198500Y334000D02*
D03*
X278000Y351819D02*
D03*
X363500Y226150D02*
D03*
X397500Y167000D02*
D03*
X133000Y233500D02*
D03*
X134500Y280000D02*
D03*
X375500Y340488D02*
D03*
X382000Y191500D02*
D03*
X206500Y322000D02*
D03*
X211000Y362500D02*
D03*
X229000Y405500D02*
D03*
X241500Y194000D02*
D03*
X231000Y302150D02*
D03*
X289994Y204000D02*
D03*
X274000D02*
D03*
D86*
X397000Y243935D02*
D03*
X113685Y143000D02*
D03*
D87*
X397000Y224250D02*
D03*
D88*
X206500Y270500D02*
D03*
X216500D02*
D03*
X206500Y260500D02*
D03*
X216500D02*
D03*
X206500Y250500D02*
D03*
X216500D02*
D03*
X206500Y240500D02*
D03*
X216500D02*
D03*
X206500Y230500D02*
D03*
X362500Y252500D02*
D03*
X352500D02*
D03*
X362500Y262500D02*
D03*
X352500D02*
D03*
X362500Y272500D02*
D03*
X352500D02*
D03*
X362500Y282500D02*
D03*
X97500Y298314D02*
D03*
X87500D02*
D03*
Y205500D02*
D03*
Y215500D02*
D03*
Y225500D02*
D03*
Y235500D02*
D03*
Y245500D02*
D03*
X97500Y322500D02*
D03*
X107500D02*
D03*
D89*
X216500Y230500D02*
D03*
X352500Y282500D02*
D03*
X87500Y195500D02*
D03*
D90*
X94000Y143000D02*
D03*
D91*
X107500Y298314D02*
D03*
X87500Y322500D02*
D03*
D92*
X98405Y281361D02*
D03*
Y262267D02*
D03*
D93*
X86594Y285643D02*
D03*
Y257985D02*
D03*
D94*
X235000Y166387D02*
D03*
X227500Y153373D02*
D03*
X283000Y359740D02*
D03*
X107500Y174509D02*
D03*
X113465Y168500D02*
D03*
X181394Y133000D02*
D03*
X213500Y218659D02*
D03*
X227000Y210500D02*
D03*
X199000Y299366D02*
D03*
X107500Y198500D02*
D03*
X128000Y168780D02*
D03*
X257500Y344000D02*
D03*
Y328000D02*
D03*
Y336000D02*
D03*
X265000Y328000D02*
D03*
Y336000D02*
D03*
Y344000D02*
D03*
X249500Y336000D02*
D03*
Y328000D02*
D03*
Y344000D02*
D03*
X222000Y293500D02*
D03*
X238500Y242000D02*
D03*
X242500Y255000D02*
D03*
X244000Y243500D02*
D03*
X238500Y232000D02*
D03*
X245000Y226000D02*
D03*
X154500Y273874D02*
D03*
X240000Y293500D02*
D03*
X298607Y143000D02*
D03*
X126500Y180000D02*
D03*
X222000Y287500D02*
D03*
X237500Y287475D02*
D03*
X300965Y358000D02*
D03*
X136965Y149500D02*
D03*
X221000Y129500D02*
D03*
X228000Y135500D02*
D03*
X204500Y129500D02*
D03*
X211000Y136000D02*
D03*
X160535Y140000D02*
D03*
X167000Y146500D02*
D03*
X130000Y360500D02*
D03*
X136634Y369102D02*
D03*
X123500D02*
D03*
X148500Y222000D02*
D03*
X155500Y215500D02*
D03*
X130736Y155123D02*
D03*
X132965Y131000D02*
D03*
X127000Y138000D02*
D03*
X353500Y165500D02*
D03*
X341562Y169500D02*
D03*
X335000D02*
D03*
X218500Y159500D02*
D03*
X347000Y165500D02*
D03*
X333794Y250000D02*
D03*
X234000Y351500D02*
D03*
X332000Y314500D02*
D03*
X290794Y301000D02*
D03*
X328500Y335000D02*
D03*
X322500Y329035D02*
D03*
X310000Y321500D02*
D03*
Y301500D02*
D03*
X256500Y163960D02*
D03*
X269500D02*
D03*
X261000Y182500D02*
D03*
X306000Y218965D02*
D03*
X298000Y213000D02*
D03*
X201500Y199387D02*
D03*
X202500Y181500D02*
D03*
X225000Y166000D02*
D03*
X175000Y138887D02*
D03*
X206500Y185903D02*
D03*
X158000Y209627D02*
D03*
X175000Y148387D02*
D03*
X155000Y373685D02*
D03*
X171500D02*
D03*
X163500Y361500D02*
D03*
Y386000D02*
D03*
X352240Y210659D02*
D03*
X326480Y170159D02*
D03*
X335240Y218659D02*
D03*
X342740Y211159D02*
D03*
X330740Y203659D02*
D03*
X337740Y197159D02*
D03*
X289994Y192000D02*
D03*
X274000D02*
D03*
X255035Y199740D02*
D03*
X379000Y155432D02*
D03*
X364260Y174280D02*
D03*
X317294Y274000D02*
D03*
X238500Y249150D02*
D03*
X207500Y213000D02*
D03*
X253500Y190500D02*
D03*
X248000Y163500D02*
D03*
X235000Y157000D02*
D03*
X298500Y177839D02*
D03*
X248000Y175465D02*
D03*
X235000Y175279D02*
D03*
X203000Y164667D02*
D03*
X220000Y182000D02*
D03*
X234000D02*
D03*
X213000Y180188D02*
D03*
X347000Y368000D02*
D03*
X143392Y166612D02*
D03*
X245319Y351819D02*
D03*
X249000Y216500D02*
D03*
X219000Y308000D02*
D03*
X212500Y315000D02*
D03*
X279294Y326000D02*
D03*
Y340000D02*
D03*
X295000Y364299D02*
D03*
X278794Y230150D02*
D03*
X259794Y220150D02*
D03*
X253794Y226150D02*
D03*
X278794Y219150D02*
D03*
X285294Y213150D02*
D03*
X313794Y239779D02*
D03*
X278794Y249150D02*
D03*
X297173Y295925D02*
D03*
X275000Y302150D02*
D03*
X245294Y290150D02*
D03*
X335294Y287150D02*
D03*
X328794Y281150D02*
D03*
X317294D02*
D03*
X333794Y255650D02*
D03*
X333794Y266150D02*
D03*
X261000Y359000D02*
D03*
X255035Y365500D02*
D03*
X233500Y361000D02*
D03*
X241000Y368000D02*
D03*
X268000Y361299D02*
D03*
Y385799D02*
D03*
X259500Y373484D02*
D03*
X276000D02*
D03*
X176000Y354760D02*
D03*
X202535Y369102D02*
D03*
M02*
