M48
;Layer_Color=9474304
;FILE_FORMAT=2:5
INCH,TZ
;TYPE=PLATED
T1F00S00C0.01500
T4F00S00C0.03543
T5F00S00C0.04000
%
T01
X55500Y36000
X52200Y47500
X56426Y51500
X53000Y55500
X61100Y48046
X72000Y56600
X78200Y60600
X84300Y54300
X93500Y59600
X93300Y78200
X83575Y75200
X75401Y73658
X72825Y85001
Y94800
X38300Y100300
X43769Y79500
X44000Y71000
X75500Y42500
X76500Y34500
X100607Y43800
X108800Y44100
X118000Y58900
X121300Y62200
X114654Y62300
X115900Y68400
X112300Y71200
X113300Y75800
X119500Y74000
X125500Y79225
X128000Y95500
X139900Y95735
Y61958
X146099Y67922
X152135Y61958
X158135Y67958
X177135Y80958
X201900Y80751
Y74958
X229500Y75200
X229200Y81112
X229692Y100626
X193621
X177135Y54217
X288200Y48500
X302400Y52400
X306000Y94000
X312500Y87800
X328500Y101900
X322300Y64200
X357433Y72502
X368698Y61500
Y110734
X350698Y108734
X322000Y108234
X319671Y135416
X320706Y148270
X346233Y166140
X342733Y179640
X352500Y192300
X357093Y201000
X339698Y212640
X328500Y217206
X329048Y206540
Y194140
X333733Y227500
X328233Y245500
X313706
X313500Y217000
X363500Y233956
X370000Y234012
Y241500
X363500Y241444
Y248933
X370000Y248988
X292000Y239224
X282761Y236105
X282557Y228584
X289500Y226500
X297500
X296206Y210345
X303500Y204500
X309706Y210380
X281706Y210345
X269545Y237386
X263221Y243250
X226000Y238988
Y231500
Y224012
X217500
Y231500
Y238988
X194392Y247500
X193892Y213500
Y201500
X178500Y204500
X177665Y197500
X171500Y192300
Y161500
X177500Y155500
X191700Y154400
X184500Y145800
X190400Y139800
X192000Y121780
X206000Y117000
X222465
X235657Y106626
X248100Y120500
Y128500
Y136500
Y145000
X250833Y171180
X244833Y177345
X223500Y174900
X214465Y152265
X208245Y146500
X201100Y185300
X173921Y226812
X165000Y253400
X158400Y247900
X187657Y106305
X282761Y126941
X289500Y128479
X299500Y121500
X307206Y123580
X295500Y140174
X285233Y158853
X138500Y127640
X133500Y115500
X98840Y127700
X93185Y133385
X70500Y131950
Y127400
X56400
X56426Y132059
X44000Y106500
X76793Y150000
X80000Y153172
X68500Y164500
X65658Y168000
X128500Y245500
X124000Y272500
X117500Y278000
X123000Y296100
X126000Y300000
Y305500
Y310600
X120500
X133200
X138100
X133200Y305400
Y300000
X136100Y296100
X194392Y259500
T04
X23000Y17500
X33000
X43000
X53000
X63000
X103000
X113000
X123000
X133000
X143000
X153000
X23000Y47500
Y57500
Y67500
Y77500
Y87500
Y97500
X201500Y93500
X211500
X221500
X173000Y17500
X163000
X381000Y105626
Y115626
X381233Y166540
Y176540
Y186540
Y196540
Y206540
Y216540
X133000Y207500
Y197500
Y187500
X153000
Y177500
Y167500
Y157500
X103000
Y167500
Y177500
Y187500
Y197500
X23000
Y187500
Y177500
Y167500
Y157500
Y147500
Y127500
Y117500
Y107500
Y255000
X33000
X43000
X23000Y284000
Y294000
Y337500
Y347500
X381000
Y337500
Y294000
Y284000
T05
X126500Y55500
Y67958
X256600Y97767
X288200Y66500
X302400
X322100Y50700
X344693
X346473Y149640
X333733Y144500
X328000Y169500
X359733Y161140
X347733Y216380
X293500Y219500
X271333Y213928
X259500Y228584
X250233Y196845
X256600Y133767
Y121767
Y109767
X280500Y105000
X293240
X307206Y115500
X198500Y161500
X200050Y175050
X163200Y232000
X155000Y217206
X139500Y232500
X124500
X101500Y237500
X85240Y253240
X149500Y139382
Y127382
Y115382
Y103382
M30
