G04*
G04 #@! TF.GenerationSoftware,Altium Limited,Altium Designer,18.1.9 (240)*
G04*
G04 Layer_Color=32768*
%FSLAX25Y25*%
%MOIN*%
G70*
G01*
G75*
%ADD106C,0.00394*%
%ADD107C,0.00197*%
%ADD108C,0.00200*%
%ADD109C,0.00400*%
D106*
X17374Y222913D02*
Y226850D01*
X15405Y224882D02*
X19342D01*
X347433Y70565D02*
Y74502D01*
X345464Y72533D02*
X349401D01*
X343698Y109266D02*
Y113203D01*
X341729Y111234D02*
X345666D01*
X166635Y65832D02*
Y69769D01*
X164667Y67801D02*
X168604D01*
X210500Y127532D02*
Y131468D01*
X208531Y129500D02*
X212469D01*
X127532Y260000D02*
X131468D01*
X129500Y258032D02*
Y261968D01*
X202857Y229331D02*
Y233268D01*
X200888Y231300D02*
X204825D01*
X81108Y91892D02*
X83892Y89108D01*
X81108Y89108D02*
X83892Y91892D01*
X288706Y164412D02*
Y168349D01*
X286738Y166380D02*
X290675D01*
X322100Y48731D02*
Y52668D01*
X320131Y50700D02*
X324068D01*
X322100Y48731D02*
Y52668D01*
X320131Y50700D02*
X324068D01*
X344693Y48731D02*
Y52668D01*
X342724Y50700D02*
X346661D01*
X344693Y48731D02*
Y52668D01*
X342724Y50700D02*
X346661D01*
X139500Y230532D02*
Y234469D01*
X137531Y232500D02*
X141469D01*
X139500Y230532D02*
Y234469D01*
X137531Y232500D02*
X141469D01*
X124500Y230532D02*
Y234469D01*
X122531Y232500D02*
X126469D01*
X124500Y230532D02*
Y234469D01*
X122531Y232500D02*
X126469D01*
X307206Y113531D02*
Y117469D01*
X305238Y115500D02*
X309175D01*
X307206Y113531D02*
Y117469D01*
X305238Y115500D02*
X309175D01*
X331765Y144500D02*
X335701D01*
X333733Y142532D02*
Y146468D01*
X331765Y144500D02*
X335701D01*
X333733Y142532D02*
Y146468D01*
X359733Y159172D02*
Y163109D01*
X357765Y161140D02*
X361701D01*
X359733Y159172D02*
Y163109D01*
X357765Y161140D02*
X361701D01*
X346473Y147672D02*
Y151609D01*
X344505Y149640D02*
X348442D01*
X346473Y147672D02*
Y151609D01*
X344505Y149640D02*
X348442D01*
X347733Y214412D02*
Y218349D01*
X345765Y216380D02*
X349701D01*
X347733Y214412D02*
Y218349D01*
X345765Y216380D02*
X349701D01*
X328000Y167532D02*
Y171468D01*
X326031Y169500D02*
X329969D01*
X328000Y167532D02*
Y171468D01*
X326031Y169500D02*
X329969D01*
X271333Y211960D02*
Y215897D01*
X269365Y213928D02*
X273302D01*
X271333Y211960D02*
Y215897D01*
X269365Y213928D02*
X273302D01*
X250233Y194876D02*
Y198813D01*
X248265Y196845D02*
X252202D01*
X250233Y194876D02*
Y198813D01*
X248265Y196845D02*
X252202D01*
X302400Y64531D02*
Y68468D01*
X300431Y66500D02*
X304368D01*
X302400Y64531D02*
Y68468D01*
X300431Y66500D02*
X304368D01*
X288200Y64531D02*
Y68468D01*
X286231Y66500D02*
X290168D01*
X288200Y64531D02*
Y68468D01*
X286231Y66500D02*
X290168D01*
X291531Y219500D02*
X295468D01*
X293500Y217531D02*
Y221468D01*
X291531Y219500D02*
X295468D01*
X293500Y217531D02*
Y221468D01*
X126500Y53531D02*
Y57468D01*
X124531Y55500D02*
X128469D01*
X126500Y53531D02*
Y57468D01*
X124531Y55500D02*
X128469D01*
X293240Y103032D02*
Y106968D01*
X291272Y105000D02*
X295209D01*
X293240Y103032D02*
Y106968D01*
X291272Y105000D02*
X295209D01*
X126500Y65989D02*
Y69926D01*
X124531Y67958D02*
X128469D01*
X126500Y65989D02*
Y69926D01*
X124531Y67958D02*
X128469D01*
X280500Y103032D02*
Y106968D01*
X278532Y105000D02*
X282469D01*
X280500Y103032D02*
Y106968D01*
X278532Y105000D02*
X282469D01*
X256600Y95798D02*
Y99735D01*
X254631Y97767D02*
X258569D01*
X256600Y95798D02*
Y99735D01*
X254631Y97767D02*
X258569D01*
X256600Y107799D02*
Y111735D01*
X254631Y109767D02*
X258569D01*
X256600Y107799D02*
Y111735D01*
X254631Y109767D02*
X258569D01*
X256600Y119799D02*
Y123735D01*
X254631Y121767D02*
X258569D01*
X256600Y119799D02*
Y123735D01*
X254631Y121767D02*
X258569D01*
X256600Y131799D02*
Y135735D01*
X254631Y133767D02*
X258569D01*
X256600Y131799D02*
Y135735D01*
X254631Y133767D02*
X258569D01*
X149500Y101413D02*
Y105350D01*
X147531Y103382D02*
X151469D01*
X149500Y101413D02*
Y105350D01*
X147531Y103382D02*
X151469D01*
X149500Y113413D02*
Y117350D01*
X147531Y115382D02*
X151469D01*
X149500Y113413D02*
Y117350D01*
X147531Y115382D02*
X151469D01*
X147531Y127382D02*
X151469D01*
X149500Y125413D02*
Y129350D01*
X147531Y127382D02*
X151469D01*
X149500Y125413D02*
Y129350D01*
X147531Y139382D02*
X151469D01*
X149500Y137413D02*
Y141350D01*
X147531Y139382D02*
X151469D01*
X149500Y137413D02*
Y141350D01*
X99532Y237500D02*
X103469D01*
X101500Y235531D02*
Y239469D01*
X99532Y237500D02*
X103469D01*
X101500Y235531D02*
Y239469D01*
X196531Y161500D02*
X200468D01*
X198500Y159531D02*
Y163469D01*
X196531Y161500D02*
X200468D01*
X198500Y159531D02*
Y163469D01*
X83272Y253240D02*
X87209D01*
X85240Y251272D02*
Y255209D01*
X83272Y253240D02*
X87209D01*
X85240Y251272D02*
Y255209D01*
X161232Y232000D02*
X165168D01*
X163200Y230031D02*
Y233968D01*
X161232Y232000D02*
X165168D01*
X163200Y230031D02*
Y233968D01*
X153032Y217206D02*
X156968D01*
X155000Y215238D02*
Y219175D01*
X153032Y217206D02*
X156968D01*
X155000Y215238D02*
Y219175D01*
X198082Y175050D02*
X202018D01*
X200050Y173082D02*
Y177018D01*
X198082Y175050D02*
X202018D01*
X200050Y173082D02*
Y177018D01*
X257531Y228584D02*
X261469D01*
X259500Y226616D02*
Y230553D01*
X257531Y228584D02*
X261469D01*
X259500Y226616D02*
Y230553D01*
X350500Y239531D02*
Y243468D01*
X348532Y241500D02*
X352468D01*
X129500Y297567D02*
Y301504D01*
X127532Y299535D02*
X131468D01*
X71608Y49892D02*
X74392Y47108D01*
X71608Y47108D02*
X74392Y49892D01*
X111500Y277532D02*
Y281469D01*
X109531Y279500D02*
X113469D01*
X41532Y314500D02*
X45469D01*
X43500Y312531D02*
Y316469D01*
X170531Y321500D02*
X174469D01*
X172500Y319531D02*
Y323468D01*
X83531Y321500D02*
X87468D01*
X85500Y319531D02*
Y323468D01*
D107*
X327494Y50700D02*
X327402Y51691D01*
X327130Y52648D01*
X326686Y53539D01*
X326086Y54334D01*
X325350Y55004D01*
X324504Y55528D01*
X323576Y55888D01*
X322598Y56071D01*
X321602D01*
X320624Y55888D01*
X319696Y55528D01*
X318850Y55004D01*
X318114Y54334D01*
X317514Y53539D01*
X317071Y52648D01*
X316798Y51691D01*
X316706Y50700D01*
X316798Y49709D01*
X317071Y48752D01*
X317514Y47861D01*
X318114Y47066D01*
X318850Y46396D01*
X319696Y45872D01*
X320624Y45512D01*
X321602Y45329D01*
X322598D01*
X323576Y45512D01*
X324504Y45872D01*
X325350Y46396D01*
X326086Y47066D01*
X326686Y47861D01*
X327130Y48752D01*
X327402Y49709D01*
X327494Y50700D01*
X350087D02*
X349995Y51691D01*
X349722Y52648D01*
X349279Y53539D01*
X348679Y54334D01*
X347943Y55004D01*
X347097Y55528D01*
X346169Y55888D01*
X345191Y56071D01*
X344195D01*
X343217Y55888D01*
X342289Y55528D01*
X341442Y55004D01*
X340707Y54334D01*
X340107Y53539D01*
X339663Y52648D01*
X339391Y51691D01*
X339299Y50700D01*
X339391Y49709D01*
X339663Y48752D01*
X340107Y47861D01*
X340707Y47066D01*
X341442Y46396D01*
X342289Y45872D01*
X343217Y45512D01*
X344195Y45329D01*
X345191D01*
X346169Y45512D01*
X347097Y45872D01*
X347943Y46396D01*
X348679Y47066D01*
X349279Y47861D01*
X349722Y48752D01*
X349995Y49709D01*
X350087Y50700D01*
X144894Y232500D02*
X144802Y233491D01*
X144529Y234448D01*
X144086Y235339D01*
X143486Y236134D01*
X142750Y236804D01*
X141904Y237328D01*
X140976Y237688D01*
X139998Y237871D01*
X139002D01*
X138024Y237688D01*
X137096Y237328D01*
X136250Y236804D01*
X135514Y236134D01*
X134914Y235339D01*
X134470Y234448D01*
X134198Y233491D01*
X134106Y232500D01*
X134198Y231509D01*
X134470Y230552D01*
X134914Y229661D01*
X135514Y228866D01*
X136250Y228196D01*
X137096Y227672D01*
X138024Y227312D01*
X139002Y227129D01*
X139998D01*
X140976Y227312D01*
X141904Y227672D01*
X142750Y228196D01*
X143486Y228866D01*
X144086Y229661D01*
X144529Y230552D01*
X144802Y231509D01*
X144894Y232500D01*
X129894D02*
X129802Y233491D01*
X129530Y234448D01*
X129086Y235339D01*
X128486Y236134D01*
X127750Y236804D01*
X126904Y237328D01*
X125976Y237688D01*
X124998Y237871D01*
X124002D01*
X123024Y237688D01*
X122096Y237328D01*
X121250Y236804D01*
X120514Y236134D01*
X119914Y235339D01*
X119471Y234448D01*
X119198Y233491D01*
X119106Y232500D01*
X119198Y231509D01*
X119471Y230552D01*
X119914Y229661D01*
X120514Y228866D01*
X121250Y228196D01*
X122096Y227672D01*
X123024Y227312D01*
X124002Y227129D01*
X124998D01*
X125976Y227312D01*
X126904Y227672D01*
X127750Y228196D01*
X128486Y228866D01*
X129086Y229661D01*
X129530Y230552D01*
X129802Y231509D01*
X129894Y232500D01*
X312600Y115500D02*
X312508Y116491D01*
X312236Y117448D01*
X311792Y118339D01*
X311192Y119134D01*
X310457Y119804D01*
X309610Y120328D01*
X308682Y120688D01*
X307704Y120871D01*
X306709D01*
X305730Y120688D01*
X304802Y120328D01*
X303956Y119804D01*
X303220Y119134D01*
X302620Y118339D01*
X302177Y117448D01*
X301904Y116491D01*
X301813Y115500D01*
X301904Y114509D01*
X302177Y113552D01*
X302620Y112661D01*
X303220Y111866D01*
X303956Y111196D01*
X304802Y110672D01*
X305730Y110312D01*
X306709Y110129D01*
X307704D01*
X308682Y110312D01*
X309610Y110672D01*
X310457Y111196D01*
X311192Y111866D01*
X311792Y112661D01*
X312236Y113552D01*
X312508Y114509D01*
X312600Y115500D01*
X339127Y144500D02*
X339035Y145491D01*
X338762Y146448D01*
X338319Y147339D01*
X337719Y148134D01*
X336983Y148804D01*
X336137Y149328D01*
X335209Y149688D01*
X334231Y149871D01*
X333235D01*
X332257Y149688D01*
X331329Y149328D01*
X330483Y148804D01*
X329747Y148134D01*
X329147Y147339D01*
X328704Y146448D01*
X328431Y145491D01*
X328339Y144500D01*
X328431Y143509D01*
X328704Y142552D01*
X329147Y141661D01*
X329747Y140866D01*
X330483Y140196D01*
X331329Y139672D01*
X332257Y139312D01*
X333235Y139129D01*
X334231D01*
X335209Y139312D01*
X336137Y139672D01*
X336983Y140196D01*
X337719Y140866D01*
X338319Y141661D01*
X338762Y142552D01*
X339035Y143509D01*
X339127Y144500D01*
X365127Y161140D02*
X365035Y162131D01*
X364762Y163089D01*
X364319Y163980D01*
X363719Y164774D01*
X362983Y165444D01*
X362137Y165968D01*
X361209Y166328D01*
X360231Y166511D01*
X359235D01*
X358257Y166328D01*
X357329Y165968D01*
X356483Y165444D01*
X355747Y164774D01*
X355147Y163980D01*
X354704Y163089D01*
X354431Y162131D01*
X354339Y161140D01*
X354431Y160149D01*
X354704Y159192D01*
X355147Y158301D01*
X355747Y157506D01*
X356483Y156836D01*
X357329Y156312D01*
X358257Y155952D01*
X359235Y155770D01*
X360231D01*
X361209Y155952D01*
X362137Y156312D01*
X362983Y156836D01*
X363719Y157506D01*
X364319Y158301D01*
X364762Y159192D01*
X365035Y160149D01*
X365127Y161140D01*
X351867Y149640D02*
X351775Y150631D01*
X351503Y151589D01*
X351059Y152480D01*
X350459Y153274D01*
X349724Y153944D01*
X348877Y154468D01*
X347949Y154828D01*
X346971Y155011D01*
X345975D01*
X344997Y154828D01*
X344069Y154468D01*
X343223Y153944D01*
X342487Y153274D01*
X341887Y152480D01*
X341444Y151589D01*
X341171Y150631D01*
X341079Y149640D01*
X341171Y148649D01*
X341444Y147692D01*
X341887Y146801D01*
X342487Y146006D01*
X343223Y145336D01*
X344069Y144812D01*
X344997Y144452D01*
X345976Y144270D01*
X346971D01*
X347949Y144452D01*
X348877Y144812D01*
X349724Y145336D01*
X350459Y146006D01*
X351059Y146801D01*
X351503Y147692D01*
X351775Y148649D01*
X351867Y149640D01*
X353127Y216380D02*
X353035Y217371D01*
X352763Y218329D01*
X352319Y219220D01*
X351719Y220014D01*
X350984Y220685D01*
X350137Y221209D01*
X349209Y221568D01*
X348231Y221751D01*
X347235D01*
X346257Y221568D01*
X345329Y221209D01*
X344483Y220685D01*
X343747Y220014D01*
X343147Y219220D01*
X342704Y218329D01*
X342431Y217371D01*
X342339Y216380D01*
X342431Y215389D01*
X342704Y214432D01*
X343147Y213541D01*
X343747Y212747D01*
X344483Y212076D01*
X345329Y211552D01*
X346257Y211192D01*
X347235Y211010D01*
X348231D01*
X349209Y211192D01*
X350137Y211552D01*
X350984Y212076D01*
X351719Y212747D01*
X352319Y213541D01*
X352763Y214432D01*
X353035Y215389D01*
X353127Y216380D01*
X333394Y169500D02*
X333302Y170491D01*
X333030Y171448D01*
X332586Y172339D01*
X331986Y173134D01*
X331250Y173804D01*
X330404Y174328D01*
X329476Y174688D01*
X328498Y174871D01*
X327502D01*
X326524Y174688D01*
X325596Y174328D01*
X324750Y173804D01*
X324014Y173134D01*
X323414Y172339D01*
X322971Y171448D01*
X322698Y170491D01*
X322606Y169500D01*
X322698Y168509D01*
X322971Y167552D01*
X323414Y166661D01*
X324014Y165866D01*
X324750Y165196D01*
X325596Y164672D01*
X326524Y164312D01*
X327502Y164129D01*
X328498D01*
X329476Y164312D01*
X330404Y164672D01*
X331250Y165196D01*
X331986Y165866D01*
X332586Y166661D01*
X333030Y167552D01*
X333302Y168509D01*
X333394Y169500D01*
X276727Y213928D02*
X276635Y214919D01*
X276362Y215877D01*
X275919Y216768D01*
X275319Y217562D01*
X274584Y218233D01*
X273737Y218757D01*
X272809Y219116D01*
X271831Y219299D01*
X270835D01*
X269857Y219116D01*
X268929Y218757D01*
X268083Y218233D01*
X267347Y217562D01*
X266747Y216768D01*
X266304Y215877D01*
X266031Y214919D01*
X265939Y213928D01*
X266031Y212937D01*
X266304Y211980D01*
X266747Y211089D01*
X267347Y210295D01*
X268083Y209624D01*
X268929Y209100D01*
X269857Y208740D01*
X270835Y208558D01*
X271831D01*
X272809Y208740D01*
X273737Y209100D01*
X274584Y209624D01*
X275319Y210295D01*
X275919Y211089D01*
X276362Y211980D01*
X276635Y212937D01*
X276727Y213928D01*
X255627Y196845D02*
X255535Y197836D01*
X255262Y198793D01*
X254819Y199684D01*
X254219Y200479D01*
X253484Y201149D01*
X252637Y201673D01*
X251709Y202033D01*
X250731Y202216D01*
X249735D01*
X248757Y202033D01*
X247829Y201673D01*
X246983Y201149D01*
X246247Y200479D01*
X245647Y199684D01*
X245204Y198793D01*
X244931Y197836D01*
X244839Y196845D01*
X244931Y195854D01*
X245204Y194896D01*
X245647Y194006D01*
X246247Y193211D01*
X246983Y192541D01*
X247829Y192017D01*
X248757Y191657D01*
X249735Y191474D01*
X250731D01*
X251709Y191657D01*
X252637Y192017D01*
X253484Y192541D01*
X254219Y193211D01*
X254819Y194006D01*
X255262Y194896D01*
X255535Y195854D01*
X255627Y196845D01*
X307794Y66500D02*
X307702Y67491D01*
X307430Y68448D01*
X306986Y69339D01*
X306386Y70134D01*
X305650Y70804D01*
X304804Y71328D01*
X303876Y71688D01*
X302898Y71871D01*
X301902D01*
X300924Y71688D01*
X299996Y71328D01*
X299150Y70804D01*
X298414Y70134D01*
X297814Y69339D01*
X297371Y68448D01*
X297098Y67491D01*
X297006Y66500D01*
X297098Y65509D01*
X297371Y64552D01*
X297814Y63661D01*
X298414Y62866D01*
X299150Y62196D01*
X299996Y61672D01*
X300924Y61312D01*
X301902Y61129D01*
X302898D01*
X303876Y61312D01*
X304804Y61672D01*
X305650Y62196D01*
X306386Y62866D01*
X306986Y63661D01*
X307430Y64552D01*
X307702Y65509D01*
X307794Y66500D01*
X293594D02*
X293502Y67491D01*
X293230Y68448D01*
X292786Y69339D01*
X292186Y70134D01*
X291450Y70804D01*
X290604Y71328D01*
X289676Y71688D01*
X288698Y71871D01*
X287702D01*
X286724Y71688D01*
X285796Y71328D01*
X284950Y70804D01*
X284214Y70134D01*
X283614Y69339D01*
X283171Y68448D01*
X282898Y67491D01*
X282806Y66500D01*
X282898Y65509D01*
X283171Y64552D01*
X283614Y63661D01*
X284214Y62866D01*
X284950Y62196D01*
X285796Y61672D01*
X286724Y61312D01*
X287702Y61129D01*
X288698D01*
X289676Y61312D01*
X290604Y61672D01*
X291450Y62196D01*
X292186Y62866D01*
X292786Y63661D01*
X293230Y64552D01*
X293502Y65509D01*
X293594Y66500D01*
X298894Y219500D02*
X298802Y220491D01*
X298530Y221448D01*
X298086Y222339D01*
X297486Y223134D01*
X296750Y223804D01*
X295904Y224328D01*
X294976Y224688D01*
X293998Y224871D01*
X293002D01*
X292024Y224688D01*
X291096Y224328D01*
X290250Y223804D01*
X289514Y223134D01*
X288914Y222339D01*
X288471Y221448D01*
X288198Y220491D01*
X288106Y219500D01*
X288198Y218509D01*
X288471Y217552D01*
X288914Y216661D01*
X289514Y215866D01*
X290250Y215196D01*
X291096Y214672D01*
X292024Y214312D01*
X293002Y214129D01*
X293998D01*
X294976Y214312D01*
X295904Y214672D01*
X296750Y215196D01*
X297486Y215866D01*
X298086Y216661D01*
X298530Y217552D01*
X298802Y218509D01*
X298894Y219500D01*
X131894Y55500D02*
X131802Y56491D01*
X131529Y57448D01*
X131086Y58339D01*
X130486Y59134D01*
X129750Y59804D01*
X128904Y60328D01*
X127976Y60688D01*
X126998Y60871D01*
X126002D01*
X125024Y60688D01*
X124096Y60328D01*
X123250Y59804D01*
X122514Y59134D01*
X121914Y58339D01*
X121470Y57448D01*
X121198Y56491D01*
X121106Y55500D01*
X121198Y54509D01*
X121470Y53552D01*
X121914Y52661D01*
X122514Y51866D01*
X123250Y51196D01*
X124096Y50672D01*
X125024Y50312D01*
X126002Y50129D01*
X126998D01*
X127976Y50312D01*
X128904Y50672D01*
X129750Y51196D01*
X130486Y51866D01*
X131086Y52661D01*
X131529Y53552D01*
X131802Y54509D01*
X131894Y55500D01*
X298634Y105000D02*
X298542Y105991D01*
X298270Y106948D01*
X297826Y107839D01*
X297226Y108634D01*
X296491Y109304D01*
X295644Y109828D01*
X294716Y110188D01*
X293738Y110371D01*
X292742D01*
X291764Y110188D01*
X290836Y109828D01*
X289990Y109304D01*
X289254Y108634D01*
X288654Y107839D01*
X288211Y106948D01*
X287938Y105991D01*
X287846Y105000D01*
X287938Y104009D01*
X288211Y103052D01*
X288654Y102161D01*
X289254Y101366D01*
X289990Y100696D01*
X290836Y100172D01*
X291764Y99812D01*
X292742Y99629D01*
X293738D01*
X294716Y99812D01*
X295644Y100172D01*
X296491Y100696D01*
X297226Y101366D01*
X297826Y102161D01*
X298270Y103052D01*
X298542Y104009D01*
X298634Y105000D01*
X131894Y67958D02*
X131802Y68949D01*
X131529Y69906D01*
X131086Y70797D01*
X130486Y71591D01*
X129750Y72262D01*
X128904Y72786D01*
X127976Y73145D01*
X126998Y73328D01*
X126002D01*
X125024Y73145D01*
X124096Y72786D01*
X123250Y72262D01*
X122514Y71591D01*
X121914Y70797D01*
X121470Y69906D01*
X121198Y68949D01*
X121106Y67958D01*
X121198Y66966D01*
X121470Y66009D01*
X121914Y65118D01*
X122514Y64324D01*
X123250Y63653D01*
X124096Y63129D01*
X125024Y62770D01*
X126002Y62587D01*
X126998D01*
X127976Y62770D01*
X128904Y63129D01*
X129750Y63653D01*
X130486Y64324D01*
X131086Y65118D01*
X131529Y66009D01*
X131802Y66966D01*
X131894Y67958D01*
X285894Y105000D02*
X285802Y105991D01*
X285529Y106948D01*
X285086Y107839D01*
X284486Y108634D01*
X283750Y109304D01*
X282904Y109828D01*
X281976Y110188D01*
X280998Y110371D01*
X280002D01*
X279024Y110188D01*
X278096Y109828D01*
X277250Y109304D01*
X276514Y108634D01*
X275914Y107839D01*
X275470Y106948D01*
X275198Y105991D01*
X275106Y105000D01*
X275198Y104009D01*
X275470Y103052D01*
X275914Y102161D01*
X276514Y101366D01*
X277250Y100696D01*
X278096Y100172D01*
X279024Y99812D01*
X280002Y99629D01*
X280998D01*
X281976Y99812D01*
X282904Y100172D01*
X283750Y100696D01*
X284486Y101366D01*
X285086Y102161D01*
X285529Y103052D01*
X285802Y104009D01*
X285894Y105000D01*
X261994Y97767D02*
X261902Y98758D01*
X261630Y99715D01*
X261186Y100606D01*
X260586Y101401D01*
X259850Y102071D01*
X259004Y102595D01*
X258076Y102955D01*
X257098Y103138D01*
X256102D01*
X255124Y102955D01*
X254196Y102595D01*
X253350Y102071D01*
X252614Y101401D01*
X252014Y100606D01*
X251571Y99715D01*
X251298Y98758D01*
X251206Y97767D01*
X251298Y96776D01*
X251571Y95819D01*
X252014Y94928D01*
X252614Y94133D01*
X253350Y93463D01*
X254196Y92939D01*
X255124Y92579D01*
X256102Y92396D01*
X257098D01*
X258076Y92579D01*
X259004Y92939D01*
X259850Y93463D01*
X260586Y94133D01*
X261186Y94928D01*
X261630Y95819D01*
X261902Y96776D01*
X261994Y97767D01*
Y109767D02*
X261902Y110758D01*
X261630Y111715D01*
X261186Y112606D01*
X260586Y113401D01*
X259850Y114071D01*
X259004Y114595D01*
X258076Y114955D01*
X257098Y115138D01*
X256102D01*
X255124Y114955D01*
X254196Y114595D01*
X253350Y114071D01*
X252614Y113401D01*
X252014Y112606D01*
X251571Y111715D01*
X251298Y110758D01*
X251206Y109767D01*
X251298Y108776D01*
X251571Y107818D01*
X252014Y106928D01*
X252614Y106133D01*
X253350Y105463D01*
X254196Y104939D01*
X255124Y104579D01*
X256102Y104396D01*
X257098D01*
X258076Y104579D01*
X259004Y104939D01*
X259850Y105463D01*
X260586Y106133D01*
X261186Y106928D01*
X261630Y107818D01*
X261902Y108776D01*
X261994Y109767D01*
Y121767D02*
X261902Y122758D01*
X261630Y123715D01*
X261186Y124606D01*
X260586Y125401D01*
X259850Y126071D01*
X259004Y126595D01*
X258076Y126955D01*
X257098Y127138D01*
X256102D01*
X255124Y126955D01*
X254196Y126595D01*
X253350Y126071D01*
X252614Y125401D01*
X252014Y124606D01*
X251571Y123715D01*
X251298Y122758D01*
X251206Y121767D01*
X251298Y120776D01*
X251571Y119818D01*
X252014Y118928D01*
X252614Y118133D01*
X253350Y117463D01*
X254196Y116939D01*
X255124Y116579D01*
X256102Y116396D01*
X257098D01*
X258076Y116579D01*
X259004Y116939D01*
X259850Y117463D01*
X260586Y118133D01*
X261186Y118928D01*
X261630Y119818D01*
X261902Y120776D01*
X261994Y121767D01*
Y133767D02*
X261902Y134758D01*
X261630Y135715D01*
X261186Y136606D01*
X260586Y137401D01*
X259850Y138071D01*
X259004Y138595D01*
X258076Y138955D01*
X257098Y139138D01*
X256102D01*
X255124Y138955D01*
X254196Y138595D01*
X253350Y138071D01*
X252614Y137401D01*
X252014Y136606D01*
X251571Y135715D01*
X251298Y134758D01*
X251206Y133767D01*
X251298Y132776D01*
X251571Y131818D01*
X252014Y130928D01*
X252614Y130133D01*
X253350Y129463D01*
X254196Y128939D01*
X255124Y128579D01*
X256102Y128396D01*
X257098D01*
X258076Y128579D01*
X259004Y128939D01*
X259850Y129463D01*
X260586Y130133D01*
X261186Y130928D01*
X261630Y131818D01*
X261902Y132776D01*
X261994Y133767D01*
X154894Y103382D02*
X154802Y104373D01*
X154530Y105330D01*
X154086Y106221D01*
X153486Y107016D01*
X152750Y107686D01*
X151904Y108210D01*
X150976Y108570D01*
X149998Y108753D01*
X149002D01*
X148024Y108570D01*
X147096Y108210D01*
X146250Y107686D01*
X145514Y107016D01*
X144914Y106221D01*
X144471Y105330D01*
X144198Y104373D01*
X144106Y103382D01*
X144198Y102391D01*
X144471Y101434D01*
X144914Y100542D01*
X145514Y99748D01*
X146250Y99078D01*
X147096Y98554D01*
X148024Y98194D01*
X149002Y98011D01*
X149998D01*
X150976Y98194D01*
X151904Y98554D01*
X152750Y99078D01*
X153486Y99748D01*
X154086Y100542D01*
X154530Y101434D01*
X154802Y102391D01*
X154894Y103382D01*
Y115382D02*
X154802Y116373D01*
X154530Y117330D01*
X154086Y118221D01*
X153486Y119016D01*
X152750Y119686D01*
X151904Y120210D01*
X150976Y120570D01*
X149998Y120753D01*
X149002D01*
X148024Y120570D01*
X147096Y120210D01*
X146250Y119686D01*
X145514Y119016D01*
X144914Y118221D01*
X144471Y117330D01*
X144198Y116373D01*
X144106Y115382D01*
X144198Y114391D01*
X144471Y113434D01*
X144914Y112542D01*
X145514Y111748D01*
X146250Y111078D01*
X147096Y110554D01*
X148024Y110194D01*
X149002Y110011D01*
X149998D01*
X150976Y110194D01*
X151904Y110554D01*
X152750Y111078D01*
X153486Y111748D01*
X154086Y112542D01*
X154530Y113434D01*
X154802Y114391D01*
X154894Y115382D01*
Y127382D02*
X154802Y128373D01*
X154530Y129330D01*
X154086Y130221D01*
X153486Y131016D01*
X152750Y131686D01*
X151904Y132210D01*
X150976Y132570D01*
X149998Y132753D01*
X149002D01*
X148024Y132570D01*
X147096Y132210D01*
X146250Y131686D01*
X145514Y131016D01*
X144914Y130221D01*
X144471Y129330D01*
X144198Y128373D01*
X144106Y127382D01*
X144198Y126391D01*
X144471Y125434D01*
X144914Y124542D01*
X145514Y123748D01*
X146250Y123078D01*
X147096Y122554D01*
X148024Y122194D01*
X149002Y122011D01*
X149998D01*
X150976Y122194D01*
X151904Y122554D01*
X152750Y123078D01*
X153486Y123748D01*
X154086Y124542D01*
X154530Y125434D01*
X154802Y126391D01*
X154894Y127382D01*
Y139382D02*
X154802Y140373D01*
X154530Y141330D01*
X154086Y142221D01*
X153486Y143016D01*
X152750Y143686D01*
X151904Y144210D01*
X150976Y144570D01*
X149998Y144753D01*
X149002D01*
X148024Y144570D01*
X147096Y144210D01*
X146250Y143686D01*
X145514Y143016D01*
X144914Y142221D01*
X144471Y141330D01*
X144198Y140373D01*
X144106Y139382D01*
X144198Y138391D01*
X144471Y137434D01*
X144914Y136542D01*
X145514Y135748D01*
X146250Y135078D01*
X147096Y134554D01*
X148024Y134194D01*
X149002Y134011D01*
X149998D01*
X150976Y134194D01*
X151904Y134554D01*
X152750Y135078D01*
X153486Y135748D01*
X154086Y136542D01*
X154530Y137434D01*
X154802Y138391D01*
X154894Y139382D01*
X106894Y237500D02*
X106802Y238491D01*
X106529Y239448D01*
X106086Y240339D01*
X105486Y241134D01*
X104750Y241804D01*
X103904Y242328D01*
X102976Y242688D01*
X101998Y242871D01*
X101002D01*
X100024Y242688D01*
X99096Y242328D01*
X98250Y241804D01*
X97514Y241134D01*
X96914Y240339D01*
X96470Y239448D01*
X96198Y238491D01*
X96106Y237500D01*
X96198Y236509D01*
X96470Y235552D01*
X96914Y234661D01*
X97514Y233866D01*
X98250Y233196D01*
X99096Y232672D01*
X100024Y232312D01*
X101002Y232129D01*
X101998D01*
X102976Y232312D01*
X103904Y232672D01*
X104750Y233196D01*
X105486Y233866D01*
X106086Y234661D01*
X106529Y235552D01*
X106802Y236509D01*
X106894Y237500D01*
X203894Y161500D02*
X203802Y162491D01*
X203530Y163448D01*
X203086Y164339D01*
X202486Y165134D01*
X201750Y165804D01*
X200904Y166328D01*
X199976Y166688D01*
X198998Y166871D01*
X198002D01*
X197024Y166688D01*
X196096Y166328D01*
X195250Y165804D01*
X194514Y165134D01*
X193914Y164339D01*
X193471Y163448D01*
X193198Y162491D01*
X193106Y161500D01*
X193198Y160509D01*
X193471Y159552D01*
X193914Y158661D01*
X194514Y157866D01*
X195250Y157196D01*
X196096Y156672D01*
X197024Y156312D01*
X198002Y156129D01*
X198998D01*
X199976Y156312D01*
X200904Y156672D01*
X201750Y157196D01*
X202486Y157866D01*
X203086Y158661D01*
X203530Y159552D01*
X203802Y160509D01*
X203894Y161500D01*
X90634Y253240D02*
X90542Y254231D01*
X90270Y255189D01*
X89826Y256080D01*
X89226Y256874D01*
X88491Y257544D01*
X87644Y258068D01*
X86716Y258428D01*
X85738Y258611D01*
X84742D01*
X83764Y258428D01*
X82836Y258068D01*
X81990Y257544D01*
X81254Y256874D01*
X80654Y256080D01*
X80211Y255189D01*
X79938Y254231D01*
X79847Y253240D01*
X79938Y252249D01*
X80211Y251292D01*
X80654Y250401D01*
X81254Y249606D01*
X81990Y248936D01*
X82836Y248412D01*
X83764Y248052D01*
X84742Y247869D01*
X85738D01*
X86716Y248052D01*
X87644Y248412D01*
X88491Y248936D01*
X89226Y249606D01*
X89826Y250401D01*
X90270Y251292D01*
X90542Y252249D01*
X90634Y253240D01*
X168594Y232000D02*
X168502Y232991D01*
X168229Y233948D01*
X167786Y234839D01*
X167186Y235634D01*
X166450Y236304D01*
X165604Y236828D01*
X164676Y237188D01*
X163698Y237371D01*
X162702D01*
X161724Y237188D01*
X160796Y236828D01*
X159950Y236304D01*
X159214Y235634D01*
X158614Y234839D01*
X158170Y233948D01*
X157898Y232991D01*
X157806Y232000D01*
X157898Y231009D01*
X158170Y230052D01*
X158614Y229161D01*
X159214Y228366D01*
X159950Y227696D01*
X160796Y227172D01*
X161724Y226812D01*
X162702Y226629D01*
X163698D01*
X164676Y226812D01*
X165604Y227172D01*
X166450Y227696D01*
X167186Y228366D01*
X167786Y229161D01*
X168229Y230052D01*
X168502Y231009D01*
X168594Y232000D01*
X160394Y217206D02*
X160302Y218197D01*
X160029Y219155D01*
X159586Y220046D01*
X158986Y220840D01*
X158250Y221511D01*
X157404Y222035D01*
X156476Y222394D01*
X155498Y222577D01*
X154502D01*
X153524Y222394D01*
X152596Y222035D01*
X151750Y221511D01*
X151014Y220840D01*
X150414Y220046D01*
X149970Y219155D01*
X149698Y218197D01*
X149606Y217206D01*
X149698Y216215D01*
X149970Y215258D01*
X150414Y214367D01*
X151014Y213573D01*
X151750Y212902D01*
X152596Y212378D01*
X153524Y212018D01*
X154502Y211836D01*
X155498D01*
X156476Y212018D01*
X157404Y212378D01*
X158250Y212902D01*
X158986Y213573D01*
X159586Y214367D01*
X160029Y215258D01*
X160302Y216215D01*
X160394Y217206D01*
X205444Y175050D02*
X205352Y176041D01*
X205080Y176998D01*
X204636Y177889D01*
X204036Y178684D01*
X203300Y179354D01*
X202454Y179878D01*
X201526Y180238D01*
X200548Y180421D01*
X199552D01*
X198574Y180238D01*
X197646Y179878D01*
X196800Y179354D01*
X196064Y178684D01*
X195464Y177889D01*
X195020Y176998D01*
X194748Y176041D01*
X194656Y175050D01*
X194748Y174059D01*
X195020Y173102D01*
X195464Y172211D01*
X196064Y171416D01*
X196800Y170746D01*
X197646Y170222D01*
X198574Y169862D01*
X199552Y169679D01*
X200548D01*
X201526Y169862D01*
X202454Y170222D01*
X203300Y170746D01*
X204036Y171416D01*
X204636Y172211D01*
X205080Y173102D01*
X205352Y174059D01*
X205444Y175050D01*
X264894Y228584D02*
X264802Y229575D01*
X264529Y230533D01*
X264086Y231424D01*
X263486Y232218D01*
X262750Y232889D01*
X261904Y233413D01*
X260976Y233772D01*
X259998Y233955D01*
X259002D01*
X258024Y233772D01*
X257096Y233413D01*
X256250Y232889D01*
X255514Y232218D01*
X254914Y231424D01*
X254470Y230533D01*
X254198Y229575D01*
X254106Y228584D01*
X254198Y227593D01*
X254470Y226636D01*
X254914Y225745D01*
X255514Y224951D01*
X256250Y224280D01*
X257096Y223756D01*
X258024Y223396D01*
X259002Y223214D01*
X259998D01*
X260976Y223396D01*
X261904Y223756D01*
X262750Y224280D01*
X263486Y224951D01*
X264086Y225745D01*
X264529Y226636D01*
X264802Y227593D01*
X264894Y228584D01*
X26134Y205984D02*
Y243779D01*
X5774D02*
X26134D01*
X5774Y205984D02*
X26134D01*
X5774D02*
Y243779D01*
X338575Y78832D02*
X356291D01*
X338575Y66234D02*
X356291D01*
X338575D02*
Y78832D01*
X356291Y66234D02*
Y78832D01*
X335627Y96864D02*
X351768D01*
X335627Y125604D02*
X351768D01*
X335627Y96864D02*
Y125604D01*
X351768Y96864D02*
Y125604D01*
X158565Y53431D02*
X174706D01*
X158565Y82171D02*
X174706D01*
X158565Y53431D02*
Y82171D01*
X174706Y53431D02*
Y82171D01*
X193374Y117492D02*
X227626D01*
X193374Y141508D02*
X227626D01*
Y117492D02*
Y141508D01*
X193374Y117492D02*
Y141508D01*
X115130Y251929D02*
Y268071D01*
X143870Y251929D02*
Y268071D01*
X115130D02*
X143870D01*
X115130Y251929D02*
X143870D01*
X178152Y216143D02*
X227561D01*
X178152Y246458D02*
X227561D01*
Y216143D02*
Y246458D01*
X178152Y216143D02*
Y246458D01*
X82500Y51609D02*
X121391Y90500D01*
X43609D02*
X82500Y129391D01*
X121391Y90500D01*
X43609D02*
X82500Y51609D01*
X256029Y191577D02*
X321383D01*
X256029Y141183D02*
X321383D01*
Y191577D01*
X256029Y141183D02*
Y191577D01*
X325795Y226343D02*
X375205D01*
X325795Y256658D02*
X375205D01*
Y226343D02*
Y256658D01*
X325795Y226343D02*
Y256658D01*
X117000Y279535D02*
Y315035D01*
Y279535D02*
X142000D01*
Y315035D01*
X117000D02*
X142000D01*
X65901Y46050D02*
X75450Y55599D01*
X65901Y46050D02*
X70550Y41401D01*
X70550Y41401D02*
X80099Y50950D01*
X75450Y55599D02*
X80099Y50950D01*
X114945Y271134D02*
Y287866D01*
X108055Y271134D02*
X114945D01*
X108055D02*
Y287866D01*
X114945D01*
X36020Y300524D02*
Y328476D01*
X50980Y300524D02*
Y328476D01*
X36020Y300524D02*
X50980D01*
X36020Y328476D02*
X50980D01*
X197106Y290988D02*
Y352012D01*
X147894Y290988D02*
Y352012D01*
X197106D01*
X147894Y290988D02*
X197106D01*
X110106D02*
Y352012D01*
X60894Y290988D02*
Y352012D01*
X110106D01*
X60894Y290988D02*
X110106D01*
D108*
X274761Y241835D02*
X276021D01*
X290761D02*
Y252735D01*
X289502D02*
X290761D01*
X289502D02*
Y256186D01*
X276021D02*
X289502D01*
X276021Y252735D02*
Y256186D01*
X274761Y252735D02*
X276021D01*
X274761Y241835D02*
Y252735D01*
X276021Y238386D02*
Y241835D01*
Y238386D02*
X289502D01*
Y241835D01*
X290761D01*
X186940Y181750D02*
X188200D01*
X172200Y170850D02*
Y181750D01*
Y170850D02*
X173460D01*
Y167400D02*
Y170850D01*
Y167400D02*
X186940D01*
Y170850D01*
X188200D01*
Y181750D01*
X186940D02*
Y185200D01*
X173460D02*
X186940D01*
X173460Y181750D02*
Y185200D01*
X172200Y181750D02*
X173460D01*
D109*
X314972Y72000D02*
X316547D01*
X315760Y71213D02*
Y72787D01*
X308673Y75150D02*
X322847D01*
Y68850D02*
Y75150D01*
X308673Y68850D02*
X322847D01*
X308673D02*
Y75150D01*
X368698Y100947D02*
Y102522D01*
X367910Y101734D02*
X369485D01*
X371847Y94648D02*
Y108821D01*
X365548Y94648D02*
X371847D01*
X365548D02*
Y108821D01*
X371847D01*
X357635Y94447D02*
Y96022D01*
X356848Y95235D02*
X358423D01*
X360785Y88148D02*
Y102321D01*
X354486Y88148D02*
X360785D01*
X354486D02*
Y102321D01*
X360785D01*
X314972Y81500D02*
X316547D01*
X315760Y80713D02*
Y82287D01*
X308673Y84650D02*
X322847D01*
Y78350D02*
Y84650D01*
X308673Y78350D02*
X322847D01*
X308673D02*
Y84650D01*
X368698Y118947D02*
Y120522D01*
X367910Y119734D02*
X369485D01*
X365548Y112648D02*
Y126821D01*
X371847D01*
Y112648D02*
Y126821D01*
X365548Y112648D02*
X371847D01*
X357698Y125447D02*
Y127022D01*
X356910Y126234D02*
X358485D01*
X354548Y119148D02*
Y133321D01*
X360847D01*
Y119148D02*
Y133321D01*
X354548Y119148D02*
X360847D01*
X296535Y246713D02*
Y248287D01*
X295748Y247500D02*
X297323D01*
X293386Y240413D02*
Y254587D01*
X299685D01*
Y240413D02*
Y254587D01*
X293386Y240413D02*
X299685D01*
X306206Y246713D02*
Y248287D01*
X305419Y247500D02*
X306994D01*
X303057Y240413D02*
Y254587D01*
X309356D01*
Y240413D02*
Y254587D01*
X303057Y240413D02*
X309356D01*
X183292Y57170D02*
Y58745D01*
X182505Y57958D02*
X184080D01*
X180142Y50871D02*
Y65044D01*
X186442D01*
Y50871D02*
Y65044D01*
X180142Y50871D02*
X186442D01*
X193135Y57170D02*
Y58745D01*
X192348Y57958D02*
X193923D01*
X189986Y50871D02*
Y65044D01*
X196285D01*
Y50871D02*
Y65044D01*
X189986Y50871D02*
X196285D01*
X183292Y76470D02*
Y78045D01*
X182505Y77258D02*
X184080D01*
X186442Y70171D02*
Y84344D01*
X180142Y70171D02*
X186442D01*
X180142D02*
Y84344D01*
X186442D01*
X193135Y76470D02*
Y78045D01*
X192348Y77258D02*
X193923D01*
X196285Y70171D02*
Y84344D01*
X189986Y70171D02*
X196285D01*
X189986D02*
Y84344D01*
X196285D01*
X363066Y64413D02*
Y65987D01*
X362279Y65200D02*
X363854D01*
X359916Y58113D02*
Y72287D01*
X366216D01*
Y58113D02*
Y72287D01*
X359916Y58113D02*
X366216D01*
X361946Y206540D02*
X363520D01*
X362733Y205753D02*
Y207328D01*
X355646Y203391D02*
X369820D01*
X355646D02*
Y209690D01*
X369820D01*
Y203391D02*
Y209690D01*
X272705Y228584D02*
X274279D01*
X273492Y227797D02*
Y229372D01*
X266406Y225435D02*
X280579D01*
X266406D02*
Y231734D01*
X280579D01*
Y225435D02*
Y231734D01*
X116713Y245500D02*
X118287D01*
X117500Y244713D02*
Y246287D01*
X110413Y248650D02*
X124587D01*
Y242350D02*
Y248650D01*
X110413Y242350D02*
X124587D01*
X110413D02*
Y248650D01*
X103453Y253240D02*
X105028D01*
X104240Y252453D02*
Y254028D01*
X97154Y256390D02*
X111327D01*
Y250091D02*
Y256390D01*
X97154Y250091D02*
X111327D01*
X97154D02*
Y256390D01*
X100465Y264972D02*
Y266547D01*
X99677Y265760D02*
X101252D01*
X103614Y258673D02*
Y272847D01*
X97315Y258673D02*
X103614D01*
X97315D02*
Y272847D01*
X103614D01*
X67500Y248008D02*
Y249583D01*
X66713Y248795D02*
X68287D01*
X64350Y241709D02*
Y255882D01*
X70650D01*
Y241709D02*
Y255882D01*
X64350Y241709D02*
X70650D01*
X167713Y210000D02*
X169287D01*
X168500Y209213D02*
Y210787D01*
X161413Y213150D02*
X175587D01*
Y206850D02*
Y213150D01*
X161413Y206850D02*
X175587D01*
X161413D02*
Y213150D01*
X325706Y130593D02*
Y132168D01*
X324919Y131380D02*
X326494D01*
X328856Y124294D02*
Y138467D01*
X322557Y124294D02*
X328856D01*
X322557D02*
Y138467D01*
X328856D01*
X306713Y222500D02*
X308287D01*
X307500Y221713D02*
Y223287D01*
X300413Y219350D02*
X314587D01*
X300413D02*
Y225650D01*
X314587D01*
Y219350D02*
Y225650D01*
X366146Y77891D02*
X367720D01*
X366933Y77104D02*
Y78678D01*
X359846Y74741D02*
X374020D01*
X359846D02*
Y81041D01*
X374020D01*
Y74741D02*
Y81041D01*
X347646Y61460D02*
X349220D01*
X348433Y60672D02*
Y62247D01*
X341346Y64609D02*
X355520D01*
Y58310D02*
Y64609D01*
X341346Y58310D02*
X355520D01*
X341346D02*
Y64609D01*
X365933Y190453D02*
Y192028D01*
X365146Y191240D02*
X366720D01*
X369083Y184153D02*
Y198327D01*
X362783Y184153D02*
X369083D01*
X362783D02*
Y198327D01*
X369083D01*
X347733Y182853D02*
Y184428D01*
X346946Y183640D02*
X348520D01*
X350883Y176553D02*
Y190727D01*
X344583Y176553D02*
X350883D01*
X344583D02*
Y190727D01*
X350883D01*
X296206Y199593D02*
Y201168D01*
X295419Y200380D02*
X296994D01*
X293057Y193294D02*
Y207467D01*
X299356D01*
Y193294D02*
Y207467D01*
X293057Y193294D02*
X299356D01*
X341946Y161140D02*
X343520D01*
X342733Y160353D02*
Y161928D01*
X335646Y157991D02*
X349820D01*
X335646D02*
Y164290D01*
X349820D01*
Y157991D02*
Y164290D01*
X356733Y182853D02*
Y184428D01*
X355946Y183640D02*
X357520D01*
X359883Y176553D02*
Y190727D01*
X353583Y176553D02*
X359883D01*
X353583D02*
Y190727D01*
X359883D01*
X336733Y172853D02*
Y174428D01*
X335946Y173640D02*
X337520D01*
X333583Y166553D02*
Y180727D01*
X339883D01*
Y166553D02*
Y180727D01*
X333583Y166553D02*
X339883D01*
X271333Y199676D02*
Y201251D01*
X270546Y200464D02*
X272120D01*
X274483Y193377D02*
Y207550D01*
X268183Y193377D02*
X274483D01*
X268183D02*
Y207550D01*
X274483D01*
X237863Y120500D02*
X239437D01*
X238650Y119713D02*
Y121287D01*
X231563Y123650D02*
X245737D01*
Y117350D02*
Y123650D01*
X231563Y117350D02*
X245737D01*
X231563D02*
Y123650D01*
X237863Y128500D02*
X239437D01*
X238650Y127713D02*
Y129287D01*
X231563Y131650D02*
X245737D01*
Y125350D02*
Y131650D01*
X231563Y125350D02*
X245737D01*
X231563D02*
Y131650D01*
X237863Y136500D02*
X239437D01*
X238650Y135713D02*
Y137287D01*
X231563Y139650D02*
X245737D01*
Y133350D02*
Y139650D01*
X231563Y133350D02*
X245737D01*
X231563D02*
Y139650D01*
X237863Y145000D02*
X239437D01*
X238650Y144213D02*
Y145787D01*
X231563Y148150D02*
X245737D01*
Y141850D02*
Y148150D01*
X231563Y141850D02*
X245737D01*
X231563D02*
Y148150D01*
X268474Y247286D02*
X269261D01*
Y248073D01*
Y247286D02*
X270049D01*
X269261Y246498D02*
Y247286D01*
X265324Y239411D02*
Y255159D01*
X273198D01*
Y239411D02*
Y255159D01*
X265324Y239411D02*
X273198D01*
X62317Y59057D02*
X62874Y58500D01*
X63430Y59057D01*
X62874Y58500D02*
X63430Y57943D01*
X62317D02*
X62874Y58500D01*
X54522Y55716D02*
X65658Y66852D01*
X71225Y61284D01*
X60090Y50148D02*
X71225Y61284D01*
X54522Y55716D02*
X60090Y50148D01*
X197657Y106626D02*
Y107414D01*
Y106626D02*
X198444D01*
X197657Y105839D02*
Y106626D01*
X196869D02*
X197657D01*
X189783Y110563D02*
X205531D01*
Y102689D02*
Y110563D01*
X189783Y102689D02*
X205531D01*
X189783D02*
Y110563D01*
X139113Y71957D02*
X139900D01*
Y72745D01*
Y71957D02*
X140687D01*
X139900Y71170D02*
Y71957D01*
X135963Y64083D02*
Y79831D01*
X143837D01*
Y64083D02*
Y79831D01*
X135963Y64083D02*
X143837D01*
X151348Y71957D02*
X152135D01*
Y72745D01*
Y71957D02*
X152923D01*
X152135Y71170D02*
Y71957D01*
X148198Y64083D02*
Y79831D01*
X156072D01*
Y64083D02*
Y79831D01*
X148198Y64083D02*
X156072D01*
X341198Y90447D02*
Y91234D01*
X340410D02*
X341198D01*
Y92022D01*
Y91234D02*
X341985D01*
X333324Y87297D02*
X349072D01*
X333324D02*
Y95171D01*
X349072D01*
Y87297D02*
Y95171D01*
X343698Y130447D02*
Y131234D01*
X342910D02*
X343698D01*
Y132022D01*
Y131234D02*
X344485D01*
X335824Y127297D02*
X351572D01*
X335824D02*
Y135171D01*
X351572D01*
Y127297D02*
Y135171D01*
X311713Y98000D02*
X312500D01*
Y98787D01*
Y98000D02*
X313287D01*
X312500Y97213D02*
Y98000D01*
X308563Y90126D02*
Y105874D01*
X316437D01*
Y90126D02*
Y105874D01*
X308563Y90126D02*
X316437D01*
X327713Y112000D02*
X328500D01*
Y112787D01*
Y112000D02*
X329287D01*
X328500Y111213D02*
Y112000D01*
X324563Y104126D02*
Y119874D01*
X332437D01*
Y104126D02*
Y119874D01*
X324563Y104126D02*
X332437D01*
X218500Y145735D02*
Y146523D01*
Y145735D02*
X219287D01*
X218500Y144948D02*
Y145735D01*
X217713D02*
X218500D01*
X210626Y149672D02*
X226374D01*
Y141798D02*
Y149672D01*
X210626Y141798D02*
X226374D01*
X210626D02*
Y149672D01*
X194392Y145800D02*
Y146587D01*
Y145800D02*
X195179D01*
X194392Y145013D02*
Y145800D01*
X193605D02*
X194392D01*
X186518Y149737D02*
X202266D01*
Y141863D02*
Y149737D01*
X186518Y141863D02*
X202266D01*
X186518D02*
Y149737D01*
X343733Y205753D02*
Y206540D01*
X342946D02*
X343733D01*
Y207328D01*
Y206540D02*
X344520D01*
X335859Y202603D02*
X351607D01*
X335859D02*
Y210477D01*
X351607D01*
Y202603D02*
Y210477D01*
X225657Y105839D02*
Y106626D01*
X224869D02*
X225657D01*
Y107414D01*
Y106626D02*
X226444D01*
X217783Y102689D02*
X233531D01*
X217783D02*
Y110563D01*
X233531D01*
Y102689D02*
Y110563D01*
X181700Y161500D02*
Y162287D01*
Y161500D02*
X182487D01*
X181700Y160713D02*
Y161500D01*
X180913D02*
X181700D01*
X173826Y165437D02*
X189574D01*
Y157563D02*
Y165437D01*
X173826Y157563D02*
X189574D01*
X173826D02*
Y165437D01*
X181700Y191800D02*
Y192587D01*
Y191800D02*
X182487D01*
X181700Y191013D02*
Y191800D01*
X180913D02*
X181700D01*
X173826Y195737D02*
X189574D01*
Y187863D02*
Y195737D01*
X173826Y187863D02*
X189574D01*
X173826D02*
Y195737D01*
X157613Y257600D02*
X158400D01*
Y258387D01*
Y257600D02*
X159187D01*
X158400Y256813D02*
Y257600D01*
X154463Y249726D02*
Y265474D01*
X162337D01*
Y249726D02*
Y265474D01*
X154463Y249726D02*
X162337D01*
X146713Y273500D02*
X147500D01*
Y274287D01*
Y273500D02*
X148287D01*
X147500Y272713D02*
Y273500D01*
X143563Y265626D02*
Y281374D01*
X151437D01*
Y265626D02*
Y281374D01*
X143563Y265626D02*
X151437D01*
X190357Y253013D02*
Y253800D01*
X189569D02*
X190357D01*
Y254587D01*
Y253800D02*
X191144D01*
X182483Y249863D02*
X198231D01*
X182483D02*
Y257737D01*
X198231D01*
Y249863D02*
Y257737D01*
X189857Y207300D02*
Y208087D01*
Y207300D02*
X190644D01*
X189857Y206513D02*
Y207300D01*
X189069D02*
X189857D01*
X181983Y211237D02*
X197731D01*
Y203363D02*
Y211237D01*
X181983Y203363D02*
X197731D01*
X181983D02*
Y211237D01*
X59874Y41000D02*
X60430Y41557D01*
X59874Y41000D02*
X60430Y40443D01*
X59317D02*
X59874Y41000D01*
X59317Y41557D02*
X59874Y41000D01*
X57090Y49352D02*
X68225Y38216D01*
X62657Y32648D02*
X68225Y38216D01*
X51522Y43784D02*
X62657Y32648D01*
X51522Y43784D02*
X57090Y49352D01*
X118713Y83500D02*
X119500D01*
Y84287D01*
Y83500D02*
X120287D01*
X119500Y82713D02*
Y83500D01*
X115563Y75626D02*
Y91374D01*
X123437D01*
Y75626D02*
Y91374D01*
X115563Y75626D02*
X123437D01*
X89149Y126913D02*
Y127700D01*
X88362D02*
X89149D01*
Y128487D01*
Y127700D02*
X89937D01*
X81275Y123763D02*
X97023D01*
X81275D02*
Y131637D01*
X97023D01*
Y123763D02*
Y131637D01*
X44000Y96300D02*
X44787D01*
X44000Y95513D02*
Y96300D01*
X43213D02*
X44000D01*
Y97087D01*
X47937Y88426D02*
Y104174D01*
X40063Y88426D02*
X47937D01*
X40063D02*
Y104174D01*
X47937D01*
X101443Y50343D02*
X102000Y50900D01*
X101443Y51457D02*
X102000Y50900D01*
X102557Y51457D01*
X102000Y50900D02*
X102557Y50343D01*
X93648Y53684D02*
X104784Y42548D01*
X93648Y53684D02*
X99216Y59252D01*
X110352Y48116D01*
X104784Y42548D02*
X110352Y48116D01*
X82443Y42057D02*
X83000Y41500D01*
X83557Y42057D01*
X83000Y41500D02*
X83557Y40943D01*
X82443D02*
X83000Y41500D01*
X74648Y38716D02*
X85784Y49852D01*
X91352Y44284D01*
X80216Y33148D02*
X91352Y44284D01*
X74648Y38716D02*
X80216Y33148D01*
X134000Y91700D02*
X134787D01*
X134000Y90913D02*
Y91700D01*
X133213D02*
X134000D01*
Y92487D01*
X137937Y83826D02*
Y99574D01*
X130063Y83826D02*
X137937D01*
X130063D02*
Y99574D01*
X137937D01*
X51400Y72300D02*
X51957Y72857D01*
X51400Y72300D02*
X51957Y71743D01*
X50843D02*
X51400Y72300D01*
X50843Y72857D02*
X51400Y72300D01*
X48616Y80652D02*
X59752Y69516D01*
X54184Y63948D02*
X59752Y69516D01*
X43048Y75084D02*
X54184Y63948D01*
X43048Y75084D02*
X48616Y80652D01*
X313706Y131380D02*
X314494D01*
X313706Y130593D02*
Y131380D01*
X312919D02*
X313706D01*
Y132168D01*
X317643Y123506D02*
Y139254D01*
X309769Y123506D02*
X317643D01*
X309769D02*
Y139254D01*
X317643D01*
X250046Y181380D02*
X250833D01*
Y182168D01*
Y181380D02*
X251620D01*
X250833Y180593D02*
Y181380D01*
X246896Y173506D02*
Y189254D01*
X254770D01*
Y173506D02*
Y189254D01*
X246896Y173506D02*
X254770D01*
X300419Y131380D02*
X301206D01*
Y132168D01*
Y131380D02*
X301994D01*
X301206Y130593D02*
Y131380D01*
X297269Y123506D02*
Y139254D01*
X305143D01*
Y123506D02*
Y139254D01*
X297269Y123506D02*
X305143D01*
X280919Y200380D02*
X281706D01*
Y201168D01*
Y200380D02*
X282494D01*
X281706Y199593D02*
Y200380D01*
X277769Y192506D02*
Y208254D01*
X285643D01*
Y192506D02*
Y208254D01*
X277769Y192506D02*
X285643D01*
X260546Y200880D02*
X261333D01*
Y201668D01*
Y200880D02*
X262120D01*
X261333Y200093D02*
Y200880D01*
X257396Y193006D02*
Y208754D01*
X265270D01*
Y193006D02*
Y208754D01*
X257396Y193006D02*
X265270D01*
X308883Y200380D02*
X309671D01*
Y201168D01*
Y200380D02*
X310458D01*
X309671Y199593D02*
Y200380D01*
X305734Y192506D02*
Y208254D01*
X313608D01*
Y192506D02*
Y208254D01*
X305734Y192506D02*
X313608D01*
X285706Y134880D02*
Y135668D01*
Y134880D02*
X286494D01*
X285706Y134093D02*
Y134880D01*
X284919D02*
X285706D01*
X277832Y138817D02*
X293580D01*
Y130943D02*
Y138817D01*
X277832Y130943D02*
X293580D01*
X277832D02*
Y138817D01*
X325013Y199353D02*
Y200140D01*
X324225D02*
X325013D01*
Y200928D01*
Y200140D02*
X325800D01*
X317139Y196203D02*
X332887D01*
X317139D02*
Y204077D01*
X332887D01*
Y196203D02*
Y204077D01*
M02*
