G04*
G04 #@! TF.GenerationSoftware,Altium Limited,Altium Designer,18.1.9 (240)*
G04*
G04 Layer_Color=32896*
%FSLAX25Y25*%
%MOIN*%
G70*
G01*
G75*
%ADD15C,0.00800*%
D15*
X257601Y90999D02*
X258201Y91599D01*
X259400D01*
X260000Y90999D01*
Y88600D01*
X259400Y88000D01*
X258201D01*
X257601Y88600D01*
X254002Y91599D02*
X255202D01*
X254602D01*
Y88600D01*
X255202Y88000D01*
X255801D01*
X256401Y88600D01*
X252802Y87400D02*
X250403D01*
X246804Y90999D02*
X247404Y91599D01*
X248604D01*
X249203Y90999D01*
Y90399D01*
X248604Y89799D01*
X247404D01*
X246804Y89200D01*
Y88600D01*
X247404Y88000D01*
X248604D01*
X249203Y88600D01*
X245605Y88000D02*
Y91599D01*
X243805D01*
X243205Y90999D01*
Y89799D01*
X243805Y89200D01*
X245605D01*
X242006Y91599D02*
X240806D01*
X241406D01*
Y88000D01*
X242006D01*
X240806D01*
X239007Y87400D02*
X236608D01*
X233009Y90999D02*
X233609Y91599D01*
X234808D01*
X235408Y90999D01*
Y90399D01*
X234808Y89799D01*
X233609D01*
X233009Y89200D01*
Y88600D01*
X233609Y88000D01*
X234808D01*
X235408Y88600D01*
X229410Y91599D02*
X231809D01*
Y88000D01*
X229410D01*
X231809Y89799D02*
X230609D01*
X228210Y91599D02*
Y88000D01*
X225811D01*
X247101Y112499D02*
X247701Y113099D01*
X248900D01*
X249500Y112499D01*
Y110100D01*
X248900Y109500D01*
X247701D01*
X247101Y110100D01*
X243502Y113099D02*
X244702D01*
X244102D01*
Y110100D01*
X244702Y109500D01*
X245301D01*
X245901Y110100D01*
X242302Y108900D02*
X239903D01*
X236304Y112499D02*
X236904Y113099D01*
X238104D01*
X238703Y112499D01*
Y111899D01*
X238104Y111299D01*
X236904D01*
X236304Y110700D01*
Y110100D01*
X236904Y109500D01*
X238104D01*
X238703Y110100D01*
X235105Y109500D02*
Y113099D01*
X233305D01*
X232705Y112499D01*
Y111299D01*
X233305Y110700D01*
X235105D01*
X231506Y113099D02*
X230306D01*
X230906D01*
Y109500D01*
X231506D01*
X230306D01*
X228507Y108900D02*
X226108D01*
X224908Y109500D02*
Y113099D01*
X223708Y111899D01*
X222509Y113099D01*
Y109500D01*
X219510Y113099D02*
X220709D01*
X221309Y112499D01*
Y110100D01*
X220709Y109500D01*
X219510D01*
X218910Y110100D01*
Y112499D01*
X219510Y113099D01*
X215311Y112499D02*
X215911Y113099D01*
X217110D01*
X217710Y112499D01*
Y111899D01*
X217110Y111299D01*
X215911D01*
X215311Y110700D01*
Y110100D01*
X215911Y109500D01*
X217110D01*
X217710Y110100D01*
X214111Y113099D02*
X212912D01*
X213512D01*
Y109500D01*
X214111D01*
X212912D01*
X242434Y122499D02*
X243034Y123099D01*
X244233D01*
X244833Y122499D01*
Y120100D01*
X244233Y119500D01*
X243034D01*
X242434Y120100D01*
X238835Y123099D02*
X240035D01*
X239435D01*
Y120100D01*
X240035Y119500D01*
X240634D01*
X241234Y120100D01*
X237635Y118900D02*
X235236D01*
X231637Y122499D02*
X232237Y123099D01*
X233437D01*
X234036Y122499D01*
Y121899D01*
X233437Y121299D01*
X232237D01*
X231637Y120700D01*
Y120100D01*
X232237Y119500D01*
X233437D01*
X234036Y120100D01*
X230438Y119500D02*
Y123099D01*
X228638D01*
X228039Y122499D01*
Y121299D01*
X228638Y120700D01*
X230438D01*
X226839Y123099D02*
X225639D01*
X226239D01*
Y119500D01*
X226839D01*
X225639D01*
X223840Y118900D02*
X221441D01*
X220241Y119500D02*
Y123099D01*
X219041Y121899D01*
X217842Y123099D01*
Y119500D01*
X216642Y123099D02*
X215442D01*
X216042D01*
Y119500D01*
X216642D01*
X215442D01*
X211244Y122499D02*
X211844Y123099D01*
X213043D01*
X213643Y122499D01*
Y121899D01*
X213043Y121299D01*
X211844D01*
X211244Y120700D01*
Y120100D01*
X211844Y119500D01*
X213043D01*
X213643Y120100D01*
X208245Y123099D02*
X209444D01*
X210044Y122499D01*
Y120100D01*
X209444Y119500D01*
X208245D01*
X207645Y120100D01*
Y122499D01*
X208245Y123099D01*
X242601Y135058D02*
X243201Y135658D01*
X244400D01*
X245000Y135058D01*
Y132659D01*
X244400Y132059D01*
X243201D01*
X242601Y132659D01*
X239002Y135658D02*
X240201D01*
X239602D01*
Y132659D01*
X240201Y132059D01*
X240801D01*
X241401Y132659D01*
X237802Y131459D02*
X235403D01*
X231804Y135058D02*
X232404Y135658D01*
X233604D01*
X234204Y135058D01*
Y134458D01*
X233604Y133859D01*
X232404D01*
X231804Y133259D01*
Y132659D01*
X232404Y132059D01*
X233604D01*
X234204Y132659D01*
X230605Y132059D02*
Y135658D01*
X228805D01*
X228205Y135058D01*
Y133859D01*
X228805Y133259D01*
X230605D01*
X227006Y135658D02*
X225806D01*
X226406D01*
Y132059D01*
X227006D01*
X225806D01*
X224007Y131459D02*
X221607D01*
X218009Y135058D02*
X218608Y135658D01*
X219808D01*
X220408Y135058D01*
Y134458D01*
X219808Y133859D01*
X218608D01*
X218009Y133259D01*
Y132659D01*
X218608Y132059D01*
X219808D01*
X220408Y132659D01*
X214410Y135058D02*
X215010Y135658D01*
X216209D01*
X216809Y135058D01*
Y132659D01*
X216209Y132059D01*
X215010D01*
X214410Y132659D01*
X213210Y135658D02*
Y132059D01*
Y133259D01*
X210811Y135658D01*
X212610Y133859D01*
X210811Y132059D01*
X144000Y134599D02*
Y131600D01*
X143400Y131000D01*
X142201D01*
X141601Y131600D01*
Y134599D01*
X138002Y133999D02*
X138602Y134599D01*
X139801D01*
X140401Y133999D01*
Y131600D01*
X139801Y131000D01*
X138602D01*
X138002Y131600D01*
X136802Y130400D02*
X134403D01*
X130804Y133999D02*
X131404Y134599D01*
X132604D01*
X133203Y133999D01*
Y133399D01*
X132604Y132799D01*
X131404D01*
X130804Y132200D01*
Y131600D01*
X131404Y131000D01*
X132604D01*
X133203Y131600D01*
X129605Y131000D02*
Y134599D01*
X127805D01*
X127205Y133999D01*
Y132799D01*
X127805Y132200D01*
X129605D01*
X126006Y134599D02*
X124806D01*
X125406D01*
Y131000D01*
X126006D01*
X124806D01*
X123007Y130400D02*
X120607D01*
X119408Y131000D02*
Y134599D01*
X118208Y133399D01*
X117009Y134599D01*
Y131000D01*
X115809Y134599D02*
X114610D01*
X115209D01*
Y131000D01*
X115809D01*
X114610D01*
X110411Y133999D02*
X111011Y134599D01*
X112210D01*
X112810Y133999D01*
Y133399D01*
X112210Y132799D01*
X111011D01*
X110411Y132200D01*
Y131600D01*
X111011Y131000D01*
X112210D01*
X112810Y131600D01*
X107412Y134599D02*
X108611D01*
X109211Y133999D01*
Y131600D01*
X108611Y131000D01*
X107412D01*
X106812Y131600D01*
Y133999D01*
X107412Y134599D01*
X143500Y122099D02*
Y119100D01*
X142900Y118500D01*
X141701D01*
X141101Y119100D01*
Y122099D01*
X137502Y121499D02*
X138102Y122099D01*
X139301D01*
X139901Y121499D01*
Y119100D01*
X139301Y118500D01*
X138102D01*
X137502Y119100D01*
X136302Y117900D02*
X133903D01*
X130304Y121499D02*
X130904Y122099D01*
X132104D01*
X132703Y121499D01*
Y120899D01*
X132104Y120299D01*
X130904D01*
X130304Y119700D01*
Y119100D01*
X130904Y118500D01*
X132104D01*
X132703Y119100D01*
X129105Y118500D02*
Y122099D01*
X127305D01*
X126705Y121499D01*
Y120299D01*
X127305Y119700D01*
X129105D01*
X125506Y122099D02*
X124306D01*
X124906D01*
Y118500D01*
X125506D01*
X124306D01*
X122507Y117900D02*
X120107D01*
X118908Y118500D02*
Y122099D01*
X117708Y120899D01*
X116509Y122099D01*
Y118500D01*
X113510Y122099D02*
X114709D01*
X115309Y121499D01*
Y119100D01*
X114709Y118500D01*
X113510D01*
X112910Y119100D01*
Y121499D01*
X113510Y122099D01*
X109311Y121499D02*
X109911Y122099D01*
X111110D01*
X111710Y121499D01*
Y120899D01*
X111110Y120299D01*
X109911D01*
X109311Y119700D01*
Y119100D01*
X109911Y118500D01*
X111110D01*
X111710Y119100D01*
X108111Y122099D02*
X106912D01*
X107512D01*
Y118500D01*
X108111D01*
X106912D01*
X143500Y105599D02*
Y102600D01*
X142900Y102000D01*
X141701D01*
X141101Y102600D01*
Y105599D01*
X137502Y104999D02*
X138102Y105599D01*
X139301D01*
X139901Y104999D01*
Y102600D01*
X139301Y102000D01*
X138102D01*
X137502Y102600D01*
X136302Y101400D02*
X133903D01*
X130304Y104999D02*
X130904Y105599D01*
X132104D01*
X132703Y104999D01*
Y104399D01*
X132104Y103799D01*
X130904D01*
X130304Y103200D01*
Y102600D01*
X130904Y102000D01*
X132104D01*
X132703Y102600D01*
X129105Y102000D02*
Y105599D01*
X127305D01*
X126705Y104999D01*
Y103799D01*
X127305Y103200D01*
X129105D01*
X125506Y105599D02*
X124306D01*
X124906D01*
Y102000D01*
X125506D01*
X124306D01*
X122507Y101400D02*
X120107D01*
X116509Y104999D02*
X117109Y105599D01*
X118308D01*
X118908Y104999D01*
Y104399D01*
X118308Y103799D01*
X117109D01*
X116509Y103200D01*
Y102600D01*
X117109Y102000D01*
X118308D01*
X118908Y102600D01*
X112910Y105599D02*
X115309D01*
Y102000D01*
X112910D01*
X115309Y103799D02*
X114110D01*
X111710Y105599D02*
Y102000D01*
X109311D01*
X144000Y145599D02*
Y142600D01*
X143400Y142000D01*
X142201D01*
X141601Y142600D01*
Y145599D01*
X138002Y144999D02*
X138602Y145599D01*
X139801D01*
X140401Y144999D01*
Y142600D01*
X139801Y142000D01*
X138602D01*
X138002Y142600D01*
X136802Y141400D02*
X134403D01*
X130804Y144999D02*
X131404Y145599D01*
X132604D01*
X133203Y144999D01*
Y144399D01*
X132604Y143799D01*
X131404D01*
X130804Y143200D01*
Y142600D01*
X131404Y142000D01*
X132604D01*
X133203Y142600D01*
X129605Y142000D02*
Y145599D01*
X127805D01*
X127205Y144999D01*
Y143799D01*
X127805Y143200D01*
X129605D01*
X126006Y145599D02*
X124806D01*
X125406D01*
Y142000D01*
X126006D01*
X124806D01*
X123007Y141400D02*
X120607D01*
X117009Y144999D02*
X117608Y145599D01*
X118808D01*
X119408Y144999D01*
Y144399D01*
X118808Y143799D01*
X117608D01*
X117009Y143200D01*
Y142600D01*
X117608Y142000D01*
X118808D01*
X119408Y142600D01*
X113410Y144999D02*
X114010Y145599D01*
X115209D01*
X115809Y144999D01*
Y142600D01*
X115209Y142000D01*
X114010D01*
X113410Y142600D01*
X112210Y145599D02*
Y142000D01*
Y143200D01*
X109811Y145599D01*
X111610Y143799D01*
X109811Y142000D01*
X251101Y204499D02*
X251701Y205099D01*
X252900D01*
X253500Y204499D01*
Y202100D01*
X252900Y201500D01*
X251701D01*
X251101Y202100D01*
X249901Y201500D02*
Y205099D01*
X248702Y203899D01*
X247502Y205099D01*
Y201500D01*
X274733Y218500D02*
Y222099D01*
X272934D01*
X272334Y221499D01*
Y220299D01*
X272934Y219700D01*
X274733D01*
X273533D02*
X272334Y218500D01*
X271134D02*
Y222099D01*
X269935Y220899D01*
X268735Y222099D01*
Y218500D01*
X264500Y233000D02*
Y236599D01*
X262701D01*
X262101Y235999D01*
Y234799D01*
X262701Y234200D01*
X264500D01*
X260901Y236599D02*
Y233000D01*
X259701Y234200D01*
X258502Y233000D01*
Y236599D01*
X257302Y233000D02*
Y236599D01*
X256103Y235399D01*
X254903Y236599D01*
Y233000D01*
X328500Y220000D02*
Y223599D01*
X326701D01*
X326101Y222999D01*
Y221799D01*
X326701Y221200D01*
X328500D01*
X324901Y223599D02*
Y220000D01*
X323702Y221200D01*
X322502Y220000D01*
Y223599D01*
X321302Y220000D02*
Y223599D01*
X320103Y222399D01*
X318903Y223599D01*
Y220000D01*
X317704Y219400D02*
X315304D01*
X314105Y223599D02*
Y220000D01*
X312305D01*
X311705Y220600D01*
Y222999D01*
X312305Y223599D01*
X314105D01*
X310506Y220000D02*
Y223599D01*
X308706D01*
X308107Y222999D01*
Y221799D01*
X308706Y221200D01*
X310506D01*
X309306D02*
X308107Y220000D01*
X306907Y223599D02*
X305707D01*
X306307D01*
Y220000D01*
X306907D01*
X305707D01*
X303908Y223599D02*
Y221200D01*
X302708Y220000D01*
X301509Y221200D01*
Y223599D01*
X297910D02*
X300309D01*
Y220000D01*
X297910D01*
X300309Y221799D02*
X299110D01*
X351000Y212099D02*
Y209100D01*
X350400Y208500D01*
X349201D01*
X348601Y209100D01*
Y212099D01*
X347401Y208500D02*
Y212099D01*
X345002Y208500D01*
Y212099D01*
X331000Y161500D02*
Y165099D01*
X329201D01*
X328601Y164499D01*
Y163299D01*
X329201Y162700D01*
X331000D01*
X329800D02*
X328601Y161500D01*
X325002Y164499D02*
X325602Y165099D01*
X326801D01*
X327401Y164499D01*
Y163899D01*
X326801Y163299D01*
X325602D01*
X325002Y162700D01*
Y162100D01*
X325602Y161500D01*
X326801D01*
X327401Y162100D01*
X362500Y156599D02*
Y153600D01*
X361900Y153000D01*
X360701D01*
X360101Y153600D01*
Y156599D01*
X356502Y155999D02*
X357102Y156599D01*
X358301D01*
X358901Y155999D01*
Y155399D01*
X358301Y154799D01*
X357102D01*
X356502Y154200D01*
Y153600D01*
X357102Y153000D01*
X358301D01*
X358901Y153600D01*
X349500Y145099D02*
Y142100D01*
X348900Y141500D01*
X347701D01*
X347101Y142100D01*
Y145099D01*
X345901Y141500D02*
Y145099D01*
X344102D01*
X343502Y144499D01*
Y143299D01*
X344102Y142700D01*
X345901D01*
X336250Y136500D02*
Y140099D01*
X334451D01*
X333851Y139499D01*
Y138299D01*
X334451Y137700D01*
X336250D01*
X335050D02*
X333851Y136500D01*
X330252Y140099D02*
X332651D01*
Y138299D01*
X331452D01*
X332651D01*
Y136500D01*
X315101Y116499D02*
X315701Y117099D01*
X316900D01*
X317500Y116499D01*
Y114100D01*
X316900Y113500D01*
X315701D01*
X315101Y114100D01*
X311502Y117099D02*
X313901D01*
Y115299D01*
X312702D01*
X313901D01*
Y113500D01*
X288661Y100599D02*
Y97600D01*
X288062Y97000D01*
X286862D01*
X286262Y97600D01*
Y100599D01*
X285063Y97000D02*
Y100599D01*
X283263D01*
X282663Y99999D01*
Y98799D01*
X283263Y98200D01*
X285063D01*
X283863D02*
X282663Y97000D01*
X281464Y96400D02*
X279064D01*
X277865Y97000D02*
Y100599D01*
X276065D01*
X275466Y99999D01*
Y98799D01*
X276065Y98200D01*
X277865D01*
X274266Y97000D02*
Y100599D01*
X272467D01*
X271867Y99999D01*
Y98799D01*
X272467Y98200D01*
X274266D01*
X273066D02*
X271867Y97000D01*
X268268Y100599D02*
X270667D01*
Y97000D01*
X268268D01*
X270667Y98799D02*
X269468D01*
X318000Y105499D02*
Y102500D01*
X317400Y101900D01*
X316201D01*
X315601Y102500D01*
Y105499D01*
X314401Y101900D02*
Y104299D01*
X313201Y105499D01*
X312002Y104299D01*
Y101900D01*
Y103699D01*
X314401D01*
X310802Y101300D02*
X308403D01*
X307204Y101900D02*
Y105499D01*
X305404D01*
X304804Y104899D01*
Y103699D01*
X305404Y103100D01*
X307204D01*
X303605Y101900D02*
Y105499D01*
X301805D01*
X301205Y104899D01*
Y103699D01*
X301805Y103100D01*
X303605D01*
X302405D02*
X301205Y101900D01*
X297607Y105499D02*
X300006D01*
Y101900D01*
X297607D01*
X300006Y103699D02*
X298806D01*
X155465Y56599D02*
Y53600D01*
X154866Y53000D01*
X153666D01*
X153066Y53600D01*
Y56599D01*
X151866Y53000D02*
Y55399D01*
X150667Y56599D01*
X149467Y55399D01*
Y53000D01*
Y54799D01*
X151866D01*
X148268Y52400D02*
X145869D01*
X144669Y53000D02*
Y56599D01*
X142869D01*
X142270Y55999D01*
Y54799D01*
X142869Y54200D01*
X144669D01*
X139271Y56599D02*
X140470D01*
X141070Y55999D01*
Y53600D01*
X140470Y53000D01*
X139271D01*
X138671Y53600D01*
Y55999D01*
X139271Y56599D01*
X135072Y55999D02*
X135672Y56599D01*
X136871D01*
X137471Y55999D01*
Y55399D01*
X136871Y54799D01*
X135672D01*
X135072Y54200D01*
Y53600D01*
X135672Y53000D01*
X136871D01*
X137471Y53600D01*
X133872Y56599D02*
X131473D01*
X132673D01*
Y53000D01*
X152500Y75249D02*
Y72250D01*
X151900Y71650D01*
X150701D01*
X150101Y72250D01*
Y75249D01*
X148901Y71650D02*
Y75249D01*
X147102D01*
X146502Y74649D01*
Y73449D01*
X147102Y72850D01*
X148901D01*
X147702D02*
X146502Y71650D01*
X145302Y71050D02*
X142903D01*
X141703Y71650D02*
Y75249D01*
X139904D01*
X139304Y74649D01*
Y73449D01*
X139904Y72850D01*
X141703D01*
X136305Y75249D02*
X137505D01*
X138105Y74649D01*
Y72250D01*
X137505Y71650D01*
X136305D01*
X135705Y72250D01*
Y74649D01*
X136305Y75249D01*
X132107Y74649D02*
X132706Y75249D01*
X133906D01*
X134506Y74649D01*
Y74049D01*
X133906Y73449D01*
X132706D01*
X132107Y72850D01*
Y72250D01*
X132706Y71650D01*
X133906D01*
X134506Y72250D01*
X130907Y75249D02*
X128508D01*
X129707D01*
Y71650D01*
X309000Y74399D02*
Y70800D01*
X307201D01*
X306601Y71400D01*
Y73799D01*
X307201Y74399D01*
X309000D01*
X305401Y70800D02*
Y73199D01*
X304202Y74399D01*
X303002Y73199D01*
Y70800D01*
Y72599D01*
X305401D01*
X299403Y73799D02*
X300003Y74399D01*
X301203D01*
X301802Y73799D01*
Y71400D01*
X301203Y70800D01*
X300003D01*
X299403Y71400D01*
X295804Y70800D02*
X298203D01*
X295804Y73199D01*
Y73799D01*
X296404Y74399D01*
X297604D01*
X298203Y73799D01*
X290500Y74599D02*
Y71000D01*
X288701D01*
X288101Y71600D01*
Y73999D01*
X288701Y74599D01*
X290500D01*
X286901Y71000D02*
Y73399D01*
X285701Y74599D01*
X284502Y73399D01*
Y71000D01*
Y72799D01*
X286901D01*
X280903Y73999D02*
X281503Y74599D01*
X282702D01*
X283302Y73999D01*
Y71600D01*
X282702Y71000D01*
X281503D01*
X280903Y71600D01*
X279703Y71000D02*
X278504D01*
X279104D01*
Y74599D01*
X279703Y73999D01*
X333016Y42500D02*
X331817D01*
X332417D01*
Y46099D01*
X333016Y45499D01*
X327618Y42500D02*
X330017D01*
X327618Y44899D01*
Y45499D01*
X328218Y46099D01*
X329418D01*
X330017Y45499D01*
X326419Y46099D02*
Y43700D01*
X325219Y42500D01*
X324019Y43700D01*
Y46099D01*
X322820Y41900D02*
X320421D01*
X319221Y42500D02*
Y44899D01*
X318021Y46099D01*
X316822Y44899D01*
Y42500D01*
Y44299D01*
X319221D01*
X315622Y46099D02*
Y42500D01*
X313823D01*
X313223Y43100D01*
Y45499D01*
X313823Y46099D01*
X315622D01*
X309624Y45499D02*
X310224Y46099D01*
X311423D01*
X312023Y45499D01*
Y43100D01*
X311423Y42500D01*
X310224D01*
X309624Y43100D01*
X363000Y55500D02*
X361800D01*
X362400D01*
Y59099D01*
X363000Y58499D01*
X357602Y55500D02*
X360001D01*
X357602Y57899D01*
Y58499D01*
X358202Y59099D01*
X359401D01*
X360001Y58499D01*
X356402Y59099D02*
Y56700D01*
X355203Y55500D01*
X354003Y56700D01*
Y59099D01*
X352803Y54900D02*
X350404D01*
X349204Y59099D02*
Y55500D01*
X347405D01*
X346805Y56100D01*
Y56700D01*
X347405Y57299D01*
X349204D01*
X347405D01*
X346805Y57899D01*
Y58499D01*
X347405Y59099D01*
X349204D01*
X345606D02*
Y56100D01*
X345006Y55500D01*
X343806D01*
X343206Y56100D01*
Y59099D01*
X339608D02*
X342007D01*
Y57299D01*
X340807D01*
X342007D01*
Y55500D01*
X338408Y54900D02*
X336009D01*
X332410Y59099D02*
X334809D01*
Y55500D01*
X332410D01*
X334809Y57299D02*
X333610D01*
X331210Y55500D02*
Y59099D01*
X328811Y55500D01*
Y59099D01*
X194500Y162999D02*
X193900Y163599D01*
X192701D01*
X192101Y162999D01*
Y162399D01*
X192701Y161799D01*
X193300D01*
X192701D01*
X192101Y161200D01*
Y160600D01*
X192701Y160000D01*
X193900D01*
X194500Y160600D01*
X190901Y163599D02*
Y161200D01*
X189701Y160000D01*
X188502Y161200D01*
Y163599D01*
X187302Y162999D02*
X186703Y163599D01*
X185503D01*
X184903Y162999D01*
Y162399D01*
X185503Y161799D01*
X186103D01*
X185503D01*
X184903Y161200D01*
Y160600D01*
X185503Y160000D01*
X186703D01*
X187302Y160600D01*
X192601Y177099D02*
X195000D01*
Y175299D01*
X193800Y175899D01*
X193201D01*
X192601Y175299D01*
Y174100D01*
X193201Y173500D01*
X194400D01*
X195000Y174100D01*
X191401Y177099D02*
Y174700D01*
X190201Y173500D01*
X189002Y174700D01*
Y177099D01*
X165500Y212259D02*
X164900Y212859D01*
X163701D01*
X163101Y212259D01*
Y211659D01*
X163701Y211059D01*
X164300D01*
X163701D01*
X163101Y210459D01*
Y209860D01*
X163701Y209260D01*
X164900D01*
X165500Y209860D01*
X161901Y212859D02*
Y210459D01*
X160702Y209260D01*
X159502Y210459D01*
Y212859D01*
X158302Y212259D02*
X157703Y212859D01*
X156503D01*
X155903Y212259D01*
Y211659D01*
X156503Y211059D01*
X157103D01*
X156503D01*
X155903Y210459D01*
Y209860D01*
X156503Y209260D01*
X157703D01*
X158302Y209860D01*
X154703Y208660D02*
X152304D01*
X148705Y212859D02*
X151105D01*
Y209260D01*
X148705D01*
X151105Y211059D02*
X149905D01*
X147506Y209260D02*
Y212859D01*
X145107Y209260D01*
Y212859D01*
X169101Y240599D02*
X171500D01*
Y238799D01*
X170300Y239399D01*
X169701D01*
X169101Y238799D01*
Y237600D01*
X169701Y237000D01*
X170900D01*
X171500Y237600D01*
X167901Y240599D02*
Y238200D01*
X166701Y237000D01*
X165502Y238200D01*
Y240599D01*
X164302Y236400D02*
X161903D01*
X158304Y240599D02*
X160704D01*
Y237000D01*
X158304D01*
X160704Y238799D02*
X159504D01*
X157105Y237000D02*
Y240599D01*
X154705Y237000D01*
Y240599D01*
X129101Y227011D02*
X129701Y227611D01*
X130900D01*
X131500Y227011D01*
Y226411D01*
X130900Y225811D01*
X129701D01*
X129101Y225211D01*
Y224612D01*
X129701Y224012D01*
X130900D01*
X131500Y224612D01*
X126102Y227611D02*
X127301D01*
X127901Y227011D01*
Y224612D01*
X127301Y224012D01*
X126102D01*
X125502Y224612D01*
Y227011D01*
X126102Y227611D01*
X124302D02*
Y224612D01*
X123703Y224012D01*
X122503D01*
X121903Y224612D01*
Y227611D01*
X120703Y224012D02*
Y227611D01*
X118904D01*
X118304Y227011D01*
Y225811D01*
X118904Y225211D01*
X120703D01*
X119504D02*
X118304Y224012D01*
X114705Y227011D02*
X115305Y227611D01*
X116505D01*
X117105Y227011D01*
Y224612D01*
X116505Y224012D01*
X115305D01*
X114705Y224612D01*
X111107Y227611D02*
X113506D01*
Y224012D01*
X111107D01*
X113506Y225811D02*
X112306D01*
X143546Y240454D02*
X144146Y241054D01*
X145346D01*
X145946Y240454D01*
Y238055D01*
X145346Y237455D01*
X144146D01*
X143546Y238055D01*
Y239254D01*
X144746D01*
X142347Y237455D02*
Y239854D01*
X141147Y241054D01*
X139948Y239854D01*
Y237455D01*
Y239254D01*
X142347D01*
X138748Y241054D02*
X136349D01*
X137548D01*
Y237455D01*
X132750Y241054D02*
X135149D01*
Y237455D01*
X132750D01*
X135149Y239254D02*
X133949D01*
X94759Y239599D02*
X95959D01*
X96559Y238999D01*
Y236600D01*
X95959Y236000D01*
X94759D01*
X94159Y236600D01*
Y238999D01*
X94759Y239599D01*
X92960D02*
Y237200D01*
X91760Y236000D01*
X90561Y237200D01*
Y239599D01*
X80339Y255099D02*
Y252100D01*
X79739Y251500D01*
X78539D01*
X77939Y252100D01*
Y255099D01*
X76740D02*
Y252700D01*
X75540Y251500D01*
X74340Y252700D01*
Y255099D01*
M02*
