G04*
G04 #@! TF.GenerationSoftware,Altium Limited,Altium Designer,18.1.9 (240)*
G04*
G04 Layer_Physical_Order=1*
G04 Layer_Color=255*
%FSLAX25Y25*%
%MOIN*%
G70*
G01*
G75*
%ADD11C,0.01000*%
%ADD49R,0.05315X0.01575*%
%ADD50R,0.02400X0.07000*%
%ADD51R,0.04134X0.01772*%
%ADD52R,0.01772X0.07874*%
%ADD53R,0.06299X0.01772*%
%ADD54R,0.07874X0.01772*%
%ADD55R,0.24410X0.21850*%
%ADD56R,0.12205X0.03347*%
G04:AMPARAMS|DCode=57|XSize=11.81mil|YSize=62.99mil|CornerRadius=0mil|HoleSize=0mil|Usage=FLASHONLY|Rotation=45.000|XOffset=0mil|YOffset=0mil|HoleType=Round|Shape=Rectangle|*
%AMROTATEDRECTD57*
4,1,4,0.01810,-0.02645,-0.02645,0.01810,-0.01810,0.02645,0.02645,-0.01810,0.01810,-0.02645,0.0*
%
%ADD57ROTATEDRECTD57*%

G04:AMPARAMS|DCode=58|XSize=11.81mil|YSize=62.99mil|CornerRadius=0mil|HoleSize=0mil|Usage=FLASHONLY|Rotation=135.000|XOffset=0mil|YOffset=0mil|HoleType=Round|Shape=Rectangle|*
%AMROTATEDRECTD58*
4,1,4,0.02645,0.01810,-0.01810,-0.02645,-0.02645,-0.01810,0.01810,0.02645,0.02645,0.01810,0.0*
%
%ADD58ROTATEDRECTD58*%

%ADD59R,0.02756X0.10236*%
%ADD60R,0.04724X0.04331*%
%ADD61R,0.04331X0.04724*%
%ADD62R,0.03500X0.08000*%
%ADD63R,0.08000X0.20000*%
G04:AMPARAMS|DCode=64|XSize=50.59mil|YSize=57.87mil|CornerRadius=0mil|HoleSize=0mil|Usage=FLASHONLY|Rotation=45.000|XOffset=0mil|YOffset=0mil|HoleType=Round|Shape=Rectangle|*
%AMROTATEDRECTD64*
4,1,4,0.00258,-0.03835,-0.03835,0.00258,-0.00258,0.03835,0.03835,-0.00258,0.00258,-0.03835,0.0*
%
%ADD64ROTATEDRECTD64*%

%ADD65R,0.03740X0.03543*%
%ADD66R,0.06693X0.11024*%
%ADD67R,0.05906X0.05512*%
G04:AMPARAMS|DCode=68|XSize=55.12mil|YSize=59.06mil|CornerRadius=0mil|HoleSize=0mil|Usage=FLASHONLY|Rotation=45.000|XOffset=0mil|YOffset=0mil|HoleType=Round|Shape=Rectangle|*
%AMROTATEDRECTD68*
4,1,4,0.00139,-0.04037,-0.04037,0.00139,-0.00139,0.04037,0.04037,-0.00139,0.00139,-0.04037,0.0*
%
%ADD68ROTATEDRECTD68*%

%ADD69R,0.05512X0.05906*%
%ADD70R,0.09252X0.17717*%
G04:AMPARAMS|DCode=71|XSize=55.12mil|YSize=59.06mil|CornerRadius=0mil|HoleSize=0mil|Usage=FLASHONLY|Rotation=315.000|XOffset=0mil|YOffset=0mil|HoleType=Round|Shape=Rectangle|*
%AMROTATEDRECTD71*
4,1,4,-0.04037,-0.00139,0.00139,0.04037,0.04037,0.00139,-0.00139,-0.04037,-0.04037,-0.00139,0.0*
%
%ADD71ROTATEDRECTD71*%

%ADD72C,0.03000*%
%ADD73C,0.01800*%
%ADD74C,0.02000*%
%ADD75C,0.02800*%
%ADD76C,0.05500*%
%ADD77C,0.02400*%
%ADD78R,0.28060X0.22260*%
%ADD79R,0.02420X0.03000*%
%ADD80R,0.02500X0.03000*%
%ADD81R,0.04500X0.03000*%
%ADD82R,0.03000X0.03000*%
%ADD83R,0.02275X0.03000*%
%ADD84R,0.05500X0.70560*%
%ADD85R,0.24000X0.50295*%
%ADD86R,0.27000X0.50000*%
%ADD87R,1.38100X0.50000*%
%ADD88R,0.27000X0.16000*%
%ADD89R,0.43000X0.50000*%
%ADD90R,1.77400X0.50295*%
%ADD91R,0.32500X0.16000*%
%ADD92R,0.32500X0.50000*%
%ADD93R,0.32500X0.38109*%
%ADD94R,0.32500X0.38500*%
%ADD95R,0.32500X0.49661*%
%ADD96R,0.76000X0.50000*%
%ADD97O,0.04724X0.02067*%
%ADD98O,0.04921X0.04134*%
%ADD99C,0.05906*%
%ADD100R,0.05906X0.05906*%
%ADD101R,0.05906X0.05906*%
%ADD102C,0.06102*%
%ADD103C,0.03000*%
G36*
X39653Y327410D02*
X39154D01*
Y315453D01*
X7153D01*
Y365453D01*
X39653D01*
Y327410D01*
D02*
G37*
G36*
X122000Y307035D02*
X118000Y307035D01*
X118000Y310700D01*
X110760Y303460D01*
Y294260D01*
X80339Y263839D01*
X67500D01*
Y294260D01*
X91000D01*
Y313500D01*
X110760D01*
Y313500D01*
X118000Y312000D01*
X118000Y312000D01*
Y313535D01*
X122000Y313535D01*
X122000Y307035D01*
D02*
G37*
G36*
Y296035D02*
X118000D01*
Y299035D01*
X122000D01*
Y296035D01*
D02*
G37*
G36*
X39154Y301590D02*
X39634D01*
Y263891D01*
X7135D01*
Y313891D01*
X39154D01*
Y301590D01*
D02*
G37*
G36*
X14355Y243086D02*
X14909Y242532D01*
X15209Y241809D01*
Y241417D01*
Y235118D01*
X7728D01*
Y241417D01*
Y241809D01*
X8028Y242532D01*
X8582Y243086D01*
X9305Y243386D01*
X13632D01*
X14355Y243086D01*
D02*
G37*
G36*
X15209Y208347D02*
Y207955D01*
X14909Y207231D01*
X14355Y206678D01*
X13632Y206378D01*
X9305D01*
X8582Y206678D01*
X8028Y207231D01*
X7728Y207955D01*
Y208347D01*
Y214646D01*
X15209D01*
Y208347D01*
D02*
G37*
G36*
X87800Y125300D02*
Y124000D01*
X85500Y121700D01*
X84700D01*
X82400Y124000D01*
Y126900D01*
X87800Y125300D01*
D02*
G37*
G36*
X95900Y122700D02*
Y122200D01*
X95573Y120873D01*
X92200Y117500D01*
X89700Y116600D01*
X92000Y119100D01*
X90400Y123200D01*
Y125880D01*
X91420Y126900D01*
X95900D01*
Y122700D01*
D02*
G37*
G36*
X87100Y115200D02*
X86194Y113932D01*
X86292Y111783D01*
X86100Y111400D01*
X83800Y111100D01*
Y113500D01*
X86200Y115900D01*
X87100Y115200D01*
D02*
G37*
G36*
X55900Y99800D02*
X54750Y99300D01*
X54350Y99700D01*
X52200D01*
X50099Y97599D01*
X45650D01*
X45500Y97749D01*
Y103100D01*
X52600D01*
X55900Y99800D01*
D02*
G37*
G36*
X51200Y92700D02*
X51300Y91800D01*
X47400Y89500D01*
X45800D01*
X45400Y95000D01*
X47300D01*
X51200Y92700D01*
D02*
G37*
G36*
X61400Y92100D02*
X62600Y91800D01*
X63500Y88800D01*
X61100D01*
X59200Y90700D01*
X58400Y92100D01*
X56500Y94800D01*
X58200D01*
X61400Y92100D01*
D02*
G37*
G36*
X118100Y90000D02*
X117400Y89300D01*
Y84793D01*
X116507D01*
X113000Y87100D01*
X111828Y87535D01*
X116600Y90200D01*
X118100Y90000D01*
D02*
G37*
G36*
X89100Y72100D02*
Y69500D01*
X89599Y68800D01*
X88700Y68200D01*
X87200Y69500D01*
X86200Y70700D01*
Y72600D01*
X87600D01*
X88100Y73100D01*
X89100Y72100D01*
D02*
G37*
G36*
X71594Y66300D02*
X69900Y64250D01*
X69694Y61200D01*
X68394Y59900D01*
X68294Y59800D01*
X64194Y64000D01*
X65494Y65306D01*
X68900Y65600D01*
X70994Y67300D01*
X71594Y66300D01*
D02*
G37*
G36*
X99350Y59150D02*
Y55450D01*
X97350Y53450D01*
X95245D01*
X95350Y55650D01*
Y57350D01*
X96100Y58100D01*
Y60751D01*
X94500Y62500D01*
X94471Y63900D01*
X99350Y59150D01*
D02*
G37*
G36*
X178600Y56800D02*
Y58200D01*
X177000Y59800D01*
X173700D01*
Y59650D01*
X174200Y59150D01*
X175700Y57400D01*
X178600Y56800D01*
D02*
G37*
G36*
X200400Y136300D02*
X204300D01*
X204700Y135900D01*
X208100D01*
X206000Y138000D01*
X200700D01*
X200400Y136300D01*
D02*
G37*
G36*
X195700Y143400D02*
Y142700D01*
X198000Y140400D01*
X199000D01*
X201200Y142600D01*
X201200Y143300D01*
X195700Y143400D01*
D02*
G37*
G36*
X190900Y156000D02*
D01*
D02*
G37*
G36*
X188535Y165324D02*
X185135Y168256D01*
Y172652D01*
X182835Y171588D01*
Y164000D01*
X188535Y162124D01*
Y165324D01*
D02*
G37*
G36*
X175000Y160976D02*
Y164000D01*
X178800Y167800D01*
Y185300D01*
X174900Y188800D01*
X175300Y192800D01*
X180400Y189900D01*
X181500Y187300D01*
Y164600D01*
X178800Y159300D01*
X175000Y160976D01*
D02*
G37*
G36*
X222535Y136300D02*
X213400D01*
X215100Y138000D01*
X222000D01*
X222535Y136300D01*
D02*
G37*
G36*
X219800Y143500D02*
Y142600D01*
X222000Y140400D01*
X222950D01*
X225300Y142750D01*
Y144100D01*
X219800Y143500D01*
D02*
G37*
G36*
X279933Y150880D02*
X282533D01*
Y154580D01*
X282433Y154680D01*
X281676Y157024D01*
X279225Y160177D01*
X276664Y162036D01*
X273289D01*
X271333Y160080D01*
X274533Y156880D01*
Y156680D01*
X277920D01*
X279626Y154974D01*
X279933Y150880D01*
D02*
G37*
G36*
X342600Y69100D02*
X338900Y69100D01*
X335800Y66000D01*
Y61698D01*
X333016Y61783D01*
Y63217D01*
X332050Y62250D01*
X330800Y63500D01*
X338100Y70800D01*
X343100D01*
X342600Y69100D01*
D02*
G37*
G36*
X397483Y315500D02*
X364983D01*
Y365500D01*
X397483D01*
Y315500D01*
D02*
G37*
G36*
X141000Y296035D02*
X137250D01*
Y299035D01*
X141000D01*
Y296035D01*
D02*
G37*
G36*
Y312000D02*
X147500Y313535D01*
X167016Y313528D01*
X167016Y293756D01*
X202000Y293756D01*
X202000Y263535D01*
X177465Y263535D01*
X159900D01*
X158053Y282947D01*
X147500Y293500D01*
Y304102D01*
X141000Y310602D01*
Y307035D01*
X137000D01*
Y313535D01*
X141000D01*
Y312000D01*
D02*
G37*
G36*
X397483Y263500D02*
X364983D01*
Y313795D01*
X397483D01*
Y263500D01*
D02*
G37*
G36*
X275200Y251700D02*
Y250800D01*
X273000Y248600D01*
X270400D01*
X270000Y254000D01*
X272900D01*
X275200Y251700D01*
D02*
G37*
%LPC*%
G36*
X23500Y351421D02*
Y348000D01*
X26921D01*
X26851Y348532D01*
X26453Y349493D01*
X25819Y350319D01*
X24993Y350953D01*
X24032Y351351D01*
X23500Y351421D01*
D02*
G37*
G36*
X22500D02*
X21968Y351351D01*
X21007Y350953D01*
X20181Y350319D01*
X19547Y349493D01*
X19149Y348532D01*
X19079Y348000D01*
X22500D01*
Y351421D01*
D02*
G37*
G36*
X26921Y347000D02*
X23500D01*
Y343579D01*
X24032Y343649D01*
X24993Y344047D01*
X25819Y344681D01*
X26453Y345507D01*
X26851Y346468D01*
X26921Y347000D01*
D02*
G37*
G36*
X22500D02*
X19079D01*
X19149Y346468D01*
X19547Y345507D01*
X20181Y344681D01*
X21007Y344047D01*
X21968Y343649D01*
X22500Y343579D01*
Y347000D01*
D02*
G37*
G36*
X26953Y341453D02*
X23500D01*
Y338000D01*
X26953D01*
Y341453D01*
D02*
G37*
G36*
X22500D02*
X19047D01*
Y338000D01*
X22500D01*
Y341453D01*
D02*
G37*
G36*
X26953Y337000D02*
X23500D01*
Y333547D01*
X26953D01*
Y337000D01*
D02*
G37*
G36*
X22500D02*
X19047D01*
Y333547D01*
X22500D01*
Y337000D01*
D02*
G37*
G36*
X23500Y297921D02*
Y294500D01*
X26921D01*
X26851Y295032D01*
X26453Y295993D01*
X25819Y296819D01*
X24993Y297453D01*
X24032Y297851D01*
X23500Y297921D01*
D02*
G37*
G36*
X22500D02*
X21968Y297851D01*
X21007Y297453D01*
X20181Y296819D01*
X19547Y295993D01*
X19149Y295032D01*
X19079Y294500D01*
X22500D01*
Y297921D01*
D02*
G37*
G36*
X26921Y293500D02*
X23500D01*
Y290079D01*
X24032Y290149D01*
X24993Y290547D01*
X25819Y291181D01*
X26453Y292007D01*
X26851Y292968D01*
X26921Y293500D01*
D02*
G37*
G36*
X22500D02*
X19079D01*
X19149Y292968D01*
X19547Y292007D01*
X20181Y291181D01*
X21007Y290547D01*
X21968Y290149D01*
X22500Y290079D01*
Y293500D01*
D02*
G37*
G36*
X26953Y287953D02*
X23500D01*
Y284500D01*
X26953D01*
Y287953D01*
D02*
G37*
G36*
X22500D02*
X19047D01*
Y284500D01*
X22500D01*
Y287953D01*
D02*
G37*
G36*
X26953Y283500D02*
X23500D01*
Y280047D01*
X26953D01*
Y283500D01*
D02*
G37*
G36*
X22500D02*
X19047D01*
Y280047D01*
X22500D01*
Y283500D01*
D02*
G37*
G36*
X381500Y351421D02*
Y348000D01*
X384921D01*
X384851Y348532D01*
X384453Y349493D01*
X383819Y350319D01*
X382993Y350953D01*
X382032Y351351D01*
X381500Y351421D01*
D02*
G37*
G36*
X380500D02*
X379968Y351351D01*
X379007Y350953D01*
X378181Y350319D01*
X377547Y349493D01*
X377149Y348532D01*
X377079Y348000D01*
X380500D01*
Y351421D01*
D02*
G37*
G36*
X384921Y347000D02*
X381500D01*
Y343579D01*
X382032Y343649D01*
X382993Y344047D01*
X383819Y344681D01*
X384453Y345507D01*
X384851Y346468D01*
X384921Y347000D01*
D02*
G37*
G36*
X380500D02*
X377079D01*
X377149Y346468D01*
X377547Y345507D01*
X378181Y344681D01*
X379007Y344047D01*
X379968Y343649D01*
X380500Y343579D01*
Y347000D01*
D02*
G37*
G36*
X384953Y341453D02*
X381500D01*
Y338000D01*
X384953D01*
Y341453D01*
D02*
G37*
G36*
X380500D02*
X377047D01*
Y338000D01*
X380500D01*
Y341453D01*
D02*
G37*
G36*
X384953Y337000D02*
X381500D01*
Y333547D01*
X384953D01*
Y337000D01*
D02*
G37*
G36*
X380500D02*
X377047D01*
Y333547D01*
X380500D01*
Y337000D01*
D02*
G37*
G36*
X381500Y297921D02*
Y294500D01*
X384921D01*
X384851Y295032D01*
X384453Y295993D01*
X383819Y296819D01*
X382993Y297453D01*
X382032Y297851D01*
X381500Y297921D01*
D02*
G37*
G36*
X380500D02*
X379968Y297851D01*
X379007Y297453D01*
X378181Y296819D01*
X377547Y295993D01*
X377149Y295032D01*
X377079Y294500D01*
X380500D01*
Y297921D01*
D02*
G37*
G36*
X384921Y293500D02*
X381500D01*
Y290079D01*
X382032Y290149D01*
X382993Y290547D01*
X383819Y291181D01*
X384453Y292007D01*
X384851Y292968D01*
X384921Y293500D01*
D02*
G37*
G36*
X380500D02*
X377079D01*
X377149Y292968D01*
X377547Y292007D01*
X378181Y291181D01*
X379007Y290547D01*
X379968Y290149D01*
X380500Y290079D01*
Y293500D01*
D02*
G37*
G36*
X384953Y287953D02*
X381500D01*
Y284500D01*
X384953D01*
Y287953D01*
D02*
G37*
G36*
X380500D02*
X377047D01*
Y284500D01*
X380500D01*
Y287953D01*
D02*
G37*
G36*
X384953Y283500D02*
X381500D01*
Y280047D01*
X384953D01*
Y283500D01*
D02*
G37*
G36*
X380500D02*
X377047D01*
Y280047D01*
X380500D01*
Y283500D01*
D02*
G37*
%LPD*%
D11*
X93797Y111496D02*
X110100Y127799D01*
X75000Y224882D02*
X89018D01*
X108100Y205800D01*
X52800Y224882D02*
X75000Y224882D01*
X108100Y128628D02*
Y205800D01*
X92383Y112910D02*
X108100Y128628D01*
X22000Y224882D02*
X25118D01*
X89846Y226882D02*
X110100Y206628D01*
X97503Y219225D02*
X110100Y206628D01*
X51386Y226882D02*
X75000Y226882D01*
X89846D01*
X110100Y127799D02*
Y206628D01*
X22000Y227441D02*
X24559D01*
X25118Y226882D01*
Y224882D02*
X52800D01*
X25118Y226882D02*
X51386D01*
X90991Y114302D02*
X102500Y125811D01*
Y130672D01*
X113000Y177500D02*
X133000Y197500D01*
X113000Y127960D02*
Y177500D01*
X95167Y110126D02*
X113000Y127960D01*
X114654Y169154D02*
X133000Y187500D01*
X114654Y126830D02*
Y169154D01*
X116379Y150879D02*
X153000Y187500D01*
X116379Y125643D02*
Y150879D01*
X118214Y142714D02*
X153000Y177500D01*
X118214Y124822D02*
Y142714D01*
X120101Y134601D02*
X153000Y167500D01*
X120101Y123925D02*
Y134601D01*
X122000Y126500D02*
X153000Y157500D01*
X122000Y123228D02*
Y126500D01*
X96559Y108734D02*
X114654Y126830D01*
X98078Y107343D02*
X116379Y125643D01*
X99343Y105951D02*
X118214Y124822D01*
X100734Y104559D02*
X120101Y123925D01*
X102126Y103354D02*
X122000Y123228D01*
X96000Y186000D02*
Y190500D01*
X59500Y149500D02*
X96000Y186000D01*
Y190500D02*
X103000Y197500D01*
X103087Y225500D02*
X143079D01*
X89599Y238988D02*
X103087Y225500D01*
X49012Y238988D02*
X89599D01*
X61500Y148500D02*
X101750Y188750D01*
X63500Y147500D02*
X93500Y177500D01*
X65500Y146406D02*
X86594Y167500D01*
X79500Y157500D02*
X103000D01*
X67500Y145500D02*
X79500Y157500D01*
X80000Y153172D02*
X102500Y130672D01*
X76793Y150000D02*
X85114Y141679D01*
X97951Y107343D02*
X98078D01*
X36158Y197500D02*
X65658Y168000D01*
X46000Y164500D02*
X68500D01*
X67500Y123595D02*
Y145500D01*
X65500Y122811D02*
Y146406D01*
X86594Y167500D02*
X103000D01*
X102126Y103167D02*
Y103354D01*
X261333Y194267D02*
X263706Y196640D01*
X365813Y187380D02*
X376654Y176540D01*
X278521Y255286D02*
X281021D01*
X222508Y137177D02*
Y146575D01*
X221559Y93499D02*
X221618Y100000D01*
X221500Y87000D02*
X221559Y93499D01*
X321933Y163640D02*
X328233Y169940D01*
X194827Y92800D02*
X201500D01*
X141500Y131405D02*
X149595Y139500D01*
X187839Y126880D02*
X198492D01*
X116379Y103500D02*
X164459D01*
X164500Y210000D02*
Y223400D01*
Y194623D02*
Y210000D01*
X100465Y253240D02*
Y262020D01*
X48400Y135600D02*
X56500Y127500D01*
X162679Y232321D02*
X163521D01*
X257080Y109287D02*
Y110180D01*
X336662Y91234D02*
X339859Y94431D01*
X319250Y72250D02*
X319750D01*
X385373Y212400D02*
X386900D01*
X381233Y216540D02*
X385373Y212400D01*
X23000Y167500D02*
X48400Y142100D01*
Y135600D02*
Y142100D01*
X59500Y120460D02*
Y149500D01*
X70500Y123379D02*
Y127400D01*
Y123379D02*
X76793Y117086D01*
X67500Y123595D02*
X75401Y115694D01*
X63000Y17500D02*
Y24000D01*
X55500Y31500D02*
X63000Y24000D01*
X55500Y31500D02*
Y36000D01*
X23000Y157500D02*
X39500Y141000D01*
Y137676D02*
Y141000D01*
X23000Y177500D02*
X56426Y144074D01*
Y132059D02*
Y144074D01*
X23000Y187500D02*
X46000Y164500D01*
X23000Y197500D02*
X36158D01*
X85114Y127700D02*
Y141679D01*
X70500Y131950D02*
X81000Y121450D01*
Y102975D02*
Y121450D01*
X72825Y94800D02*
X81000Y102975D01*
X23000Y127500D02*
X28963Y121537D01*
X52855D01*
X61500Y121244D02*
Y148500D01*
X93500Y177500D02*
X103000D01*
X63500Y122028D02*
Y147500D01*
X39500Y137676D02*
X68441Y108734D01*
X32000Y119500D02*
X52108D01*
X30000Y117500D02*
X32000Y119500D01*
X23000Y117500D02*
X30000D01*
X52108Y119500D02*
X65658Y105951D01*
X23000Y107500D02*
X33000Y117500D01*
X28446Y104946D02*
X39000Y115500D01*
X28446Y102946D02*
Y104946D01*
X23000Y97500D02*
X28446Y102946D01*
X23000Y87500D02*
X30500Y95000D01*
Y104000D01*
X23000Y77500D02*
X32500Y87000D01*
Y103000D01*
X23000Y67500D02*
X34500Y79000D01*
Y102251D01*
X39000Y80612D02*
X42388Y84000D01*
X39000Y63500D02*
Y80612D01*
X23000Y47500D02*
X39000Y63500D01*
X23000Y57500D02*
X36500Y71000D01*
Y81112D01*
X33000Y117500D02*
X51324D01*
X39000Y115500D02*
X50540D01*
X30500Y104000D02*
X40000Y113500D01*
X32500Y103000D02*
X41018Y111518D01*
X40000Y113500D02*
X49756D01*
X41018Y111518D02*
X48954D01*
X42016Y109767D02*
X47922D01*
X34500Y102251D02*
X42016Y109767D01*
X36500Y81112D02*
X41388Y86000D01*
X54707D02*
X55914Y84793D01*
X41388Y86000D02*
X54707D01*
X48674Y84000D02*
X52057Y80617D01*
X42388Y84000D02*
X48674D01*
X52855Y121537D02*
X67049Y107343D01*
X44000Y58363D02*
X49551Y63914D01*
X44000Y38500D02*
Y58363D01*
X23000Y17500D02*
X44000Y38500D01*
X49551Y63914D02*
X54522D01*
X45674Y57775D02*
X50200Y62300D01*
X45674Y30174D02*
Y57775D01*
X33000Y17500D02*
X45674Y30174D01*
X50200Y62300D02*
X55692D01*
X47275Y57037D02*
X50937Y60700D01*
X47275Y21775D02*
Y57037D01*
X43000Y17500D02*
X47275Y21775D01*
X50937Y60700D02*
X56876D01*
X49000Y56500D02*
X51600Y59100D01*
X49000Y21500D02*
Y56500D01*
Y21500D02*
X53000Y17500D01*
X51600Y59100D02*
X57539D01*
X143339Y256161D02*
X146800Y252700D01*
Y229221D02*
Y252700D01*
X143079Y225500D02*
X146800Y229221D01*
X33000Y255000D02*
X49012Y238988D01*
X43000Y255000D02*
X52945Y245055D01*
X177824Y222324D02*
X185821D01*
X22000Y216614D02*
Y219764D01*
Y216614D02*
X23280Y215335D01*
X201692Y220692D02*
X210500Y229500D01*
X201692Y211492D02*
Y220692D01*
X197500Y207300D02*
X201692Y211492D01*
Y240500D02*
Y250948D01*
X198840Y253800D02*
X201692Y250948D01*
X193892Y207300D02*
X197500D01*
X194392Y253800D02*
X198840D01*
X155465Y76265D02*
X162797D01*
X152500Y242500D02*
X162679Y232321D01*
X152500Y242500D02*
Y251240D01*
X176888Y235788D02*
X186124D01*
X164500Y223400D02*
X176888Y235788D01*
X185735Y161500D02*
X192500D01*
X185821Y211814D02*
Y219121D01*
X201100Y185300D02*
X206834D01*
X221434Y170700D01*
X185735Y191800D02*
X192300D01*
X185821Y195086D02*
Y203000D01*
X222508Y146575D02*
X222535Y146602D01*
X226700Y170700D02*
X238500Y182500D01*
X221434Y170700D02*
X226700D01*
X259400Y251321D02*
X266300D01*
X201500Y102543D02*
X201657Y102700D01*
X201500Y93500D02*
Y102543D01*
X321700Y115994D02*
X321741Y116035D01*
X328500D01*
X312500Y109126D02*
X312637Y109263D01*
X312500Y102035D02*
Y109126D01*
X305800Y102035D02*
X312500D01*
X221400Y86900D02*
X221500Y87000D01*
X201500Y92800D02*
X206000Y88300D01*
X266206Y184491D02*
Y189394D01*
X316206Y192206D02*
X318600Y194600D01*
X316206Y184491D02*
Y192206D01*
X75707Y51407D02*
X78900Y54600D01*
X75707Y51207D02*
Y51407D01*
X170474Y59336D02*
X175164D01*
X143500Y87665D02*
X144565D01*
X376491Y77891D02*
X376800Y78200D01*
X370673Y77891D02*
X376491D01*
X381233Y216540D02*
Y223500D01*
X278457Y251321D02*
X279021Y251886D01*
X269261Y251321D02*
X278457D01*
X198427Y145800D02*
X198492Y145735D01*
Y137177D02*
Y145735D01*
X328500Y116035D02*
X334735D01*
X338399Y119699D01*
X339859D01*
X85114Y120179D02*
X88207Y117086D01*
X85114Y120179D02*
Y127700D01*
X44000Y92265D02*
X51972D01*
X55914Y96207D01*
X102500Y90300D02*
X103579D01*
X109086Y84793D01*
X111828Y87535D02*
X119500D01*
X109086Y84793D02*
X111828Y87535D01*
X50540Y115500D02*
X62874Y103167D01*
X51324Y117500D02*
X64266Y104559D01*
X65500Y122811D02*
X74009Y114302D01*
X63500Y122028D02*
X72617Y112910D01*
X61500Y121244D02*
X71225Y111518D01*
X52945Y245055D02*
X67500D01*
X362913Y198000D02*
X365933Y194980D01*
X343353Y198000D02*
X362913D01*
X319593Y174240D02*
X343353Y198000D01*
X357588Y195845D02*
X365933Y187500D01*
X344938Y195845D02*
X357588D01*
X320733Y171640D02*
X344938Y195845D01*
X357093Y201000D02*
X358993Y202900D01*
X347733Y187380D02*
X352500Y192147D01*
Y192300D01*
X47922Y109767D02*
X58698Y98991D01*
X48954Y111518D02*
X60090Y100383D01*
X95167Y70874D02*
X98172Y67869D01*
Y67869D02*
Y67869D01*
X96559Y72265D02*
X99562Y69262D01*
Y69259D02*
Y69262D01*
X103518Y101775D02*
X107218Y105475D01*
X107240D01*
X76793Y63914D02*
X78200Y62507D01*
Y60600D02*
Y62507D01*
X157294Y217206D02*
X164500Y210000D01*
X155000Y217206D02*
X157294D01*
X59500Y120460D02*
X69833Y110126D01*
X82511Y75200D02*
X83575D01*
X74009Y66698D02*
X82511Y75200D01*
X72000Y56600D02*
Y61905D01*
X75401Y65306D01*
X110900Y68400D02*
X115900D01*
X108500Y70800D02*
X110900Y68400D01*
X49756Y113500D02*
X61482Y101775D01*
X117194Y65306D02*
X120300Y62200D01*
X111394Y65306D02*
X117194D01*
X106500Y70200D02*
X111394Y65306D01*
X120300Y62200D02*
X121300D01*
X106302Y82009D02*
X112511Y75800D01*
X113300D01*
X110700Y72800D02*
X112300Y71200D01*
X110700Y72800D02*
Y74827D01*
X104910Y80617D02*
X110700Y74827D01*
X108500Y70800D02*
Y74244D01*
X103518Y79225D02*
X108500Y74244D01*
X106500Y70200D02*
Y73460D01*
X111700Y62300D02*
X114654D01*
X104400Y69600D02*
X111700Y62300D01*
X104400Y69600D02*
Y72776D01*
X100734Y76441D02*
X104400Y72776D01*
X102200Y69500D02*
X112800Y58900D01*
X118000D01*
X102200Y69500D02*
Y72192D01*
X99343Y75049D02*
X102200Y72192D01*
X119700Y55700D02*
X126500Y62500D01*
X113120Y55700D02*
X119700D01*
X99562Y69259D02*
X113120Y55700D01*
X93300Y78200D02*
X93408D01*
X97951Y73658D01*
X102126Y77833D02*
X106500Y73460D01*
X110345Y80751D02*
X118214D01*
X119500Y79465D01*
X107694Y83401D02*
X110345Y80751D01*
X123400Y52400D02*
X126500Y55500D01*
X113640Y52400D02*
X123400D01*
X98172Y67869D02*
X113640Y52400D01*
X113756Y49500D02*
X281500D01*
X93775Y69482D02*
X113756Y49500D01*
X113972Y46500D02*
X286200D01*
X92383Y68090D02*
X113972Y46500D01*
X136700Y57758D02*
X153635D01*
X126500Y67958D02*
X136700Y57758D01*
X126500Y62500D02*
Y67958D01*
X146800Y146800D02*
X177300D01*
X131500Y131500D02*
X146800Y146800D01*
X131500Y123699D02*
Y131500D01*
X120101Y112300D02*
X131500Y123699D01*
X114066Y112300D02*
X120101D01*
X107240Y105475D02*
X114066Y112300D01*
X114654Y110126D02*
X128126D01*
X133500Y115500D01*
X138500Y113134D02*
Y127640D01*
X52057Y80617D02*
X54522D01*
X57306Y83401D01*
X84300Y54300D02*
X92100Y46500D01*
Y41100D02*
Y46500D01*
Y41100D02*
X97300Y35900D01*
X113450D01*
X117250Y39700D01*
X333693Y39700D02*
X344693Y50700D01*
X117250Y39700D02*
X333693Y39700D01*
X90991Y66698D02*
X97700Y59989D01*
Y56600D02*
Y59989D01*
Y56600D02*
X99100Y55200D01*
X93500Y59600D02*
Y61405D01*
X89599Y65306D02*
X93500Y61405D01*
X64266Y76441D02*
X72825Y85001D01*
X57539Y59100D02*
X65739Y67300D01*
X66260D01*
X69833Y70874D01*
X56876Y60700D02*
X68441Y72265D01*
X55692Y62300D02*
X67049Y73658D01*
X54522Y63914D02*
X65658Y75049D01*
X75401Y73658D02*
X75401D01*
X71225Y69482D02*
X75401Y73658D01*
X57271Y69446D02*
X64266Y76441D01*
X54254Y69446D02*
X57271D01*
X284400Y52400D02*
X302400D01*
X281500Y49500D02*
X284400Y52400D01*
X286200Y46500D02*
X288200Y48500D01*
X133330Y107965D02*
X138500Y113134D01*
X115276Y107965D02*
X133330D01*
X104910Y100383D02*
X114654Y110126D01*
X106302Y98991D02*
X115276Y107965D01*
X107694Y97599D02*
X115722Y105626D01*
X137126D02*
X141500Y110000D01*
X115722Y105626D02*
X137126D01*
X141500Y110000D02*
Y131405D01*
X149595Y139500D02*
X172500D01*
X177382Y134618D02*
X198492D01*
X172500Y139500D02*
X177382Y134618D01*
X182500Y129500D02*
X198492D01*
X168500Y115500D02*
X182500Y129500D01*
X149618Y115500D02*
X168500D01*
X164459Y103500D02*
X187839Y126880D01*
X149500Y127382D02*
X149618Y127500D01*
X172500D01*
X149500Y115382D02*
X149618Y115500D01*
X253028Y196845D02*
X261333D01*
X238500Y182500D02*
Y193928D01*
X264212Y219640D02*
X282083D01*
X238500Y193928D02*
X264212Y219640D01*
X259500Y218916D02*
Y228584D01*
X235657Y195072D02*
X259500Y218916D01*
X235657Y187057D02*
Y195072D01*
X223500Y174900D02*
X235657Y187057D01*
X282761Y112290D02*
Y126941D01*
X280500Y110028D02*
X282761Y112290D01*
X280500Y105000D02*
Y110028D01*
X256612Y81112D02*
X280500Y105000D01*
X109086Y96207D02*
X116379Y103500D01*
X126500Y55500D02*
X127042Y54957D01*
X344693Y50700D02*
Y61460D01*
X306520Y66500D02*
X312020Y72000D01*
X302400Y66500D02*
X306520D01*
X288200D02*
Y71450D01*
X229500Y75200D02*
X263440D01*
X229200Y81112D02*
X256612D01*
X288200Y71450D02*
X298250Y81500D01*
X307206Y115500D02*
X313706Y122000D01*
X319500Y85267D02*
X334000Y99767D01*
X319500Y81500D02*
Y85267D01*
X337735Y110234D02*
X345298D01*
X334000Y106500D02*
X337735Y110234D01*
X334000Y99767D02*
Y106500D01*
X319750Y72250D02*
X332500Y85000D01*
X319500Y72000D02*
X319750Y72250D01*
X336500Y105789D02*
X338945Y108234D01*
X336500Y99000D02*
Y105789D01*
X332500Y95000D02*
X336500Y99000D01*
X332500Y85000D02*
Y95000D01*
X337162Y91234D02*
X343662Y84734D01*
X298250Y81500D02*
X312020D01*
X375500Y95000D02*
Y100126D01*
X371994Y91494D02*
X375500Y95000D01*
X357635Y91494D02*
X371994D01*
X375500Y100126D02*
X381000Y105626D01*
X375500Y121126D02*
X381000Y115626D01*
X375500Y121126D02*
Y127000D01*
X372525Y129975D02*
X375500Y127000D01*
X357698Y129975D02*
X372525D01*
X333733Y143147D02*
Y144500D01*
X325706Y135120D02*
X333733Y143147D01*
X363066Y77764D02*
X363193Y77891D01*
X363066Y68940D02*
Y77764D01*
X354693Y68940D02*
X363066D01*
X353659Y69974D02*
X354693Y68940D01*
X352256Y69974D02*
X353659D01*
X344693Y62759D02*
Y66194D01*
X346433Y67935D01*
Y71433D01*
X345333Y72533D02*
X346433Y71433D01*
X342610Y72533D02*
X345333D01*
X193135Y54217D02*
X201900Y62982D01*
Y74958D01*
X193135Y80998D02*
X193383Y80751D01*
X201900D01*
X263440Y75200D02*
X293240Y105000D01*
Y127450D02*
X301206Y135416D01*
X293240Y105000D02*
Y127450D01*
X256600Y97767D02*
Y98810D01*
X234910Y120500D02*
X256600Y98810D01*
X234910Y128500D02*
X238910Y124500D01*
X250333D01*
X252000Y122833D01*
Y114367D02*
Y122833D01*
Y114367D02*
X256600Y109767D01*
X234910Y136500D02*
X238910Y132500D01*
X250500D01*
X256600Y126400D01*
Y121767D02*
Y126400D01*
X234910Y145000D02*
X238910Y141000D01*
X249367D01*
X256600Y133767D01*
X261206Y138373D02*
Y148270D01*
X256600Y133767D02*
X261206Y138373D01*
X256600Y109767D02*
X271206Y124373D01*
X256600Y121767D02*
X266206Y131373D01*
X271206Y124373D02*
Y148270D01*
X256600Y97767D02*
X276206Y117373D01*
X177300Y146800D02*
X184900Y154400D01*
X191700D01*
X222508Y126941D02*
X228469D01*
X222508Y134618D02*
X228238D01*
X229692Y136072D01*
Y139782D02*
X234910Y145000D01*
X229692Y136072D02*
Y139782D01*
X230469Y132059D02*
X234910Y136500D01*
X222508Y132059D02*
X230469D01*
X233910Y129500D02*
X234910Y128500D01*
X222508Y129500D02*
X233910D01*
X177059Y132059D02*
X198492D01*
X172500Y127500D02*
X177059Y132059D01*
X361130Y226643D02*
Y241500D01*
Y226643D02*
X381233Y206540D01*
X366473D02*
X376473Y196540D01*
X381233D01*
X365933Y194980D02*
X374373Y186540D01*
X381233D01*
X376654Y176540D02*
X381233D01*
X373133Y174640D02*
X381233Y166540D01*
X341473Y174640D02*
X373133D01*
X335439Y217206D02*
X359733Y241500D01*
X328500Y217206D02*
X335439D01*
X311240Y222500D02*
X313500Y220240D01*
Y217000D02*
Y220240D01*
X289500Y223535D02*
Y226500D01*
X287500Y221535D02*
X289500Y223535D01*
X287500Y217500D02*
Y221535D01*
X297500Y226500D02*
X299760D01*
X303760Y222500D01*
X293500Y231054D02*
X306206Y243760D01*
X293500Y219500D02*
Y231054D01*
X287500Y217500D02*
X288661Y216339D01*
Y194384D02*
Y216339D01*
X286206Y191929D02*
X288661Y194384D01*
X286206Y184491D02*
Y191929D01*
X282083Y219640D02*
X286500Y215223D01*
Y200407D02*
Y215223D01*
X282438Y196345D02*
X286500Y200407D01*
X329212Y250476D02*
X333768D01*
X328233Y249498D02*
X329212Y250476D01*
X328233Y245500D02*
Y249498D01*
X306206Y251240D02*
X309946Y247500D01*
X311706D01*
X313706Y245500D01*
X302466Y247500D02*
X306206Y243760D01*
X300276Y247500D02*
X302466D01*
X296535Y251240D02*
X300276Y247500D01*
X295890Y251886D02*
X296535Y251240D01*
X286502Y251886D02*
X295890D01*
X291206Y217206D02*
X293500Y219500D01*
X291206Y184491D02*
Y217206D01*
X329293Y169940D02*
X336733Y177380D01*
X328233Y169940D02*
X329293D01*
X259500Y228584D02*
X269752D01*
X299466Y155640D02*
X340973D01*
X296206Y152380D02*
X299466Y155640D01*
X228469Y126941D02*
X234910Y120500D01*
X279021Y237854D02*
Y242686D01*
X269752Y228584D02*
X279021Y237854D01*
X276206Y117373D02*
Y148270D01*
X338945Y108234D02*
X344438D01*
X357698Y122494D02*
X358678Y123475D01*
X368698D01*
X357635Y98975D02*
X358616Y97994D01*
X368698D01*
X354395Y95735D02*
X357635Y98975D01*
X349733Y95735D02*
X354395D01*
X345233Y91234D02*
X349733Y95735D01*
X343662Y84734D02*
X350876D01*
X357635Y91494D01*
X342418Y94049D02*
X345233Y91234D01*
X342418Y94049D02*
Y102770D01*
X339859Y94431D02*
Y102770D01*
X353958Y126234D02*
X357698Y122494D01*
X352733Y126234D02*
X353958D01*
X347733Y131234D02*
X352733Y126234D01*
X339662Y131234D02*
X345162Y136734D01*
X350938D01*
X357698Y129975D01*
X344977Y128479D02*
X347733Y131234D01*
X344977Y119699D02*
Y128479D01*
X339662Y131234D02*
X342418Y128479D01*
Y119699D02*
Y128479D01*
X345298Y110234D02*
X347536Y112473D01*
Y119699D01*
X344438Y108234D02*
X344977Y107695D01*
Y102770D02*
Y107695D01*
X127042Y54957D02*
X156135D01*
X160514Y59336D01*
X162797D01*
X153635Y57758D02*
X165356Y69478D01*
Y76265D01*
X179532Y65457D02*
X183292Y61698D01*
X169135Y65457D02*
X179532D01*
X167915Y64237D02*
X169135Y65457D01*
X167915Y59336D02*
Y64237D01*
X193135Y61698D02*
X193827D01*
X183292D02*
X193135D01*
X170474Y76265D02*
X175528D01*
X178276Y73517D01*
X183292D01*
X193135D01*
X165356Y54021D02*
Y59336D01*
X164635Y53301D02*
X165356Y54021D01*
X163635Y53301D02*
X164635D01*
X162797Y54139D02*
X163635Y53301D01*
X162797Y54139D02*
Y59336D01*
X167915Y76265D02*
Y82021D01*
X167135Y82801D02*
X167915Y82021D01*
X166135Y82801D02*
X167135D01*
X165356Y82021D02*
X166135Y82801D01*
X165356Y76265D02*
Y82021D01*
X282521Y249286D02*
Y253785D01*
X281021Y255286D02*
X282521Y253785D01*
Y249286D02*
X286502Y245305D01*
Y242686D02*
Y245305D01*
X289883Y163640D02*
X321933D01*
X276206Y177317D02*
X289883Y163640D01*
X294856Y161030D02*
X327863D01*
X286206Y152380D02*
X294856Y161030D01*
X276206Y177317D02*
Y184491D01*
X327863Y161030D02*
X336733Y169900D01*
X281706Y196345D02*
X282438D01*
X313706Y122000D02*
Y127345D01*
X271333Y213928D02*
X274733Y210528D01*
Y200124D02*
Y210528D01*
X271333Y196724D02*
X274733Y200124D01*
X347733Y216380D02*
X347768Y216345D01*
Y206540D02*
Y216345D01*
X328233Y168640D02*
Y168880D01*
X346473Y149640D02*
Y161140D01*
X346233Y166140D02*
X346473Y165900D01*
Y161140D02*
Y165900D01*
X351383Y169490D02*
X359733Y161140D01*
X343783Y169490D02*
X351383D01*
X341233Y166940D02*
X343783Y169490D01*
X341233Y163380D02*
Y166940D01*
X338993Y161140D02*
X341233Y163380D01*
X336733Y169900D02*
X341473Y174640D01*
X335993Y158140D02*
X338993Y161140D01*
X296966Y158140D02*
X335993D01*
X291206Y152380D02*
X296966Y158140D01*
X340973Y155640D02*
X346473Y161140D01*
X347473Y179640D02*
X347733Y179900D01*
X342733Y179640D02*
X347473D01*
X358993Y202900D02*
Y206540D01*
X365813Y187380D02*
X365933Y187500D01*
X356733Y187380D02*
X365813D01*
X347733Y179900D02*
X356733D01*
X308273Y171640D02*
X320733D01*
X309933Y174240D02*
X319593D01*
X318069Y176840D02*
X347768Y206540D01*
X312633Y176840D02*
X318069D01*
X301206Y178707D02*
Y184491D01*
Y178707D02*
X308273Y171640D01*
X347768Y206540D02*
X358993D01*
X311206Y178267D02*
X312633Y176840D01*
X311206Y178267D02*
Y184491D01*
X306206Y177967D02*
X309933Y174240D01*
X306206Y177967D02*
Y184491D01*
X276206Y148270D02*
Y149270D01*
X170260Y204500D02*
X178500D01*
X164760Y210000D02*
X170260Y204500D01*
X250833Y185416D02*
X251758Y184491D01*
X261206D01*
X286206Y148270D02*
Y152380D01*
X273706Y170380D02*
X285233Y158853D01*
X271206Y188880D02*
X271333Y189007D01*
X266206Y131373D02*
Y148270D01*
X222465Y117000D02*
Y121780D01*
X172240Y216740D02*
X177824Y222324D01*
X172240Y210000D02*
Y216740D01*
X173921Y226812D02*
X186124D01*
X164500Y194623D02*
X176460Y182663D01*
Y180900D02*
Y182663D01*
X177500Y155500D02*
X177665Y155665D01*
X177165Y192300D02*
X177665Y191800D01*
X132500Y240500D02*
Y247500D01*
X127500Y252500D02*
X132500Y247500D01*
X127500Y252500D02*
Y269000D01*
X124000Y272500D02*
X127500Y269000D01*
X124500Y232500D02*
X132500Y240500D01*
X121240Y245500D02*
X128500D01*
X131500Y253500D02*
X139500Y245500D01*
X131500Y253500D02*
Y262000D01*
X133339Y263839D01*
X137965D01*
X139500Y232500D02*
Y245500D01*
X145020Y258720D02*
X152500Y251240D01*
X137965Y258720D02*
X145020D01*
X137965Y256161D02*
X143339D01*
X117500Y278000D02*
X122000Y282500D01*
Y285035D01*
X117799Y273299D02*
X127000Y282500D01*
X111500Y273299D02*
X117799D01*
X121335Y285701D02*
X122000Y285035D01*
X111500Y285701D02*
X121335D01*
X133000Y278500D02*
X137000Y282500D01*
X131000Y278500D02*
X133000D01*
X127000Y282500D02*
X131000Y278500D01*
X137000Y282500D02*
Y283000D01*
Y285035D01*
X141000Y275965D02*
Y279000D01*
X137000Y283000D02*
X141000Y279000D01*
Y275965D02*
X147500Y269465D01*
Y277535D02*
Y287000D01*
X143500Y291000D02*
X147500Y287000D01*
X135500Y291000D02*
X143500D01*
X132000Y287500D02*
X135500Y291000D01*
X132000Y285035D02*
Y287500D01*
X122000Y285035D02*
Y290000D01*
X123000Y291000D01*
X128500D01*
X132000Y287500D01*
X146965Y269465D02*
X147500D01*
X141339Y263839D02*
X146965Y269465D01*
X137965Y263839D02*
X141339D01*
X76500Y269500D02*
X100465D01*
X67500Y252535D02*
Y275500D01*
X105760Y237500D02*
X113760Y245500D01*
X101500Y237500D02*
X105760D01*
X85240Y253240D02*
X100465D01*
X121035Y256161D02*
X121240Y255957D01*
Y245500D02*
Y255957D01*
X113461Y258720D02*
X121035D01*
X107980Y253240D02*
X113461Y258720D01*
X110465Y248795D02*
X113760Y245500D01*
X110465Y248795D02*
Y250756D01*
X107980Y253240D02*
X110465Y250756D01*
X109500Y261280D02*
X121035D01*
X108760Y262020D02*
X109500Y261280D01*
X100465Y262020D02*
X108760D01*
X100465Y269500D02*
X107500D01*
X113161Y263839D01*
X121035D01*
X289742Y134880D02*
X290206D01*
X268206Y170380D02*
X273706D01*
X313706Y127345D02*
X314001Y127640D01*
X306206Y143880D02*
Y148270D01*
X311206Y143880D02*
Y148270D01*
X261206Y177380D02*
X268206Y170380D01*
X261206Y177380D02*
Y184491D01*
X306206D02*
Y188880D01*
X281206Y195845D02*
X281706Y196345D01*
X271206Y184491D02*
Y188880D01*
X309671Y210345D02*
X309706Y210380D01*
X309671Y196345D02*
X311206Y194809D01*
X296206Y149270D02*
Y152380D01*
X291206Y149270D02*
Y152380D01*
X281206Y148270D02*
Y149270D01*
D49*
X22000Y230000D02*
D03*
Y227441D02*
D03*
Y224882D02*
D03*
Y222323D02*
D03*
Y219764D02*
D03*
D50*
X279021Y251886D02*
D03*
X286502D02*
D03*
Y242686D02*
D03*
X282761D02*
D03*
X279021D02*
D03*
X183940Y171700D02*
D03*
X176460D02*
D03*
Y180900D02*
D03*
X180200D02*
D03*
X183940D02*
D03*
D51*
X342610Y69974D02*
D03*
Y72533D02*
D03*
Y75092D02*
D03*
X352256D02*
D03*
Y72533D02*
D03*
Y69974D02*
D03*
D52*
X339859Y102770D02*
D03*
X342418D02*
D03*
X344977D02*
D03*
X347536D02*
D03*
X339859Y119699D02*
D03*
X342418D02*
D03*
X344977D02*
D03*
X347536D02*
D03*
X162797Y59336D02*
D03*
X165356D02*
D03*
X167915D02*
D03*
X170474D02*
D03*
X162797Y76265D02*
D03*
X165356D02*
D03*
X167915D02*
D03*
X170474D02*
D03*
D53*
X222508Y121823D02*
D03*
Y124382D02*
D03*
Y126941D02*
D03*
Y129500D02*
D03*
Y132059D02*
D03*
Y134618D02*
D03*
Y137177D02*
D03*
X198492Y121823D02*
D03*
Y124382D02*
D03*
Y126941D02*
D03*
Y129500D02*
D03*
Y132059D02*
D03*
Y134618D02*
D03*
Y137177D02*
D03*
D54*
X121035Y263839D02*
D03*
Y261280D02*
D03*
Y258720D02*
D03*
Y256161D02*
D03*
X137965Y263839D02*
D03*
Y261280D02*
D03*
Y258720D02*
D03*
Y256161D02*
D03*
D55*
X213487Y231300D02*
D03*
X361130Y241500D02*
D03*
D56*
X186124Y222324D02*
D03*
Y226812D02*
D03*
Y235788D02*
D03*
Y240276D02*
D03*
X333768Y232524D02*
D03*
Y250476D02*
D03*
D57*
X55914Y96207D02*
D03*
X57306Y97599D02*
D03*
X58698Y98991D02*
D03*
X60090Y100383D02*
D03*
X61482Y101775D02*
D03*
X62874Y103167D02*
D03*
X64266Y104559D02*
D03*
X65658Y105951D02*
D03*
X67049Y107343D02*
D03*
X68441Y108734D02*
D03*
X69833Y110126D02*
D03*
X71225Y111518D02*
D03*
X72617Y112910D02*
D03*
X74009Y114302D02*
D03*
X75401Y115694D02*
D03*
X76793Y117086D02*
D03*
X109086Y84793D02*
D03*
X107694Y83401D02*
D03*
X106302Y82009D02*
D03*
X104910Y80617D02*
D03*
X103518Y79225D02*
D03*
X102126Y77833D02*
D03*
X100734Y76441D02*
D03*
X99343Y75049D02*
D03*
X97951Y73658D02*
D03*
X96559Y72265D02*
D03*
X95167Y70874D02*
D03*
X93775Y69482D02*
D03*
X92383Y68090D02*
D03*
X90991Y66698D02*
D03*
X89599Y65306D02*
D03*
X88207Y63914D02*
D03*
D58*
Y117086D02*
D03*
X89599Y115694D02*
D03*
X90991Y114302D02*
D03*
X92383Y112910D02*
D03*
X93775Y111518D02*
D03*
X95167Y110126D02*
D03*
X96559Y108734D02*
D03*
X97951Y107343D02*
D03*
X99343Y105951D02*
D03*
X100734Y104559D02*
D03*
X102126Y103167D02*
D03*
X103518Y101775D02*
D03*
X104910Y100383D02*
D03*
X106302Y98991D02*
D03*
X107694Y97599D02*
D03*
X109086Y96207D02*
D03*
X76793Y63914D02*
D03*
X75401Y65306D02*
D03*
X74009Y66698D02*
D03*
X72617Y68090D02*
D03*
X71225Y69482D02*
D03*
X69833Y70874D02*
D03*
X68441Y72265D02*
D03*
X67049Y73658D02*
D03*
X65658Y75049D02*
D03*
X64266Y76441D02*
D03*
X62874Y77833D02*
D03*
X61482Y79225D02*
D03*
X60090Y80617D02*
D03*
X58698Y82009D02*
D03*
X57306Y83401D02*
D03*
X55914Y84793D02*
D03*
D59*
X316206Y184491D02*
D03*
X311206D02*
D03*
X306206D02*
D03*
X301206D02*
D03*
X296206D02*
D03*
X291206D02*
D03*
X286206D02*
D03*
X281206D02*
D03*
X276206D02*
D03*
X271206D02*
D03*
X266206D02*
D03*
X261206D02*
D03*
X316206Y148270D02*
D03*
X311206D02*
D03*
X306206D02*
D03*
X301206D02*
D03*
X296206D02*
D03*
X291206D02*
D03*
X286206D02*
D03*
X281206D02*
D03*
X276206D02*
D03*
X271206D02*
D03*
X266206D02*
D03*
X261206D02*
D03*
D60*
X312020Y72000D02*
D03*
X319500D02*
D03*
X312020Y81500D02*
D03*
X319500D02*
D03*
X366473Y206540D02*
D03*
X358993D02*
D03*
X277232Y228584D02*
D03*
X269752D02*
D03*
X113760Y245500D02*
D03*
X121240D02*
D03*
X100500Y253240D02*
D03*
X107980D02*
D03*
X164760Y210000D02*
D03*
X172240D02*
D03*
X311240Y222500D02*
D03*
X303760D02*
D03*
X370673Y77891D02*
D03*
X363193D02*
D03*
X344693Y61460D02*
D03*
X352173D02*
D03*
X346473Y161140D02*
D03*
X338993D02*
D03*
X234910Y120500D02*
D03*
X242390D02*
D03*
X234910Y128500D02*
D03*
X242390D02*
D03*
X234910Y136500D02*
D03*
X242390D02*
D03*
X234910Y145000D02*
D03*
X242390D02*
D03*
D61*
X368698Y105475D02*
D03*
Y97994D02*
D03*
X357635Y98975D02*
D03*
Y91494D02*
D03*
X368698Y115994D02*
D03*
Y123475D02*
D03*
X357698Y122494D02*
D03*
Y129975D02*
D03*
X296535Y243760D02*
D03*
Y251240D02*
D03*
X306206Y243760D02*
D03*
Y251240D02*
D03*
X183292Y54217D02*
D03*
Y61698D02*
D03*
X193135Y54217D02*
D03*
Y61698D02*
D03*
X183292Y80998D02*
D03*
Y73517D02*
D03*
X193135Y80998D02*
D03*
Y73517D02*
D03*
X363066Y61460D02*
D03*
Y68940D02*
D03*
X100465Y269500D02*
D03*
Y262020D02*
D03*
X67500Y245055D02*
D03*
Y252535D02*
D03*
X325706Y135120D02*
D03*
Y127640D02*
D03*
X365933Y194980D02*
D03*
Y187500D02*
D03*
X347733Y187380D02*
D03*
Y179900D02*
D03*
X296206Y196640D02*
D03*
Y204120D02*
D03*
X356733Y187380D02*
D03*
Y179900D02*
D03*
X336733Y169900D02*
D03*
Y177380D02*
D03*
X271333Y204204D02*
D03*
Y196724D02*
D03*
D62*
X127000Y285035D02*
D03*
X132000D02*
D03*
X137000D02*
D03*
X122000D02*
D03*
D63*
X124500Y303535D02*
D03*
X134500D02*
D03*
D64*
X70293Y45793D02*
D03*
X75707Y51207D02*
D03*
D65*
X111500Y285701D02*
D03*
X111500Y273299D02*
D03*
D66*
X43500Y308102D02*
D03*
Y320898D02*
D03*
D67*
X269261Y243250D02*
D03*
Y251321D02*
D03*
X139900Y67922D02*
D03*
Y75993D02*
D03*
X152135Y67922D02*
D03*
Y75993D02*
D03*
X312500Y93965D02*
D03*
Y102035D02*
D03*
X328500Y107965D02*
D03*
Y116035D02*
D03*
X158400Y253565D02*
D03*
Y261635D02*
D03*
X147500Y269465D02*
D03*
Y277535D02*
D03*
X119500Y79465D02*
D03*
Y87535D02*
D03*
X44000Y100335D02*
D03*
Y92265D02*
D03*
X134000Y95735D02*
D03*
Y87665D02*
D03*
X313706Y135416D02*
D03*
Y127345D02*
D03*
X250833Y177345D02*
D03*
Y185416D02*
D03*
X301206Y127345D02*
D03*
Y135416D02*
D03*
X281706Y196345D02*
D03*
Y204416D02*
D03*
X261333Y196845D02*
D03*
Y204916D02*
D03*
X309671Y196345D02*
D03*
Y204416D02*
D03*
D68*
X60020Y55647D02*
D03*
X65727Y61353D02*
D03*
X80146Y38647D02*
D03*
X85853Y44354D02*
D03*
D69*
X193621Y106626D02*
D03*
X201692D02*
D03*
X345233Y91234D02*
D03*
X337162D02*
D03*
X347733Y131234D02*
D03*
X339662D02*
D03*
X214465Y145735D02*
D03*
X222535D02*
D03*
X190357Y145800D02*
D03*
X198427D02*
D03*
X347768Y206540D02*
D03*
X339698D02*
D03*
X229692Y106626D02*
D03*
X221621D02*
D03*
X177665Y161500D02*
D03*
X185735D02*
D03*
X177665Y191800D02*
D03*
X185735D02*
D03*
X194392Y253800D02*
D03*
X186321D02*
D03*
X185821Y207300D02*
D03*
X193892D02*
D03*
X93185Y127700D02*
D03*
X85114D02*
D03*
X281671Y134880D02*
D03*
X289742D02*
D03*
X329048Y200140D02*
D03*
X320977D02*
D03*
D70*
X172500Y339315D02*
D03*
Y303685D02*
D03*
X85500Y339315D02*
D03*
Y303685D02*
D03*
D71*
X57020Y43854D02*
D03*
X62727Y38146D02*
D03*
X104853Y48046D02*
D03*
X99146Y53754D02*
D03*
X48546Y75153D02*
D03*
X54254Y69446D02*
D03*
D72*
X93185Y127700D02*
X98840D01*
X84900Y108500D02*
Y112676D01*
Y108500D02*
X98300Y95100D01*
X75500Y42500D02*
X80000Y38000D01*
X59874Y55500D02*
X60150Y55224D01*
X76500Y34500D02*
X80000Y38000D01*
X322000Y108234D02*
X328230D01*
X158565Y253400D02*
X165000D01*
X158400Y247900D02*
Y253565D01*
X177135Y54217D02*
Y57365D01*
X98300Y90300D02*
X102500D01*
X292000Y239224D02*
X296535Y243760D01*
X208245Y146500D02*
X214362D01*
X214465Y146602D01*
X290206Y134880D02*
X295500Y140174D01*
X44000Y100335D02*
Y106500D01*
X128000Y95500D02*
X133765D01*
X134000Y95735D01*
X87700Y71400D02*
Y73900D01*
X82500Y68700D02*
X87700Y73900D01*
X82500Y58200D02*
Y68700D01*
X61821Y90300D02*
X87700D01*
Y74500D02*
Y90300D01*
X98300D01*
X119500Y74000D02*
Y79465D01*
X57020Y43854D02*
Y43967D01*
X61100Y48046D01*
X55847Y43854D02*
X57020D01*
X52200Y47500D02*
X55847Y43854D01*
X62727Y38227D02*
X70293Y45793D01*
X62727Y38146D02*
Y38227D01*
X65727Y61353D02*
X67197Y59883D01*
Y48888D02*
Y59883D01*
Y48888D02*
X70293Y45793D01*
X78900Y54600D02*
X82500Y58200D01*
X100607Y43800D02*
X104853Y48046D01*
X108800Y44100D01*
X56426Y51500D02*
X60150Y55224D01*
X53000Y55500D02*
X59874D01*
X134000Y95735D02*
X139900D01*
X43769Y79500D02*
X43807D01*
X48153Y75153D01*
X44000Y71000D02*
X48153Y75153D01*
X38300Y100300D02*
X38335Y100335D01*
X44000D01*
X93185Y127700D02*
Y133385D01*
X98300Y90300D02*
Y95100D01*
X119500Y79465D02*
X119739Y79225D01*
X125500D01*
X309587Y204500D02*
X309671Y204416D01*
X303500Y204500D02*
X309587D01*
X289500Y134639D02*
X289742Y134880D01*
X289500Y128479D02*
Y134639D01*
X299500Y125639D02*
X301206Y127345D01*
X299500Y121500D02*
Y125639D01*
X363066Y61460D02*
X363106Y61500D01*
X368698D01*
X328500Y101900D02*
Y107965D01*
X312500Y87800D02*
Y93965D01*
X306000Y94000D02*
X312465D01*
X368698Y110734D02*
Y115994D01*
Y105475D02*
Y110734D01*
X139900Y61958D02*
Y67922D01*
X146099D01*
X190400Y139800D02*
Y145757D01*
X190357Y145800D02*
X190400Y145757D01*
X333733Y227500D02*
Y232489D01*
X214465Y146602D02*
Y152265D01*
X152135Y67922D02*
X152171Y67958D01*
X158135D01*
X152135Y61958D02*
Y67922D01*
X177135Y54217D02*
X183292D01*
X177135Y80958D02*
X177176Y80998D01*
X183292D01*
X277232Y228584D02*
X282557D01*
X269261Y243250D02*
X269545Y242967D01*
Y237386D02*
Y242967D01*
X263221Y243250D02*
X269261D01*
X329048Y194140D02*
Y200140D01*
Y206540D01*
X339698D02*
Y212640D01*
X250833Y171180D02*
Y177345D01*
X244833D02*
X250833D01*
X193621Y100626D02*
Y105984D01*
X229692Y106626D02*
X235657D01*
X229692Y100626D02*
Y106626D01*
X187657Y106305D02*
X193300D01*
X184500Y145800D02*
X190357D01*
X193892Y207300D02*
Y213500D01*
Y201500D02*
Y207300D01*
X194392Y253800D02*
Y259500D01*
Y247500D02*
Y253800D01*
X177665Y155665D02*
Y161500D01*
X171500D02*
X177665D01*
Y191800D02*
Y197500D01*
X171500Y192300D02*
X177165D01*
X301206Y127345D02*
X304971Y123580D01*
X307206D01*
X313706Y135416D02*
X319671D01*
X296206Y204120D02*
Y210345D01*
X281706Y204416D02*
Y210345D01*
X309671Y204416D02*
Y210345D01*
X317100Y148270D02*
X320706D01*
D73*
X352173Y62759D02*
X353472Y61460D01*
X186200Y263535D02*
X186288Y256500D01*
X328230Y108234D02*
X328500Y107965D01*
X86900Y62419D02*
X88044Y63562D01*
X86900Y57500D02*
Y62419D01*
Y57500D02*
X95600Y48800D01*
Y42649D02*
Y48800D01*
Y42649D02*
X99050Y39200D01*
X111700D01*
X115800Y43300D01*
X314700Y43300D02*
X322100Y50700D01*
X115800Y43300D02*
X314700Y43300D01*
X322300Y64200D02*
X322900D01*
X333792Y75092D01*
X342610D01*
X312465Y94000D02*
X312500Y93965D01*
X353472Y61460D02*
X363066D01*
X352173D02*
X353472D01*
X357402Y72533D02*
X357433Y72502D01*
X352256Y72533D02*
X357402D01*
X342610Y75092D02*
X352256D01*
X333733Y232489D02*
X333768Y232524D01*
X242390Y120500D02*
X248100D01*
X242390Y128500D02*
X248100D01*
X242390Y136500D02*
X248100D01*
X242390Y145000D02*
X248100D01*
X347536Y105573D02*
X350698Y108734D01*
X347536Y102770D02*
Y105573D01*
X316206Y184491D02*
X316221Y184476D01*
X192043Y121823D02*
X198492D01*
X152500Y263535D02*
X157500D01*
X150244Y261280D02*
X152500Y263535D01*
X137965Y261280D02*
X150244D01*
D74*
X262674Y204120D02*
X272333D01*
X75707Y51207D02*
X78915Y48000D01*
X82207D01*
X85853Y44354D01*
X186124Y240276D02*
Y251000D01*
X152135Y76265D02*
Y83300D01*
X185735Y195000D02*
X185821Y195086D01*
X183940Y190005D02*
X185735Y191800D01*
X183940Y180900D02*
Y190005D01*
X158400Y253565D02*
X158565Y253400D01*
X312755Y127345D02*
X313706D01*
X307333Y132767D02*
X312755Y127345D01*
X307333Y132767D02*
Y142754D01*
X261333Y194267D02*
X266206Y189394D01*
X136900Y87665D02*
X143500D01*
X123000Y87535D02*
X123129Y87665D01*
X130500D01*
X142400Y75993D02*
X149618D01*
X271333Y189007D02*
Y196724D01*
X306206Y143880D02*
X307333Y142754D01*
X301206Y135416D02*
Y148270D01*
X314001Y127640D02*
X325706D01*
X311206Y143880D02*
X313706Y141380D01*
X319446D01*
X325706Y135120D01*
X296206Y184491D02*
Y196640D01*
X281206Y184491D02*
Y195845D01*
X311206Y184491D02*
Y194809D01*
D75*
X281206Y134880D02*
Y148270D01*
D76*
X185821Y219121D02*
Y221000D01*
X186321Y251197D02*
Y253800D01*
X186288Y256500D02*
X186321Y256466D01*
Y253800D02*
Y256466D01*
X381233Y223500D02*
Y272000D01*
X152135Y75993D02*
X155193D01*
X185821Y207300D02*
Y211814D01*
X215820Y159280D02*
X222508D01*
X200050Y175050D02*
X215820Y159280D01*
X192100Y183000D02*
Y190400D01*
X192300Y191800D02*
X222915D01*
X240500Y209385D01*
Y237455D01*
X254345Y251300D01*
X257779D01*
X257800Y251321D01*
X185735Y191800D02*
Y195000D01*
X185821Y203000D02*
Y207300D01*
X192100Y183000D02*
X200050Y175050D01*
X266300Y251321D02*
X269261D01*
X201692Y100100D02*
Y102735D01*
Y106626D01*
X201657Y102700D02*
X201692Y102735D01*
X157778Y92600D02*
X194827D01*
X152135Y86958D02*
X157778Y92600D01*
X319368Y115994D02*
X321700D01*
X312637Y109263D02*
X319368Y115994D01*
X221618Y100000D02*
X221621Y106626D01*
X221400Y72292D02*
Y86900D01*
Y72292D02*
X226192Y67500D01*
X206000Y88300D02*
X212500Y81800D01*
Y68100D02*
Y81800D01*
X318600Y194600D02*
X320977Y196977D01*
X144600Y87700D02*
X151393D01*
X144565Y87665D02*
X144600Y87700D01*
X134000Y87665D02*
X136900D01*
X119500Y87535D02*
X123000D01*
X130500Y87665D02*
X134000D01*
X151393Y87700D02*
X152135Y86958D01*
Y83300D02*
Y86958D01*
X139900Y75993D02*
X142400D01*
X149618D02*
X152135D01*
X376800Y78200D02*
X377900D01*
X386900Y212400D02*
X391500Y207800D01*
X222508Y146602D02*
Y159280D01*
X198427Y145800D02*
X198500Y161500D01*
X222100Y58500D02*
X329733D01*
X333016Y61783D01*
X212500Y68100D02*
X222100Y58500D01*
X377900Y78200D02*
X391500Y91800D01*
X226192Y67500D02*
X269500D01*
X304035Y102035D01*
X305800D01*
X221621Y106626D02*
Y106843D01*
X201692Y106626D02*
Y112692D01*
X215000Y113465D02*
X221621Y106843D01*
X215000Y113465D02*
Y134100D01*
X201692Y112692D02*
X206000Y117000D01*
X222508Y159280D02*
X275833D01*
X391500Y91800D02*
X391500Y207800D01*
X206000Y117000D02*
Y134100D01*
X320977Y196977D02*
Y200140D01*
X192500Y161500D02*
X198500D01*
D77*
X282761Y236105D02*
Y242686D01*
D78*
X215170Y231370D02*
D03*
D79*
X172710Y349000D02*
D03*
D80*
X172750Y294000D02*
D03*
X43750Y302000D02*
D03*
X85750Y349000D02*
D03*
D81*
X167250Y303535D02*
D03*
X177750Y303685D02*
D03*
X178250Y339315D02*
D03*
X168250D02*
D03*
X91750Y340500D02*
D03*
X79957D02*
D03*
X91750Y303000D02*
D03*
X80250D02*
D03*
X38750Y308000D02*
D03*
X47750D02*
D03*
X47250Y321500D02*
D03*
X39250D02*
D03*
D82*
X43500Y326500D02*
D03*
D83*
X85437Y294500D02*
D03*
D84*
X320983Y234220D02*
D03*
D85*
X190000Y288648D02*
D03*
D86*
X229500Y340500D02*
D03*
D87*
X301050D02*
D03*
D88*
X172500Y357500D02*
D03*
D89*
X199500Y340500D02*
D03*
D90*
X280200Y288648D02*
D03*
D91*
X85750Y357500D02*
D03*
D92*
X63750Y340500D02*
D03*
D93*
X45750Y282946D02*
D03*
D94*
X44250Y346250D02*
D03*
D95*
X63750Y288669D02*
D03*
D96*
X129000Y340500D02*
D03*
D97*
X11468Y211053D02*
D03*
Y238711D02*
D03*
D98*
X23280Y215335D02*
D03*
Y234429D02*
D03*
D99*
X63000Y17500D02*
D03*
X53000D02*
D03*
X43000D02*
D03*
X33000D02*
D03*
X133000Y197500D02*
D03*
Y207500D02*
D03*
X163000Y17500D02*
D03*
X153000D02*
D03*
X143000D02*
D03*
X133000D02*
D03*
X123000D02*
D03*
X113000D02*
D03*
X103000D02*
D03*
X23000Y187500D02*
D03*
Y177500D02*
D03*
Y167500D02*
D03*
Y157500D02*
D03*
Y147500D02*
D03*
X103000Y197500D02*
D03*
Y187500D02*
D03*
Y177500D02*
D03*
Y167500D02*
D03*
X23000Y107500D02*
D03*
Y97500D02*
D03*
Y87500D02*
D03*
Y77500D02*
D03*
Y67500D02*
D03*
Y57500D02*
D03*
Y47500D02*
D03*
Y117500D02*
D03*
X153000Y187500D02*
D03*
Y177500D02*
D03*
Y167500D02*
D03*
X211500Y93500D02*
D03*
X201500D02*
D03*
X381000Y347500D02*
D03*
Y294000D02*
D03*
X23000Y347500D02*
D03*
Y294000D02*
D03*
X381000Y105626D02*
D03*
X381233Y176540D02*
D03*
Y186540D02*
D03*
Y196540D02*
D03*
Y206540D02*
D03*
Y216540D02*
D03*
X33000Y255000D02*
D03*
X23000D02*
D03*
D100*
Y17500D02*
D03*
X173000D02*
D03*
X221500Y93500D02*
D03*
X43000Y255000D02*
D03*
D101*
X133000Y187500D02*
D03*
X23000Y197500D02*
D03*
X103000Y157500D02*
D03*
X23000Y127500D02*
D03*
X153000Y157500D02*
D03*
X381000Y337500D02*
D03*
Y284000D02*
D03*
X23000Y337500D02*
D03*
Y284000D02*
D03*
X381000Y115626D02*
D03*
X381233Y166540D02*
D03*
D102*
X322100Y50700D02*
D03*
X344693D02*
D03*
X139500Y232500D02*
D03*
X124500D02*
D03*
X307206Y115500D02*
D03*
X333733Y144500D02*
D03*
X359733Y161140D02*
D03*
X346473Y149640D02*
D03*
X347733Y216380D02*
D03*
X328000Y169500D02*
D03*
X271333Y213928D02*
D03*
X250233Y196845D02*
D03*
X302400Y66500D02*
D03*
X288200D02*
D03*
X293500Y219500D02*
D03*
X126500Y55500D02*
D03*
X293240Y105000D02*
D03*
X126500Y67958D02*
D03*
X280500Y105000D02*
D03*
X256600Y97767D02*
D03*
Y109767D02*
D03*
Y121767D02*
D03*
Y133767D02*
D03*
X149500Y103382D02*
D03*
Y115382D02*
D03*
Y127382D02*
D03*
Y139382D02*
D03*
X101500Y237500D02*
D03*
X198500Y161500D02*
D03*
X85240Y253240D02*
D03*
X163200Y232000D02*
D03*
X155000Y217206D02*
D03*
X200050Y175050D02*
D03*
X259500Y228584D02*
D03*
D103*
X80000Y153172D02*
D03*
X76793Y150000D02*
D03*
X65658Y168000D02*
D03*
X68500Y164500D02*
D03*
X98840Y127700D02*
D03*
X56400Y127400D02*
D03*
X70500D02*
D03*
X75500Y42500D02*
D03*
X76500Y34500D02*
D03*
X56426Y132059D02*
D03*
X70500Y131950D02*
D03*
X363500Y233956D02*
D03*
Y248933D02*
D03*
Y241444D02*
D03*
X370000Y234012D02*
D03*
Y248988D02*
D03*
Y241500D02*
D03*
X217500Y224012D02*
D03*
Y238988D02*
D03*
Y231500D02*
D03*
X226000D02*
D03*
X173921Y226812D02*
D03*
X201100Y185300D02*
D03*
X322000Y108234D02*
D03*
X158400Y247900D02*
D03*
X165000Y253400D02*
D03*
X357093Y201000D02*
D03*
X352500Y192300D02*
D03*
X292000Y239224D02*
D03*
X208245Y146500D02*
D03*
X295500Y140174D02*
D03*
X44000Y106500D02*
D03*
X128000Y95500D02*
D03*
X55500Y36000D02*
D03*
X83575Y75200D02*
D03*
X72000Y56600D02*
D03*
X115900Y68400D02*
D03*
X113300Y75800D02*
D03*
X112300Y71200D02*
D03*
X121300Y62200D02*
D03*
X118000Y58900D02*
D03*
X114654Y62300D02*
D03*
X119500Y74000D02*
D03*
X93300Y78200D02*
D03*
X138500Y127640D02*
D03*
X72825Y94800D02*
D03*
X61100Y48046D02*
D03*
X52200Y47500D02*
D03*
X84300Y54300D02*
D03*
X78200Y60600D02*
D03*
X100607Y43800D02*
D03*
X108800Y44100D02*
D03*
X93500Y59600D02*
D03*
X56426Y51500D02*
D03*
X72825Y85001D02*
D03*
X53000Y55500D02*
D03*
X139900Y95735D02*
D03*
X75401Y73658D02*
D03*
X43769Y79500D02*
D03*
X44000Y71000D02*
D03*
X38300Y100300D02*
D03*
X93185Y133385D02*
D03*
X125500Y79225D02*
D03*
X288200Y48500D02*
D03*
X133500Y115500D02*
D03*
X223500Y174900D02*
D03*
X303500Y204500D02*
D03*
X289500Y128479D02*
D03*
X282761Y126941D02*
D03*
X299500Y121500D02*
D03*
X368698Y61500D02*
D03*
X322300Y64200D02*
D03*
X302400Y52400D02*
D03*
X229200Y81112D02*
D03*
X229500Y75200D02*
D03*
X306000Y94000D02*
D03*
X312500Y87800D02*
D03*
X328500Y101900D02*
D03*
X357433Y72502D02*
D03*
X201900Y74958D02*
D03*
Y80751D02*
D03*
X146099Y67922D02*
D03*
X139900Y61958D02*
D03*
X191700Y154400D02*
D03*
X190400Y139800D02*
D03*
X328500Y217206D02*
D03*
X313500Y217000D02*
D03*
X289500Y226500D02*
D03*
X297500D02*
D03*
X333733Y227500D02*
D03*
X313706Y245500D02*
D03*
X328233D02*
D03*
X214465Y152265D02*
D03*
X282761Y236105D02*
D03*
X350698Y108734D02*
D03*
X368698Y110734D02*
D03*
X158135Y67958D02*
D03*
X152135Y61958D02*
D03*
X177135Y54217D02*
D03*
Y80958D02*
D03*
X282557Y228584D02*
D03*
X263221Y243250D02*
D03*
X269545Y237386D02*
D03*
X123000Y296100D02*
D03*
X126000Y300000D02*
D03*
Y305500D02*
D03*
X120500Y310600D02*
D03*
X126000D02*
D03*
X136100Y296100D02*
D03*
X133200Y300000D02*
D03*
Y305400D02*
D03*
Y310600D02*
D03*
X138100D02*
D03*
X339698Y212640D02*
D03*
X329048Y206540D02*
D03*
Y194140D02*
D03*
X346233Y166140D02*
D03*
X342733Y179640D02*
D03*
X226000Y238988D02*
D03*
X178500Y204500D02*
D03*
X281706Y210345D02*
D03*
X296206D02*
D03*
X309706Y210380D02*
D03*
X244833Y177345D02*
D03*
X250833Y171180D02*
D03*
X285233Y158853D02*
D03*
X307206Y123580D02*
D03*
X319671Y135416D02*
D03*
X320706Y148270D02*
D03*
X248100Y136500D02*
D03*
X235657Y106626D02*
D03*
X187657Y106305D02*
D03*
X229692Y100626D02*
D03*
X193621D02*
D03*
X248100Y120500D02*
D03*
Y128500D02*
D03*
Y145000D02*
D03*
X192000Y121780D02*
D03*
X206000Y117000D02*
D03*
X222465D02*
D03*
X184500Y145800D02*
D03*
X194392Y247500D02*
D03*
Y259500D02*
D03*
X193892Y201500D02*
D03*
Y213500D02*
D03*
X177500Y155500D02*
D03*
X171500Y161500D02*
D03*
Y192300D02*
D03*
X177665Y197500D02*
D03*
X128500Y245500D02*
D03*
X226000Y224012D02*
D03*
X117500Y278000D02*
D03*
X124000Y272500D02*
D03*
M02*
