G04*
G04 #@! TF.GenerationSoftware,Altium Limited,Altium Designer,18.1.9 (240)*
G04*
G04 Layer_Color=8388736*
%FSLAX25Y25*%
%MOIN*%
G70*
G01*
G75*
%ADD18R,0.05715X0.01975*%
%ADD19R,0.02800X0.07400*%
%ADD20R,0.04494X0.02132*%
%ADD21R,0.02132X0.08234*%
%ADD22R,0.06659X0.02132*%
%ADD23R,0.08234X0.02132*%
%ADD24R,0.25010X0.22450*%
%ADD25R,0.12805X0.03947*%
G04:AMPARAMS|DCode=26|XSize=14.81mil|YSize=65.99mil|CornerRadius=0mil|HoleSize=0mil|Usage=FLASHONLY|Rotation=45.000|XOffset=0mil|YOffset=0mil|HoleType=Round|Shape=Rectangle|*
%AMROTATEDRECTD26*
4,1,4,0.01810,-0.02857,-0.02857,0.01810,-0.01810,0.02857,0.02857,-0.01810,0.01810,-0.02857,0.0*
%
%ADD26ROTATEDRECTD26*%

G04:AMPARAMS|DCode=27|XSize=14.81mil|YSize=65.99mil|CornerRadius=0mil|HoleSize=0mil|Usage=FLASHONLY|Rotation=135.000|XOffset=0mil|YOffset=0mil|HoleType=Round|Shape=Rectangle|*
%AMROTATEDRECTD27*
4,1,4,0.02857,0.01810,-0.01810,-0.02857,-0.02857,-0.01810,0.01810,0.02857,0.02857,0.01810,0.0*
%
%ADD27ROTATEDRECTD27*%

%ADD28R,0.03356X0.10836*%
%ADD29R,0.05512X0.05118*%
%ADD30R,0.05118X0.05512*%
%ADD31R,0.04100X0.08600*%
%ADD32R,0.08600X0.20600*%
G04:AMPARAMS|DCode=33|XSize=56.59mil|YSize=63.87mil|CornerRadius=0mil|HoleSize=0mil|Usage=FLASHONLY|Rotation=45.000|XOffset=0mil|YOffset=0mil|HoleType=Round|Shape=Rectangle|*
%AMROTATEDRECTD33*
4,1,4,0.00258,-0.04259,-0.04259,0.00258,-0.00258,0.04259,0.04259,-0.00258,0.00258,-0.04259,0.0*
%
%ADD33ROTATEDRECTD33*%

%ADD34R,0.04340X0.04143*%
%ADD35R,0.07293X0.11624*%
%ADD36R,0.06693X0.06299*%
G04:AMPARAMS|DCode=37|XSize=62.99mil|YSize=66.93mil|CornerRadius=0mil|HoleSize=0mil|Usage=FLASHONLY|Rotation=45.000|XOffset=0mil|YOffset=0mil|HoleType=Round|Shape=Rectangle|*
%AMROTATEDRECTD37*
4,1,4,0.00139,-0.04593,-0.04593,0.00139,-0.00139,0.04593,0.04593,-0.00139,0.00139,-0.04593,0.0*
%
%ADD37ROTATEDRECTD37*%

%ADD38R,0.06299X0.06693*%
%ADD39R,0.09852X0.18317*%
G04:AMPARAMS|DCode=40|XSize=62.99mil|YSize=66.93mil|CornerRadius=0mil|HoleSize=0mil|Usage=FLASHONLY|Rotation=315.000|XOffset=0mil|YOffset=0mil|HoleType=Round|Shape=Rectangle|*
%AMROTATEDRECTD40*
4,1,4,-0.04593,-0.00139,0.00139,0.04593,0.04593,0.00139,-0.00139,-0.04593,-0.04593,-0.00139,0.0*
%
%ADD40ROTATEDRECTD40*%

%ADD41R,0.28860X0.23060*%
%ADD42O,0.05324X0.02667*%
%ADD43O,0.05521X0.04734*%
%ADD44C,0.06506*%
%ADD45R,0.06506X0.06506*%
%ADD46R,0.06506X0.06506*%
%ADD47C,0.06702*%
%ADD48C,0.03600*%
G36*
X141047Y313833D02*
X141093Y313822D01*
X141137Y313804D01*
X141177Y313779D01*
X141213Y313748D01*
X141244Y313712D01*
X141268Y313672D01*
X141286Y313628D01*
X141297Y313582D01*
X141301Y313535D01*
Y307035D01*
X141297Y306988D01*
X141286Y306942D01*
X141268Y306899D01*
X141244Y306859D01*
X141213Y306823D01*
X141177Y306792D01*
X141137Y306767D01*
X141093Y306749D01*
X141047Y306738D01*
X141000Y306734D01*
X137000D01*
X136953Y306738D01*
X136907Y306749D01*
X136863Y306767D01*
X136823Y306792D01*
X136787Y306823D01*
X136757Y306859D01*
X136732Y306899D01*
X136714Y306942D01*
X136703Y306988D01*
X136699Y307035D01*
Y313535D01*
X136703Y313582D01*
X136714Y313628D01*
X136732Y313672D01*
X136757Y313712D01*
X136787Y313748D01*
X136823Y313779D01*
X136863Y313804D01*
X136907Y313822D01*
X136953Y313833D01*
X137000Y313836D01*
X141000D01*
X141047Y313833D01*
D02*
G37*
G36*
X122047Y313833D02*
X122093Y313822D01*
X122137Y313804D01*
X122177Y313779D01*
X122213Y313748D01*
X122243Y313712D01*
X122268Y313672D01*
X122286Y313628D01*
X122297Y313582D01*
X122301Y313535D01*
X122301Y307035D01*
X122297Y306988D01*
X122286Y306943D01*
X122268Y306899D01*
X122243Y306859D01*
X122213Y306823D01*
X122177Y306792D01*
X122137Y306767D01*
X122093Y306749D01*
X122047Y306738D01*
X122000Y306734D01*
X118000Y306734D01*
X117953Y306738D01*
X117907Y306749D01*
X117863Y306767D01*
X117823Y306792D01*
X117787Y306823D01*
X117756Y306859D01*
X117732Y306899D01*
X117714Y306942D01*
X117703Y306988D01*
X117699Y307035D01*
X117699Y313535D01*
X117703Y313582D01*
X117714Y313628D01*
X117732Y313672D01*
X117756Y313712D01*
X117787Y313748D01*
X117823Y313779D01*
X117863Y313804D01*
X117907Y313822D01*
X117953Y313833D01*
X118000Y313836D01*
X122000Y313836D01*
X122047Y313833D01*
D02*
G37*
G36*
X141047Y299333D02*
X141093Y299322D01*
X141137Y299304D01*
X141177Y299279D01*
X141213Y299248D01*
X141244Y299212D01*
X141268Y299172D01*
X141286Y299128D01*
X141297Y299082D01*
X141301Y299035D01*
Y296035D01*
X141297Y295988D01*
X141286Y295942D01*
X141268Y295899D01*
X141244Y295859D01*
X141213Y295823D01*
X141177Y295792D01*
X141137Y295767D01*
X141093Y295749D01*
X141047Y295738D01*
X141000Y295735D01*
X137250D01*
X137203Y295738D01*
X137157Y295749D01*
X137113Y295767D01*
X137073Y295792D01*
X137037Y295823D01*
X137006Y295859D01*
X136982Y295899D01*
X136964Y295942D01*
X136953Y295988D01*
X136949Y296035D01*
Y299035D01*
X136953Y299082D01*
X136964Y299128D01*
X136982Y299172D01*
X137006Y299212D01*
X137037Y299248D01*
X137073Y299279D01*
X137113Y299304D01*
X137157Y299322D01*
X137203Y299333D01*
X137250Y299336D01*
X141000D01*
X141047Y299333D01*
D02*
G37*
G36*
X122047D02*
X122093Y299322D01*
X122137Y299304D01*
X122177Y299279D01*
X122213Y299248D01*
X122243Y299212D01*
X122268Y299172D01*
X122286Y299128D01*
X122297Y299082D01*
X122301Y299035D01*
Y296035D01*
X122297Y295988D01*
X122286Y295942D01*
X122268Y295899D01*
X122243Y295859D01*
X122213Y295823D01*
X122177Y295792D01*
X122137Y295767D01*
X122093Y295749D01*
X122047Y295738D01*
X122000Y295735D01*
X118000D01*
X117953Y295738D01*
X117907Y295749D01*
X117863Y295767D01*
X117823Y295792D01*
X117787Y295823D01*
X117756Y295859D01*
X117732Y295899D01*
X117714Y295942D01*
X117703Y295988D01*
X117699Y296035D01*
Y299035D01*
X117703Y299082D01*
X117714Y299128D01*
X117732Y299172D01*
X117756Y299212D01*
X117787Y299248D01*
X117823Y299279D01*
X117863Y299304D01*
X117907Y299322D01*
X117953Y299333D01*
X118000Y299336D01*
X122000D01*
X122047Y299333D01*
D02*
G37*
G36*
X13644Y243686D02*
X13655D01*
X13667Y243684D01*
X13679Y243683D01*
X13690Y243680D01*
X13702Y243678D01*
X13713Y243675D01*
X13725Y243672D01*
X13736Y243668D01*
X13747Y243664D01*
X14470Y243364D01*
X14481Y243359D01*
X14492Y243354D01*
X14502Y243348D01*
X14513Y243343D01*
X14522Y243336D01*
X14532Y243330D01*
X14541Y243322D01*
X14551Y243315D01*
X14559Y243307D01*
X14568Y243299D01*
X15122Y242745D01*
X15129Y242736D01*
X15138Y242728D01*
X15145Y242718D01*
X15152Y242709D01*
X15159Y242699D01*
X15166Y242690D01*
X15171Y242679D01*
X15177Y242669D01*
X15182Y242658D01*
X15187Y242648D01*
X15487Y241924D01*
X15490Y241913D01*
X15495Y241902D01*
X15498Y241890D01*
X15501Y241879D01*
X15503Y241867D01*
X15506Y241856D01*
X15507Y241844D01*
X15509Y241832D01*
Y241821D01*
X15510Y241809D01*
Y241417D01*
Y235118D01*
X15506Y235071D01*
X15495Y235025D01*
X15477Y234981D01*
X15452Y234941D01*
X15421Y234905D01*
X15385Y234875D01*
X15345Y234850D01*
X15302Y234832D01*
X15256Y234821D01*
X15209Y234817D01*
X7728D01*
X7681Y234821D01*
X7635Y234832D01*
X7592Y234850D01*
X7552Y234875D01*
X7516Y234905D01*
X7485Y234941D01*
X7460Y234981D01*
X7442Y235025D01*
X7431Y235071D01*
X7427Y235118D01*
Y241417D01*
Y241809D01*
X7428Y241821D01*
Y241832D01*
X7430Y241844D01*
X7431Y241856D01*
X7434Y241867D01*
X7436Y241879D01*
X7439Y241890D01*
X7442Y241902D01*
X7447Y241913D01*
X7450Y241924D01*
X7750Y242648D01*
X7755Y242658D01*
X7760Y242669D01*
X7766Y242679D01*
X7771Y242690D01*
X7778Y242699D01*
X7785Y242709D01*
X7792Y242718D01*
X7799Y242728D01*
X7807Y242736D01*
X7815Y242745D01*
X8369Y243299D01*
X8378Y243307D01*
X8386Y243315D01*
X8396Y243322D01*
X8405Y243330D01*
X8415Y243336D01*
X8424Y243343D01*
X8435Y243348D01*
X8445Y243354D01*
X8456Y243359D01*
X8467Y243364D01*
X9190Y243664D01*
X9201Y243668D01*
X9212Y243672D01*
X9224Y243675D01*
X9235Y243678D01*
X9247Y243680D01*
X9258Y243683D01*
X9270Y243684D01*
X9282Y243686D01*
X9293D01*
X9305Y243687D01*
X13632D01*
X13644Y243686D01*
D02*
G37*
G36*
X15256Y214943D02*
X15302Y214932D01*
X15345Y214914D01*
X15385Y214889D01*
X15421Y214859D01*
X15452Y214823D01*
X15477Y214782D01*
X15495Y214739D01*
X15506Y214693D01*
X15510Y214646D01*
Y208347D01*
Y207955D01*
X15509Y207943D01*
Y207931D01*
X15507Y207920D01*
X15506Y207908D01*
X15503Y207896D01*
X15501Y207885D01*
X15498Y207873D01*
X15495Y207862D01*
X15490Y207851D01*
X15487Y207840D01*
X15187Y207116D01*
X15182Y207106D01*
X15177Y207095D01*
X15171Y207085D01*
X15166Y207074D01*
X15159Y207065D01*
X15152Y207054D01*
X15145Y207046D01*
X15138Y207036D01*
X15129Y207028D01*
X15122Y207019D01*
X14568Y206465D01*
X14559Y206457D01*
X14551Y206449D01*
X14541Y206442D01*
X14532Y206434D01*
X14522Y206428D01*
X14513Y206421D01*
X14502Y206416D01*
X14492Y206410D01*
X14481Y206405D01*
X14470Y206400D01*
X13747Y206100D01*
X13736Y206096D01*
X13725Y206092D01*
X13713Y206089D01*
X13702Y206085D01*
X13690Y206083D01*
X13679Y206081D01*
X13667Y206080D01*
X13655Y206078D01*
X13644D01*
X13632Y206077D01*
X9305D01*
X9293Y206078D01*
X9282D01*
X9270Y206080D01*
X9258Y206081D01*
X9247Y206083D01*
X9235Y206085D01*
X9224Y206089D01*
X9212Y206092D01*
X9201Y206096D01*
X9190Y206100D01*
X8467Y206400D01*
X8456Y206405D01*
X8445Y206410D01*
X8435Y206416D01*
X8424Y206421D01*
X8415Y206428D01*
X8405Y206434D01*
X8396Y206442D01*
X8386Y206449D01*
X8378Y206457D01*
X8369Y206465D01*
X7815Y207019D01*
X7807Y207028D01*
X7799Y207036D01*
X7792Y207046D01*
X7785Y207054D01*
X7778Y207065D01*
X7771Y207074D01*
X7766Y207085D01*
X7760Y207095D01*
X7755Y207106D01*
X7750Y207116D01*
X7450Y207840D01*
X7447Y207851D01*
X7442Y207862D01*
X7439Y207873D01*
X7436Y207885D01*
X7434Y207896D01*
X7431Y207908D01*
X7430Y207920D01*
X7428Y207931D01*
Y207943D01*
X7427Y207955D01*
Y208347D01*
Y214646D01*
X7431Y214693D01*
X7442Y214739D01*
X7460Y214782D01*
X7485Y214823D01*
X7516Y214859D01*
X7552Y214889D01*
X7592Y214914D01*
X7635Y214932D01*
X7681Y214943D01*
X7728Y214947D01*
X15209D01*
X15256Y214943D01*
D02*
G37*
D18*
X22000Y230000D02*
D03*
Y227441D02*
D03*
Y224882D02*
D03*
Y222323D02*
D03*
Y219764D02*
D03*
D19*
X279021Y251886D02*
D03*
X286502D02*
D03*
Y242686D02*
D03*
X282761D02*
D03*
X279021D02*
D03*
X183940Y171700D02*
D03*
X176460D02*
D03*
Y180900D02*
D03*
X180200D02*
D03*
X183940D02*
D03*
D20*
X342610Y69974D02*
D03*
Y72533D02*
D03*
Y75092D02*
D03*
X352256D02*
D03*
Y72533D02*
D03*
Y69974D02*
D03*
D21*
X339859Y102770D02*
D03*
X342418D02*
D03*
X344977D02*
D03*
X347536D02*
D03*
X339859Y119699D02*
D03*
X342418D02*
D03*
X344977D02*
D03*
X347536D02*
D03*
X162797Y59336D02*
D03*
X165356D02*
D03*
X167915D02*
D03*
X170474D02*
D03*
X162797Y76265D02*
D03*
X165356D02*
D03*
X167915D02*
D03*
X170474D02*
D03*
D22*
X222508Y121823D02*
D03*
Y124382D02*
D03*
Y126941D02*
D03*
Y129500D02*
D03*
Y132059D02*
D03*
Y134618D02*
D03*
Y137177D02*
D03*
X198492Y121823D02*
D03*
Y124382D02*
D03*
Y126941D02*
D03*
Y129500D02*
D03*
Y132059D02*
D03*
Y134618D02*
D03*
Y137177D02*
D03*
D23*
X121035Y263839D02*
D03*
Y261280D02*
D03*
Y258720D02*
D03*
Y256161D02*
D03*
X137965Y263839D02*
D03*
Y261280D02*
D03*
Y258720D02*
D03*
Y256161D02*
D03*
D24*
X213487Y231300D02*
D03*
X361130Y241500D02*
D03*
D25*
X186124Y222324D02*
D03*
Y226812D02*
D03*
Y235788D02*
D03*
Y240276D02*
D03*
X333768Y232524D02*
D03*
Y250476D02*
D03*
D26*
X55914Y96207D02*
D03*
X57306Y97599D02*
D03*
X58698Y98991D02*
D03*
X60090Y100383D02*
D03*
X61482Y101775D02*
D03*
X62874Y103167D02*
D03*
X64266Y104559D02*
D03*
X65658Y105951D02*
D03*
X67049Y107343D02*
D03*
X68441Y108734D02*
D03*
X69833Y110126D02*
D03*
X71225Y111518D02*
D03*
X72617Y112910D02*
D03*
X74009Y114302D02*
D03*
X75401Y115694D02*
D03*
X76793Y117086D02*
D03*
X109086Y84793D02*
D03*
X107694Y83401D02*
D03*
X106302Y82009D02*
D03*
X104910Y80617D02*
D03*
X103518Y79225D02*
D03*
X102126Y77833D02*
D03*
X100734Y76441D02*
D03*
X99343Y75049D02*
D03*
X97951Y73658D02*
D03*
X96559Y72265D02*
D03*
X95167Y70874D02*
D03*
X93775Y69482D02*
D03*
X92383Y68090D02*
D03*
X90991Y66698D02*
D03*
X89599Y65306D02*
D03*
X88207Y63914D02*
D03*
D27*
Y117086D02*
D03*
X89599Y115694D02*
D03*
X90991Y114302D02*
D03*
X92383Y112910D02*
D03*
X93775Y111518D02*
D03*
X95167Y110126D02*
D03*
X96559Y108734D02*
D03*
X97951Y107343D02*
D03*
X99343Y105951D02*
D03*
X100734Y104559D02*
D03*
X102126Y103167D02*
D03*
X103518Y101775D02*
D03*
X104910Y100383D02*
D03*
X106302Y98991D02*
D03*
X107694Y97599D02*
D03*
X109086Y96207D02*
D03*
X76793Y63914D02*
D03*
X75401Y65306D02*
D03*
X74009Y66698D02*
D03*
X72617Y68090D02*
D03*
X71225Y69482D02*
D03*
X69833Y70874D02*
D03*
X68441Y72265D02*
D03*
X67049Y73658D02*
D03*
X65658Y75049D02*
D03*
X64266Y76441D02*
D03*
X62874Y77833D02*
D03*
X61482Y79225D02*
D03*
X60090Y80617D02*
D03*
X58698Y82009D02*
D03*
X57306Y83401D02*
D03*
X55914Y84793D02*
D03*
D28*
X316206Y184491D02*
D03*
X311206D02*
D03*
X306206D02*
D03*
X301206D02*
D03*
X296206D02*
D03*
X291206D02*
D03*
X286206D02*
D03*
X281206D02*
D03*
X276206D02*
D03*
X271206D02*
D03*
X266206D02*
D03*
X261206D02*
D03*
X316206Y148270D02*
D03*
X311206D02*
D03*
X306206D02*
D03*
X301206D02*
D03*
X296206D02*
D03*
X291206D02*
D03*
X286206D02*
D03*
X281206D02*
D03*
X276206D02*
D03*
X271206D02*
D03*
X266206D02*
D03*
X261206D02*
D03*
D29*
X312020Y72000D02*
D03*
X319500D02*
D03*
X312020Y81500D02*
D03*
X319500D02*
D03*
X366473Y206540D02*
D03*
X358993D02*
D03*
X277232Y228584D02*
D03*
X269752D02*
D03*
X113760Y245500D02*
D03*
X121240D02*
D03*
X100500Y253240D02*
D03*
X107980D02*
D03*
X164760Y210000D02*
D03*
X172240D02*
D03*
X311240Y222500D02*
D03*
X303760D02*
D03*
X370673Y77891D02*
D03*
X363193D02*
D03*
X344693Y61460D02*
D03*
X352173D02*
D03*
X346473Y161140D02*
D03*
X338993D02*
D03*
X234910Y120500D02*
D03*
X242390D02*
D03*
X234910Y128500D02*
D03*
X242390D02*
D03*
X234910Y136500D02*
D03*
X242390D02*
D03*
X234910Y145000D02*
D03*
X242390D02*
D03*
D30*
X368698Y105475D02*
D03*
Y97994D02*
D03*
X357635Y98975D02*
D03*
Y91494D02*
D03*
X368698Y115994D02*
D03*
Y123475D02*
D03*
X357698Y122494D02*
D03*
Y129975D02*
D03*
X296535Y243760D02*
D03*
Y251240D02*
D03*
X306206Y243760D02*
D03*
Y251240D02*
D03*
X183292Y54217D02*
D03*
Y61698D02*
D03*
X193135Y54217D02*
D03*
Y61698D02*
D03*
X183292Y80998D02*
D03*
Y73517D02*
D03*
X193135Y80998D02*
D03*
Y73517D02*
D03*
X363066Y61460D02*
D03*
Y68940D02*
D03*
X100465Y269500D02*
D03*
Y262020D02*
D03*
X67500Y245055D02*
D03*
Y252535D02*
D03*
X325706Y135120D02*
D03*
Y127640D02*
D03*
X365933Y194980D02*
D03*
Y187500D02*
D03*
X347733Y187380D02*
D03*
Y179900D02*
D03*
X296206Y196640D02*
D03*
Y204120D02*
D03*
X356733Y187380D02*
D03*
Y179900D02*
D03*
X336733Y169900D02*
D03*
Y177380D02*
D03*
X271333Y204204D02*
D03*
Y196724D02*
D03*
D31*
X127000Y285035D02*
D03*
X132000D02*
D03*
X137000D02*
D03*
X122000D02*
D03*
D32*
X124500Y303535D02*
D03*
X134500D02*
D03*
D33*
X70293Y45793D02*
D03*
X75707Y51207D02*
D03*
D34*
X111500Y285701D02*
D03*
X111500Y273299D02*
D03*
D35*
X43500Y308102D02*
D03*
Y320898D02*
D03*
D36*
X269261Y243250D02*
D03*
Y251321D02*
D03*
X139900Y67922D02*
D03*
Y75993D02*
D03*
X152135Y67922D02*
D03*
Y75993D02*
D03*
X312500Y93965D02*
D03*
Y102035D02*
D03*
X328500Y107965D02*
D03*
Y116035D02*
D03*
X158400Y253565D02*
D03*
Y261635D02*
D03*
X147500Y269465D02*
D03*
Y277535D02*
D03*
X119500Y79465D02*
D03*
Y87535D02*
D03*
X44000Y100335D02*
D03*
Y92265D02*
D03*
X134000Y95735D02*
D03*
Y87665D02*
D03*
X313706Y135416D02*
D03*
Y127345D02*
D03*
X250833Y177345D02*
D03*
Y185416D02*
D03*
X301206Y127345D02*
D03*
Y135416D02*
D03*
X281706Y196345D02*
D03*
Y204416D02*
D03*
X261333Y196845D02*
D03*
Y204916D02*
D03*
X309671Y196345D02*
D03*
Y204416D02*
D03*
D37*
X60020Y55647D02*
D03*
X65727Y61353D02*
D03*
X80146Y38647D02*
D03*
X85853Y44354D02*
D03*
D38*
X193621Y106626D02*
D03*
X201692D02*
D03*
X345233Y91234D02*
D03*
X337162D02*
D03*
X347733Y131234D02*
D03*
X339662D02*
D03*
X214465Y145735D02*
D03*
X222535D02*
D03*
X190357Y145800D02*
D03*
X198427D02*
D03*
X347768Y206540D02*
D03*
X339698D02*
D03*
X229692Y106626D02*
D03*
X221621D02*
D03*
X177665Y161500D02*
D03*
X185735D02*
D03*
X177665Y191800D02*
D03*
X185735D02*
D03*
X194392Y253800D02*
D03*
X186321D02*
D03*
X185821Y207300D02*
D03*
X193892D02*
D03*
X93185Y127700D02*
D03*
X85114D02*
D03*
X281671Y134880D02*
D03*
X289742D02*
D03*
X329048Y200140D02*
D03*
X320977D02*
D03*
D39*
X172500Y339315D02*
D03*
Y303685D02*
D03*
X85500Y339315D02*
D03*
Y303685D02*
D03*
D40*
X57020Y43854D02*
D03*
X62727Y38146D02*
D03*
X104853Y48046D02*
D03*
X99146Y53754D02*
D03*
X48546Y75153D02*
D03*
X54254Y69446D02*
D03*
D41*
X215170Y231370D02*
D03*
D42*
X11468Y211053D02*
D03*
Y238711D02*
D03*
D43*
X23280Y215335D02*
D03*
Y234429D02*
D03*
D44*
X63000Y17500D02*
D03*
X53000D02*
D03*
X43000D02*
D03*
X33000D02*
D03*
X133000Y197500D02*
D03*
Y207500D02*
D03*
X163000Y17500D02*
D03*
X153000D02*
D03*
X143000D02*
D03*
X133000D02*
D03*
X123000D02*
D03*
X113000D02*
D03*
X103000D02*
D03*
X23000Y187500D02*
D03*
Y177500D02*
D03*
Y167500D02*
D03*
Y157500D02*
D03*
Y147500D02*
D03*
X103000Y197500D02*
D03*
Y187500D02*
D03*
Y177500D02*
D03*
Y167500D02*
D03*
X23000Y107500D02*
D03*
Y97500D02*
D03*
Y87500D02*
D03*
Y77500D02*
D03*
Y67500D02*
D03*
Y57500D02*
D03*
Y47500D02*
D03*
Y117500D02*
D03*
X153000Y187500D02*
D03*
Y177500D02*
D03*
Y167500D02*
D03*
X211500Y93500D02*
D03*
X201500D02*
D03*
X381000Y347500D02*
D03*
Y294000D02*
D03*
X23000Y347500D02*
D03*
Y294000D02*
D03*
X381000Y105626D02*
D03*
X381233Y176540D02*
D03*
Y186540D02*
D03*
Y196540D02*
D03*
Y206540D02*
D03*
Y216540D02*
D03*
X33000Y255000D02*
D03*
X23000D02*
D03*
D45*
Y17500D02*
D03*
X173000D02*
D03*
X221500Y93500D02*
D03*
X43000Y255000D02*
D03*
D46*
X133000Y187500D02*
D03*
X23000Y197500D02*
D03*
X103000Y157500D02*
D03*
X23000Y127500D02*
D03*
X153000Y157500D02*
D03*
X381000Y337500D02*
D03*
Y284000D02*
D03*
X23000Y337500D02*
D03*
Y284000D02*
D03*
X381000Y115626D02*
D03*
X381233Y166540D02*
D03*
D47*
X322100Y50700D02*
D03*
X344693D02*
D03*
X139500Y232500D02*
D03*
X124500D02*
D03*
X307206Y115500D02*
D03*
X333733Y144500D02*
D03*
X359733Y161140D02*
D03*
X346473Y149640D02*
D03*
X347733Y216380D02*
D03*
X328000Y169500D02*
D03*
X271333Y213928D02*
D03*
X250233Y196845D02*
D03*
X302400Y66500D02*
D03*
X288200D02*
D03*
X293500Y219500D02*
D03*
X126500Y55500D02*
D03*
X293240Y105000D02*
D03*
X126500Y67958D02*
D03*
X280500Y105000D02*
D03*
X256600Y97767D02*
D03*
Y109767D02*
D03*
Y121767D02*
D03*
Y133767D02*
D03*
X149500Y103382D02*
D03*
Y115382D02*
D03*
Y127382D02*
D03*
Y139382D02*
D03*
X101500Y237500D02*
D03*
X198500Y161500D02*
D03*
X85240Y253240D02*
D03*
X163200Y232000D02*
D03*
X155000Y217206D02*
D03*
X200050Y175050D02*
D03*
X259500Y228584D02*
D03*
D48*
X80000Y153172D02*
D03*
X76793Y150000D02*
D03*
X65658Y168000D02*
D03*
X68500Y164500D02*
D03*
X98840Y127700D02*
D03*
X56400Y127400D02*
D03*
X70500D02*
D03*
X75500Y42500D02*
D03*
X76500Y34500D02*
D03*
X56426Y132059D02*
D03*
X70500Y131950D02*
D03*
X363500Y233956D02*
D03*
Y248933D02*
D03*
Y241444D02*
D03*
X370000Y234012D02*
D03*
Y248988D02*
D03*
Y241500D02*
D03*
X217500Y224012D02*
D03*
Y238988D02*
D03*
Y231500D02*
D03*
X226000D02*
D03*
X173921Y226812D02*
D03*
X201100Y185300D02*
D03*
X322000Y108234D02*
D03*
X158400Y247900D02*
D03*
X165000Y253400D02*
D03*
X357093Y201000D02*
D03*
X352500Y192300D02*
D03*
X292000Y239224D02*
D03*
X208245Y146500D02*
D03*
X295500Y140174D02*
D03*
X44000Y106500D02*
D03*
X128000Y95500D02*
D03*
X55500Y36000D02*
D03*
X83575Y75200D02*
D03*
X72000Y56600D02*
D03*
X115900Y68400D02*
D03*
X113300Y75800D02*
D03*
X112300Y71200D02*
D03*
X121300Y62200D02*
D03*
X118000Y58900D02*
D03*
X114654Y62300D02*
D03*
X119500Y74000D02*
D03*
X93300Y78200D02*
D03*
X138500Y127640D02*
D03*
X72825Y94800D02*
D03*
X61100Y48046D02*
D03*
X52200Y47500D02*
D03*
X84300Y54300D02*
D03*
X78200Y60600D02*
D03*
X100607Y43800D02*
D03*
X108800Y44100D02*
D03*
X93500Y59600D02*
D03*
X56426Y51500D02*
D03*
X72825Y85001D02*
D03*
X53000Y55500D02*
D03*
X139900Y95735D02*
D03*
X75401Y73658D02*
D03*
X43769Y79500D02*
D03*
X44000Y71000D02*
D03*
X38300Y100300D02*
D03*
X93185Y133385D02*
D03*
X125500Y79225D02*
D03*
X288200Y48500D02*
D03*
X133500Y115500D02*
D03*
X223500Y174900D02*
D03*
X303500Y204500D02*
D03*
X289500Y128479D02*
D03*
X282761Y126941D02*
D03*
X299500Y121500D02*
D03*
X368698Y61500D02*
D03*
X322300Y64200D02*
D03*
X302400Y52400D02*
D03*
X229200Y81112D02*
D03*
X229500Y75200D02*
D03*
X306000Y94000D02*
D03*
X312500Y87800D02*
D03*
X328500Y101900D02*
D03*
X357433Y72502D02*
D03*
X201900Y74958D02*
D03*
Y80751D02*
D03*
X146099Y67922D02*
D03*
X139900Y61958D02*
D03*
X191700Y154400D02*
D03*
X190400Y139800D02*
D03*
X328500Y217206D02*
D03*
X313500Y217000D02*
D03*
X289500Y226500D02*
D03*
X297500D02*
D03*
X333733Y227500D02*
D03*
X313706Y245500D02*
D03*
X328233D02*
D03*
X214465Y152265D02*
D03*
X282761Y236105D02*
D03*
X350698Y108734D02*
D03*
X368698Y110734D02*
D03*
X158135Y67958D02*
D03*
X152135Y61958D02*
D03*
X177135Y54217D02*
D03*
Y80958D02*
D03*
X282557Y228584D02*
D03*
X263221Y243250D02*
D03*
X269545Y237386D02*
D03*
X123000Y296100D02*
D03*
X126000Y300000D02*
D03*
Y305500D02*
D03*
X120500Y310600D02*
D03*
X126000D02*
D03*
X136100Y296100D02*
D03*
X133200Y300000D02*
D03*
Y305400D02*
D03*
Y310600D02*
D03*
X138100D02*
D03*
X339698Y212640D02*
D03*
X329048Y206540D02*
D03*
Y194140D02*
D03*
X346233Y166140D02*
D03*
X342733Y179640D02*
D03*
X226000Y238988D02*
D03*
X178500Y204500D02*
D03*
X281706Y210345D02*
D03*
X296206D02*
D03*
X309706Y210380D02*
D03*
X244833Y177345D02*
D03*
X250833Y171180D02*
D03*
X285233Y158853D02*
D03*
X307206Y123580D02*
D03*
X319671Y135416D02*
D03*
X320706Y148270D02*
D03*
X248100Y136500D02*
D03*
X235657Y106626D02*
D03*
X187657Y106305D02*
D03*
X229692Y100626D02*
D03*
X193621D02*
D03*
X248100Y120500D02*
D03*
Y128500D02*
D03*
Y145000D02*
D03*
X192000Y121780D02*
D03*
X206000Y117000D02*
D03*
X222465D02*
D03*
X184500Y145800D02*
D03*
X194392Y247500D02*
D03*
Y259500D02*
D03*
X193892Y201500D02*
D03*
Y213500D02*
D03*
X177500Y155500D02*
D03*
X171500Y161500D02*
D03*
Y192300D02*
D03*
X177665Y197500D02*
D03*
X128500Y245500D02*
D03*
X226000Y224012D02*
D03*
X117500Y278000D02*
D03*
X124000Y272500D02*
D03*
M02*
