G04*
G04 #@! TF.GenerationSoftware,Altium Limited,Altium Designer,18.1.9 (240)*
G04*
G04 Layer_Color=65535*
%FSLAX25Y25*%
%MOIN*%
G70*
G01*
G75*
%ADD10C,0.00984*%
%ADD11C,0.01000*%
%ADD12C,0.02362*%
%ADD13C,0.00787*%
%ADD14C,0.00600*%
%ADD15C,0.00800*%
%ADD16R,0.62500X0.33000*%
%ADD17R,0.06248X0.02000*%
D10*
X27966Y232182D02*
X27228Y232608D01*
Y231756D01*
X27966Y232182D01*
X352748Y66923D02*
X352010Y67349D01*
Y66497D01*
X352748Y66923D01*
X337300Y102770D02*
X336562Y103196D01*
Y102344D01*
X337300Y102770D01*
X160238Y59336D02*
X159500Y59762D01*
Y58910D01*
X160238Y59336D01*
X198984Y140228D02*
X198246Y140655D01*
Y139802D01*
X198984Y140228D01*
X121528Y266890D02*
X120789Y267316D01*
Y266464D01*
X121528Y266890D01*
X186617Y244115D02*
X185878Y244541D01*
Y243689D01*
X186617Y244115D01*
X54457Y86742D02*
X53719Y87168D01*
Y86316D01*
X54457Y86742D01*
X320242Y184491D02*
X319503Y184917D01*
Y184064D01*
X320242Y184491D01*
X334260Y254315D02*
X333522Y254741D01*
Y253889D01*
X334260Y254315D01*
X118492Y285035D02*
X117754Y285462D01*
Y284609D01*
X118492Y285035D01*
X43992Y328575D02*
X43254Y329001D01*
Y328149D01*
X43992Y328575D01*
D11*
X276109Y239885D02*
X275438Y240273D01*
Y239498D01*
X276109Y239885D01*
X187747Y183700D02*
X187076Y184087D01*
Y183313D01*
X187747Y183700D01*
D12*
X208335Y135602D02*
X207890Y136526D01*
X206891Y136754D01*
X206089Y136115D01*
Y135090D01*
X206891Y134451D01*
X207890Y134679D01*
X208335Y135602D01*
X63637Y90500D02*
X63192Y91423D01*
X62193Y91651D01*
X61392Y91013D01*
Y89987D01*
X62193Y89349D01*
X63192Y89577D01*
X63637Y90500D01*
X316659Y173861D02*
X316214Y174784D01*
X315215Y175012D01*
X314414Y174373D01*
Y173348D01*
X315215Y172709D01*
X316214Y172937D01*
X316659Y173861D01*
D13*
X327100Y50700D02*
X326998Y51706D01*
X326695Y52672D01*
X326204Y53556D01*
X325545Y54324D01*
X324745Y54943D01*
X323836Y55389D01*
X322857Y55642D01*
X321847Y55694D01*
X320847Y55540D01*
X319898Y55189D01*
X319040Y54654D01*
X318306Y53957D01*
X317728Y53127D01*
X317329Y52197D01*
X317126Y51206D01*
Y50194D01*
X317329Y49203D01*
X317728Y48274D01*
X318306Y47443D01*
X319040Y46746D01*
X319898Y46211D01*
X320847Y45860D01*
X321847Y45706D01*
X322857Y45758D01*
X323836Y46011D01*
X324745Y46457D01*
X325545Y47076D01*
X326204Y47844D01*
X326695Y48728D01*
X326998Y49694D01*
X327100Y50700D01*
X349693D02*
X349590Y51706D01*
X349288Y52672D01*
X348797Y53556D01*
X348138Y54324D01*
X347338Y54943D01*
X346429Y55389D01*
X345450Y55642D01*
X344440Y55694D01*
X343440Y55540D01*
X342491Y55189D01*
X341632Y54654D01*
X340899Y53957D01*
X340321Y53127D01*
X339922Y52197D01*
X339719Y51206D01*
Y50194D01*
X339922Y49203D01*
X340321Y48274D01*
X340899Y47443D01*
X341632Y46746D01*
X342491Y46211D01*
X343440Y45860D01*
X344440Y45706D01*
X345450Y45758D01*
X346429Y46011D01*
X347338Y46457D01*
X348138Y47076D01*
X348797Y47844D01*
X349288Y48728D01*
X349590Y49694D01*
X349693Y50700D01*
X144500Y232500D02*
X144398Y233506D01*
X144095Y234472D01*
X143604Y235356D01*
X142945Y236124D01*
X142145Y236743D01*
X141236Y237189D01*
X140257Y237442D01*
X139247Y237494D01*
X138247Y237340D01*
X137298Y236989D01*
X136440Y236454D01*
X135706Y235757D01*
X135128Y234927D01*
X134729Y233997D01*
X134526Y233006D01*
Y231994D01*
X134729Y231003D01*
X135128Y230073D01*
X135706Y229243D01*
X136440Y228546D01*
X137298Y228011D01*
X138247Y227660D01*
X139247Y227506D01*
X140257Y227558D01*
X141236Y227811D01*
X142145Y228257D01*
X142945Y228876D01*
X143604Y229644D01*
X144095Y230528D01*
X144398Y231493D01*
X144500Y232500D01*
X129500D02*
X129398Y233506D01*
X129095Y234472D01*
X128604Y235356D01*
X127945Y236124D01*
X127145Y236743D01*
X126236Y237189D01*
X125257Y237442D01*
X124247Y237494D01*
X123247Y237340D01*
X122298Y236989D01*
X121440Y236454D01*
X120706Y235757D01*
X120128Y234927D01*
X119729Y233997D01*
X119526Y233006D01*
Y231994D01*
X119729Y231003D01*
X120128Y230073D01*
X120706Y229243D01*
X121440Y228546D01*
X122298Y228011D01*
X123247Y227660D01*
X124247Y227506D01*
X125257Y227558D01*
X126236Y227811D01*
X127145Y228257D01*
X127945Y228876D01*
X128604Y229644D01*
X129095Y230528D01*
X129398Y231493D01*
X129500Y232500D01*
X312206Y115500D02*
X312104Y116507D01*
X311801Y117472D01*
X311310Y118356D01*
X310651Y119124D01*
X309851Y119743D01*
X308943Y120189D01*
X307963Y120442D01*
X306953Y120494D01*
X305953Y120340D01*
X305004Y119989D01*
X304146Y119454D01*
X303413Y118757D01*
X302835Y117927D01*
X302436Y116997D01*
X302232Y116006D01*
Y114994D01*
X302436Y114003D01*
X302835Y113074D01*
X303413Y112243D01*
X304146Y111546D01*
X305004Y111011D01*
X305953Y110660D01*
X306953Y110506D01*
X307963Y110558D01*
X308943Y110811D01*
X309851Y111257D01*
X310651Y111876D01*
X311310Y112644D01*
X311801Y113528D01*
X312104Y114494D01*
X312206Y115500D01*
X338733Y144500D02*
X338631Y145507D01*
X338328Y146472D01*
X337837Y147356D01*
X337178Y148124D01*
X336378Y148743D01*
X335470Y149189D01*
X334490Y149442D01*
X333480Y149494D01*
X332480Y149340D01*
X331531Y148989D01*
X330673Y148454D01*
X329939Y147757D01*
X329361Y146926D01*
X328962Y145997D01*
X328759Y145006D01*
Y143994D01*
X328962Y143003D01*
X329361Y142074D01*
X329939Y141243D01*
X330673Y140546D01*
X331531Y140011D01*
X332480Y139660D01*
X333480Y139506D01*
X334490Y139558D01*
X335470Y139811D01*
X336378Y140257D01*
X337178Y140876D01*
X337837Y141644D01*
X338328Y142528D01*
X338631Y143493D01*
X338733Y144500D01*
X364733Y161140D02*
X364631Y162147D01*
X364328Y163112D01*
X363837Y163997D01*
X363178Y164764D01*
X362378Y165383D01*
X361470Y165829D01*
X360490Y166083D01*
X359480Y166134D01*
X358480Y165981D01*
X357531Y165629D01*
X356673Y165094D01*
X355939Y164397D01*
X355361Y163567D01*
X354962Y162637D01*
X354759Y161646D01*
Y160634D01*
X354962Y159643D01*
X355361Y158714D01*
X355939Y157883D01*
X356673Y157186D01*
X357531Y156651D01*
X358480Y156300D01*
X359480Y156147D01*
X360490Y156198D01*
X361470Y156451D01*
X362378Y156897D01*
X363178Y157516D01*
X363837Y158284D01*
X364328Y159168D01*
X364631Y160134D01*
X364733Y161140D01*
X351473Y149640D02*
X351371Y150647D01*
X351068Y151612D01*
X350577Y152497D01*
X349918Y153264D01*
X349118Y153883D01*
X348210Y154329D01*
X347230Y154583D01*
X346220Y154634D01*
X345220Y154481D01*
X344271Y154129D01*
X343413Y153594D01*
X342679Y152897D01*
X342102Y152067D01*
X341703Y151137D01*
X341499Y150146D01*
Y149134D01*
X341703Y148143D01*
X342102Y147214D01*
X342679Y146383D01*
X343413Y145686D01*
X344271Y145151D01*
X345220Y144800D01*
X346220Y144647D01*
X347230Y144698D01*
X348210Y144951D01*
X349118Y145397D01*
X349918Y146016D01*
X350577Y146784D01*
X351068Y147668D01*
X351371Y148634D01*
X351473Y149640D01*
X352733Y216380D02*
X352631Y217387D01*
X352328Y218352D01*
X351837Y219237D01*
X351178Y220004D01*
X350378Y220623D01*
X349470Y221069D01*
X348490Y221323D01*
X347480Y221374D01*
X346480Y221221D01*
X345531Y220869D01*
X344672Y220334D01*
X343939Y219637D01*
X343361Y218807D01*
X342962Y217877D01*
X342759Y216886D01*
Y215875D01*
X342962Y214883D01*
X343361Y213954D01*
X343939Y213123D01*
X344672Y212426D01*
X345531Y211891D01*
X346480Y211540D01*
X347480Y211387D01*
X348490Y211438D01*
X349470Y211692D01*
X350378Y212137D01*
X351178Y212756D01*
X351837Y213524D01*
X352328Y214408D01*
X352631Y215374D01*
X352733Y216380D01*
X333000Y169500D02*
X332898Y170507D01*
X332595Y171472D01*
X332104Y172356D01*
X331445Y173124D01*
X330645Y173743D01*
X329736Y174189D01*
X328757Y174442D01*
X327747Y174494D01*
X326747Y174340D01*
X325798Y173989D01*
X324939Y173454D01*
X324206Y172757D01*
X323628Y171926D01*
X323229Y170997D01*
X323026Y170006D01*
Y168994D01*
X323229Y168003D01*
X323628Y167074D01*
X324206Y166243D01*
X324939Y165546D01*
X325798Y165011D01*
X326747Y164660D01*
X327747Y164506D01*
X328757Y164558D01*
X329736Y164811D01*
X330645Y165257D01*
X331445Y165876D01*
X332104Y166644D01*
X332595Y167528D01*
X332898Y168493D01*
X333000Y169500D01*
X276333Y213928D02*
X276231Y214935D01*
X275928Y215900D01*
X275437Y216785D01*
X274778Y217552D01*
X273978Y218172D01*
X273070Y218617D01*
X272090Y218871D01*
X271080Y218922D01*
X270080Y218769D01*
X269131Y218417D01*
X268272Y217882D01*
X267539Y217185D01*
X266961Y216355D01*
X266562Y215425D01*
X266359Y214434D01*
Y213422D01*
X266562Y212432D01*
X266961Y211502D01*
X267539Y210671D01*
X268272Y209975D01*
X269131Y209439D01*
X270080Y209088D01*
X271080Y208935D01*
X272090Y208986D01*
X273070Y209240D01*
X273978Y209685D01*
X274778Y210304D01*
X275437Y211072D01*
X275928Y211957D01*
X276231Y212922D01*
X276333Y213928D01*
X255233Y196845D02*
X255131Y197851D01*
X254828Y198817D01*
X254337Y199701D01*
X253678Y200469D01*
X252878Y201088D01*
X251970Y201534D01*
X250990Y201787D01*
X249980Y201838D01*
X248980Y201685D01*
X248031Y201334D01*
X247172Y200799D01*
X246439Y200102D01*
X245861Y199271D01*
X245462Y198342D01*
X245259Y197351D01*
Y196339D01*
X245462Y195348D01*
X245861Y194418D01*
X246439Y193588D01*
X247172Y192891D01*
X248031Y192356D01*
X248980Y192005D01*
X249980Y191851D01*
X250990Y191902D01*
X251970Y192156D01*
X252878Y192602D01*
X253678Y193221D01*
X254337Y193989D01*
X254828Y194873D01*
X255131Y195838D01*
X255233Y196845D01*
X307400Y66500D02*
X307298Y67506D01*
X306995Y68472D01*
X306504Y69356D01*
X305845Y70124D01*
X305045Y70743D01*
X304136Y71189D01*
X303157Y71442D01*
X302147Y71494D01*
X301147Y71340D01*
X300198Y70989D01*
X299340Y70454D01*
X298606Y69757D01*
X298028Y68927D01*
X297629Y67997D01*
X297426Y67006D01*
Y65994D01*
X297629Y65003D01*
X298028Y64073D01*
X298606Y63243D01*
X299340Y62546D01*
X300198Y62011D01*
X301147Y61660D01*
X302147Y61506D01*
X303157Y61558D01*
X304136Y61811D01*
X305045Y62257D01*
X305845Y62876D01*
X306504Y63644D01*
X306995Y64528D01*
X307298Y65494D01*
X307400Y66500D01*
X293200D02*
X293098Y67506D01*
X292795Y68472D01*
X292304Y69356D01*
X291645Y70124D01*
X290845Y70743D01*
X289936Y71189D01*
X288957Y71442D01*
X287947Y71494D01*
X286947Y71340D01*
X285998Y70989D01*
X285139Y70454D01*
X284406Y69757D01*
X283828Y68927D01*
X283429Y67997D01*
X283226Y67006D01*
Y65994D01*
X283429Y65003D01*
X283828Y64073D01*
X284406Y63243D01*
X285139Y62546D01*
X285998Y62011D01*
X286947Y61660D01*
X287947Y61506D01*
X288957Y61558D01*
X289936Y61811D01*
X290845Y62257D01*
X291645Y62876D01*
X292304Y63644D01*
X292795Y64528D01*
X293098Y65494D01*
X293200Y66500D01*
X298500Y219500D02*
X298398Y220507D01*
X298095Y221472D01*
X297604Y222356D01*
X296945Y223124D01*
X296145Y223743D01*
X295236Y224189D01*
X294257Y224442D01*
X293247Y224494D01*
X292247Y224340D01*
X291298Y223989D01*
X290440Y223454D01*
X289706Y222757D01*
X289128Y221926D01*
X288729Y220997D01*
X288526Y220006D01*
Y218994D01*
X288729Y218003D01*
X289128Y217073D01*
X289706Y216243D01*
X290440Y215546D01*
X291298Y215011D01*
X292247Y214660D01*
X293247Y214506D01*
X294257Y214558D01*
X295236Y214811D01*
X296145Y215257D01*
X296945Y215876D01*
X297604Y216644D01*
X298095Y217528D01*
X298398Y218494D01*
X298500Y219500D01*
X131500Y55500D02*
X131398Y56507D01*
X131095Y57472D01*
X130604Y58356D01*
X129945Y59124D01*
X129145Y59743D01*
X128236Y60189D01*
X127257Y60442D01*
X126247Y60494D01*
X125247Y60340D01*
X124298Y59989D01*
X123440Y59454D01*
X122706Y58757D01*
X122128Y57926D01*
X121729Y56997D01*
X121526Y56006D01*
Y54994D01*
X121729Y54003D01*
X122128Y53074D01*
X122706Y52243D01*
X123440Y51546D01*
X124298Y51011D01*
X125247Y50660D01*
X126247Y50506D01*
X127257Y50558D01*
X128236Y50811D01*
X129145Y51257D01*
X129945Y51876D01*
X130604Y52644D01*
X131095Y53528D01*
X131398Y54493D01*
X131500Y55500D01*
X298240Y105000D02*
X298138Y106007D01*
X297835Y106972D01*
X297344Y107856D01*
X296685Y108624D01*
X295885Y109243D01*
X294977Y109689D01*
X293997Y109942D01*
X292987Y109994D01*
X291987Y109840D01*
X291038Y109489D01*
X290180Y108954D01*
X289446Y108257D01*
X288868Y107427D01*
X288470Y106497D01*
X288266Y105506D01*
Y104494D01*
X288470Y103503D01*
X288868Y102574D01*
X289446Y101743D01*
X290180Y101046D01*
X291038Y100511D01*
X291987Y100160D01*
X292987Y100006D01*
X293997Y100058D01*
X294977Y100311D01*
X295885Y100757D01*
X296685Y101376D01*
X297344Y102144D01*
X297835Y103028D01*
X298138Y103993D01*
X298240Y105000D01*
X131500Y67958D02*
X131398Y68964D01*
X131095Y69929D01*
X130604Y70814D01*
X129945Y71581D01*
X129145Y72201D01*
X128236Y72646D01*
X127257Y72900D01*
X126247Y72951D01*
X125247Y72798D01*
X124298Y72447D01*
X123440Y71911D01*
X122706Y71214D01*
X122128Y70384D01*
X121729Y69454D01*
X121526Y68463D01*
Y67452D01*
X121729Y66461D01*
X122128Y65531D01*
X122706Y64701D01*
X123440Y64004D01*
X124298Y63468D01*
X125247Y63117D01*
X126247Y62964D01*
X127257Y63015D01*
X128236Y63269D01*
X129145Y63714D01*
X129945Y64333D01*
X130604Y65101D01*
X131095Y65986D01*
X131398Y66951D01*
X131500Y67958D01*
X285500Y105000D02*
X285398Y106007D01*
X285095Y106972D01*
X284604Y107856D01*
X283945Y108624D01*
X283145Y109243D01*
X282237Y109689D01*
X281257Y109942D01*
X280247Y109994D01*
X279247Y109840D01*
X278298Y109489D01*
X277439Y108954D01*
X276706Y108257D01*
X276128Y107427D01*
X275729Y106497D01*
X275526Y105506D01*
Y104494D01*
X275729Y103503D01*
X276128Y102574D01*
X276706Y101743D01*
X277439Y101046D01*
X278298Y100511D01*
X279247Y100160D01*
X280247Y100006D01*
X281257Y100058D01*
X282237Y100311D01*
X283145Y100757D01*
X283945Y101376D01*
X284604Y102144D01*
X285095Y103028D01*
X285398Y103993D01*
X285500Y105000D01*
X261600Y97767D02*
X261498Y98773D01*
X261195Y99739D01*
X260704Y100623D01*
X260045Y101391D01*
X259245Y102010D01*
X258336Y102456D01*
X257357Y102709D01*
X256347Y102761D01*
X255347Y102607D01*
X254398Y102256D01*
X253539Y101721D01*
X252806Y101024D01*
X252228Y100194D01*
X251829Y99264D01*
X251626Y98273D01*
Y97261D01*
X251829Y96270D01*
X252228Y95340D01*
X252806Y94510D01*
X253539Y93813D01*
X254398Y93278D01*
X255347Y92927D01*
X256347Y92773D01*
X257357Y92825D01*
X258336Y93078D01*
X259245Y93524D01*
X260045Y94143D01*
X260704Y94911D01*
X261195Y95795D01*
X261498Y96760D01*
X261600Y97767D01*
Y109767D02*
X261498Y110773D01*
X261195Y111739D01*
X260704Y112623D01*
X260045Y113391D01*
X259245Y114010D01*
X258336Y114456D01*
X257357Y114709D01*
X256347Y114760D01*
X255347Y114607D01*
X254398Y114256D01*
X253539Y113721D01*
X252806Y113024D01*
X252228Y112194D01*
X251829Y111264D01*
X251626Y110273D01*
Y109261D01*
X251829Y108270D01*
X252228Y107340D01*
X252806Y106510D01*
X253539Y105813D01*
X254398Y105278D01*
X255347Y104927D01*
X256347Y104773D01*
X257357Y104825D01*
X258336Y105078D01*
X259245Y105524D01*
X260045Y106143D01*
X260704Y106911D01*
X261195Y107795D01*
X261498Y108760D01*
X261600Y109767D01*
Y121767D02*
X261498Y122773D01*
X261195Y123739D01*
X260704Y124623D01*
X260045Y125391D01*
X259245Y126010D01*
X258336Y126456D01*
X257357Y126709D01*
X256347Y126760D01*
X255347Y126607D01*
X254398Y126256D01*
X253539Y125721D01*
X252806Y125024D01*
X252228Y124194D01*
X251829Y123264D01*
X251626Y122273D01*
Y121261D01*
X251829Y120270D01*
X252228Y119340D01*
X252806Y118510D01*
X253539Y117813D01*
X254398Y117278D01*
X255347Y116927D01*
X256347Y116773D01*
X257357Y116825D01*
X258336Y117078D01*
X259245Y117524D01*
X260045Y118143D01*
X260704Y118911D01*
X261195Y119795D01*
X261498Y120761D01*
X261600Y121767D01*
Y133767D02*
X261498Y134773D01*
X261195Y135739D01*
X260704Y136623D01*
X260045Y137391D01*
X259245Y138010D01*
X258336Y138456D01*
X257357Y138709D01*
X256347Y138760D01*
X255347Y138607D01*
X254398Y138256D01*
X253539Y137721D01*
X252806Y137024D01*
X252228Y136194D01*
X251829Y135264D01*
X251626Y134273D01*
Y133261D01*
X251829Y132270D01*
X252228Y131340D01*
X252806Y130510D01*
X253539Y129813D01*
X254398Y129278D01*
X255347Y128927D01*
X256347Y128773D01*
X257357Y128825D01*
X258336Y129078D01*
X259245Y129524D01*
X260045Y130143D01*
X260704Y130911D01*
X261195Y131795D01*
X261498Y132761D01*
X261600Y133767D01*
X154500Y103382D02*
X154398Y104388D01*
X154095Y105354D01*
X153604Y106238D01*
X152945Y107006D01*
X152145Y107625D01*
X151236Y108071D01*
X150257Y108324D01*
X149247Y108376D01*
X148247Y108222D01*
X147298Y107871D01*
X146440Y107336D01*
X145706Y106639D01*
X145128Y105808D01*
X144729Y104879D01*
X144526Y103888D01*
Y102876D01*
X144729Y101885D01*
X145128Y100955D01*
X145706Y100125D01*
X146440Y99428D01*
X147298Y98893D01*
X148247Y98541D01*
X149247Y98388D01*
X150257Y98440D01*
X151236Y98693D01*
X152145Y99139D01*
X152945Y99758D01*
X153604Y100525D01*
X154095Y101410D01*
X154398Y102375D01*
X154500Y103382D01*
Y115382D02*
X154398Y116388D01*
X154095Y117354D01*
X153604Y118238D01*
X152945Y119006D01*
X152145Y119625D01*
X151236Y120071D01*
X150257Y120324D01*
X149247Y120376D01*
X148247Y120222D01*
X147298Y119871D01*
X146440Y119336D01*
X145706Y118639D01*
X145128Y117808D01*
X144729Y116879D01*
X144526Y115888D01*
Y114876D01*
X144729Y113885D01*
X145128Y112955D01*
X145706Y112125D01*
X146440Y111428D01*
X147298Y110893D01*
X148247Y110541D01*
X149247Y110388D01*
X150257Y110440D01*
X151236Y110693D01*
X152145Y111139D01*
X152945Y111758D01*
X153604Y112525D01*
X154095Y113410D01*
X154398Y114375D01*
X154500Y115382D01*
Y127382D02*
X154398Y128388D01*
X154095Y129354D01*
X153604Y130238D01*
X152945Y131006D01*
X152145Y131625D01*
X151236Y132071D01*
X150257Y132324D01*
X149247Y132376D01*
X148247Y132222D01*
X147298Y131871D01*
X146440Y131336D01*
X145706Y130639D01*
X145128Y129808D01*
X144729Y128879D01*
X144526Y127888D01*
Y126876D01*
X144729Y125885D01*
X145128Y124955D01*
X145706Y124125D01*
X146440Y123428D01*
X147298Y122893D01*
X148247Y122541D01*
X149247Y122388D01*
X150257Y122440D01*
X151236Y122693D01*
X152145Y123139D01*
X152945Y123758D01*
X153604Y124525D01*
X154095Y125410D01*
X154398Y126375D01*
X154500Y127382D01*
Y139382D02*
X154398Y140388D01*
X154095Y141354D01*
X153604Y142238D01*
X152945Y143006D01*
X152145Y143625D01*
X151236Y144071D01*
X150257Y144324D01*
X149247Y144376D01*
X148247Y144222D01*
X147298Y143871D01*
X146440Y143336D01*
X145706Y142639D01*
X145128Y141808D01*
X144729Y140879D01*
X144526Y139888D01*
Y138876D01*
X144729Y137885D01*
X145128Y136955D01*
X145706Y136125D01*
X146440Y135428D01*
X147298Y134893D01*
X148247Y134541D01*
X149247Y134388D01*
X150257Y134440D01*
X151236Y134693D01*
X152145Y135139D01*
X152945Y135758D01*
X153604Y136525D01*
X154095Y137410D01*
X154398Y138375D01*
X154500Y139382D01*
X106500Y237500D02*
X106398Y238507D01*
X106095Y239472D01*
X105604Y240356D01*
X104945Y241124D01*
X104145Y241743D01*
X103236Y242189D01*
X102257Y242442D01*
X101247Y242494D01*
X100247Y242340D01*
X99298Y241989D01*
X98440Y241454D01*
X97706Y240757D01*
X97128Y239927D01*
X96729Y238997D01*
X96526Y238006D01*
Y236994D01*
X96729Y236003D01*
X97128Y235073D01*
X97706Y234243D01*
X98440Y233546D01*
X99298Y233011D01*
X100247Y232660D01*
X101247Y232506D01*
X102257Y232558D01*
X103236Y232811D01*
X104145Y233257D01*
X104945Y233876D01*
X105604Y234644D01*
X106095Y235528D01*
X106398Y236493D01*
X106500Y237500D01*
X203500Y161500D02*
X203398Y162506D01*
X203095Y163472D01*
X202604Y164356D01*
X201945Y165124D01*
X201145Y165743D01*
X200237Y166189D01*
X199257Y166442D01*
X198247Y166494D01*
X197247Y166340D01*
X196298Y165989D01*
X195440Y165454D01*
X194706Y164757D01*
X194128Y163926D01*
X193729Y162997D01*
X193526Y162006D01*
Y160994D01*
X193729Y160003D01*
X194128Y159073D01*
X194706Y158243D01*
X195440Y157546D01*
X196298Y157011D01*
X197247Y156660D01*
X198247Y156506D01*
X199257Y156558D01*
X200237Y156811D01*
X201145Y157257D01*
X201945Y157876D01*
X202604Y158644D01*
X203095Y159528D01*
X203398Y160494D01*
X203500Y161500D01*
X90240Y253240D02*
X90138Y254247D01*
X89835Y255212D01*
X89344Y256097D01*
X88685Y256864D01*
X87885Y257483D01*
X86977Y257929D01*
X85997Y258183D01*
X84987Y258234D01*
X83987Y258081D01*
X83038Y257729D01*
X82180Y257194D01*
X81446Y256497D01*
X80868Y255667D01*
X80470Y254737D01*
X80266Y253746D01*
Y252734D01*
X80470Y251743D01*
X80868Y250814D01*
X81446Y249983D01*
X82180Y249286D01*
X83038Y248751D01*
X83987Y248400D01*
X84987Y248247D01*
X85997Y248298D01*
X86977Y248551D01*
X87885Y248997D01*
X88685Y249616D01*
X89344Y250384D01*
X89835Y251268D01*
X90138Y252234D01*
X90240Y253240D01*
X168200Y232000D02*
X168098Y233007D01*
X167795Y233972D01*
X167304Y234856D01*
X166645Y235624D01*
X165845Y236243D01*
X164936Y236689D01*
X163957Y236942D01*
X162947Y236994D01*
X161947Y236840D01*
X160998Y236489D01*
X160140Y235954D01*
X159406Y235257D01*
X158828Y234426D01*
X158429Y233497D01*
X158226Y232506D01*
Y231494D01*
X158429Y230503D01*
X158828Y229573D01*
X159406Y228743D01*
X160140Y228046D01*
X160998Y227511D01*
X161947Y227160D01*
X162947Y227006D01*
X163957Y227058D01*
X164936Y227311D01*
X165845Y227757D01*
X166645Y228376D01*
X167304Y229144D01*
X167795Y230028D01*
X168098Y230994D01*
X168200Y232000D01*
X160000Y217206D02*
X159898Y218213D01*
X159595Y219178D01*
X159104Y220063D01*
X158445Y220830D01*
X157645Y221449D01*
X156737Y221895D01*
X155757Y222149D01*
X154747Y222200D01*
X153747Y222047D01*
X152798Y221695D01*
X151939Y221160D01*
X151206Y220463D01*
X150628Y219633D01*
X150229Y218703D01*
X150026Y217712D01*
Y216700D01*
X150229Y215709D01*
X150628Y214780D01*
X151206Y213949D01*
X151939Y213252D01*
X152798Y212717D01*
X153747Y212366D01*
X154747Y212213D01*
X155757Y212264D01*
X156737Y212517D01*
X157645Y212963D01*
X158445Y213582D01*
X159104Y214350D01*
X159595Y215234D01*
X159898Y216200D01*
X160000Y217206D01*
X205050Y175050D02*
X204948Y176057D01*
X204645Y177022D01*
X204154Y177906D01*
X203495Y178674D01*
X202695Y179293D01*
X201786Y179739D01*
X200807Y179992D01*
X199797Y180044D01*
X198797Y179890D01*
X197848Y179539D01*
X196990Y179004D01*
X196256Y178307D01*
X195678Y177477D01*
X195279Y176547D01*
X195076Y175556D01*
Y174544D01*
X195279Y173553D01*
X195678Y172624D01*
X196256Y171793D01*
X196990Y171096D01*
X197848Y170561D01*
X198797Y170210D01*
X199797Y170056D01*
X200807Y170108D01*
X201786Y170361D01*
X202695Y170807D01*
X203495Y171426D01*
X204154Y172194D01*
X204645Y173078D01*
X204948Y174044D01*
X205050Y175050D01*
X264500Y228584D02*
X264398Y229591D01*
X264095Y230556D01*
X263604Y231441D01*
X262945Y232208D01*
X262145Y232827D01*
X261237Y233273D01*
X260257Y233527D01*
X259247Y233578D01*
X258247Y233425D01*
X257298Y233073D01*
X256439Y232538D01*
X255706Y231841D01*
X255128Y231011D01*
X254729Y230081D01*
X254526Y229090D01*
Y228078D01*
X254729Y227087D01*
X255128Y226158D01*
X255706Y225327D01*
X256439Y224630D01*
X257298Y224095D01*
X258247Y223744D01*
X259247Y223591D01*
X260257Y223642D01*
X261237Y223896D01*
X262145Y224341D01*
X262945Y224960D01*
X263604Y225728D01*
X264095Y226612D01*
X264398Y227578D01*
X264500Y228584D01*
X16783Y240815D02*
X23476D01*
Y238071D02*
Y240815D01*
Y208949D02*
Y211693D01*
X16783Y208949D02*
X23476D01*
X18000Y12500D02*
Y22500D01*
X68000D01*
X18000Y12500D02*
X68000D01*
Y22500D01*
X138000Y182500D02*
Y212500D01*
X128000D02*
X138000D01*
X128000Y182500D02*
Y212500D01*
Y182500D02*
X138000D01*
X98000Y12500D02*
Y22500D01*
X178000D01*
Y12500D02*
Y22500D01*
X98000Y12500D02*
X178000D01*
X18000Y142500D02*
X28000D01*
X18000Y202500D02*
X28000D01*
Y142500D02*
Y202500D01*
X18000Y142500D02*
Y202500D01*
X98000Y152500D02*
X108000D01*
X98000D02*
Y202500D01*
X108000Y152500D02*
Y202500D01*
X98000D02*
X108000D01*
X18000Y42500D02*
X28000D01*
X18000D02*
Y132500D01*
X28000D01*
Y42500D02*
Y132500D01*
X148000Y152500D02*
X158000D01*
X148000D02*
Y192500D01*
X158000Y152500D02*
Y192500D01*
X148000D02*
X158000D01*
X346252Y68202D02*
Y76864D01*
X348614Y68202D02*
Y76864D01*
X346252D02*
X348614D01*
X346252Y68202D02*
X348614D01*
X337595Y108282D02*
X349800D01*
X337595Y114187D02*
X349800D01*
X337595Y108282D02*
Y114187D01*
X349800Y108282D02*
Y114187D01*
X160533Y64848D02*
X172738D01*
X160533Y70754D02*
X172738D01*
X160533Y64848D02*
Y70754D01*
X172738Y64848D02*
Y70754D01*
X203217Y119461D02*
X217783D01*
X203217Y139539D02*
X217783D01*
Y119461D02*
Y139539D01*
X203217Y119461D02*
Y139539D01*
X126547Y253898D02*
Y266102D01*
X132453Y253898D02*
Y266102D01*
X126547D02*
X132453D01*
X126547Y253898D02*
X132453D01*
X194983Y218111D02*
X199707D01*
X194983D02*
Y244489D01*
X199707D01*
X82500Y64888D02*
X108112Y90500D01*
X56888D02*
X82500Y116112D01*
X108112Y90500D01*
X56888D02*
X82500Y64888D01*
X257998Y177798D02*
X319415D01*
X257998Y154963D02*
X319415D01*
Y177798D01*
X257998Y154963D02*
Y177798D01*
X342626Y228311D02*
X347350D01*
X342626D02*
Y254689D01*
X347350D01*
X196500Y98500D02*
X226500D01*
X196500Y88500D02*
Y98500D01*
Y88500D02*
X226500D01*
Y98500D01*
X376000Y352500D02*
X386000D01*
Y332500D02*
Y352500D01*
X376000Y332500D02*
X386000D01*
X376000D02*
Y352500D01*
Y299000D02*
X386000D01*
Y279000D02*
Y299000D01*
X376000Y279000D02*
X386000D01*
X376000D02*
Y299000D01*
X18000Y352500D02*
X28000D01*
Y332500D02*
Y352500D01*
X18000Y332500D02*
X28000D01*
X18000D02*
Y352500D01*
Y299000D02*
X28000D01*
Y279000D02*
Y299000D01*
X18000Y279000D02*
X28000D01*
X18000D02*
Y299000D01*
X376000Y100626D02*
X386000D01*
X376000D02*
Y120626D01*
X386000D01*
Y100626D02*
Y120626D01*
X376233Y221540D02*
X386233D01*
X376233Y161540D02*
X386233D01*
X376233D02*
Y221540D01*
X386233Y161540D02*
Y221540D01*
X18000Y260000D02*
X48000D01*
X18000Y250000D02*
Y260000D01*
Y250000D02*
X48000D01*
Y260000D01*
X108449Y277000D02*
X114551D01*
X108449D02*
Y282000D01*
X114551Y277000D02*
Y282000D01*
X37988Y305642D02*
X38579D01*
X37988Y323358D02*
X38579D01*
X48421Y305642D02*
X49012D01*
X48421Y323358D02*
X49012D01*
X37988Y305642D02*
Y323358D01*
X49012Y305642D02*
Y323358D01*
X193169Y308852D02*
Y342169D01*
X178307D02*
X193169D01*
X151831D02*
X166693D01*
X151831Y308852D02*
Y342169D01*
X178307Y300831D02*
X185148D01*
X193169Y308852D01*
X151831D02*
X159852Y300831D01*
X166693D01*
X106169Y308852D02*
Y342169D01*
X91307D02*
X106169D01*
X64831D02*
X79693D01*
X64831Y308852D02*
Y342169D01*
X91307Y300831D02*
X98148D01*
X106169Y308852D01*
X64831D02*
X72852Y300831D01*
X79693D01*
D14*
X276261Y243336D02*
Y251236D01*
X281531D02*
X283992D01*
X289261Y243336D02*
Y251236D01*
X186700Y172350D02*
Y180250D01*
X178970Y172350D02*
X181430D01*
X173700D02*
Y180250D01*
D15*
X315760Y70000D02*
Y74000D01*
X366698Y101734D02*
X370698D01*
X355635Y95235D02*
X359635D01*
X315760Y79500D02*
Y83500D01*
X366698Y119734D02*
X370698D01*
X355698Y126234D02*
X359698D01*
X294535Y247500D02*
X298535D01*
X304206D02*
X308206D01*
X181292Y57958D02*
X185292D01*
X191135D02*
X195135D01*
X181292Y77258D02*
X185292D01*
X191135D02*
X195135D01*
X361066Y65200D02*
X365066D01*
X362733Y204540D02*
Y208540D01*
X273492Y226584D02*
Y230584D01*
X117500Y243500D02*
Y247500D01*
X104240Y251240D02*
Y255240D01*
X98465Y265760D02*
X102465D01*
X65500Y248795D02*
X69500D01*
X168500Y208000D02*
Y212000D01*
X323706Y131380D02*
X327706D01*
X307500Y220500D02*
Y224500D01*
X366933Y75891D02*
Y79891D01*
X348433Y59460D02*
Y63460D01*
X363933Y191240D02*
X367933D01*
X345733Y183640D02*
X349733D01*
X294206Y200380D02*
X298206D01*
X342733Y159140D02*
Y163140D01*
X354733Y183640D02*
X358733D01*
X334733Y173640D02*
X338733D01*
X269333Y200464D02*
X273333D01*
X238650Y118500D02*
Y122500D01*
Y126500D02*
Y130500D01*
Y134500D02*
Y138500D01*
Y143000D02*
Y147000D01*
X266761Y247286D02*
X271761D01*
X61106Y60268D02*
X64641Y56732D01*
X197657Y104126D02*
Y109126D01*
X137400Y71957D02*
X142400D01*
X149635D02*
X154635D01*
X341198Y88735D02*
Y93735D01*
X343698Y128734D02*
Y133734D01*
X310000Y98000D02*
X315000D01*
X326000Y112000D02*
X331000D01*
X218500Y143235D02*
Y148235D01*
X194392Y143300D02*
Y148300D01*
X343733Y204040D02*
Y209040D01*
X225657Y104126D02*
Y109126D01*
X181700Y159000D02*
Y164000D01*
Y189300D02*
Y194300D01*
X155900Y257600D02*
X160900D01*
X145000Y273500D02*
X150000D01*
X190357Y251300D02*
Y256300D01*
X189857Y204800D02*
Y209800D01*
X58106Y39232D02*
X61641Y42768D01*
X117000Y83500D02*
X122000D01*
X89149Y125200D02*
Y130200D01*
X41500Y96300D02*
X46500D01*
X100232Y49132D02*
X103768Y52668D01*
X81232Y43268D02*
X84768Y39732D01*
X131500Y91700D02*
X136500D01*
X49632Y70532D02*
X53168Y74068D01*
X311206Y131380D02*
X316206D01*
X248333Y181380D02*
X253333D01*
X298706Y131380D02*
X303706D01*
X279206Y200380D02*
X284206D01*
X258833Y200880D02*
X263833D01*
X307171Y200380D02*
X312171D01*
X285706Y132380D02*
Y137380D01*
X325013Y197640D02*
Y202640D01*
X344800Y24037D02*
Y20438D01*
Y21637D01*
X347199Y24037D01*
X345400Y22237D01*
X347199Y20438D01*
X348399Y22837D02*
Y21038D01*
X348999Y20438D01*
X350798D01*
Y19838D01*
X350198Y19238D01*
X349599D01*
X350798Y20438D02*
Y22837D01*
X351998Y20438D02*
X353197D01*
X352597D01*
Y24037D01*
X351998D01*
X356796Y20438D02*
X355596D01*
X354997Y21038D01*
Y22237D01*
X355596Y22837D01*
X356796D01*
X357396Y22237D01*
Y21637D01*
X354997D01*
X362194Y24037D02*
Y20438D01*
X363994D01*
X364594Y21038D01*
Y21637D01*
X363994Y22237D01*
X362194D01*
X363994D01*
X364594Y22837D01*
Y23437D01*
X363994Y24037D01*
X362194D01*
X367593Y20438D02*
X366393D01*
X365793Y21038D01*
Y22237D01*
X366393Y22837D01*
X367593D01*
X368193Y22237D01*
Y21637D01*
X365793D01*
X369392Y22837D02*
Y20438D01*
Y21637D01*
X369992Y22237D01*
X370592Y22837D01*
X371192D01*
X372991Y20438D02*
Y22837D01*
X374790D01*
X375390Y22237D01*
Y20438D01*
X376590D02*
X377789D01*
X377190D01*
Y22837D01*
X376590D01*
X381388Y20438D02*
X380189D01*
X379589Y21038D01*
Y22237D01*
X380189Y22837D01*
X381388D01*
X381988Y22237D01*
Y21637D01*
X379589D01*
X383188Y22837D02*
Y20438D01*
Y21637D01*
X383787Y22237D01*
X384387Y22837D01*
X384987D01*
X344800Y16598D02*
Y13000D01*
X346599D01*
X347199Y13599D01*
Y15999D01*
X346599Y16598D01*
X344800D01*
X348999Y15399D02*
X350198D01*
X350798Y14799D01*
Y13000D01*
X348999D01*
X348399Y13599D01*
X348999Y14199D01*
X350798D01*
X353797Y13000D02*
X352597D01*
X351998Y13599D01*
Y14799D01*
X352597Y15399D01*
X353797D01*
X354397Y14799D01*
Y14199D01*
X351998D01*
X356796Y11800D02*
X357396D01*
X357996Y12400D01*
Y15399D01*
X356196D01*
X355596Y14799D01*
Y13599D01*
X356196Y13000D01*
X357996D01*
X359195Y16598D02*
Y13000D01*
Y14799D01*
X359795Y15399D01*
X360995D01*
X361595Y14799D01*
Y13000D01*
X363394Y15399D02*
X364594D01*
X365193Y14799D01*
Y13000D01*
X363394D01*
X362794Y13599D01*
X363394Y14199D01*
X365193D01*
X366393Y13000D02*
Y15399D01*
X368193D01*
X368792Y14799D01*
Y13000D01*
X375990Y16598D02*
X373591D01*
Y13000D01*
X375990D01*
X373591Y14799D02*
X374790D01*
X377190Y13000D02*
X378389D01*
X377789D01*
Y16598D01*
X377190D01*
X380189Y13000D02*
Y16598D01*
Y14199D02*
X381988Y15399D01*
X380189Y14199D02*
X381988Y13000D01*
X383787D02*
X384987D01*
X384387D01*
Y15399D01*
X383787D01*
X386787Y13000D02*
Y15399D01*
X388586D01*
X389186Y14799D01*
Y13000D01*
X12096Y249599D02*
X10897D01*
X11496D01*
Y246600D01*
X10897Y246000D01*
X10297D01*
X9697Y246600D01*
X13296Y246000D02*
X14495D01*
X13895D01*
Y249599D01*
X13296Y248999D01*
X241899Y20499D02*
X241299Y21099D01*
X240100D01*
X239500Y20499D01*
Y18100D01*
X240100Y17500D01*
X241299D01*
X241899Y18100D01*
X245498Y21099D02*
X244299D01*
X244898D01*
Y18100D01*
X244299Y17500D01*
X243699D01*
X243099Y18100D01*
X246698Y21099D02*
Y17500D01*
X248497D01*
X249097Y18100D01*
Y18700D01*
X248497Y19299D01*
X246698D01*
X248497D01*
X249097Y19899D01*
Y20499D01*
X248497Y21099D01*
X246698D01*
X250296Y19299D02*
X252696D01*
X253895Y17500D02*
Y21099D01*
X255695D01*
X256295Y20499D01*
Y19299D01*
X255695Y18700D01*
X253895D01*
X255095D02*
X256295Y17500D01*
X259893Y21099D02*
X257494D01*
Y17500D01*
X259893D01*
X257494Y19299D02*
X258694D01*
X261093Y21099D02*
Y18700D01*
X262293Y17500D01*
X263492Y18700D01*
Y21099D01*
X264692Y19299D02*
X267091D01*
X268291Y17500D02*
Y19899D01*
X269490Y21099D01*
X270690Y19899D01*
Y17500D01*
Y19299D01*
X268291D01*
X388901Y93500D02*
X392500D01*
Y95299D01*
X391900Y95899D01*
X389501D01*
X388901Y95299D01*
Y93500D01*
X392500Y97099D02*
X390101D01*
X388901Y98299D01*
X390101Y99498D01*
X392500D01*
X390701D01*
Y97099D01*
X389501Y103097D02*
X388901Y102497D01*
Y101297D01*
X389501Y100698D01*
X391900D01*
X392500Y101297D01*
Y102497D01*
X391900Y103097D01*
X392500Y106696D02*
Y104297D01*
X390101Y106696D01*
X389501D01*
X388901Y106096D01*
Y104896D01*
X389501Y104297D01*
X388901Y113500D02*
X392500D01*
Y115299D01*
X391900Y115899D01*
X389501D01*
X388901Y115299D01*
Y113500D01*
X392500Y117099D02*
X390101D01*
X388901Y118298D01*
X390101Y119498D01*
X392500D01*
X390701D01*
Y117099D01*
X389501Y123097D02*
X388901Y122497D01*
Y121298D01*
X389501Y120698D01*
X391900D01*
X392500Y121298D01*
Y122497D01*
X391900Y123097D01*
X392500Y124296D02*
Y125496D01*
Y124896D01*
X388901D01*
X389501Y124296D01*
X30000Y45000D02*
Y48599D01*
X31799D01*
X32399Y47999D01*
Y46799D01*
X31799Y46200D01*
X30000D01*
X35998Y47999D02*
X35398Y48599D01*
X34199D01*
X33599Y47999D01*
Y45600D01*
X34199Y45000D01*
X35398D01*
X35998Y45600D01*
X37198Y45000D02*
X38397D01*
X37797D01*
Y48599D01*
X37198Y47999D01*
X40197D02*
X40797Y48599D01*
X41996D01*
X42596Y47999D01*
Y47399D01*
X41996Y46799D01*
X41396D01*
X41996D01*
X42596Y46200D01*
Y45600D01*
X41996Y45000D01*
X40797D01*
X40197Y45600D01*
X30000Y59049D02*
Y56650D01*
X31200Y55450D01*
X32399Y56650D01*
Y59049D01*
X33599Y55450D02*
Y59049D01*
X35398D01*
X35998Y58449D01*
Y57249D01*
X35398Y56650D01*
X33599D01*
X34798D02*
X35998Y55450D01*
X39597Y58449D02*
X38997Y59049D01*
X37797D01*
X37198Y58449D01*
Y56050D01*
X37797Y55450D01*
X38997D01*
X39597Y56050D01*
X30000Y65600D02*
Y69199D01*
X31799D01*
X32399Y68599D01*
Y67399D01*
X31799Y66800D01*
X30000D01*
X33599Y69199D02*
Y65600D01*
X35398D01*
X35998Y66200D01*
Y66800D01*
X35398Y67399D01*
X33599D01*
X35398D01*
X35998Y67999D01*
Y68599D01*
X35398Y69199D01*
X33599D01*
X37198Y66200D02*
X37797Y65600D01*
X38997D01*
X39597Y66200D01*
Y68599D01*
X38997Y69199D01*
X37797D01*
X37198Y68599D01*
Y67999D01*
X37797Y67399D01*
X39597D01*
X30000Y75500D02*
Y79099D01*
X31799D01*
X32399Y78499D01*
Y77299D01*
X31799Y76700D01*
X30000D01*
X33599Y79099D02*
Y75500D01*
X35398D01*
X35998Y76100D01*
Y76700D01*
X35398Y77299D01*
X33599D01*
X35398D01*
X35998Y77899D01*
Y78499D01*
X35398Y79099D01*
X33599D01*
X37198Y78499D02*
X37797Y79099D01*
X38997D01*
X39597Y78499D01*
Y77899D01*
X38997Y77299D01*
X39597Y76700D01*
Y76100D01*
X38997Y75500D01*
X37797D01*
X37198Y76100D01*
Y76700D01*
X37797Y77299D01*
X37198Y77899D01*
Y78499D01*
X37797Y77299D02*
X38997D01*
X11901Y79500D02*
X15500D01*
Y81299D01*
X14900Y81899D01*
X14300D01*
X13701Y81299D01*
Y79500D01*
Y81299D01*
X13101Y81899D01*
X12501D01*
X11901Y81299D01*
Y79500D01*
Y84898D02*
Y83699D01*
X12501Y83099D01*
X14900D01*
X15500Y83699D01*
Y84898D01*
X14900Y85498D01*
X12501D01*
X11901Y84898D01*
Y88497D02*
Y87297D01*
X12501Y86698D01*
X14900D01*
X15500Y87297D01*
Y88497D01*
X14900Y89097D01*
X12501D01*
X11901Y88497D01*
Y90297D02*
Y92696D01*
Y91496D01*
X15500D01*
X12501Y93895D02*
X11901Y94495D01*
Y95695D01*
X12501Y96295D01*
X14900D01*
X15500Y95695D01*
Y94495D01*
X14900Y93895D01*
X12501D01*
X30000Y93500D02*
Y97099D01*
X31799D01*
X32399Y96499D01*
Y95299D01*
X31799Y94700D01*
X30000D01*
X33599Y97099D02*
Y93500D01*
X35398D01*
X35998Y94100D01*
Y94700D01*
X35398Y95299D01*
X33599D01*
X35398D01*
X35998Y95899D01*
Y96499D01*
X35398Y97099D01*
X33599D01*
X37198D02*
X39597D01*
Y96499D01*
X37198Y94100D01*
Y93500D01*
X30000Y106000D02*
Y109599D01*
X31799D01*
X32399Y108999D01*
Y107799D01*
X31799Y107200D01*
X30000D01*
X33599Y109599D02*
Y106000D01*
X35398D01*
X35998Y106600D01*
Y107200D01*
X35398Y107799D01*
X33599D01*
X35398D01*
X35998Y108399D01*
Y108999D01*
X35398Y109599D01*
X33599D01*
X39597D02*
X38397Y108999D01*
X37198Y107799D01*
Y106600D01*
X37797Y106000D01*
X38997D01*
X39597Y106600D01*
Y107200D01*
X38997Y107799D01*
X37198D01*
X30000Y115550D02*
Y119149D01*
X31799D01*
X32399Y118549D01*
Y117349D01*
X31799Y116750D01*
X30000D01*
X33599Y119149D02*
Y115550D01*
X35398D01*
X35998Y116150D01*
Y116750D01*
X35398Y117349D01*
X33599D01*
X35398D01*
X35998Y117949D01*
Y118549D01*
X35398Y119149D01*
X33599D01*
X39597D02*
X37198D01*
Y117349D01*
X38397Y117949D01*
X38997D01*
X39597Y117349D01*
Y116150D01*
X38997Y115550D01*
X37797D01*
X37198Y116150D01*
X30000Y125330D02*
Y128928D01*
X31799D01*
X32399Y128329D01*
Y127129D01*
X31799Y126529D01*
X30000D01*
X33599Y128928D02*
Y125330D01*
X35398D01*
X35998Y125929D01*
Y126529D01*
X35398Y127129D01*
X33599D01*
X35398D01*
X35998Y127729D01*
Y128329D01*
X35398Y128928D01*
X33599D01*
X38997Y125330D02*
Y128928D01*
X37198Y127129D01*
X39597D01*
X144500Y194500D02*
Y198099D01*
X146299D01*
X146899Y197499D01*
Y196299D01*
X146299Y195700D01*
X144500D01*
X148099Y194500D02*
Y196899D01*
X149299Y198099D01*
X150498Y196899D01*
Y194500D01*
Y196299D01*
X148099D01*
X151698Y197499D02*
X152297Y198099D01*
X153497D01*
X154097Y197499D01*
Y196899D01*
X153497Y196299D01*
X154097Y195700D01*
Y195100D01*
X153497Y194500D01*
X152297D01*
X151698Y195100D01*
Y195700D01*
X152297Y196299D01*
X151698Y196899D01*
Y197499D01*
X152297Y196299D02*
X153497D01*
X136100Y175500D02*
Y179099D01*
X137899D01*
X138499Y178499D01*
Y177299D01*
X137899Y176700D01*
X136100D01*
X142098Y178499D02*
X141498Y179099D01*
X140299D01*
X139699Y178499D01*
Y176100D01*
X140299Y175500D01*
X141498D01*
X142098Y176100D01*
X143298D02*
X143897Y175500D01*
X145097D01*
X145697Y176100D01*
Y178499D01*
X145097Y179099D01*
X143897D01*
X143298Y178499D01*
Y177899D01*
X143897Y177299D01*
X145697D01*
X136000Y165500D02*
Y169099D01*
X137799D01*
X138399Y168499D01*
Y167299D01*
X137799Y166700D01*
X136000D01*
X141998Y168499D02*
X141398Y169099D01*
X140199D01*
X139599Y168499D01*
Y166100D01*
X140199Y165500D01*
X141398D01*
X141998Y166100D01*
X143198Y168499D02*
X143798Y169099D01*
X144997D01*
X145597Y168499D01*
Y167899D01*
X144997Y167299D01*
X145597Y166700D01*
Y166100D01*
X144997Y165500D01*
X143798D01*
X143198Y166100D01*
Y166700D01*
X143798Y167299D01*
X143198Y167899D01*
Y168499D01*
X143798Y167299D02*
X144997D01*
X136100Y155665D02*
Y159263D01*
X137899D01*
X138499Y158664D01*
Y157464D01*
X137899Y156864D01*
X136100D01*
X142098Y158664D02*
X141498Y159263D01*
X140299D01*
X139699Y158664D01*
Y156264D01*
X140299Y155665D01*
X141498D01*
X142098Y156264D01*
X143298Y159263D02*
X145697D01*
Y158664D01*
X143298Y156264D01*
Y155665D01*
X119000Y189015D02*
X121399D01*
X120200D01*
Y185416D01*
X122599Y189015D02*
X124998Y185416D01*
Y189015D02*
X122599Y185416D01*
X119000Y196000D02*
Y199599D01*
X120799D01*
X121399Y198999D01*
Y197799D01*
X120799Y197200D01*
X119000D01*
X120200D02*
X121399Y196000D01*
X122599Y199599D02*
X124998Y196000D01*
Y199599D02*
X122599Y196000D01*
X118299Y208999D02*
X117699Y209599D01*
X116500D01*
X115900Y208999D01*
Y206600D01*
X116500Y206000D01*
X117699D01*
X118299Y206600D01*
Y207799D01*
X117100D01*
X119499Y206000D02*
Y209599D01*
X121898Y206000D01*
Y209599D01*
X123098D02*
Y206000D01*
X124897D01*
X125497Y206600D01*
Y208999D01*
X124897Y209599D01*
X123098D01*
X82000Y157000D02*
Y160599D01*
X83799D01*
X84399Y159999D01*
Y158799D01*
X83799Y158200D01*
X82000D01*
X85599Y157000D02*
Y159399D01*
X86799Y160599D01*
X87998Y159399D01*
Y157000D01*
Y158799D01*
X85599D01*
X89198Y157000D02*
X90397D01*
X89798D01*
Y160599D01*
X89198Y159999D01*
X94596Y160599D02*
X92197D01*
Y158799D01*
X93396Y159399D01*
X93996D01*
X94596Y158799D01*
Y157600D01*
X93996Y157000D01*
X92796D01*
X92197Y157600D01*
X82500Y166500D02*
Y170099D01*
X84299D01*
X84899Y169499D01*
Y168299D01*
X84299Y167700D01*
X82500D01*
X88498Y169499D02*
X87898Y170099D01*
X86699D01*
X86099Y169499D01*
Y167100D01*
X86699Y166500D01*
X87898D01*
X88498Y167100D01*
X89698Y166500D02*
X90897D01*
X90298D01*
Y170099D01*
X89698Y169499D01*
X92697D02*
X93296Y170099D01*
X94496D01*
X95096Y169499D01*
Y167100D01*
X94496Y166500D01*
X93296D01*
X92697Y167100D01*
Y169499D01*
X83800Y176500D02*
Y180099D01*
X85599D01*
X86199Y179499D01*
Y178299D01*
X85599Y177700D01*
X83800D01*
X89798Y179499D02*
X89198Y180099D01*
X87999D01*
X87399Y179499D01*
Y177100D01*
X87999Y176500D01*
X89198D01*
X89798Y177100D01*
X90998Y176500D02*
X92197D01*
X91597D01*
Y180099D01*
X90998Y179499D01*
X93997Y176500D02*
X95196D01*
X94596D01*
Y180099D01*
X93997Y179499D01*
X83000Y186000D02*
Y189599D01*
X84799D01*
X85399Y188999D01*
Y187799D01*
X84799Y187200D01*
X83000D01*
X88998Y188999D02*
X88398Y189599D01*
X87199D01*
X86599Y188999D01*
Y186600D01*
X87199Y186000D01*
X88398D01*
X88998Y186600D01*
X90198Y186000D02*
X91397D01*
X90798D01*
Y189599D01*
X90198Y188999D01*
X95596Y186000D02*
X93197D01*
X95596Y188399D01*
Y188999D01*
X94996Y189599D01*
X93796D01*
X93197Y188999D01*
X86000Y196000D02*
Y199599D01*
X87799D01*
X88399Y198999D01*
Y197799D01*
X87799Y197200D01*
X86000D01*
X89599Y199599D02*
Y196000D01*
X91398D01*
X91998Y196600D01*
Y198999D01*
X91398Y199599D01*
X89599D01*
X95597Y196000D02*
X93198D01*
X95597Y198399D01*
Y198999D01*
X94997Y199599D01*
X93797D01*
X93198Y198999D01*
X32899Y148499D02*
X32299Y149099D01*
X31100D01*
X30500Y148499D01*
Y146100D01*
X31100Y145500D01*
X32299D01*
X32899Y146100D01*
Y147299D01*
X31700D01*
X34099Y145500D02*
Y149099D01*
X36498Y145500D01*
Y149099D01*
X37698D02*
Y145500D01*
X39497D01*
X40097Y146100D01*
Y148499D01*
X39497Y149099D01*
X37698D01*
X32899Y158499D02*
X32299Y159099D01*
X31100D01*
X30500Y158499D01*
Y157899D01*
X31100Y157299D01*
X32299D01*
X32899Y156700D01*
Y156100D01*
X32299Y155500D01*
X31100D01*
X30500Y156100D01*
X34099Y159099D02*
Y155500D01*
X35298Y156700D01*
X36498Y155500D01*
Y159099D01*
X39497D02*
X38298D01*
X37698Y158499D01*
Y156100D01*
X38298Y155500D01*
X39497D01*
X40097Y156100D01*
Y158499D01*
X39497Y159099D01*
X32899Y168499D02*
X32299Y169099D01*
X31100D01*
X30500Y168499D01*
Y167899D01*
X31100Y167299D01*
X32299D01*
X32899Y166700D01*
Y166100D01*
X32299Y165500D01*
X31100D01*
X30500Y166100D01*
X34099Y169099D02*
Y165500D01*
X35298Y166700D01*
X36498Y165500D01*
Y169099D01*
X40097Y168499D02*
X39497Y169099D01*
X38298D01*
X37698Y168499D01*
Y166100D01*
X38298Y165500D01*
X39497D01*
X40097Y166100D01*
X41296Y169099D02*
Y165500D01*
X43696D01*
X44895Y169099D02*
Y165500D01*
Y166700D01*
X47295Y169099D01*
X45495Y167299D01*
X47295Y165500D01*
X31000Y175500D02*
Y179099D01*
X33399Y175500D01*
Y179099D01*
X34599Y175500D02*
Y179099D01*
X36398D01*
X36998Y178499D01*
Y177299D01*
X36398Y176700D01*
X34599D01*
X35798D02*
X36998Y175500D01*
X40597Y178499D02*
X39997Y179099D01*
X38798D01*
X38198Y178499D01*
Y177899D01*
X38798Y177299D01*
X39997D01*
X40597Y176700D01*
Y176100D01*
X39997Y175500D01*
X38798D01*
X38198Y176100D01*
X41796Y179099D02*
X44196D01*
X42996D01*
Y175500D01*
X32899Y188499D02*
X32299Y189099D01*
X31100D01*
X30500Y188499D01*
Y187899D01*
X31100Y187299D01*
X32299D01*
X32899Y186700D01*
Y186100D01*
X32299Y185500D01*
X31100D01*
X30500Y186100D01*
X34099Y189099D02*
Y185500D01*
X35298Y186700D01*
X36498Y185500D01*
Y189099D01*
X37698D02*
Y185500D01*
X39497D01*
X40097Y186100D01*
Y188499D01*
X39497Y189099D01*
X37698D01*
X41296D02*
X42496D01*
X41896D01*
Y185500D01*
X41296D01*
X42496D01*
X46095Y189099D02*
X44895D01*
X44295Y188499D01*
Y186100D01*
X44895Y185500D01*
X46095D01*
X46695Y186100D01*
Y188499D01*
X46095Y189099D01*
X30658Y198285D02*
X31257Y198885D01*
X32457D01*
X33057Y198285D01*
Y197685D01*
X32457Y197085D01*
X31857D01*
X32457D01*
X33057Y196485D01*
Y195886D01*
X32457Y195286D01*
X31257D01*
X30658Y195886D01*
X34256Y198885D02*
Y196485D01*
X35456Y195286D01*
X36656Y196485D01*
Y198885D01*
X37855Y198285D02*
X38455Y198885D01*
X39655D01*
X40254Y198285D01*
Y197685D01*
X39655Y197085D01*
X39055D01*
X39655D01*
X40254Y196485D01*
Y195886D01*
X39655Y195286D01*
X38455D01*
X37855Y195886D01*
X17000Y25000D02*
Y28599D01*
X18799D01*
X19399Y27999D01*
Y26799D01*
X18799Y26200D01*
X17000D01*
X22998Y27999D02*
X22398Y28599D01*
X21199D01*
X20599Y27999D01*
Y25600D01*
X21199Y25000D01*
X22398D01*
X22998Y25600D01*
X24198Y27999D02*
X24798Y28599D01*
X25997D01*
X26597Y27999D01*
Y25600D01*
X25997Y25000D01*
X24798D01*
X24198Y25600D01*
Y27999D01*
X35500Y25000D02*
X31901D01*
Y26799D01*
X32501Y27399D01*
X33701D01*
X34300Y26799D01*
Y25000D01*
X32501Y30998D02*
X31901Y30398D01*
Y29199D01*
X32501Y28599D01*
X34900D01*
X35500Y29199D01*
Y30398D01*
X34900Y30998D01*
X35500Y32198D02*
Y33397D01*
Y32798D01*
X31901D01*
X32501Y32198D01*
X45000Y25000D02*
X41401D01*
Y26799D01*
X42001Y27399D01*
X43201D01*
X43800Y26799D01*
Y25000D01*
X42001Y30998D02*
X41401Y30398D01*
Y29199D01*
X42001Y28599D01*
X44400D01*
X45000Y29199D01*
Y30398D01*
X44400Y30998D01*
X45000Y34597D02*
Y32198D01*
X42601Y34597D01*
X42001D01*
X41401Y33997D01*
Y32798D01*
X42001Y32198D01*
X53500Y25000D02*
X49901D01*
Y26799D01*
X50501Y27399D01*
X51701D01*
X52300Y26799D01*
Y25000D01*
X50501Y30998D02*
X49901Y30398D01*
Y29199D01*
X50501Y28599D01*
X52900D01*
X53500Y29199D01*
Y30398D01*
X52900Y30998D01*
X50501Y32198D02*
X49901Y32798D01*
Y33997D01*
X50501Y34597D01*
X51101D01*
X51701Y33997D01*
Y33397D01*
Y33997D01*
X52300Y34597D01*
X52900D01*
X53500Y33997D01*
Y32798D01*
X52900Y32198D01*
X59874Y25000D02*
Y28599D01*
X61673D01*
X62273Y27999D01*
Y26799D01*
X61673Y26200D01*
X59874D01*
X63472Y25000D02*
Y27399D01*
X64672Y28599D01*
X65872Y27399D01*
Y25000D01*
Y26799D01*
X63472D01*
X67071Y25000D02*
X68271D01*
X67671D01*
Y28599D01*
X67071Y27999D01*
X104500Y25500D02*
X100901D01*
Y27299D01*
X101501Y27899D01*
X102701D01*
X103300Y27299D01*
Y25500D01*
X104500Y29099D02*
X102101D01*
X100901Y30299D01*
X102101Y31498D01*
X104500D01*
X102701D01*
Y29099D01*
X101501Y32698D02*
X100901Y33298D01*
Y34497D01*
X101501Y35097D01*
X103900D01*
X104500Y34497D01*
Y33298D01*
X103900Y32698D01*
X101501D01*
X115000Y25500D02*
X111401D01*
Y27299D01*
X112001Y27899D01*
X113201D01*
X113800Y27299D01*
Y25500D01*
X112001Y31498D02*
X111401Y30898D01*
Y29699D01*
X112001Y29099D01*
X114400D01*
X115000Y29699D01*
Y30898D01*
X114400Y31498D01*
X115000Y34497D02*
X111401D01*
X113201Y32698D01*
Y35097D01*
X125000Y25500D02*
X121401D01*
Y27299D01*
X122001Y27899D01*
X123201D01*
X123800Y27299D01*
Y25500D01*
X121401Y29099D02*
X125000D01*
Y30898D01*
X124400Y31498D01*
X123800D01*
X123201Y30898D01*
Y29099D01*
Y30898D01*
X122601Y31498D01*
X122001D01*
X121401Y30898D01*
Y29099D01*
X125000Y32698D02*
Y33897D01*
Y33298D01*
X121401D01*
X122001Y32698D01*
X125000Y35697D02*
Y36896D01*
Y36296D01*
X121401D01*
X122001Y35697D01*
X134500Y25500D02*
X130901D01*
Y27299D01*
X131501Y27899D01*
X132701D01*
X133300Y27299D01*
Y25500D01*
X130901Y29099D02*
X134500D01*
Y30898D01*
X133900Y31498D01*
X133300D01*
X132701Y30898D01*
Y29099D01*
Y30898D01*
X132101Y31498D01*
X131501D01*
X130901Y30898D01*
Y29099D01*
X134500Y32698D02*
Y33897D01*
Y33298D01*
X130901D01*
X131501Y32698D01*
Y35697D02*
X130901Y36296D01*
Y37496D01*
X131501Y38096D01*
X133900D01*
X134500Y37496D01*
Y36296D01*
X133900Y35697D01*
X131501D01*
X145000Y25500D02*
X141401D01*
Y27299D01*
X142001Y27899D01*
X143201D01*
X143800Y27299D01*
Y25500D01*
X141401Y29099D02*
X145000D01*
Y30898D01*
X144400Y31498D01*
X143800D01*
X143201Y30898D01*
Y29099D01*
Y30898D01*
X142601Y31498D01*
X142001D01*
X141401Y30898D01*
Y29099D01*
X142001Y32698D02*
X141401Y33298D01*
Y34497D01*
X142001Y35097D01*
X144400D01*
X145000Y34497D01*
Y33298D01*
X144400Y32698D01*
X142001D01*
X154500Y25500D02*
X150901D01*
Y27299D01*
X151501Y27899D01*
X152701D01*
X153300Y27299D01*
Y25500D01*
X151501Y31498D02*
X150901Y30898D01*
Y29699D01*
X151501Y29099D01*
X153900D01*
X154500Y29699D01*
Y30898D01*
X153900Y31498D01*
X150901Y35097D02*
Y32698D01*
X152701D01*
X152101Y33897D01*
Y34497D01*
X152701Y35097D01*
X153900D01*
X154500Y34497D01*
Y33298D01*
X153900Y32698D01*
X164760Y25500D02*
X161161D01*
Y27299D01*
X161761Y27899D01*
X162960D01*
X163560Y27299D01*
Y25500D01*
X161161Y29099D02*
X164760D01*
Y30898D01*
X164160Y31498D01*
X163560D01*
X162960Y30898D01*
Y29099D01*
Y30898D01*
X162361Y31498D01*
X161761D01*
X161161Y30898D01*
Y29099D01*
X164760Y32698D02*
Y33897D01*
Y33298D01*
X161161D01*
X161761Y32698D01*
X175000Y25000D02*
X171401D01*
Y26799D01*
X172001Y27399D01*
X173201D01*
X173800Y26799D01*
Y25000D01*
X171401Y28599D02*
X175000D01*
Y30398D01*
X174400Y30998D01*
X173800D01*
X173201Y30398D01*
Y28599D01*
Y30398D01*
X172601Y30998D01*
X172001D01*
X171401Y30398D01*
Y28599D01*
X175000Y34597D02*
Y32198D01*
X172601Y34597D01*
X172001D01*
X171401Y33997D01*
Y32798D01*
X172001Y32198D01*
X389500Y168099D02*
Y165700D01*
X390700Y164500D01*
X391899Y165700D01*
Y168099D01*
X393099Y164500D02*
Y168099D01*
X394299Y166899D01*
X395498Y168099D01*
Y164500D01*
X389500Y198408D02*
Y196009D01*
X390700Y194809D01*
X391899Y196009D01*
Y198408D01*
X395498Y197809D02*
X394898Y198408D01*
X393699D01*
X393099Y197809D01*
Y197209D01*
X393699Y196609D01*
X394898D01*
X395498Y196009D01*
Y195409D01*
X394898Y194809D01*
X393699D01*
X393099Y195409D01*
X389500Y174240D02*
Y177839D01*
X391299D01*
X391899Y177239D01*
Y176040D01*
X391299Y175440D01*
X389500D01*
X390700D02*
X391899Y174240D01*
X395498Y177239D02*
X394898Y177839D01*
X393699D01*
X393099Y177239D01*
Y174840D01*
X393699Y174240D01*
X394898D01*
X395498Y174840D01*
X389500Y188074D02*
X390700D01*
X390100D01*
Y184476D01*
X389500D01*
X390700D01*
X392499D02*
Y188074D01*
X394299D01*
X394898Y187475D01*
Y186275D01*
X394299Y185675D01*
X392499D01*
X389500Y208515D02*
Y204916D01*
Y206715D01*
X391899D01*
Y208515D01*
Y204916D01*
X393099Y206715D02*
X395498D01*
X389500Y218099D02*
Y214500D01*
Y216299D01*
X391899D01*
Y218099D01*
Y214500D01*
X393099Y216299D02*
X395498D01*
X394299Y217499D02*
Y215100D01*
X362000Y287953D02*
X363200D01*
X362600D01*
Y291552D01*
X362000Y290952D01*
X367398Y287953D02*
X364999D01*
X367398Y290352D01*
Y290952D01*
X366798Y291552D01*
X365599D01*
X364999Y290952D01*
X368598Y291552D02*
Y289152D01*
X369797Y287953D01*
X370997Y289152D01*
Y291552D01*
X32500Y291605D02*
Y289206D01*
X33700Y288007D01*
X34899Y289206D01*
Y291605D01*
X36099D02*
Y288007D01*
X37898D01*
X38498Y288606D01*
Y289206D01*
X37898Y289806D01*
X36099D01*
X37898D01*
X38498Y290406D01*
Y291006D01*
X37898Y291605D01*
X36099D01*
X39698Y288007D02*
Y290406D01*
X40897Y291605D01*
X42097Y290406D01*
Y288007D01*
Y289806D01*
X39698D01*
X43297Y291605D02*
X45696D01*
X44496D01*
Y288007D01*
X362899Y344506D02*
X362299Y345105D01*
X361100D01*
X360500Y344506D01*
Y342106D01*
X361100Y341507D01*
X362299D01*
X362899Y342106D01*
Y343306D01*
X361700D01*
X364099Y341507D02*
Y345105D01*
X366498Y341507D01*
Y345105D01*
X367698D02*
Y341507D01*
X369497D01*
X370097Y342106D01*
Y344506D01*
X369497Y345105D01*
X367698D01*
X34399Y343999D02*
X33799Y344599D01*
X32600D01*
X32000Y343999D01*
Y341600D01*
X32600Y341000D01*
X33799D01*
X34399Y341600D01*
Y342799D01*
X33200D01*
X35599Y341000D02*
Y344599D01*
X37998Y341000D01*
Y344599D01*
X39198D02*
Y341000D01*
X40997D01*
X41597Y341600D01*
Y343999D01*
X40997Y344599D01*
X39198D01*
X98400Y205700D02*
Y209299D01*
X100199D01*
X100799Y208699D01*
Y207499D01*
X100199Y206900D01*
X98400D01*
X101999Y205700D02*
X103199D01*
X102599D01*
Y209299D01*
X101999Y208699D01*
X107397Y209299D02*
X106198Y208699D01*
X104998Y207499D01*
Y206300D01*
X105598Y205700D01*
X106797D01*
X107397Y206300D01*
Y206900D01*
X106797Y207499D01*
X104998D01*
X71294Y15500D02*
Y19099D01*
X73094D01*
X73693Y18499D01*
Y17299D01*
X73094Y16700D01*
X71294D01*
X74893Y15500D02*
X76093D01*
X75493D01*
Y19099D01*
X74893Y18499D01*
X80291Y19099D02*
X77892D01*
Y17299D01*
X79092Y17899D01*
X79691D01*
X80291Y17299D01*
Y16100D01*
X79691Y15500D01*
X78492D01*
X77892Y16100D01*
X159500Y147000D02*
Y150599D01*
X161299D01*
X161899Y149999D01*
Y148799D01*
X161299Y148200D01*
X159500D01*
X163099Y149999D02*
X163699Y150599D01*
X164898D01*
X165498Y149999D01*
Y149399D01*
X164898Y148799D01*
X164298D01*
X164898D01*
X165498Y148200D01*
Y147600D01*
X164898Y147000D01*
X163699D01*
X163099Y147600D01*
X20500Y36500D02*
Y40099D01*
X22299D01*
X22899Y39499D01*
Y38299D01*
X22299Y37700D01*
X20500D01*
X26498Y40099D02*
X24099D01*
Y38299D01*
X25298Y38899D01*
X25898D01*
X26498Y38299D01*
Y37100D01*
X25898Y36500D01*
X24699D01*
X24099Y37100D01*
X315000Y43599D02*
X317399D01*
X316200D01*
Y40000D01*
X318599D02*
Y43599D01*
X320398D01*
X320998Y42999D01*
Y41799D01*
X320398Y41200D01*
X318599D01*
X322198Y42999D02*
X322797Y43599D01*
X323997D01*
X324597Y42999D01*
Y42399D01*
X323997Y41799D01*
X323397D01*
X323997D01*
X324597Y41200D01*
Y40600D01*
X323997Y40000D01*
X322797D01*
X322198Y40600D01*
X327596Y40000D02*
Y43599D01*
X325797Y41799D01*
X328196D01*
X337300Y43599D02*
X339699D01*
X338500D01*
Y40000D01*
X340899D02*
Y43599D01*
X342698D01*
X343298Y42999D01*
Y41799D01*
X342698Y41200D01*
X340899D01*
X344498Y42999D02*
X345097Y43599D01*
X346297D01*
X346897Y42999D01*
Y42399D01*
X346297Y41799D01*
X345697D01*
X346297D01*
X346897Y41200D01*
Y40600D01*
X346297Y40000D01*
X345097D01*
X344498Y40600D01*
X348096Y42999D02*
X348696Y43599D01*
X349896D01*
X350496Y42999D01*
Y42399D01*
X349896Y41799D01*
X349296D01*
X349896D01*
X350496Y41200D01*
Y40600D01*
X349896Y40000D01*
X348696D01*
X348096Y40600D01*
X278000Y261599D02*
Y258600D01*
X278600Y258000D01*
X279799D01*
X280399Y258600D01*
Y261599D01*
X281599Y258000D02*
X282799D01*
X282199D01*
Y261599D01*
X281599Y260999D01*
X284598D02*
X285198Y261599D01*
X286397D01*
X286997Y260999D01*
Y258600D01*
X286397Y258000D01*
X285198D01*
X284598Y258600D01*
Y260999D01*
X244500Y230183D02*
X246899D01*
X245700D01*
Y226584D01*
X248099D02*
Y230183D01*
X249898D01*
X250498Y229583D01*
Y228384D01*
X249898Y227784D01*
X248099D01*
X251698Y226584D02*
X252897D01*
X252297D01*
Y230183D01*
X251698Y229583D01*
X272000Y233000D02*
Y236599D01*
X273799D01*
X274399Y235999D01*
Y234799D01*
X273799Y234200D01*
X272000D01*
X273200D02*
X274399Y233000D01*
X277998D02*
X275599D01*
X277998Y235399D01*
Y235999D01*
X277398Y236599D01*
X276199D01*
X275599Y235999D01*
X279198Y233000D02*
X280397D01*
X279798D01*
Y236599D01*
X279198Y235999D01*
X256399Y249999D02*
X255799Y250599D01*
X254600D01*
X254000Y249999D01*
Y247600D01*
X254600Y247000D01*
X255799D01*
X256399Y247600D01*
X257599Y249999D02*
X258199Y250599D01*
X259398D01*
X259998Y249999D01*
Y249399D01*
X259398Y248799D01*
X258799D01*
X259398D01*
X259998Y248200D01*
Y247600D01*
X259398Y247000D01*
X258199D01*
X257599Y247600D01*
X261198Y250599D02*
X263597D01*
Y249999D01*
X261198Y247600D01*
Y247000D01*
X248500Y161139D02*
Y158140D01*
X249100Y157540D01*
X250299D01*
X250899Y158140D01*
Y161139D01*
X252099Y157540D02*
X253298D01*
X252699D01*
Y161139D01*
X252099Y160539D01*
X250000Y82824D02*
X252399D01*
X251200D01*
Y79225D01*
X253599D02*
Y82824D01*
X255398D01*
X255998Y82224D01*
Y81025D01*
X255398Y80425D01*
X253599D01*
X257198Y79225D02*
X258397D01*
X257798D01*
Y82824D01*
X257198Y82224D01*
X260197D02*
X260796Y82824D01*
X261996D01*
X262596Y82224D01*
Y81625D01*
X261996Y81025D01*
X261396D01*
X261996D01*
X262596Y80425D01*
Y79825D01*
X261996Y79225D01*
X260796D01*
X260197Y79825D01*
X344000Y82824D02*
Y79825D01*
X344600Y79225D01*
X345799D01*
X346399Y79825D01*
Y82824D01*
X347599Y79825D02*
X348199Y79225D01*
X349398D01*
X349998Y79825D01*
Y82224D01*
X349398Y82824D01*
X348199D01*
X347599Y82224D01*
Y81625D01*
X348199Y81025D01*
X349998D01*
X64641Y54299D02*
Y50700D01*
X67041D01*
X68240D02*
X69440D01*
X68840D01*
Y54299D01*
X68240Y53699D01*
X48899Y61899D02*
X48299Y62499D01*
X47100D01*
X46500Y61899D01*
Y59500D01*
X47100Y58900D01*
X48299D01*
X48899Y59500D01*
X50099Y61899D02*
X50699Y62499D01*
X51898D01*
X52498Y61899D01*
Y61299D01*
X51898Y60699D01*
X51298D01*
X51898D01*
X52498Y60100D01*
Y59500D01*
X51898Y58900D01*
X50699D01*
X50099Y59500D01*
X56097Y62499D02*
X54897Y61899D01*
X53698Y60699D01*
Y59500D01*
X54298Y58900D01*
X55497D01*
X56097Y59500D01*
Y60100D01*
X55497Y60699D01*
X53698D01*
X207154Y100300D02*
Y103899D01*
X208953D01*
X209553Y103299D01*
Y102099D01*
X208953Y101500D01*
X207154D01*
X210752Y100300D02*
X211952D01*
X211352D01*
Y103899D01*
X210752Y103299D01*
X215551Y100300D02*
Y103899D01*
X213751Y102099D01*
X216151D01*
X192799Y116599D02*
X192199Y117199D01*
X191000D01*
X190400Y116599D01*
Y114200D01*
X191000Y113600D01*
X192199D01*
X192799Y114200D01*
X193999Y116599D02*
X194599Y117199D01*
X195798D01*
X196398Y116599D01*
Y115999D01*
X195798Y115399D01*
X195199D01*
X195798D01*
X196398Y114800D01*
Y114200D01*
X195798Y113600D01*
X194599D01*
X193999Y114200D01*
X199997Y117199D02*
X197598D01*
Y115399D01*
X198797Y115999D01*
X199397D01*
X199997Y115399D01*
Y114200D01*
X199397Y113600D01*
X198197D01*
X197598Y114200D01*
X376400Y355700D02*
Y359299D01*
X378199D01*
X378799Y358699D01*
Y357499D01*
X378199Y356900D01*
X376400D01*
X379999Y355700D02*
X381199D01*
X380599D01*
Y359299D01*
X379999Y358699D01*
X382998D02*
X383598Y359299D01*
X384797D01*
X385397Y358699D01*
Y358099D01*
X384797Y357499D01*
X384197D01*
X384797D01*
X385397Y356900D01*
Y356300D01*
X384797Y355700D01*
X383598D01*
X382998Y356300D01*
X376400Y302200D02*
Y305799D01*
X378199D01*
X378799Y305199D01*
Y303999D01*
X378199Y303400D01*
X376400D01*
X379999Y302200D02*
X381199D01*
X380599D01*
Y305799D01*
X379999Y305199D01*
X385397Y302200D02*
X382998D01*
X385397Y304599D01*
Y305199D01*
X384797Y305799D01*
X383598D01*
X382998Y305199D01*
X68399Y349499D02*
X67799Y350099D01*
X66600D01*
X66000Y349499D01*
Y347100D01*
X66600Y346500D01*
X67799D01*
X68399Y347100D01*
X69599Y346500D02*
X70798D01*
X70199D01*
Y350099D01*
X69599Y349499D01*
X72598D02*
X73198Y350099D01*
X74397D01*
X74997Y349499D01*
Y348899D01*
X74397Y348299D01*
X74997Y347700D01*
Y347100D01*
X74397Y346500D01*
X73198D01*
X72598Y347100D01*
Y347700D01*
X73198Y348299D01*
X72598Y348899D01*
Y349499D01*
X73198Y348299D02*
X74397D01*
X18400Y263200D02*
Y266799D01*
X20199D01*
X20799Y266199D01*
Y264999D01*
X20199Y264400D01*
X18400D01*
X21999Y263200D02*
X23198D01*
X22599D01*
Y266799D01*
X21999Y266199D01*
X133000Y225099D02*
X135399D01*
X134200D01*
Y221500D01*
X136599D02*
Y225099D01*
X138398D01*
X138998Y224499D01*
Y223299D01*
X138398Y222700D01*
X136599D01*
X140198Y224499D02*
X140797Y225099D01*
X141997D01*
X142597Y224499D01*
Y223899D01*
X141997Y223299D01*
X141397D01*
X141997D01*
X142597Y222700D01*
Y222100D01*
X141997Y221500D01*
X140797D01*
X140198Y222100D01*
X146196Y221500D02*
X143797D01*
X146196Y223899D01*
Y224499D01*
X145596Y225099D01*
X144396D01*
X143797Y224499D01*
X118500Y225099D02*
X120899D01*
X119700D01*
Y221500D01*
X122099D02*
Y225099D01*
X123898D01*
X124498Y224499D01*
Y223299D01*
X123898Y222700D01*
X122099D01*
X125698Y224499D02*
X126297Y225099D01*
X127497D01*
X128097Y224499D01*
Y223899D01*
X127497Y223299D01*
X126897D01*
X127497D01*
X128097Y222700D01*
Y222100D01*
X127497Y221500D01*
X126297D01*
X125698Y222100D01*
X129297Y221500D02*
X130496D01*
X129896D01*
Y225099D01*
X129297Y224499D01*
X287000Y117199D02*
X289399D01*
X288200D01*
Y113600D01*
X290599D02*
Y117199D01*
X292398D01*
X292998Y116599D01*
Y115399D01*
X292398Y114800D01*
X290599D01*
X294198Y116599D02*
X294797Y117199D01*
X295997D01*
X296597Y116599D01*
Y115999D01*
X295997Y115399D01*
X295397D01*
X295997D01*
X296597Y114800D01*
Y114200D01*
X295997Y113600D01*
X294797D01*
X294198Y114200D01*
X297797Y116599D02*
X298396Y117199D01*
X299596D01*
X300196Y116599D01*
Y114200D01*
X299596Y113600D01*
X298396D01*
X297797Y114200D01*
Y116599D01*
X323500Y155099D02*
X325899D01*
X324700D01*
Y151500D01*
X327099D02*
Y155099D01*
X328898D01*
X329498Y154499D01*
Y153299D01*
X328898Y152700D01*
X327099D01*
X333097Y151500D02*
X330698D01*
X333097Y153899D01*
Y154499D01*
X332497Y155099D01*
X331297D01*
X330698Y154499D01*
X334296Y152100D02*
X334896Y151500D01*
X336096D01*
X336696Y152100D01*
Y154499D01*
X336096Y155099D01*
X334896D01*
X334296Y154499D01*
Y153899D01*
X334896Y153299D01*
X336696D01*
X355000Y153599D02*
X357399D01*
X356200D01*
Y150000D01*
X358599D02*
Y153599D01*
X360398D01*
X360998Y152999D01*
Y151799D01*
X360398Y151200D01*
X358599D01*
X364597Y150000D02*
X362198D01*
X364597Y152399D01*
Y152999D01*
X363997Y153599D01*
X362797D01*
X362198Y152999D01*
X365796D02*
X366396Y153599D01*
X367596D01*
X368196Y152999D01*
Y152399D01*
X367596Y151799D01*
X368196Y151200D01*
Y150600D01*
X367596Y150000D01*
X366396D01*
X365796Y150600D01*
Y151200D01*
X366396Y151799D01*
X365796Y152399D01*
Y152999D01*
X366396Y151799D02*
X367596D01*
X352733Y146599D02*
X355132D01*
X353933D01*
Y143000D01*
X356332D02*
Y146599D01*
X358131D01*
X358731Y145999D01*
Y144799D01*
X358131Y144200D01*
X356332D01*
X362330Y143000D02*
X359931D01*
X362330Y145399D01*
Y145999D01*
X361730Y146599D01*
X360530D01*
X359931Y145999D01*
X363530Y146599D02*
X365929D01*
Y145999D01*
X363530Y143600D01*
Y143000D01*
X354000Y222387D02*
X356399D01*
X355200D01*
Y218788D01*
X357599D02*
Y222387D01*
X359398D01*
X359998Y221787D01*
Y220588D01*
X359398Y219988D01*
X357599D01*
X363597Y218788D02*
X361198D01*
X363597Y221187D01*
Y221787D01*
X362997Y222387D01*
X361797D01*
X361198Y221787D01*
X367196Y222387D02*
X365996Y221787D01*
X364796Y220588D01*
Y219388D01*
X365396Y218788D01*
X366596D01*
X367196Y219388D01*
Y219988D01*
X366596Y220588D01*
X364796D01*
X323473Y184659D02*
X325872D01*
X324673D01*
Y181060D01*
X327072D02*
Y184659D01*
X328871D01*
X329471Y184059D01*
Y182859D01*
X328871Y182259D01*
X327072D01*
X333070Y181060D02*
X330671D01*
X333070Y183459D01*
Y184059D01*
X332470Y184659D01*
X331271D01*
X330671Y184059D01*
X336669Y184659D02*
X334270D01*
Y182859D01*
X335469Y183459D01*
X336069D01*
X336669Y182859D01*
Y181660D01*
X336069Y181060D01*
X334870D01*
X334270Y181660D01*
X265500Y224599D02*
X267899D01*
X266700D01*
Y221000D01*
X269099D02*
Y224599D01*
X270898D01*
X271498Y223999D01*
Y222799D01*
X270898Y222200D01*
X269099D01*
X275097Y221000D02*
X272698D01*
X275097Y223399D01*
Y223999D01*
X274497Y224599D01*
X273298D01*
X272698Y223999D01*
X278096Y221000D02*
Y224599D01*
X276296Y222799D01*
X278696D01*
X229500Y198599D02*
X231899D01*
X230700D01*
Y195000D01*
X233099D02*
Y198599D01*
X234898D01*
X235498Y197999D01*
Y196799D01*
X234898Y196200D01*
X233099D01*
X239097Y195000D02*
X236698D01*
X239097Y197399D01*
Y197999D01*
X238497Y198599D01*
X237298D01*
X236698Y197999D01*
X240297D02*
X240896Y198599D01*
X242096D01*
X242696Y197999D01*
Y197399D01*
X242096Y196799D01*
X241496D01*
X242096D01*
X242696Y196200D01*
Y195600D01*
X242096Y195000D01*
X240896D01*
X240297Y195600D01*
X18400Y355700D02*
Y359299D01*
X20199D01*
X20799Y358699D01*
Y357499D01*
X20199Y356900D01*
X18400D01*
X21999Y355700D02*
X23198D01*
X22599D01*
Y359299D01*
X21999Y358699D01*
X24998Y355700D02*
X26197D01*
X25598D01*
Y359299D01*
X24998Y358699D01*
X18400Y302200D02*
Y305799D01*
X20199D01*
X20799Y305199D01*
Y303999D01*
X20199Y303400D01*
X18400D01*
X21999Y302200D02*
X23198D01*
X22599D01*
Y305799D01*
X21999Y305199D01*
X24998D02*
X25598Y305799D01*
X26797D01*
X27397Y305199D01*
Y302800D01*
X26797Y302200D01*
X25598D01*
X24998Y302800D01*
Y305199D01*
X376600Y224700D02*
Y228299D01*
X378399D01*
X378999Y227699D01*
Y226499D01*
X378399Y225900D01*
X376600D01*
X382598Y224700D02*
X380199D01*
X382598Y227099D01*
Y227699D01*
X381998Y228299D01*
X380799D01*
X380199Y227699D01*
X137399Y82999D02*
X136799Y83599D01*
X135600D01*
X135000Y82999D01*
Y80600D01*
X135600Y80000D01*
X136799D01*
X137399Y80600D01*
X138599Y82999D02*
X139199Y83599D01*
X140398D01*
X140998Y82999D01*
Y82399D01*
X140398Y81799D01*
X139798D01*
X140398D01*
X140998Y81200D01*
Y80600D01*
X140398Y80000D01*
X139199D01*
X138599Y80600D01*
X143997Y80000D02*
Y83599D01*
X142198Y81799D01*
X144597D01*
X150399Y84499D02*
X149799Y85099D01*
X148600D01*
X148000Y84499D01*
Y82100D01*
X148600Y81500D01*
X149799D01*
X150399Y82100D01*
X151599Y84499D02*
X152199Y85099D01*
X153398D01*
X153998Y84499D01*
Y83899D01*
X153398Y83299D01*
X152798D01*
X153398D01*
X153998Y82700D01*
Y82100D01*
X153398Y81500D01*
X152199D01*
X151599Y82100D01*
X155198Y84499D02*
X155798Y85099D01*
X156997D01*
X157597Y84499D01*
Y83899D01*
X156997Y83299D01*
X156397D01*
X156997D01*
X157597Y82700D01*
Y82100D01*
X156997Y81500D01*
X155798D01*
X155198Y82100D01*
X353233Y116599D02*
Y113600D01*
X353833Y113000D01*
X355032D01*
X355632Y113600D01*
Y116599D01*
X356832Y115999D02*
X357432Y116599D01*
X358631D01*
X359231Y115999D01*
Y115399D01*
X358631Y114799D01*
X359231Y114200D01*
Y113600D01*
X358631Y113000D01*
X357432D01*
X356832Y113600D01*
Y114200D01*
X357432Y114799D01*
X356832Y115399D01*
Y115999D01*
X357432Y114799D02*
X358631D01*
X293200Y59099D02*
X295599D01*
X294400D01*
Y55500D01*
X296799D02*
Y59099D01*
X298598D01*
X299198Y58499D01*
Y57299D01*
X298598Y56700D01*
X296799D01*
X302797Y55500D02*
X300398D01*
X302797Y57899D01*
Y58499D01*
X302197Y59099D01*
X300997D01*
X300398Y58499D01*
X306396Y55500D02*
X303996D01*
X306396Y57899D01*
Y58499D01*
X305796Y59099D01*
X304596D01*
X303996Y58499D01*
X276000Y59099D02*
X278399D01*
X277200D01*
Y55500D01*
X279599D02*
Y59099D01*
X281398D01*
X281998Y58499D01*
Y57299D01*
X281398Y56700D01*
X279599D01*
X285597Y55500D02*
X283198D01*
X285597Y57899D01*
Y58499D01*
X284997Y59099D01*
X283798D01*
X283198Y58499D01*
X286796Y55500D02*
X287996D01*
X287396D01*
Y59099D01*
X286796Y58499D01*
X298000Y74000D02*
Y77599D01*
X299799D01*
X300399Y76999D01*
Y75799D01*
X299799Y75200D01*
X298000D01*
X299200D02*
X300399Y74000D01*
X301599Y76999D02*
X302199Y77599D01*
X303398D01*
X303998Y76999D01*
Y76399D01*
X303398Y75799D01*
X302799D01*
X303398D01*
X303998Y75200D01*
Y74600D01*
X303398Y74000D01*
X302199D01*
X301599Y74600D01*
X307597Y77599D02*
X305198D01*
Y75799D01*
X306397Y76399D01*
X306997D01*
X307597Y75799D01*
Y74600D01*
X306997Y74000D01*
X305798D01*
X305198Y74600D01*
X373000Y91500D02*
Y95099D01*
X374799D01*
X375399Y94499D01*
Y93299D01*
X374799Y92700D01*
X373000D01*
X374200D02*
X375399Y91500D01*
X376599Y94499D02*
X377199Y95099D01*
X378398D01*
X378998Y94499D01*
Y93899D01*
X378398Y93299D01*
X377799D01*
X378398D01*
X378998Y92700D01*
Y92100D01*
X378398Y91500D01*
X377199D01*
X376599Y92100D01*
X381997Y91500D02*
Y95099D01*
X380198Y93299D01*
X382597D01*
X354000Y103500D02*
Y107099D01*
X355799D01*
X356399Y106499D01*
Y105299D01*
X355799Y104700D01*
X354000D01*
X355200D02*
X356399Y103500D01*
X357599Y106499D02*
X358199Y107099D01*
X359398D01*
X359998Y106499D01*
Y105899D01*
X359398Y105299D01*
X358799D01*
X359398D01*
X359998Y104700D01*
Y104100D01*
X359398Y103500D01*
X358199D01*
X357599Y104100D01*
X361198Y106499D02*
X361797Y107099D01*
X362997D01*
X363597Y106499D01*
Y105899D01*
X362997Y105299D01*
X362397D01*
X362997D01*
X363597Y104700D01*
Y104100D01*
X362997Y103500D01*
X361797D01*
X361198Y104100D01*
X298000Y83000D02*
Y86599D01*
X299799D01*
X300399Y85999D01*
Y84799D01*
X299799Y84200D01*
X298000D01*
X299200D02*
X300399Y83000D01*
X301599Y85999D02*
X302199Y86599D01*
X303398D01*
X303998Y85999D01*
Y85399D01*
X303398Y84799D01*
X302799D01*
X303398D01*
X303998Y84200D01*
Y83600D01*
X303398Y83000D01*
X302199D01*
X301599Y83600D01*
X307597Y83000D02*
X305198D01*
X307597Y85399D01*
Y85999D01*
X306997Y86599D01*
X305798D01*
X305198Y85999D01*
X365500Y128734D02*
Y132333D01*
X367299D01*
X367899Y131734D01*
Y130534D01*
X367299Y129934D01*
X365500D01*
X366700D02*
X367899Y128734D01*
X369099Y131734D02*
X369699Y132333D01*
X370898D01*
X371498Y131734D01*
Y131134D01*
X370898Y130534D01*
X370299D01*
X370898D01*
X371498Y129934D01*
Y129334D01*
X370898Y128734D01*
X369699D01*
X369099Y129334D01*
X372698Y128734D02*
X373897D01*
X373298D01*
Y132333D01*
X372698Y131734D01*
X353500Y135000D02*
Y138599D01*
X355299D01*
X355899Y137999D01*
Y136799D01*
X355299Y136200D01*
X353500D01*
X354700D02*
X355899Y135000D01*
X357099Y137999D02*
X357699Y138599D01*
X358898D01*
X359498Y137999D01*
Y137399D01*
X358898Y136799D01*
X358298D01*
X358898D01*
X359498Y136200D01*
Y135600D01*
X358898Y135000D01*
X357699D01*
X357099Y135600D01*
X360698Y137999D02*
X361297Y138599D01*
X362497D01*
X363097Y137999D01*
Y135600D01*
X362497Y135000D01*
X361297D01*
X360698Y135600D01*
Y137999D01*
X324499Y92499D02*
X323899Y93099D01*
X322700D01*
X322100Y92499D01*
Y90100D01*
X322700Y89500D01*
X323899D01*
X324499Y90100D01*
X325699Y92499D02*
X326299Y93099D01*
X327498D01*
X328098Y92499D01*
Y91899D01*
X327498Y91299D01*
X326899D01*
X327498D01*
X328098Y90700D01*
Y90100D01*
X327498Y89500D01*
X326299D01*
X325699Y90100D01*
X331697Y89500D02*
X329298D01*
X331697Y91899D01*
Y92499D01*
X331097Y93099D01*
X329897D01*
X329298Y92499D01*
X342399Y138999D02*
X341799Y139599D01*
X340600D01*
X340000Y138999D01*
Y136600D01*
X340600Y136000D01*
X341799D01*
X342399Y136600D01*
X343599Y138999D02*
X344199Y139599D01*
X345398D01*
X345998Y138999D01*
Y138399D01*
X345398Y137799D01*
X344798D01*
X345398D01*
X345998Y137200D01*
Y136600D01*
X345398Y136000D01*
X344199D01*
X343599Y136600D01*
X347198Y136000D02*
X348397D01*
X347797D01*
Y139599D01*
X347198Y138999D01*
X319899Y98999D02*
X319299Y99599D01*
X318100D01*
X317500Y98999D01*
Y96600D01*
X318100Y96000D01*
X319299D01*
X319899Y96600D01*
X321099Y98999D02*
X321699Y99599D01*
X322898D01*
X323498Y98999D01*
Y98399D01*
X322898Y97799D01*
X322299D01*
X322898D01*
X323498Y97200D01*
Y96600D01*
X322898Y96000D01*
X321699D01*
X321099Y96600D01*
X324698Y98999D02*
X325297Y99599D01*
X326497D01*
X327097Y98999D01*
Y96600D01*
X326497Y96000D01*
X325297D01*
X324698Y96600D01*
Y98999D01*
X316106Y122460D02*
X315506Y123059D01*
X314306D01*
X313706Y122460D01*
Y120060D01*
X314306Y119461D01*
X315506D01*
X316106Y120060D01*
X319704Y119461D02*
X317305D01*
X319704Y121860D01*
Y122460D01*
X319105Y123059D01*
X317905D01*
X317305Y122460D01*
X320904Y120060D02*
X321504Y119461D01*
X322703D01*
X323303Y120060D01*
Y122460D01*
X322703Y123059D01*
X321504D01*
X320904Y122460D01*
Y121860D01*
X321504Y121260D01*
X323303D01*
X164500Y87599D02*
Y84600D01*
X165100Y84000D01*
X166299D01*
X166899Y84600D01*
Y87599D01*
X168099D02*
X170498D01*
Y86999D01*
X168099Y84600D01*
Y84000D01*
X186700Y132077D02*
Y129078D01*
X187300Y128479D01*
X188499D01*
X189099Y129078D01*
Y132077D01*
X192698D02*
X191498Y131478D01*
X190299Y130278D01*
Y129078D01*
X190899Y128479D01*
X192098D01*
X192698Y129078D01*
Y129678D01*
X192098Y130278D01*
X190299D01*
X287500Y232599D02*
X289899D01*
X288700D01*
Y229000D01*
X291099D02*
Y232599D01*
X292898D01*
X293498Y231999D01*
Y230799D01*
X292898Y230200D01*
X291099D01*
X297097Y229000D02*
X294698D01*
X297097Y231399D01*
Y231999D01*
X296497Y232599D01*
X295298D01*
X294698Y231999D01*
X298296D02*
X298896Y232599D01*
X300096D01*
X300696Y231999D01*
Y229600D01*
X300096Y229000D01*
X298896D01*
X298296Y229600D01*
Y231999D01*
X134500Y51099D02*
X136899D01*
X135700D01*
Y47500D01*
X138099D02*
Y51099D01*
X139898D01*
X140498Y50499D01*
Y49299D01*
X139898Y48700D01*
X138099D01*
X141698Y47500D02*
X142897D01*
X142297D01*
Y51099D01*
X141698Y50499D01*
X144697Y48100D02*
X145297Y47500D01*
X146496D01*
X147096Y48100D01*
Y50499D01*
X146496Y51099D01*
X145297D01*
X144697Y50499D01*
Y49899D01*
X145297Y49299D01*
X147096D01*
X287000Y98099D02*
X289399D01*
X288200D01*
Y94500D01*
X290599D02*
Y98099D01*
X292398D01*
X292998Y97499D01*
Y96299D01*
X292398Y95700D01*
X290599D01*
X294198Y94500D02*
X295397D01*
X294797D01*
Y98099D01*
X294198Y97499D01*
X297197D02*
X297797Y98099D01*
X298996D01*
X299596Y97499D01*
Y96899D01*
X298996Y96299D01*
X299596Y95700D01*
Y95100D01*
X298996Y94500D01*
X297797D01*
X297197Y95100D01*
Y95700D01*
X297797Y96299D01*
X297197Y96899D01*
Y97499D01*
X297797Y96299D02*
X298996D01*
X134500Y57099D02*
X136899D01*
X135700D01*
Y53500D01*
X138099D02*
Y57099D01*
X139898D01*
X140498Y56499D01*
Y55299D01*
X139898Y54700D01*
X138099D01*
X141698Y53500D02*
X142897D01*
X142297D01*
Y57099D01*
X141698Y56499D01*
X144697Y57099D02*
X147096D01*
Y56499D01*
X144697Y54100D01*
Y53500D01*
X267000Y115599D02*
X269399D01*
X268200D01*
Y112000D01*
X270599D02*
Y115599D01*
X272398D01*
X272998Y114999D01*
Y113799D01*
X272398Y113200D01*
X270599D01*
X274198Y112000D02*
X275397D01*
X274798D01*
Y115599D01*
X274198Y114999D01*
X279596Y115599D02*
X278396Y114999D01*
X277197Y113799D01*
Y112600D01*
X277797Y112000D01*
X278996D01*
X279596Y112600D01*
Y113200D01*
X278996Y113799D01*
X277197D01*
X250000Y69599D02*
X252399D01*
X251200D01*
Y66000D01*
X253599D02*
Y69599D01*
X255398D01*
X255998Y68999D01*
Y67799D01*
X255398Y67200D01*
X253599D01*
X257198Y66000D02*
X258397D01*
X257798D01*
Y69599D01*
X257198Y68999D01*
X262596Y69599D02*
X260197D01*
Y67799D01*
X261396Y68399D01*
X261996D01*
X262596Y67799D01*
Y66600D01*
X261996Y66000D01*
X260796D01*
X260197Y66600D01*
X250000Y76099D02*
X252399D01*
X251200D01*
Y72500D01*
X253599D02*
Y76099D01*
X255398D01*
X255998Y75499D01*
Y74299D01*
X255398Y73700D01*
X253599D01*
X257198Y72500D02*
X258397D01*
X257798D01*
Y76099D01*
X257198Y75499D01*
X261996Y72500D02*
Y76099D01*
X260197Y74299D01*
X262596D01*
X250000Y90099D02*
X252399D01*
X251200D01*
Y86500D01*
X253599D02*
Y90099D01*
X255398D01*
X255998Y89499D01*
Y88299D01*
X255398Y87700D01*
X253599D01*
X257198Y86500D02*
X258397D01*
X257798D01*
Y90099D01*
X257198Y89499D01*
X262596Y86500D02*
X260197D01*
X262596Y88899D01*
Y89499D01*
X261996Y90099D01*
X260796D01*
X260197Y89499D01*
X156343Y105499D02*
X158742D01*
X157542D01*
Y101900D01*
X159941D02*
Y105499D01*
X161741D01*
X162341Y104899D01*
Y103699D01*
X161741Y103100D01*
X159941D01*
X163540Y101900D02*
X164740D01*
X164140D01*
Y105499D01*
X163540Y104899D01*
X166539Y101900D02*
X167739D01*
X167139D01*
Y105499D01*
X166539Y104899D01*
X156000Y118099D02*
X158399D01*
X157200D01*
Y114500D01*
X159599D02*
Y118099D01*
X161398D01*
X161998Y117499D01*
Y116299D01*
X161398Y115700D01*
X159599D01*
X163198Y114500D02*
X164397D01*
X163797D01*
Y118099D01*
X163198Y117499D01*
X166197D02*
X166797Y118099D01*
X167996D01*
X168596Y117499D01*
Y115100D01*
X167996Y114500D01*
X166797D01*
X166197Y115100D01*
Y117499D01*
X156000Y130099D02*
X158399D01*
X157200D01*
Y126500D01*
X159599D02*
Y130099D01*
X161398D01*
X161998Y129499D01*
Y128299D01*
X161398Y127700D01*
X159599D01*
X163198Y127100D02*
X163797Y126500D01*
X164997D01*
X165597Y127100D01*
Y129499D01*
X164997Y130099D01*
X163797D01*
X163198Y129499D01*
Y128899D01*
X163797Y128299D01*
X165597D01*
X156000Y141599D02*
X158399D01*
X157200D01*
Y138000D01*
X159599D02*
Y141599D01*
X161398D01*
X161998Y140999D01*
Y139799D01*
X161398Y139200D01*
X159599D01*
X163198Y140999D02*
X163797Y141599D01*
X164997D01*
X165597Y140999D01*
Y140399D01*
X164997Y139799D01*
X165597Y139200D01*
Y138600D01*
X164997Y138000D01*
X163797D01*
X163198Y138600D01*
Y139200D01*
X163797Y139799D01*
X163198Y140399D01*
Y140999D01*
X163797Y139799D02*
X164997D01*
X291000Y256500D02*
Y260099D01*
X292799D01*
X293399Y259499D01*
Y258299D01*
X292799Y257700D01*
X291000D01*
X292200D02*
X293399Y256500D01*
X296998D02*
X294599D01*
X296998Y258899D01*
Y259499D01*
X296398Y260099D01*
X295199D01*
X294599Y259499D01*
X298198Y257100D02*
X298797Y256500D01*
X299997D01*
X300597Y257100D01*
Y259499D01*
X299997Y260099D01*
X298797D01*
X298198Y259499D01*
Y258899D01*
X298797Y258299D01*
X300597D01*
X305000Y256500D02*
Y260099D01*
X306799D01*
X307399Y259499D01*
Y258299D01*
X306799Y257700D01*
X305000D01*
X306200D02*
X307399Y256500D01*
X310998D02*
X308599D01*
X310998Y258899D01*
Y259499D01*
X310398Y260099D01*
X309199D01*
X308599Y259499D01*
X312198D02*
X312797Y260099D01*
X313997D01*
X314597Y259499D01*
Y258899D01*
X313997Y258299D01*
X314597Y257700D01*
Y257100D01*
X313997Y256500D01*
X312797D01*
X312198Y257100D01*
Y257700D01*
X312797Y258299D01*
X312198Y258899D01*
Y259499D01*
X312797Y258299D02*
X313997D01*
X179500Y66000D02*
Y69599D01*
X181299D01*
X181899Y68999D01*
Y67799D01*
X181299Y67200D01*
X179500D01*
X180700D02*
X181899Y66000D01*
X185498D02*
X183099D01*
X185498Y68399D01*
Y68999D01*
X184898Y69599D01*
X183699D01*
X183099Y68999D01*
X186698Y69599D02*
X189097D01*
Y68999D01*
X186698Y66600D01*
Y66000D01*
X198492Y51000D02*
Y54599D01*
X200292D01*
X200891Y53999D01*
Y52799D01*
X200292Y52200D01*
X198492D01*
X199692D02*
X200891Y51000D01*
X204490D02*
X202091D01*
X204490Y53399D01*
Y53999D01*
X203890Y54599D01*
X202691D01*
X202091Y53999D01*
X208089Y54599D02*
X206889Y53999D01*
X205690Y52799D01*
Y51600D01*
X206290Y51000D01*
X207489D01*
X208089Y51600D01*
Y52200D01*
X207489Y52799D01*
X205690D01*
X177135Y85001D02*
Y88600D01*
X178935D01*
X179535Y88000D01*
Y86800D01*
X178935Y86201D01*
X177135D01*
X178335D02*
X179535Y85001D01*
X183133D02*
X180734D01*
X183133Y87400D01*
Y88000D01*
X182534Y88600D01*
X181334D01*
X180734Y88000D01*
X186732Y88600D02*
X184333D01*
Y86800D01*
X185533Y87400D01*
X186133D01*
X186732Y86800D01*
Y85601D01*
X186133Y85001D01*
X184933D01*
X184333Y85601D01*
X197500Y67958D02*
Y71556D01*
X199299D01*
X199899Y70956D01*
Y69757D01*
X199299Y69157D01*
X197500D01*
X198700D02*
X199899Y67958D01*
X203498D02*
X201099D01*
X203498Y70357D01*
Y70956D01*
X202898Y71556D01*
X201699D01*
X201099Y70956D01*
X206497Y67958D02*
Y71556D01*
X204698Y69757D01*
X207097D01*
X367500Y64000D02*
Y67599D01*
X369299D01*
X369899Y66999D01*
Y65799D01*
X369299Y65200D01*
X367500D01*
X368700D02*
X369899Y64000D01*
X373498D02*
X371099D01*
X373498Y66399D01*
Y66999D01*
X372898Y67599D01*
X371699D01*
X371099Y66999D01*
X374698D02*
X375297Y67599D01*
X376497D01*
X377097Y66999D01*
Y66399D01*
X376497Y65799D01*
X375897D01*
X376497D01*
X377097Y65200D01*
Y64600D01*
X376497Y64000D01*
X375297D01*
X374698Y64600D01*
X357093Y211000D02*
Y214599D01*
X358892D01*
X359492Y213999D01*
Y212799D01*
X358892Y212200D01*
X357093D01*
X358293D02*
X359492Y211000D01*
X363091D02*
X360692D01*
X363091Y213399D01*
Y213999D01*
X362491Y214599D01*
X361292D01*
X360692Y213999D01*
X366690Y211000D02*
X364291D01*
X366690Y213399D01*
Y213999D01*
X366090Y214599D01*
X364890D01*
X364291Y213999D01*
X324399Y255600D02*
Y257999D01*
X323799Y258599D01*
X322600D01*
X322000Y257999D01*
Y255600D01*
X322600Y255000D01*
X323799D01*
X323200Y256200D02*
X324399Y255000D01*
X323799D02*
X324399Y255600D01*
X327998Y255000D02*
X325599D01*
X327998Y257399D01*
Y257999D01*
X327398Y258599D01*
X326199D01*
X325599Y257999D01*
X213599Y155699D02*
X212999Y156299D01*
X211800D01*
X211200Y155699D01*
Y153300D01*
X211800Y152700D01*
X212999D01*
X213599Y153300D01*
X217198Y152700D02*
X214799D01*
X217198Y155099D01*
Y155699D01*
X216598Y156299D01*
X215399D01*
X214799Y155699D01*
X218398D02*
X218998Y156299D01*
X220197D01*
X220797Y155699D01*
Y155099D01*
X220197Y154499D01*
X220797Y153900D01*
Y153300D01*
X220197Y152700D01*
X218998D01*
X218398Y153300D01*
Y153900D01*
X218998Y154499D01*
X218398Y155099D01*
Y155699D01*
X218998Y154499D02*
X220197D01*
X181899Y153999D02*
X181299Y154599D01*
X180100D01*
X179500Y153999D01*
Y151600D01*
X180100Y151000D01*
X181299D01*
X181899Y151600D01*
X185498Y151000D02*
X183099D01*
X185498Y153399D01*
Y153999D01*
X184898Y154599D01*
X183699D01*
X183099Y153999D01*
X186698Y154599D02*
X189097D01*
Y153999D01*
X186698Y151600D01*
Y151000D01*
X341132Y200639D02*
X340532Y201239D01*
X339333D01*
X338733Y200639D01*
Y198240D01*
X339333Y197640D01*
X340532D01*
X341132Y198240D01*
X344731Y197640D02*
X342332D01*
X344731Y200039D01*
Y200639D01*
X344131Y201239D01*
X342932D01*
X342332Y200639D01*
X348330Y201239D02*
X347130Y200639D01*
X345931Y199440D01*
Y198240D01*
X346531Y197640D01*
X347730D01*
X348330Y198240D01*
Y198840D01*
X347730Y199440D01*
X345931D01*
X97000Y230099D02*
X99399D01*
X98200D01*
Y226500D01*
X100599D02*
Y230099D01*
X102398D01*
X102998Y229499D01*
Y228299D01*
X102398Y227700D01*
X100599D01*
X104198Y230099D02*
X106597D01*
Y229499D01*
X104198Y227100D01*
Y226500D01*
X205000Y164739D02*
X207399D01*
X206200D01*
Y161140D01*
X208599D02*
Y164739D01*
X210398D01*
X210998Y164139D01*
Y162940D01*
X210398Y162340D01*
X208599D01*
X214597Y164739D02*
X213397Y164139D01*
X212198Y162940D01*
Y161740D01*
X212797Y161140D01*
X213997D01*
X214597Y161740D01*
Y162340D01*
X213997Y162940D01*
X212198D01*
X80000Y263599D02*
X82399D01*
X81200D01*
Y260000D01*
X83599D02*
Y263599D01*
X85398D01*
X85998Y262999D01*
Y261799D01*
X85398Y261200D01*
X83599D01*
X89597Y263599D02*
X87198D01*
Y261799D01*
X88397Y262399D01*
X88997D01*
X89597Y261799D01*
Y260600D01*
X88997Y260000D01*
X87797D01*
X87198Y260600D01*
X149857Y241099D02*
X152257D01*
X151057D01*
Y237500D01*
X153456D02*
Y241099D01*
X155256D01*
X155856Y240499D01*
Y239299D01*
X155256Y238700D01*
X153456D01*
X158854Y237500D02*
Y241099D01*
X157055Y239299D01*
X159454D01*
X148500Y210139D02*
X150899D01*
X149700D01*
Y206540D01*
X152099D02*
Y210139D01*
X153898D01*
X154498Y209539D01*
Y208340D01*
X153898Y207740D01*
X152099D01*
X155698Y209539D02*
X156298Y210139D01*
X157497D01*
X158097Y209539D01*
Y208939D01*
X157497Y208340D01*
X156897D01*
X157497D01*
X158097Y207740D01*
Y207140D01*
X157497Y206540D01*
X156298D01*
X155698Y207140D01*
X206550Y177149D02*
X208949D01*
X207750D01*
Y173550D01*
X210149D02*
Y177149D01*
X211948D01*
X212548Y176549D01*
Y175349D01*
X211948Y174750D01*
X210149D01*
X216147Y173550D02*
X213748D01*
X216147Y175949D01*
Y176549D01*
X215547Y177149D01*
X214348D01*
X213748Y176549D01*
X166000Y186099D02*
Y183100D01*
X166600Y182500D01*
X167799D01*
X168399Y183100D01*
Y186099D01*
X171998D02*
X169599D01*
Y184299D01*
X170799Y184899D01*
X171398D01*
X171998Y184299D01*
Y183100D01*
X171398Y182500D01*
X170199D01*
X169599Y183100D01*
X377500Y123500D02*
Y127099D01*
X379299D01*
X379899Y126499D01*
Y125299D01*
X379299Y124700D01*
X377500D01*
X381099Y126499D02*
X381699Y127099D01*
X382898D01*
X383498Y126499D01*
Y125899D01*
X382898Y125299D01*
X383498Y124700D01*
Y124100D01*
X382898Y123500D01*
X381699D01*
X381099Y124100D01*
Y124700D01*
X381699Y125299D01*
X381099Y125899D01*
Y126499D01*
X381699Y125299D02*
X382898D01*
X181000Y15500D02*
Y19099D01*
X182799D01*
X183399Y18499D01*
Y17299D01*
X182799Y16700D01*
X181000D01*
X184599Y19099D02*
X186998D01*
Y18499D01*
X184599Y16100D01*
Y15500D01*
X123500Y176540D02*
Y180139D01*
X125299D01*
X125899Y179539D01*
Y178340D01*
X125299Y177740D01*
X123500D01*
X129498Y180139D02*
X128298Y179539D01*
X127099Y178340D01*
Y177140D01*
X127699Y176540D01*
X128898D01*
X129498Y177140D01*
Y177740D01*
X128898Y178340D01*
X127099D01*
X20000Y136500D02*
Y140099D01*
X21799D01*
X22399Y139499D01*
Y138299D01*
X21799Y137700D01*
X20000D01*
X25398Y136500D02*
Y140099D01*
X23599Y138299D01*
X25998D01*
X221899Y113999D02*
X221299Y114599D01*
X220100D01*
X219500Y113999D01*
Y111600D01*
X220100Y111000D01*
X221299D01*
X221899Y111600D01*
X225498Y111000D02*
X223099D01*
X225498Y113399D01*
Y113999D01*
X224898Y114599D01*
X223699D01*
X223099Y113999D01*
X229097Y114599D02*
X226698D01*
Y112799D01*
X227897Y113399D01*
X228497D01*
X229097Y112799D01*
Y111600D01*
X228497Y111000D01*
X227297D01*
X226698Y111600D01*
X127000Y272099D02*
Y269100D01*
X127600Y268500D01*
X128799D01*
X129399Y269100D01*
Y272099D01*
X132398Y268500D02*
Y272099D01*
X130599Y270299D01*
X132998D01*
X171000Y242823D02*
Y239824D01*
X171600Y239224D01*
X172799D01*
X173399Y239824D01*
Y242823D01*
X174599Y242223D02*
X175199Y242823D01*
X176398D01*
X176998Y242223D01*
Y241624D01*
X176398Y241024D01*
X175798D01*
X176398D01*
X176998Y240424D01*
Y239824D01*
X176398Y239224D01*
X175199D01*
X174599Y239824D01*
X68500Y125599D02*
Y122600D01*
X69100Y122000D01*
X70299D01*
X70899Y122600D01*
Y125599D01*
X74498Y122000D02*
X72099D01*
X74498Y124399D01*
Y124999D01*
X73898Y125599D01*
X72699D01*
X72099Y124999D01*
X110500Y237386D02*
Y240984D01*
X112299D01*
X112899Y240385D01*
Y239185D01*
X112299Y238585D01*
X110500D01*
X111700D02*
X112899Y237386D01*
X116498D02*
X114099D01*
X116498Y239785D01*
Y240385D01*
X115898Y240984D01*
X114699D01*
X114099Y240385D01*
X117698D02*
X118298Y240984D01*
X119497D01*
X120097Y240385D01*
Y237985D01*
X119497Y237386D01*
X118298D01*
X117698Y237985D01*
Y240385D01*
X104240Y258000D02*
Y261599D01*
X106040D01*
X106639Y260999D01*
Y259799D01*
X106040Y259200D01*
X104240D01*
X105440D02*
X106639Y258000D01*
X107839D02*
X109039D01*
X108439D01*
Y261599D01*
X107839Y260999D01*
X110838Y258600D02*
X111438Y258000D01*
X112637D01*
X113237Y258600D01*
Y260999D01*
X112637Y261599D01*
X111438D01*
X110838Y260999D01*
Y260399D01*
X111438Y259799D01*
X113237D01*
X94000Y274500D02*
Y278099D01*
X95799D01*
X96399Y277499D01*
Y276299D01*
X95799Y275700D01*
X94000D01*
X95200D02*
X96399Y274500D01*
X97599D02*
X98799D01*
X98199D01*
Y278099D01*
X97599Y277499D01*
X100598D02*
X101198Y278099D01*
X102397D01*
X102997Y277499D01*
Y276899D01*
X102397Y276299D01*
X102997Y275700D01*
Y275100D01*
X102397Y274500D01*
X101198D01*
X100598Y275100D01*
Y275700D01*
X101198Y276299D01*
X100598Y276899D01*
Y277499D01*
X101198Y276299D02*
X102397D01*
X72000Y243000D02*
Y246599D01*
X73799D01*
X74399Y245999D01*
Y244799D01*
X73799Y244200D01*
X72000D01*
X73200D02*
X74399Y243000D01*
X75599D02*
X76798D01*
X76199D01*
Y246599D01*
X75599Y245999D01*
X78598Y246599D02*
X80997D01*
Y245999D01*
X78598Y243600D01*
Y243000D01*
X164000Y214200D02*
Y217799D01*
X165799D01*
X166399Y217199D01*
Y215999D01*
X165799Y215400D01*
X164000D01*
X165200D02*
X166399Y214200D01*
X167599D02*
X168798D01*
X168199D01*
Y217799D01*
X167599Y217199D01*
X172997Y217799D02*
X171798Y217199D01*
X170598Y215999D01*
Y214800D01*
X171198Y214200D01*
X172397D01*
X172997Y214800D01*
Y215400D01*
X172397Y215999D01*
X170598D01*
X129399Y318100D02*
Y320499D01*
X128799Y321099D01*
X127600D01*
X127000Y320499D01*
Y318100D01*
X127600Y317500D01*
X128799D01*
X128200Y318700D02*
X129399Y317500D01*
X128799D02*
X129399Y318100D01*
X130599Y317500D02*
X131799D01*
X131199D01*
Y321099D01*
X130599Y320499D01*
X103000Y293099D02*
Y289500D01*
X104799D01*
X105399Y290100D01*
Y292499D01*
X104799Y293099D01*
X103000D01*
X108998Y289500D02*
X106599D01*
X108998Y291899D01*
Y292499D01*
X108398Y293099D01*
X107199D01*
X106599Y292499D01*
X30000Y322599D02*
Y319000D01*
X31799D01*
X32399Y319600D01*
Y321999D01*
X31799Y322599D01*
X30000D01*
X33599Y319000D02*
X34798D01*
X34199D01*
Y322599D01*
X33599Y321999D01*
X165899Y167999D02*
X165299Y168599D01*
X164100D01*
X163500Y167999D01*
Y165600D01*
X164100Y165000D01*
X165299D01*
X165899Y165600D01*
X169498Y165000D02*
X167099D01*
X169498Y167399D01*
Y167999D01*
X168898Y168599D01*
X167699D01*
X167099Y167999D01*
X172497Y165000D02*
Y168599D01*
X170698Y166799D01*
X173097D01*
X183399Y199844D02*
X182799Y200444D01*
X181600D01*
X181000Y199844D01*
Y197445D01*
X181600Y196845D01*
X182799D01*
X183399Y197445D01*
X186998Y196845D02*
X184599D01*
X186998Y199244D01*
Y199844D01*
X186398Y200444D01*
X185199D01*
X184599Y199844D01*
X188198D02*
X188797Y200444D01*
X189997D01*
X190597Y199844D01*
Y199244D01*
X189997Y198644D01*
X189397D01*
X189997D01*
X190597Y198045D01*
Y197445D01*
X189997Y196845D01*
X188797D01*
X188198Y197445D01*
X159735Y270099D02*
X159135Y270699D01*
X157935D01*
X157335Y270099D01*
Y267700D01*
X157935Y267100D01*
X159135D01*
X159735Y267700D01*
X163333Y267100D02*
X160934D01*
X163333Y269499D01*
Y270099D01*
X162734Y270699D01*
X161534D01*
X160934Y270099D01*
X166932Y267100D02*
X164533D01*
X166932Y269499D01*
Y270099D01*
X166332Y270699D01*
X165133D01*
X164533Y270099D01*
X145899Y285999D02*
X145299Y286599D01*
X144100D01*
X143500Y285999D01*
Y283600D01*
X144100Y283000D01*
X145299D01*
X145899Y283600D01*
X149498Y283000D02*
X147099D01*
X149498Y285399D01*
Y285999D01*
X148898Y286599D01*
X147699D01*
X147099Y285999D01*
X150698Y283000D02*
X151897D01*
X151297D01*
Y286599D01*
X150698Y285999D01*
X173899Y254999D02*
X173299Y255599D01*
X172100D01*
X171500Y254999D01*
Y252600D01*
X172100Y252000D01*
X173299D01*
X173899Y252600D01*
X177498Y252000D02*
X175099D01*
X177498Y254399D01*
Y254999D01*
X176898Y255599D01*
X175699D01*
X175099Y254999D01*
X178698D02*
X179297Y255599D01*
X180497D01*
X181097Y254999D01*
Y252600D01*
X180497Y252000D01*
X179297D01*
X178698Y252600D01*
Y254999D01*
X156399Y349499D02*
X155799Y350099D01*
X154600D01*
X154000Y349499D01*
Y347100D01*
X154600Y346500D01*
X155799D01*
X156399Y347100D01*
X157599Y346500D02*
X158799D01*
X158199D01*
Y350099D01*
X157599Y349499D01*
X160598Y347100D02*
X161198Y346500D01*
X162397D01*
X162997Y347100D01*
Y349499D01*
X162397Y350099D01*
X161198D01*
X160598Y349499D01*
Y348899D01*
X161198Y348299D01*
X162997D01*
X183899Y215499D02*
X183299Y216099D01*
X182100D01*
X181500Y215499D01*
Y213100D01*
X182100Y212500D01*
X183299D01*
X183899Y213100D01*
X185099Y212500D02*
X186299D01*
X185699D01*
Y216099D01*
X185099Y215499D01*
X188098Y216099D02*
X190497D01*
Y215499D01*
X188098Y213100D01*
Y212500D01*
X45399Y41499D02*
X44799Y42099D01*
X43600D01*
X43000Y41499D01*
Y39100D01*
X43600Y38500D01*
X44799D01*
X45399Y39100D01*
X46599Y38500D02*
X47798D01*
X47199D01*
Y42099D01*
X46599Y41499D01*
X51997Y42099D02*
X50797Y41499D01*
X49598Y40299D01*
Y39100D01*
X50198Y38500D01*
X51397D01*
X51997Y39100D01*
Y39700D01*
X51397Y40299D01*
X49598D01*
X116399Y95499D02*
X115799Y96099D01*
X114600D01*
X114000Y95499D01*
Y93100D01*
X114600Y92500D01*
X115799D01*
X116399Y93100D01*
X117599Y92500D02*
X118798D01*
X118199D01*
Y96099D01*
X117599Y95499D01*
X122997Y96099D02*
X120598D01*
Y94299D01*
X121798Y94899D01*
X122397D01*
X122997Y94299D01*
Y93100D01*
X122397Y92500D01*
X121198D01*
X120598Y93100D01*
X84299Y137599D02*
X83699Y138199D01*
X82500D01*
X81900Y137599D01*
Y135200D01*
X82500Y134600D01*
X83699D01*
X84299Y135200D01*
X85499Y134600D02*
X86699D01*
X86099D01*
Y138199D01*
X85499Y137599D01*
X90297Y134600D02*
Y138199D01*
X88498Y136399D01*
X90897D01*
X49899Y108499D02*
X49299Y109099D01*
X48100D01*
X47500Y108499D01*
Y106100D01*
X48100Y105500D01*
X49299D01*
X49899Y106100D01*
X51099Y105500D02*
X52298D01*
X51699D01*
Y109099D01*
X51099Y108499D01*
X54098D02*
X54698Y109099D01*
X55897D01*
X56497Y108499D01*
Y107899D01*
X55897Y107299D01*
X55297D01*
X55897D01*
X56497Y106700D01*
Y106100D01*
X55897Y105500D01*
X54698D01*
X54098Y106100D01*
X106899Y58499D02*
X106299Y59099D01*
X105100D01*
X104500Y58499D01*
Y56100D01*
X105100Y55500D01*
X106299D01*
X106899Y56100D01*
X108099Y55500D02*
X109299D01*
X108699D01*
Y59099D01*
X108099Y58499D01*
X113497Y55500D02*
X111098D01*
X113497Y57899D01*
Y58499D01*
X112897Y59099D01*
X111698D01*
X111098Y58499D01*
X87099Y35999D02*
X86499Y36599D01*
X85300D01*
X84700Y35999D01*
Y33600D01*
X85300Y33000D01*
X86499D01*
X87099Y33600D01*
X88299Y33000D02*
X89499D01*
X88899D01*
Y36599D01*
X88299Y35999D01*
X91298Y33000D02*
X92497D01*
X91898D01*
Y36599D01*
X91298Y35999D01*
X131899Y103499D02*
X131299Y104099D01*
X130100D01*
X129500Y103499D01*
Y101100D01*
X130100Y100500D01*
X131299D01*
X131899Y101100D01*
X133099Y100500D02*
X134299D01*
X133699D01*
Y104099D01*
X133099Y103499D01*
X136098D02*
X136698Y104099D01*
X137897D01*
X138497Y103499D01*
Y101100D01*
X137897Y100500D01*
X136698D01*
X136098Y101100D01*
Y103499D01*
X47899Y84499D02*
X47299Y85099D01*
X46100D01*
X45500Y84499D01*
Y82100D01*
X46100Y81500D01*
X47299D01*
X47899Y82100D01*
X49099D02*
X49699Y81500D01*
X50898D01*
X51498Y82100D01*
Y84499D01*
X50898Y85099D01*
X49699D01*
X49099Y84499D01*
Y83899D01*
X49699Y83299D01*
X51498D01*
X327000Y120000D02*
Y123599D01*
X328799D01*
X329399Y122999D01*
Y121799D01*
X328799Y121200D01*
X327000D01*
X328200D02*
X329399Y120000D01*
X330599D02*
X331799D01*
X331199D01*
Y123599D01*
X330599Y122999D01*
X335997Y123599D02*
X333598D01*
Y121799D01*
X334798Y122399D01*
X335397D01*
X335997Y121799D01*
Y120600D01*
X335397Y120000D01*
X334198D01*
X333598Y120600D01*
X307500Y226584D02*
Y230183D01*
X309299D01*
X309899Y229583D01*
Y228384D01*
X309299Y227784D01*
X307500D01*
X308700D02*
X309899Y226584D01*
X311099D02*
X312298D01*
X311699D01*
Y230183D01*
X311099Y229583D01*
X315897Y226584D02*
Y230183D01*
X314098Y228384D01*
X316497D01*
X362000Y82500D02*
Y86099D01*
X363799D01*
X364399Y85499D01*
Y84299D01*
X363799Y83700D01*
X362000D01*
X363200D02*
X364399Y82500D01*
X365599D02*
X366798D01*
X366199D01*
Y86099D01*
X365599Y85499D01*
X368598D02*
X369198Y86099D01*
X370397D01*
X370997Y85499D01*
Y84899D01*
X370397Y84299D01*
X369797D01*
X370397D01*
X370997Y83700D01*
Y83100D01*
X370397Y82500D01*
X369198D01*
X368598Y83100D01*
X330000Y60000D02*
Y63599D01*
X331799D01*
X332399Y62999D01*
Y61799D01*
X331799Y61200D01*
X330000D01*
X331200D02*
X332399Y60000D01*
X333599D02*
X334799D01*
X334199D01*
Y63599D01*
X333599Y62999D01*
X338997Y60000D02*
X336598D01*
X338997Y62399D01*
Y62999D01*
X338397Y63599D01*
X337198D01*
X336598Y62999D01*
X354000Y194500D02*
Y198099D01*
X355799D01*
X356399Y197499D01*
Y196299D01*
X355799Y195700D01*
X354000D01*
X355200D02*
X356399Y194500D01*
X357599D02*
X358799D01*
X358199D01*
Y198099D01*
X357599Y197499D01*
X360598Y194500D02*
X361797D01*
X361198D01*
Y198099D01*
X360598Y197499D01*
X339500Y191240D02*
Y194839D01*
X341299D01*
X341899Y194239D01*
Y193040D01*
X341299Y192440D01*
X339500D01*
X340700D02*
X341899Y191240D01*
X343099D02*
X344299D01*
X343699D01*
Y194839D01*
X343099Y194239D01*
X346098D02*
X346698Y194839D01*
X347897D01*
X348497Y194239D01*
Y191840D01*
X347897Y191240D01*
X346698D01*
X346098Y191840D01*
Y194239D01*
X286500Y194000D02*
Y197599D01*
X288299D01*
X288899Y196999D01*
Y195799D01*
X288299Y195200D01*
X286500D01*
X287700D02*
X288899Y194000D01*
X290099Y194600D02*
X290699Y194000D01*
X291898D01*
X292498Y194600D01*
Y196999D01*
X291898Y197599D01*
X290699D01*
X290099Y196999D01*
Y196399D01*
X290699Y195799D01*
X292498D01*
X328000Y158853D02*
Y162452D01*
X329799D01*
X330399Y161853D01*
Y160653D01*
X329799Y160053D01*
X328000D01*
X329200D02*
X330399Y158853D01*
X331599Y161853D02*
X332199Y162452D01*
X333398D01*
X333998Y161853D01*
Y161253D01*
X333398Y160653D01*
X333998Y160053D01*
Y159453D01*
X333398Y158853D01*
X332199D01*
X331599Y159453D01*
Y160053D01*
X332199Y160653D01*
X331599Y161253D01*
Y161853D01*
X332199Y160653D02*
X333398D01*
X355000Y171000D02*
Y174599D01*
X356799D01*
X357399Y173999D01*
Y172799D01*
X356799Y172200D01*
X355000D01*
X356200D02*
X357399Y171000D01*
X358599Y174599D02*
X360998D01*
Y173999D01*
X358599Y171600D01*
Y171000D01*
X341000Y170500D02*
Y174099D01*
X342799D01*
X343399Y173499D01*
Y172299D01*
X342799Y171700D01*
X341000D01*
X342200D02*
X343399Y170500D01*
X346998Y174099D02*
X345798Y173499D01*
X344599Y172299D01*
Y171100D01*
X345199Y170500D01*
X346398D01*
X346998Y171100D01*
Y171700D01*
X346398Y172299D01*
X344599D01*
X258500Y210000D02*
Y213599D01*
X260299D01*
X260899Y212999D01*
Y211799D01*
X260299Y211200D01*
X258500D01*
X259700D02*
X260899Y210000D01*
X264498Y213599D02*
X262099D01*
Y211799D01*
X263299Y212399D01*
X263898D01*
X264498Y211799D01*
Y210600D01*
X263898Y210000D01*
X262699D01*
X262099Y210600D01*
X239500Y106000D02*
Y109599D01*
X241299D01*
X241899Y108999D01*
Y107799D01*
X241299Y107200D01*
X239500D01*
X240700D02*
X241899Y106000D01*
X244898D02*
Y109599D01*
X243099Y107799D01*
X245498D01*
X239500Y112000D02*
Y115599D01*
X241299D01*
X241899Y114999D01*
Y113799D01*
X241299Y113200D01*
X239500D01*
X240700D02*
X241899Y112000D01*
X243099Y114999D02*
X243699Y115599D01*
X244898D01*
X245498Y114999D01*
Y114399D01*
X244898Y113799D01*
X244299D01*
X244898D01*
X245498Y113200D01*
Y112600D01*
X244898Y112000D01*
X243699D01*
X243099Y112600D01*
X234000Y149000D02*
Y152599D01*
X235799D01*
X236399Y151999D01*
Y150799D01*
X235799Y150200D01*
X234000D01*
X235200D02*
X236399Y149000D01*
X239998D02*
X237599D01*
X239998Y151399D01*
Y151999D01*
X239398Y152599D01*
X238199D01*
X237599Y151999D01*
X234000Y155000D02*
Y158599D01*
X235799D01*
X236399Y157999D01*
Y156799D01*
X235799Y156200D01*
X234000D01*
X235200D02*
X236399Y155000D01*
X237599D02*
X238798D01*
X238199D01*
Y158599D01*
X237599Y157999D01*
X321399Y141499D02*
X320799Y142099D01*
X319600D01*
X319000Y141499D01*
Y139100D01*
X319600Y138500D01*
X320799D01*
X321399Y139100D01*
X322599Y141499D02*
X323199Y142099D01*
X324398D01*
X324998Y141499D01*
Y140899D01*
X324398Y140299D01*
X324998Y139700D01*
Y139100D01*
X324398Y138500D01*
X323199D01*
X322599Y139100D01*
Y139700D01*
X323199Y140299D01*
X322599Y140899D01*
Y141499D01*
X323199Y140299D02*
X324398D01*
X242399Y186499D02*
X241799Y187099D01*
X240600D01*
X240000Y186499D01*
Y184100D01*
X240600Y183500D01*
X241799D01*
X242399Y184100D01*
X243599Y187099D02*
X245998D01*
Y186499D01*
X243599Y184100D01*
Y183500D01*
X292399Y124499D02*
X291799Y125099D01*
X290600D01*
X290000Y124499D01*
Y122100D01*
X290600Y121500D01*
X291799D01*
X292399Y122100D01*
X295998Y125099D02*
X294798Y124499D01*
X293599Y123299D01*
Y122100D01*
X294199Y121500D01*
X295398D01*
X295998Y122100D01*
Y122700D01*
X295398Y123299D01*
X293599D01*
X288399Y205999D02*
X287799Y206599D01*
X286600D01*
X286000Y205999D01*
Y203600D01*
X286600Y203000D01*
X287799D01*
X288399Y203600D01*
X291998Y206599D02*
X289599D01*
Y204799D01*
X290798Y205399D01*
X291398D01*
X291998Y204799D01*
Y203600D01*
X291398Y203000D01*
X290199D01*
X289599Y203600D01*
X252399Y207499D02*
X251799Y208099D01*
X250600D01*
X250000Y207499D01*
Y205100D01*
X250600Y204500D01*
X251799D01*
X252399Y205100D01*
X255398Y204500D02*
Y208099D01*
X253599Y206299D01*
X255998D01*
X303399Y212584D02*
X302799Y213184D01*
X301600D01*
X301000Y212584D01*
Y210185D01*
X301600Y209585D01*
X302799D01*
X303399Y210185D01*
X304599Y212584D02*
X305199Y213184D01*
X306398D01*
X306998Y212584D01*
Y211984D01*
X306398Y211385D01*
X305799D01*
X306398D01*
X306998Y210785D01*
Y210185D01*
X306398Y209585D01*
X305199D01*
X304599Y210185D01*
X273399Y135967D02*
X272799Y136566D01*
X271600D01*
X271000Y135967D01*
Y133567D01*
X271600Y132967D01*
X272799D01*
X273399Y133567D01*
X276998Y132967D02*
X274599D01*
X276998Y135367D01*
Y135967D01*
X276398Y136566D01*
X275199D01*
X274599Y135967D01*
X322641Y208499D02*
X322041Y209099D01*
X320842D01*
X320242Y208499D01*
Y206100D01*
X320842Y205500D01*
X322041D01*
X322641Y206100D01*
X323840Y205500D02*
X325040D01*
X324440D01*
Y209099D01*
X323840Y208499D01*
D16*
X307250Y18000D02*
D03*
D17*
X111376Y278000D02*
D03*
M02*
